<?xml version="1.0" encoding="UTF-8" standalone="no"?>
<!DOCTYPE svg PUBLIC "-//W3C//DTD SVG 1.1//EN"
 "http://www.w3.org/Graphics/SVG/1.1/DTD/svg11.dtd">
<!-- Generated by graphviz version 2.38.0 (20140413.2041)
 -->
<!-- Title: g Pages: 1 -->
<svg width="869pt" height="112pt"
 viewBox="0.00 0.00 869.00 112.00" xmlns="http://www.w3.org/2000/svg" xmlns:xlink="http://www.w3.org/1999/xlink">
<g id="graph0" class="graph" transform="scale(1 1) rotate(0) translate(4 108)">
<title>g</title>
<polygon fill="white" stroke="none" points="-4,4 -4,-108 865,-108 865,4 -4,4"/>
<!-- users -->
<g id="node1" class="node"><title>users</title>
<polygon fill="none" stroke="black" points="8.5,-76 8.5,-100 853.5,-100 853.5,-76 8.5,-76"/>
<text text-anchor="start" x="415" y="-85.2" font-family="Times,serif" font-weight="bold" font-size="16.00">sales</text>
<polygon fill="none" stroke="black" points="8.5,-52 8.5,-76 39.5,-76 39.5,-52 8.5,-52"/>
<text text-anchor="start" x="17.5" y="-60.2" font-family="Times,serif" font-size="16.00">id</text>
<polygon fill="none" stroke="black" points="39.5,-52 39.5,-76 153.5,-76 153.5,-52 39.5,-52"/>
<text text-anchor="start" x="52.5" y="-60.2" font-family="Times,serif" font-size="16.00">timstamp_utc</text>
<polygon fill="none" stroke="black" points="153.5,-52 153.5,-76 437.5,-76 437.5,-52 153.5,-52"/>
<text text-anchor="start" x="260" y="-60.2" font-family="Times,serif" font-size="16.00">product_id</text>
<polygon fill="none" stroke="black" points="437.5,-52 437.5,-76 534.5,-76 534.5,-52 437.5,-52"/>
<text text-anchor="start" x="440.5" y="-60.2" font-family="Times,serif" font-size="16.00">list_price_usd</text>
<polygon fill="none" stroke="black" points="534.5,-52 534.5,-76 666.5,-76 666.5,-52 534.5,-52"/>
<text text-anchor="start" x="537.5" y="-60.2" font-family="Times,serif" font-size="16.00">discount_price_usd</text>
<polygon fill="none" stroke="black" points="666.5,-52 666.5,-76 790.5,-76 790.5,-52 666.5,-52"/>
<text text-anchor="start" x="669.5" y="-60.2" font-family="Times,serif" font-size="16.00">closing_price_usd</text>
<polygon fill="none" stroke="black" points="790.5,-52 790.5,-76 853.5,-76 853.5,-52 790.5,-52"/>
<text text-anchor="start" x="793.5" y="-60.2" font-family="Times,serif" font-size="16.00">tax, etc...</text>
<polygon fill="none" stroke="black" points="8.5,-28 8.5,-52 39.5,-52 39.5,-28 8.5,-28"/>
<text text-anchor="start" x="11.5" y="-36.2" font-family="Times,serif" font-size="16.00">001</text>
<polygon fill="none" stroke="black" points="39.5,-28 39.5,-52 153.5,-52 153.5,-28 39.5,-28"/>
<text text-anchor="start" x="42.5" y="-36.2" font-family="Times,serif" font-size="16.00">1509385009636</text>
<polygon fill="none" stroke="black" points="153.5,-28 153.5,-52 437.5,-52 437.5,-28 153.5,-28"/>
<text text-anchor="start" x="156.5" y="-36.2" font-family="Times,serif" font-size="16.00">1f9c39d6&#45;ed46&#45;4d87&#45;bc24&#45;691d4273b50b</text>
<polygon fill="none" stroke="black" points="437.5,-28 437.5,-52 534.5,-52 534.5,-28 437.5,-28"/>
<text text-anchor="start" x="463" y="-36.2" font-family="Times,serif" font-size="16.00">123.45</text>
<polygon fill="none" stroke="black" points="534.5,-28 534.5,-52 666.5,-52 666.5,-28 534.5,-28"/>
<text text-anchor="start" x="577.5" y="-36.2" font-family="Times,serif" font-size="16.00">123.45</text>
<polygon fill="none" stroke="black" points="666.5,-28 666.5,-52 790.5,-52 790.5,-28 666.5,-28"/>
<text text-anchor="start" x="705.5" y="-36.2" font-family="Times,serif" font-size="16.00">123.45</text>
<polygon fill="none" stroke="black" points="790.5,-28 790.5,-52 853.5,-52 853.5,-28 790.5,-28"/>
<text text-anchor="start" x="816" y="-36.2" font-family="Times,serif" font-size="16.00">...</text>
<polygon fill="none" stroke="black" points="8.5,-4 8.5,-28 39.5,-28 39.5,-4 8.5,-4"/>
<text text-anchor="start" x="11.5" y="-12.2" font-family="Times,serif" font-size="16.00">002</text>
<polygon fill="none" stroke="black" points="39.5,-4 39.5,-28 153.5,-28 153.5,-4 39.5,-4"/>
<text text-anchor="start" x="42.5" y="-12.2" font-family="Times,serif" font-size="16.00">1509385069724</text>
<polygon fill="none" stroke="black" points="153.5,-4 153.5,-28 437.5,-28 437.5,-4 153.5,-4"/>
<text text-anchor="start" x="163" y="-12.2" font-family="Times,serif" font-size="16.00">c20d69d9&#45;ae3b&#45;4afe&#45;af46&#45;e33c366e0d2c</text>
<polygon fill="none" stroke="black" points="437.5,-4 437.5,-28 534.5,-28 534.5,-4 437.5,-4"/>
<text text-anchor="start" x="467.5" y="-12.2" font-family="Times,serif" font-size="16.00">47.45</text>
<polygon fill="none" stroke="black" points="534.5,-4 534.5,-28 666.5,-28 666.5,-4 534.5,-4"/>
<text text-anchor="start" x="582" y="-12.2" font-family="Times,serif" font-size="16.00">42.74</text>
<polygon fill="none" stroke="black" points="666.5,-4 666.5,-28 790.5,-28 790.5,-4 666.5,-4"/>
<text text-anchor="start" x="710" y="-12.2" font-family="Times,serif" font-size="16.00">42.74</text>
<polygon fill="none" stroke="black" points="790.5,-4 790.5,-28 853.5,-28 853.5,-4 790.5,-4"/>
<text text-anchor="start" x="816" y="-12.2" font-family="Times,serif" font-size="16.00">...</text>
</g>
</g>
</svg>
