<?xml version="1.0" encoding="UTF-8" standalone="no"?>
<!DOCTYPE svg PUBLIC "-//W3C//DTD SVG 1.1//EN"
 "http://www.w3.org/Graphics/SVG/1.1/DTD/svg11.dtd">
<!-- Generated by graphviz version 2.38.0 (20140413.2041)
 -->
<!-- Title: g Pages: 1 -->
<svg width="886pt" height="112pt"
 viewBox="0.00 0.00 886.00 112.00" xmlns="http://www.w3.org/2000/svg" xmlns:xlink="http://www.w3.org/1999/xlink">
<g id="graph0" class="graph" transform="scale(1 1) rotate(0) translate(4 108)">
<title>g</title>
<polygon fill="white" stroke="none" points="-4,4 -4,-108 882,-108 882,4 -4,4"/>
<!-- users -->
<g id="node1" class="node"><title>users</title>
<polygon fill="none" stroke="black" points="8,-76 8,-100 870,-100 870,-76 8,-76"/>
<text text-anchor="start" x="275" y="-85.2" font-family="Times,serif" font-weight="bold" font-size="16.00">aggregate_monthly_sales_by_product_category</text>
<polygon fill="none" stroke="black" points="8,-52 8,-76 39,-76 39,-52 8,-52"/>
<text text-anchor="start" x="17" y="-60.2" font-family="Times,serif" font-size="16.00">id</text>
<polygon fill="none" stroke="black" points="39,-52 39,-76 100,-76 100,-52 39,-52"/>
<text text-anchor="start" x="48" y="-60.2" font-family="Times,serif" font-size="16.00">month</text>
<polygon fill="none" stroke="black" points="100,-52 100,-76 337,-76 337,-52 100,-52"/>
<text text-anchor="start" x="103" y="-60.2" font-family="Times,serif" font-size="16.00">consumer_electronics_sales_M_usd</text>
<polygon fill="none" stroke="black" points="337,-52 337,-76 463,-76 463,-52 337,-52"/>
<text text-anchor="start" x="340" y="-60.2" font-family="Times,serif" font-size="16.00">auto_sales_M_usd</text>
<polygon fill="none" stroke="black" points="463,-52 463,-76 624,-76 624,-52 463,-52"/>
<text text-anchor="start" x="466" y="-60.2" font-family="Times,serif" font-size="16.00">pharmacy_sales_M_usd</text>
<polygon fill="none" stroke="black" points="624,-52 624,-76 642,-76 642,-52 624,-52"/>
<text text-anchor="start" x="627" y="-60.2" font-family="Times,serif" font-size="16.00">...</text>
<polygon fill="none" stroke="black" points="642,-52 642,-76 756,-76 756,-52 642,-52"/>
<text text-anchor="start" x="652.5" y="-60.2" font-family="Times,serif" font-size="16.00">created_at_utc</text>
<polygon fill="none" stroke="black" points="756,-52 756,-76 870,-76 870,-52 756,-52"/>
<text text-anchor="start" x="763.5" y="-60.2" font-family="Times,serif" font-size="16.00">updated_at_utc</text>
<polygon fill="none" stroke="black" points="8,-28 8,-52 39,-52 39,-28 8,-28"/>
<text text-anchor="start" x="11" y="-36.2" font-family="Times,serif" font-size="16.00">001</text>
<polygon fill="none" stroke="black" points="39,-28 39,-52 100,-52 100,-28 39,-28"/>
<text text-anchor="start" x="42" y="-36.2" font-family="Times,serif" font-size="16.00">2020&#45;01</text>
<polygon fill="none" stroke="black" points="100,-28 100,-52 337,-52 337,-28 100,-28"/>
<text text-anchor="start" x="197.5" y="-36.2" font-family="Times,serif" font-size="16.00">12345</text>
<polygon fill="none" stroke="black" points="337,-28 337,-52 463,-52 463,-28 337,-28"/>
<text text-anchor="start" x="379" y="-36.2" font-family="Times,serif" font-size="16.00">23456</text>
<polygon fill="none" stroke="black" points="463,-28 463,-52 624,-52 624,-28 463,-28"/>
<text text-anchor="start" x="522.5" y="-36.2" font-family="Times,serif" font-size="16.00">34567</text>
<polygon fill="none" stroke="black" points="624,-28 624,-52 642,-52 642,-28 624,-28"/>
<text text-anchor="start" x="627" y="-36.2" font-family="Times,serif" font-size="16.00">...</text>
<polygon fill="none" stroke="black" points="642,-28 642,-52 756,-52 756,-28 642,-28"/>
<text text-anchor="start" x="645" y="-36.2" font-family="Times,serif" font-size="16.00">1509385009636</text>
<polygon fill="none" stroke="black" points="756,-28 756,-52 870,-52 870,-28 756,-28"/>
<text text-anchor="start" x="759" y="-36.2" font-family="Times,serif" font-size="16.00">1509385009636</text>
<polygon fill="none" stroke="black" points="8,-4 8,-28 39,-28 39,-4 8,-4"/>
<text text-anchor="start" x="11" y="-12.2" font-family="Times,serif" font-size="16.00">002</text>
<polygon fill="none" stroke="black" points="39,-4 39,-28 100,-28 100,-4 39,-4"/>
<text text-anchor="start" x="42" y="-12.2" font-family="Times,serif" font-size="16.00">2020&#45;02</text>
<polygon fill="none" stroke="black" points="100,-4 100,-28 337,-28 337,-4 100,-4"/>
<text text-anchor="start" x="197.5" y="-12.2" font-family="Times,serif" font-size="16.00">14274</text>
<polygon fill="none" stroke="black" points="337,-4 337,-28 463,-28 463,-4 337,-4"/>
<text text-anchor="start" x="379" y="-12.2" font-family="Times,serif" font-size="16.00">24745</text>
<polygon fill="none" stroke="black" points="463,-4 463,-28 624,-28 624,-4 463,-4"/>
<text text-anchor="start" x="522.5" y="-12.2" font-family="Times,serif" font-size="16.00">34750</text>
<polygon fill="none" stroke="black" points="624,-4 624,-28 642,-28 642,-4 624,-4"/>
<text text-anchor="start" x="627" y="-12.2" font-family="Times,serif" font-size="16.00">...</text>
<polygon fill="none" stroke="black" points="642,-4 642,-28 756,-28 756,-4 642,-4"/>
<text text-anchor="start" x="645" y="-12.2" font-family="Times,serif" font-size="16.00">1509385069724</text>
<polygon fill="none" stroke="black" points="756,-4 756,-28 870,-28 870,-4 756,-4"/>
<text text-anchor="start" x="759" y="-12.2" font-family="Times,serif" font-size="16.00">1509385069724</text>
</g>
</g>
</svg>
