<?xml version="1.0" encoding="UTF-8" standalone="no"?>
<!DOCTYPE svg PUBLIC "-//W3C//DTD SVG 1.1//EN"
 "http://www.w3.org/Graphics/SVG/1.1/DTD/svg11.dtd">
<!-- Generated by graphviz version 2.38.0 (20140413.2041)
 -->
<!-- Title: g Pages: 1 -->
<svg width="806pt" height="112pt"
 viewBox="0.00 0.00 806.00 112.00" xmlns="http://www.w3.org/2000/svg" xmlns:xlink="http://www.w3.org/1999/xlink">
<g id="graph0" class="graph" transform="scale(1 1) rotate(0) translate(4 108)">
<title>g</title>
<polygon fill="white" stroke="none" points="-4,4 -4,-108 802,-108 802,4 -4,4"/>
<!-- users -->
<g id="node1" class="node"><title>users</title>
<polygon fill="none" stroke="black" points="8,-76 8,-100 790,-100 790,-76 8,-76"/>
<text text-anchor="start" x="274" y="-85.2" font-family="Times,serif" font-weight="bold" font-size="16.00">aggregate_monthly_sales_by_region</text>
<polygon fill="none" stroke="black" points="8,-52 8,-76 39,-76 39,-52 8,-52"/>
<text text-anchor="start" x="17" y="-60.2" font-family="Times,serif" font-size="16.00">id</text>
<polygon fill="none" stroke="black" points="39,-52 39,-76 100,-76 100,-52 39,-52"/>
<text text-anchor="start" x="48" y="-60.2" font-family="Times,serif" font-size="16.00">month</text>
<polygon fill="none" stroke="black" points="100,-52 100,-76 248,-76 248,-52 100,-52"/>
<text text-anchor="start" x="103" y="-60.2" font-family="Times,serif" font-size="16.00">region1_sales_M_usd</text>
<polygon fill="none" stroke="black" points="248,-52 248,-76 396,-76 396,-52 248,-52"/>
<text text-anchor="start" x="251" y="-60.2" font-family="Times,serif" font-size="16.00">region2_sales_M_usd</text>
<polygon fill="none" stroke="black" points="396,-52 396,-76 544,-76 544,-52 396,-52"/>
<text text-anchor="start" x="399" y="-60.2" font-family="Times,serif" font-size="16.00">region3_sales_M_usd</text>
<polygon fill="none" stroke="black" points="544,-52 544,-76 562,-76 562,-52 544,-52"/>
<text text-anchor="start" x="547" y="-60.2" font-family="Times,serif" font-size="16.00">...</text>
<polygon fill="none" stroke="black" points="562,-52 562,-76 676,-76 676,-52 562,-52"/>
<text text-anchor="start" x="572.5" y="-60.2" font-family="Times,serif" font-size="16.00">created_at_utc</text>
<polygon fill="none" stroke="black" points="676,-52 676,-76 790,-76 790,-52 676,-52"/>
<text text-anchor="start" x="683.5" y="-60.2" font-family="Times,serif" font-size="16.00">updated_at_utc</text>
<polygon fill="none" stroke="black" points="8,-28 8,-52 39,-52 39,-28 8,-28"/>
<text text-anchor="start" x="11" y="-36.2" font-family="Times,serif" font-size="16.00">001</text>
<polygon fill="none" stroke="black" points="39,-28 39,-52 100,-52 100,-28 39,-28"/>
<text text-anchor="start" x="42" y="-36.2" font-family="Times,serif" font-size="16.00">2020&#45;01</text>
<polygon fill="none" stroke="black" points="100,-28 100,-52 248,-52 248,-28 100,-28"/>
<text text-anchor="start" x="153" y="-36.2" font-family="Times,serif" font-size="16.00">12345</text>
<polygon fill="none" stroke="black" points="248,-28 248,-52 396,-52 396,-28 248,-28"/>
<text text-anchor="start" x="301" y="-36.2" font-family="Times,serif" font-size="16.00">23456</text>
<polygon fill="none" stroke="black" points="396,-28 396,-52 544,-52 544,-28 396,-28"/>
<text text-anchor="start" x="449" y="-36.2" font-family="Times,serif" font-size="16.00">34567</text>
<polygon fill="none" stroke="black" points="544,-28 544,-52 562,-52 562,-28 544,-28"/>
<text text-anchor="start" x="547" y="-36.2" font-family="Times,serif" font-size="16.00">...</text>
<polygon fill="none" stroke="black" points="562,-28 562,-52 676,-52 676,-28 562,-28"/>
<text text-anchor="start" x="565" y="-36.2" font-family="Times,serif" font-size="16.00">1509385009636</text>
<polygon fill="none" stroke="black" points="676,-28 676,-52 790,-52 790,-28 676,-28"/>
<text text-anchor="start" x="679" y="-36.2" font-family="Times,serif" font-size="16.00">1509385009636</text>
<polygon fill="none" stroke="black" points="8,-4 8,-28 39,-28 39,-4 8,-4"/>
<text text-anchor="start" x="11" y="-12.2" font-family="Times,serif" font-size="16.00">002</text>
<polygon fill="none" stroke="black" points="39,-4 39,-28 100,-28 100,-4 39,-4"/>
<text text-anchor="start" x="42" y="-12.2" font-family="Times,serif" font-size="16.00">2020&#45;02</text>
<polygon fill="none" stroke="black" points="100,-4 100,-28 248,-28 248,-4 100,-4"/>
<text text-anchor="start" x="153" y="-12.2" font-family="Times,serif" font-size="16.00">14274</text>
<polygon fill="none" stroke="black" points="248,-4 248,-28 396,-28 396,-4 248,-4"/>
<text text-anchor="start" x="301" y="-12.2" font-family="Times,serif" font-size="16.00">24745</text>
<polygon fill="none" stroke="black" points="396,-4 396,-28 544,-28 544,-4 396,-4"/>
<text text-anchor="start" x="449" y="-12.2" font-family="Times,serif" font-size="16.00">34750</text>
<polygon fill="none" stroke="black" points="544,-4 544,-28 562,-28 562,-4 544,-4"/>
<text text-anchor="start" x="547" y="-12.2" font-family="Times,serif" font-size="16.00">...</text>
<polygon fill="none" stroke="black" points="562,-4 562,-28 676,-28 676,-4 562,-4"/>
<text text-anchor="start" x="565" y="-12.2" font-family="Times,serif" font-size="16.00">1509385069724</text>
<polygon fill="none" stroke="black" points="676,-4 676,-28 790,-28 790,-4 676,-4"/>
<text text-anchor="start" x="679" y="-12.2" font-family="Times,serif" font-size="16.00">1509385069724</text>
</g>
</g>
</svg>
