<?xml version="1.0" standalone="yes"?>

<svg version="1.1" viewBox="0.0 0.0 1202.286089238845 709.7139107611548" fill="none" stroke="none" stroke-linecap="square" stroke-miterlimit="10" xmlns="http://www.w3.org/2000/svg" xmlns:xlink="http://www.w3.org/1999/xlink"><clipPath id="p.0"><path d="m0 0l1202.2861 0l0 709.7139l-1202.2861 0l0 -709.7139z" clip-rule="nonzero"></path></clipPath><g clip-path="url(#p.0)"><path fill="#000000" fill-opacity="0.0" d="m0 0l1202.2861 0l0 709.7139l-1202.2861 0z" fill-rule="evenodd"></path><path fill="#cfe2f3" d="m759.3543 460.97375l0 0c0 -12.074158 42.50299 -21.862213 94.933105 -21.862213c52.430054 0 94.933044 9.788055 94.933044 21.862213l0 87.44879c0 12.074158 -42.50299 21.862244 -94.933044 21.862244c-52.430115 0 -94.933105 -9.788086 -94.933105 -21.862244z" fill-rule="evenodd"></path><path fill="#000000" fill-opacity="0.0" d="m949.22046 460.97375l0 0c0 12.074158 -42.50299 21.862213 -94.933044 21.862213c-52.430115 0 -94.933105 -9.788055 -94.933105 -21.862213" fill-rule="evenodd"></path><path fill="#000000" fill-opacity="0.0" d="m759.3543 460.97375l0 0c0 -12.074158 42.50299 -21.862213 94.933105 -21.862213c52.430054 0 94.933044 9.788055 94.933044 21.862213l0 87.44879c0 12.074158 -42.50299 21.862244 -94.933044 21.862244c-52.430115 0 -94.933105 -9.788086 -94.933105 -21.862244z" fill-rule="evenodd"></path><path stroke="#000000" stroke-width="2.0" stroke-linejoin="round" stroke-linecap="butt" d="m949.22046 460.97375l0 0c0 12.074158 -42.50299 21.862213 -94.933044 21.862213c-52.430115 0 -94.933105 -9.788055 -94.933105 -21.862213" fill-rule="evenodd"></path><path stroke="#000000" stroke-width="2.0" stroke-linejoin="round" stroke-linecap="butt" d="m759.3543 460.97375l0 0c0 -12.074158 42.50299 -21.862213 94.933105 -21.862213c52.430054 0 94.933044 9.788055 94.933044 21.862213l0 87.44879c0 12.074158 -42.50299 21.862244 -94.933044 21.862244c-52.430115 0 -94.933105 -9.788086 -94.933105 -21.862244z" fill-rule="evenodd"></path><path fill="#d9ead3" d="m884.7441 503.0289l37.81958 0l0 35.58133c-18.908752 0 -18.908752 13.68988 -37.81958 6.8449097zm3.1159058 0l0 -4.612915l37.56128 0l0 35.804535c-1.4277954 0 -2.857605 0.24798584 -2.857605 0.24798584l0 -31.439606zm2.928711 -4.612915l0 -4.5012817l37.88672 0l0 35.6929c-1.6270752 0 -3.2541504 0.18603516 -3.2541504 0.18603516l0 -31.377655z" fill-rule="evenodd"></path><path fill="#000000" fill-opacity="0.0" d="m884.7441 503.0289l37.81958 0l0 35.58133c-18.908752 0 -18.908752 13.68988 -37.81958 6.8449097zm3.1159058 0l0 -4.612915l37.56128 0l0 35.804535c-1.4277954 0 -2.857605 0.24798584 -2.857605 0.24798584m-31.774963 -36.05252l0 -4.5012817l37.88672 0l0 35.6929c-1.6270752 0 -3.2541504 0.18603516 -3.2541504 0.18603516" fill-rule="evenodd"></path><path fill="#000000" fill-opacity="0.0" d="m884.7441 545.45514c18.910828 6.8449707 18.910828 -6.8449097 37.81958 -6.8449097l0 -4.1417236c0 0 1.4298096 -0.24798584 2.857605 -0.24798584l0 -4.42688c0 0 1.6270752 -0.18603516 3.2541504 -0.18603516l0 -35.6929l-37.88672 0l0 4.5012817l-2.928711 0l0 4.612915l-3.1159058 0z" fill-rule="evenodd"></path><path stroke="#000000" stroke-width="2.0" stroke-linejoin="round" stroke-linecap="butt" d="m884.7441 503.0289l37.81958 0l0 35.58133c-18.908752 0 -18.908752 13.68988 -37.81958 6.8449097zm3.1159058 0l0 -4.612915l37.56128 0l0 35.804535c-1.4277954 0 -2.857605 0.24798584 -2.857605 0.24798584m-31.774963 -36.05252l0 -4.5012817l37.88672 0l0 35.6929c-1.6270752 0 -3.2541504 0.18603516 -3.2541504 0.18603516" fill-rule="evenodd"></path><path fill="#d9d2e9" d="m832.32153 503.0289l37.81958 0l0 35.58133c-18.908752 0 -18.908752 13.68988 -37.81958 6.8449097zm3.1158447 0l0 -4.612915l37.56128 0l0 35.804535c-1.4277344 0 -2.857544 0.24798584 -2.857544 0.24798584l0 -31.439606zm2.928772 -4.612915l0 -4.5012817l37.88672 0l0 35.6929c-1.6270752 0 -3.2542114 0.18603516 -3.2542114 0.18603516l0 -31.377655z" fill-rule="evenodd"></path><path fill="#000000" fill-opacity="0.0" d="m832.32153 503.0289l37.81958 0l0 35.58133c-18.908752 0 -18.908752 13.68988 -37.81958 6.8449097zm3.1158447 0l0 -4.612915l37.56128 0l0 35.804535c-1.4277344 0 -2.857544 0.24798584 -2.857544 0.24798584m-31.774963 -36.05252l0 -4.5012817l37.88672 0l0 35.6929c-1.6270752 0 -3.2542114 0.18603516 -3.2542114 0.18603516" fill-rule="evenodd"></path><path fill="#000000" fill-opacity="0.0" d="m832.32153 545.45514c18.910828 6.8449707 18.910828 -6.8449097 37.81958 -6.8449097l0 -4.1417236c0 0 1.4298096 -0.24798584 2.857544 -0.24798584l0 -4.42688c0 0 1.6271362 -0.18603516 3.2542114 -0.18603516l0 -35.6929l-37.88672 0l0 4.5012817l-2.928772 0l0 4.612915l-3.1158447 0z" fill-rule="evenodd"></path><path stroke="#000000" stroke-width="2.0" stroke-linejoin="round" stroke-linecap="butt" d="m832.32153 503.0289l37.81958 0l0 35.58133c-18.908752 0 -18.908752 13.68988 -37.81958 6.8449097zm3.1158447 0l0 -4.612915l37.56128 0l0 35.804535c-1.4277344 0 -2.857544 0.24798584 -2.857544 0.24798584m-31.774963 -36.05252l0 -4.5012817l37.88672 0l0 35.6929c-1.6270752 0 -3.2542114 0.18603516 -3.2542114 0.18603516" fill-rule="evenodd"></path><path fill="#f4cccc" d="m779.8989 503.0289l37.81964 0l0 35.58133c-18.908813 0 -18.908813 13.68988 -37.81964 6.8449097zm3.1159058 0l0 -4.612915l37.56128 0l0 35.804535c-1.4277344 0 -2.857544 0.24798584 -2.857544 0.24798584l0 -31.439606zm2.928772 -4.612915l0 -4.5012817l37.886658 0l0 35.6929c-1.6270752 0 -3.2541504 0.18603516 -3.2541504 0.18603516l0 -31.377655z" fill-rule="evenodd"></path><path fill="#000000" fill-opacity="0.0" d="m779.8989 503.0289l37.81964 0l0 35.58133c-18.908813 0 -18.908813 13.68988 -37.81964 6.8449097zm3.1159058 0l0 -4.612915l37.56128 0l0 35.804535c-1.4277344 0 -2.857544 0.24798584 -2.857544 0.24798584m-31.774963 -36.05252l0 -4.5012817l37.886658 0l0 35.6929c-1.6270752 0 -3.2541504 0.18603516 -3.2541504 0.18603516" fill-rule="evenodd"></path><path fill="#000000" fill-opacity="0.0" d="m779.8989 545.45514c18.910828 6.8449707 18.910828 -6.8449097 37.81964 -6.8449097l0 -4.1417236c0 0 1.4298096 -0.24798584 2.857544 -0.24798584l0 -4.42688c0 0 1.6270752 -0.18603516 3.2541504 -0.18603516l0 -35.6929l-37.886658 0l0 4.5012817l-2.928772 0l0 4.612915l-3.1159058 0z" fill-rule="evenodd"></path><path stroke="#000000" stroke-width="2.0" stroke-linejoin="round" stroke-linecap="butt" d="m779.8989 503.0289l37.81964 0l0 35.58133c-18.908813 0 -18.908813 13.68988 -37.81964 6.8449097zm3.1159058 0l0 -4.612915l37.56128 0l0 35.804535c-1.4277344 0 -2.857544 0.24798584 -2.857544 0.24798584m-31.774963 -36.05252l0 -4.5012817l37.886658 0l0 35.6929c-1.6270752 0 -3.2541504 0.18603516 -3.2541504 0.18603516" fill-rule="evenodd"></path><path fill="#cfe2f3" d="m759.3543 346.52493l0 0c0 -12.074158 42.50299 -21.862213 94.933105 -21.862213c52.430054 0 94.933044 9.788055 94.933044 21.862213l0 87.44882c0 12.074158 -42.50299 21.862213 -94.933044 21.862213c-52.430115 0 -94.933105 -9.788055 -94.933105 -21.862213z" fill-rule="evenodd"></path><path fill="#000000" fill-opacity="0.0" d="m949.22046 346.52493l0 0c0 12.074158 -42.50299 21.862213 -94.933044 21.862213c-52.430115 0 -94.933105 -9.788055 -94.933105 -21.862213" fill-rule="evenodd"></path><path fill="#000000" fill-opacity="0.0" d="m759.3543 346.52493l0 0c0 -12.074158 42.50299 -21.862213 94.933105 -21.862213c52.430054 0 94.933044 9.788055 94.933044 21.862213l0 87.44882c0 12.074158 -42.50299 21.862213 -94.933044 21.862213c-52.430115 0 -94.933105 -9.788055 -94.933105 -21.862213z" fill-rule="evenodd"></path><path stroke="#000000" stroke-width="2.0" stroke-linejoin="round" stroke-linecap="butt" d="m949.22046 346.52493l0 0c0 12.074158 -42.50299 21.862213 -94.933044 21.862213c-52.430115 0 -94.933105 -9.788055 -94.933105 -21.862213" fill-rule="evenodd"></path><path stroke="#000000" stroke-width="2.0" stroke-linejoin="round" stroke-linecap="butt" d="m759.3543 346.52493l0 0c0 -12.074158 42.50299 -21.862213 94.933105 -21.862213c52.430054 0 94.933044 9.788055 94.933044 21.862213l0 87.44882c0 12.074158 -42.50299 21.862213 -94.933044 21.862213c-52.430115 0 -94.933105 -9.788055 -94.933105 -21.862213z" fill-rule="evenodd"></path><path fill="#cfe2f3" d="m884.7441 388.58008l37.81958 0l0 35.5813c-18.908752 0 -18.908752 13.689911 -37.81958 6.84494zm3.1159058 0l0 -4.612915l37.56128 0l0 35.804535c-1.4277954 0 -2.857605 0.24798584 -2.857605 0.24798584l0 -31.439606zm2.928711 -4.612915l0 -4.5012817l37.88672 0l0 35.6929c-1.6270752 0 -3.2541504 0.18600464 -3.2541504 0.18600464l0 -31.377625z" fill-rule="evenodd"></path><path fill="#000000" fill-opacity="0.0" d="m884.7441 388.58008l37.81958 0l0 35.5813c-18.908752 0 -18.908752 13.689911 -37.81958 6.84494zm3.1159058 0l0 -4.612915l37.56128 0l0 35.804535c-1.4277954 0 -2.857605 0.24798584 -2.857605 0.24798584m-31.774963 -36.05252l0 -4.5012817l37.88672 0l0 35.6929c-1.6270752 0 -3.2541504 0.18600464 -3.2541504 0.18600464" fill-rule="evenodd"></path><path fill="#000000" fill-opacity="0.0" d="m884.7441 431.00632c18.910828 6.8449707 18.910828 -6.84494 37.81958 -6.84494l0 -4.141693c0 0 1.4298096 -0.24798584 2.857605 -0.24798584l0 -4.4269104c0 0 1.6270752 -0.18600464 3.2541504 -0.18600464l0 -35.6929l-37.88672 0l0 4.5012817l-2.928711 0l0 4.612915l-3.1159058 0z" fill-rule="evenodd"></path><path stroke="#000000" stroke-width="2.0" stroke-linejoin="round" stroke-linecap="butt" d="m884.7441 388.58008l37.81958 0l0 35.5813c-18.908752 0 -18.908752 13.689911 -37.81958 6.84494zm3.1159058 0l0 -4.612915l37.56128 0l0 35.804535c-1.4277954 0 -2.857605 0.24798584 -2.857605 0.24798584m-31.774963 -36.05252l0 -4.5012817l37.88672 0l0 35.6929c-1.6270752 0 -3.2541504 0.18600464 -3.2541504 0.18600464" fill-rule="evenodd"></path><path fill="#f4cccc" d="m832.32153 388.58008l37.81958 0l0 35.5813c-18.908752 0 -18.908752 13.689911 -37.81958 6.84494zm3.1158447 0l0 -4.612915l37.56128 0l0 35.804535c-1.4277344 0 -2.857544 0.24798584 -2.857544 0.24798584l0 -31.439606zm2.928772 -4.612915l0 -4.5012817l37.88672 0l0 35.6929c-1.6270752 0 -3.2542114 0.18600464 -3.2542114 0.18600464l0 -31.377625z" fill-rule="evenodd"></path><path fill="#000000" fill-opacity="0.0" d="m832.32153 388.58008l37.81958 0l0 35.5813c-18.908752 0 -18.908752 13.689911 -37.81958 6.84494zm3.1158447 0l0 -4.612915l37.56128 0l0 35.804535c-1.4277344 0 -2.857544 0.24798584 -2.857544 0.24798584m-31.774963 -36.05252l0 -4.5012817l37.88672 0l0 35.6929c-1.6270752 0 -3.2542114 0.18600464 -3.2542114 0.18600464" fill-rule="evenodd"></path><path fill="#000000" fill-opacity="0.0" d="m832.32153 431.00632c18.910828 6.8449707 18.910828 -6.84494 37.81958 -6.84494l0 -4.141693c0 0 1.4298096 -0.24798584 2.857544 -0.24798584l0 -4.4269104c0 0 1.6271362 -0.18600464 3.2542114 -0.18600464l0 -35.6929l-37.88672 0l0 4.5012817l-2.928772 0l0 4.612915l-3.1158447 0z" fill-rule="evenodd"></path><path stroke="#000000" stroke-width="2.0" stroke-linejoin="round" stroke-linecap="butt" d="m832.32153 388.58008l37.81958 0l0 35.5813c-18.908752 0 -18.908752 13.689911 -37.81958 6.84494zm3.1158447 0l0 -4.612915l37.56128 0l0 35.804535c-1.4277344 0 -2.857544 0.24798584 -2.857544 0.24798584m-31.774963 -36.05252l0 -4.5012817l37.88672 0l0 35.6929c-1.6270752 0 -3.2542114 0.18600464 -3.2542114 0.18600464" fill-rule="evenodd"></path><path fill="#d9d2e9" d="m779.8989 388.58008l37.81964 0l0 35.5813c-18.908813 0 -18.908813 13.689911 -37.81964 6.84494zm3.1159058 0l0 -4.612915l37.56128 0l0 35.804535c-1.4277344 0 -2.857544 0.24798584 -2.857544 0.24798584l0 -31.439606zm2.928772 -4.612915l0 -4.5012817l37.886658 0l0 35.6929c-1.6270752 0 -3.2541504 0.18600464 -3.2541504 0.18600464l0 -31.377625z" fill-rule="evenodd"></path><path fill="#000000" fill-opacity="0.0" d="m779.8989 388.58008l37.81964 0l0 35.5813c-18.908813 0 -18.908813 13.689911 -37.81964 6.84494zm3.1159058 0l0 -4.612915l37.56128 0l0 35.804535c-1.4277344 0 -2.857544 0.24798584 -2.857544 0.24798584m-31.774963 -36.05252l0 -4.5012817l37.886658 0l0 35.6929c-1.6270752 0 -3.2541504 0.18600464 -3.2541504 0.18600464" fill-rule="evenodd"></path><path fill="#000000" fill-opacity="0.0" d="m779.8989 431.00632c18.910828 6.8449707 18.910828 -6.84494 37.81964 -6.84494l0 -4.141693c0 0 1.4298096 -0.24798584 2.857544 -0.24798584l0 -4.4269104c0 0 1.6270752 -0.18600464 3.2541504 -0.18600464l0 -35.6929l-37.886658 0l0 4.5012817l-2.928772 0l0 4.612915l-3.1159058 0z" fill-rule="evenodd"></path><path stroke="#000000" stroke-width="2.0" stroke-linejoin="round" stroke-linecap="butt" d="m779.8989 388.58008l37.81964 0l0 35.5813c-18.908813 0 -18.908813 13.689911 -37.81964 6.84494zm3.1159058 0l0 -4.612915l37.56128 0l0 35.804535c-1.4277344 0 -2.857544 0.24798584 -2.857544 0.24798584m-31.774963 -36.05252l0 -4.5012817l37.886658 0l0 35.6929c-1.6270752 0 -3.2541504 0.18600464 -3.2541504 0.18600464" fill-rule="evenodd"></path><path fill="#cfe2f3" d="m759.3543 234.94751l0 0c0 -12.074173 42.50299 -21.862213 94.933105 -21.862213c52.430054 0 94.933044 9.78804 94.933044 21.862213l0 87.44882c0 12.074158 -42.50299 21.862213 -94.933044 21.862213c-52.430115 0 -94.933105 -9.788055 -94.933105 -21.862213z" fill-rule="evenodd"></path><path fill="#000000" fill-opacity="0.0" d="m949.22046 234.94751l0 0c0 12.074158 -42.50299 21.862213 -94.933044 21.862213c-52.430115 0 -94.933105 -9.788055 -94.933105 -21.862213" fill-rule="evenodd"></path><path fill="#000000" fill-opacity="0.0" d="m759.3543 234.94751l0 0c0 -12.074173 42.50299 -21.862213 94.933105 -21.862213c52.430054 0 94.933044 9.78804 94.933044 21.862213l0 87.44882c0 12.074158 -42.50299 21.862213 -94.933044 21.862213c-52.430115 0 -94.933105 -9.788055 -94.933105 -21.862213z" fill-rule="evenodd"></path><path stroke="#000000" stroke-width="2.0" stroke-linejoin="round" stroke-linecap="butt" d="m949.22046 234.94751l0 0c0 12.074158 -42.50299 21.862213 -94.933044 21.862213c-52.430115 0 -94.933105 -9.788055 -94.933105 -21.862213" fill-rule="evenodd"></path><path stroke="#000000" stroke-width="2.0" stroke-linejoin="round" stroke-linecap="butt" d="m759.3543 234.94751l0 0c0 -12.074173 42.50299 -21.862213 94.933105 -21.862213c52.430054 0 94.933044 9.78804 94.933044 21.862213l0 87.44882c0 12.074158 -42.50299 21.862213 -94.933044 21.862213c-52.430115 0 -94.933105 -9.788055 -94.933105 -21.862213z" fill-rule="evenodd"></path><path fill="#f4cccc" d="m884.7441 277.00266l37.81958 0l0 35.5813c-18.908752 0 -18.908752 13.68988 -37.81958 6.84494zm3.1159058 0l0 -4.612915l37.56128 0l0 35.804535c-1.4277954 0 -2.857605 0.24798584 -2.857605 0.24798584l0 -31.439606zm2.928711 -4.612915l0 -4.5012817l37.88672 0l0 35.6929c-1.6270752 0 -3.2541504 0.18600464 -3.2541504 0.18600464l0 -31.377625z" fill-rule="evenodd"></path><path fill="#000000" fill-opacity="0.0" d="m884.7441 277.00266l37.81958 0l0 35.5813c-18.908752 0 -18.908752 13.68988 -37.81958 6.84494zm3.1159058 0l0 -4.612915l37.56128 0l0 35.804535c-1.4277954 0 -2.857605 0.24798584 -2.857605 0.24798584m-31.774963 -36.05252l0 -4.5012817l37.88672 0l0 35.6929c-1.6270752 0 -3.2541504 0.18600464 -3.2541504 0.18600464" fill-rule="evenodd"></path><path fill="#000000" fill-opacity="0.0" d="m884.7441 319.4289c18.910828 6.84494 18.910828 -6.84494 37.81958 -6.84494l0 -4.141693c0 0 1.4298096 -0.24798584 2.857605 -0.24798584l0 -4.4269104c0 0 1.6270752 -0.18600464 3.2541504 -0.18600464l0 -35.6929l-37.88672 0l0 4.5012817l-2.928711 0l0 4.612915l-3.1159058 0z" fill-rule="evenodd"></path><path stroke="#000000" stroke-width="2.0" stroke-linejoin="round" stroke-linecap="butt" d="m884.7441 277.00266l37.81958 0l0 35.5813c-18.908752 0 -18.908752 13.68988 -37.81958 6.84494zm3.1159058 0l0 -4.612915l37.56128 0l0 35.804535c-1.4277954 0 -2.857605 0.24798584 -2.857605 0.24798584m-31.774963 -36.05252l0 -4.5012817l37.88672 0l0 35.6929c-1.6270752 0 -3.2541504 0.18600464 -3.2541504 0.18600464" fill-rule="evenodd"></path><path fill="#d9ead3" d="m832.32153 277.00266l37.81958 0l0 35.5813c-18.908752 0 -18.908752 13.68988 -37.81958 6.84494zm3.1158447 0l0 -4.612915l37.56128 0l0 35.804535c-1.4277344 0 -2.857544 0.24798584 -2.857544 0.24798584l0 -31.439606zm2.928772 -4.612915l0 -4.5012817l37.88672 0l0 35.6929c-1.6270752 0 -3.2542114 0.18600464 -3.2542114 0.18600464l0 -31.377625z" fill-rule="evenodd"></path><path fill="#000000" fill-opacity="0.0" d="m832.32153 277.00266l37.81958 0l0 35.5813c-18.908752 0 -18.908752 13.68988 -37.81958 6.84494zm3.1158447 0l0 -4.612915l37.56128 0l0 35.804535c-1.4277344 0 -2.857544 0.24798584 -2.857544 0.24798584m-31.774963 -36.05252l0 -4.5012817l37.88672 0l0 35.6929c-1.6270752 0 -3.2542114 0.18600464 -3.2542114 0.18600464" fill-rule="evenodd"></path><path fill="#000000" fill-opacity="0.0" d="m832.32153 319.4289c18.910828 6.84494 18.910828 -6.84494 37.81958 -6.84494l0 -4.141693c0 0 1.4298096 -0.24798584 2.857544 -0.24798584l0 -4.4269104c0 0 1.6271362 -0.18600464 3.2542114 -0.18600464l0 -35.6929l-37.88672 0l0 4.5012817l-2.928772 0l0 4.612915l-3.1158447 0z" fill-rule="evenodd"></path><path stroke="#000000" stroke-width="2.0" stroke-linejoin="round" stroke-linecap="butt" d="m832.32153 277.00266l37.81958 0l0 35.5813c-18.908752 0 -18.908752 13.68988 -37.81958 6.84494zm3.1158447 0l0 -4.612915l37.56128 0l0 35.804535c-1.4277344 0 -2.857544 0.24798584 -2.857544 0.24798584m-31.774963 -36.05252l0 -4.5012817l37.88672 0l0 35.6929c-1.6270752 0 -3.2542114 0.18600464 -3.2542114 0.18600464" fill-rule="evenodd"></path><path fill="#cfe2f3" d="m779.8989 277.00266l37.81964 0l0 35.5813c-18.908813 0 -18.908813 13.68988 -37.81964 6.84494zm3.1159058 0l0 -4.612915l37.56128 0l0 35.804535c-1.4277344 0 -2.857544 0.24798584 -2.857544 0.24798584l0 -31.439606zm2.928772 -4.612915l0 -4.5012817l37.886658 0l0 35.6929c-1.6270752 0 -3.2541504 0.18600464 -3.2541504 0.18600464l0 -31.377625z" fill-rule="evenodd"></path><path fill="#000000" fill-opacity="0.0" d="m779.8989 277.00266l37.81964 0l0 35.5813c-18.908813 0 -18.908813 13.68988 -37.81964 6.84494zm3.1159058 0l0 -4.612915l37.56128 0l0 35.804535c-1.4277344 0 -2.857544 0.24798584 -2.857544 0.24798584m-31.774963 -36.05252l0 -4.5012817l37.886658 0l0 35.6929c-1.6270752 0 -3.2541504 0.18600464 -3.2541504 0.18600464" fill-rule="evenodd"></path><path fill="#000000" fill-opacity="0.0" d="m779.8989 319.4289c18.910828 6.84494 18.910828 -6.84494 37.81964 -6.84494l0 -4.141693c0 0 1.4298096 -0.24798584 2.857544 -0.24798584l0 -4.4269104c0 0 1.6270752 -0.18600464 3.2541504 -0.18600464l0 -35.6929l-37.886658 0l0 4.5012817l-2.928772 0l0 4.612915l-3.1159058 0z" fill-rule="evenodd"></path><path stroke="#000000" stroke-width="2.0" stroke-linejoin="round" stroke-linecap="butt" d="m779.8989 277.00266l37.81964 0l0 35.5813c-18.908813 0 -18.908813 13.68988 -37.81964 6.84494zm3.1159058 0l0 -4.612915l37.56128 0l0 35.804535c-1.4277344 0 -2.857544 0.24798584 -2.857544 0.24798584m-31.774963 -36.05252l0 -4.5012817l37.886658 0l0 35.6929c-1.6270752 0 -3.2541504 0.18600464 -3.2541504 0.18600464" fill-rule="evenodd"></path><path fill="#000000" fill-opacity="0.0" d="m369.38452 330.1273l74.74014 0" fill-rule="evenodd"></path><path stroke="#000000" stroke-width="2.0" stroke-linejoin="round" stroke-linecap="butt" d="m369.38452 330.1273l62.740143 0" fill-rule="evenodd"></path><path fill="#000000" stroke="#000000" stroke-width="2.0" stroke-linecap="butt" d="m432.12466 333.43076l9.076202 -3.3034668l-9.076202 -3.3034668z" fill-rule="evenodd"></path><path fill="#cfe2f3" d="m759.3543 123.28084l0 0c0 -12.074158 42.50299 -21.862206 94.933105 -21.862206c52.430054 0 94.933044 9.788048 94.933044 21.862206l0 87.44882c0 12.074158 -42.50299 21.862198 -94.933044 21.862198c-52.430115 0 -94.933105 -9.78804 -94.933105 -21.862198z" fill-rule="evenodd"></path><path fill="#000000" fill-opacity="0.0" d="m949.22046 123.28084l0 0c0 12.074158 -42.50299 21.862213 -94.933044 21.862213c-52.430115 0 -94.933105 -9.788055 -94.933105 -21.862213" fill-rule="evenodd"></path><path fill="#000000" fill-opacity="0.0" d="m759.3543 123.28084l0 0c0 -12.074158 42.50299 -21.862206 94.933105 -21.862206c52.430054 0 94.933044 9.788048 94.933044 21.862206l0 87.44882c0 12.074158 -42.50299 21.862198 -94.933044 21.862198c-52.430115 0 -94.933105 -9.78804 -94.933105 -21.862198z" fill-rule="evenodd"></path><path stroke="#000000" stroke-width="2.0" stroke-linejoin="round" stroke-linecap="butt" d="m949.22046 123.28084l0 0c0 12.074158 -42.50299 21.862213 -94.933044 21.862213c-52.430115 0 -94.933105 -9.788055 -94.933105 -21.862213" fill-rule="evenodd"></path><path stroke="#000000" stroke-width="2.0" stroke-linejoin="round" stroke-linecap="butt" d="m759.3543 123.28084l0 0c0 -12.074158 42.50299 -21.862206 94.933105 -21.862206c52.430054 0 94.933044 9.788048 94.933044 21.862206l0 87.44882c0 12.074158 -42.50299 21.862198 -94.933044 21.862198c-52.430115 0 -94.933105 -9.78804 -94.933105 -21.862198z" fill-rule="evenodd"></path><path fill="#fff2cc" d="m325.8062 461.7139l43.59842 0l126.991486 -96.79529l-108.30646 96.79529l12.456696 0l0 7.6798096l0 0l0 11.519684l0 26.879272l-12.456696 0l-18.685028 0l0 0l-43.59842 0l0 -26.879272l0 -11.519684l0 0z" fill-rule="evenodd"></path><path stroke="#000000" stroke-width="2.0" stroke-linejoin="round" stroke-linecap="butt" d="m325.8062 461.7139l43.59842 0l126.991486 -96.79529l-108.30646 96.79529l12.456696 0l0 7.6798096l0 0l0 11.519684l0 26.879272l-12.456696 0l-18.685028 0l0 0l-43.59842 0l0 -26.879272l0 -11.519684l0 0z" fill-rule="evenodd"></path><path fill="#000000" d="m346.19342 489.55328l-1.0625 0l0 -9.3125l1.15625 0l0 3.328125q0.71875 -0.90625 1.84375 -0.90625q0.625 0 1.171875 0.25q0.5625 0.25 0.921875 0.703125q0.359375 0.453125 0.5625 1.09375q0.203125 0.640625 0.203125 1.375q0 1.734375 -0.859375 2.6875q-0.859375 0.9375 -2.0625 0.9375q-1.1875 0 -1.875 -1.0l0 0.84375zm-0.015625 -3.421875q0 1.21875 0.34375 1.75q0.53125 0.890625 1.453125 0.890625q0.75 0 1.296875 -0.65625q0.546875 -0.65625 0.546875 -1.9375q0 -1.328125 -0.53125 -1.953125q-0.515625 -0.625 -1.265625 -0.625q-0.75 0 -1.296875 0.65625q-0.546875 0.640625 -0.546875 1.875zm6.3499756 3.421875l0 -9.3125l1.140625 0l0 9.3125l-1.140625 0zm2.570465 -3.375q0 -1.875 1.03125 -2.765625q0.875 -0.75 2.125 -0.75q1.390625 0 2.265625 0.90625q0.890625 0.90625 0.890625 2.515625q0 1.296875 -0.390625 2.046875q-0.390625 0.75 -1.140625 1.171875q-0.75 0.40625 -1.625 0.40625q-1.421875 0 -2.296875 -0.90625q-0.859375 -0.90625 -0.859375 -2.625zm1.171875 0q0 1.296875 0.5625 1.953125q0.5625 0.640625 1.421875 0.640625q0.84375 0 1.40625 -0.640625q0.578125 -0.65625 0.578125 -1.984375q0 -1.25 -0.578125 -1.890625q-0.5625 -0.65625 -1.40625 -0.65625q-0.859375 0 -1.421875 0.640625q-0.5625 0.640625 -0.5625 1.9375zm11.053101 0.90625l1.125 0.140625q-0.171875 1.171875 -0.9375 1.828125q-0.765625 0.65625 -1.859375 0.65625q-1.390625 0 -2.234375 -0.90625q-0.828125 -0.90625 -0.828125 -2.59375q0 -1.09375 0.359375 -1.90625q0.359375 -0.828125 1.09375 -1.234375q0.734375 -0.40625 1.609375 -0.40625q1.09375 0 1.796875 0.5625q0.703125 0.546875 0.890625 1.5625l-1.109375 0.171875q-0.15625 -0.671875 -0.5625 -1.015625q-0.390625 -0.34375 -0.96875 -0.34375q-0.859375 0 -1.40625 0.625q-0.53125 0.609375 -0.53125 1.953125q0 1.359375 0.515625 1.984375q0.515625 0.609375 1.359375 0.609375q0.671875 0 1.125 -0.40625q0.453125 -0.421875 0.5625 -1.28125zm2.2734375 2.46875l0 -9.3125l1.140625 0l0 5.3125l2.703125 -2.734375l1.484375 0l-2.578125 2.5l2.84375 4.234375l-1.40625 0l-2.234375 -3.453125l-0.8125 0.78125l0 2.671875l-1.140625 0zm6.2109375 -2.015625l1.125 -0.171875q0.09375 0.671875 0.53125 1.046875q0.4375 0.359375 1.21875 0.359375q0.78125 0 1.15625 -0.3125q0.390625 -0.328125 0.390625 -0.765625q0 -0.390625 -0.34375 -0.609375q-0.234375 -0.15625 -1.171875 -0.390625q-1.25 -0.3125 -1.734375 -0.546875q-0.484375 -0.234375 -0.734375 -0.640625q-0.25 -0.40625 -0.25 -0.90625q0 -0.453125 0.203125 -0.828125q0.203125 -0.390625 0.5625 -0.640625q0.265625 -0.203125 0.71875 -0.328125q0.46875 -0.140625 1.0 -0.140625q0.78125 0 1.375 0.234375q0.609375 0.21875 0.890625 0.609375q0.296875 0.390625 0.40625 1.046875l-1.125 0.15625q-0.078125 -0.53125 -0.4375 -0.8125q-0.359375 -0.296875 -1.03125 -0.296875q-0.78125 0 -1.125 0.265625q-0.34375 0.25 -0.34375 0.609375q0 0.21875 0.140625 0.390625q0.140625 0.1875 0.4375 0.3125q0.171875 0.0625 1.015625 0.28125q1.21875 0.328125 1.6875 0.53125q0.484375 0.203125 0.75 0.609375q0.28125 0.390625 0.28125 0.96875q0 0.578125 -0.34375 1.078125q-0.328125 0.5 -0.953125 0.78125q-0.625 0.28125 -1.421875 0.28125q-1.3125 0 -2.0 -0.546875q-0.6875 -0.546875 -0.875 -1.625z" fill-rule="nonzero"></path><path fill="#cfe2f3" d="m227.12862 267.88965l106.267715 0l0 109.87891l-17.71164 17.71164l-88.556076 0z" fill-rule="evenodd"></path><path fill="#a5b4c2" d="m315.6847 395.4802l3.542328 -14.169312l14.169312 -3.542328z" fill-rule="evenodd"></path><path fill="#000000" fill-opacity="0.0" d="m315.6847 395.4802l3.542328 -14.169312l14.169312 -3.542328l-17.71164 17.71164l-88.556076 0l0 -127.590546l106.267715 0l0 109.87891" fill-rule="evenodd"></path><path stroke="#000000" stroke-width="2.0" stroke-linejoin="round" stroke-linecap="butt" d="m315.6847 395.4802l3.542328 -14.169312l14.169312 -3.542328l-17.71164 17.71164l-88.556076 0l0 -127.590546l106.267715 0l0 109.87891" fill-rule="evenodd"></path><path fill="#000000" d="m269.429 317.45724l1.1875 0.140625q-0.28125 1.046875 -1.046875 1.625q-0.75 0.5625 -1.921875 0.5625q-1.484375 0 -2.359375 -0.90625q-0.859375 -0.921875 -0.859375 -2.5625q0 -1.703125 0.875 -2.640625q0.890625 -0.9375 2.28125 -0.9375q1.359375 0 2.203125 0.921875q0.859375 0.921875 0.859375 2.578125q0 0.109375 0 0.3125l-5.03125 0q0.0625 1.109375 0.625 1.703125q0.5625 0.59375 1.40625 0.59375q0.640625 0 1.078125 -0.328125q0.453125 -0.34375 0.703125 -1.0625zm-3.75 -1.84375l3.765625 0q-0.078125 -0.859375 -0.4375 -1.28125q-0.546875 -0.65625 -1.40625 -0.65625q-0.796875 0 -1.328125 0.53125q-0.53125 0.515625 -0.59375 1.40625zm8.428101 4.015625l-2.5625 -6.734375l1.203125 0l1.4375 4.03125q0.234375 0.65625 0.4375 1.359375q0.15625 -0.53125 0.421875 -1.28125l1.5 -4.109375l1.171875 0l-2.546875 6.734375l-1.0625 0zm9.3984375 -2.171875l1.1875 0.140625q-0.28125 1.046875 -1.046875 1.625q-0.75 0.5625 -1.921875 0.5625q-1.484375 0 -2.359375 -0.90625q-0.859375 -0.921875 -0.859375 -2.5625q0 -1.703125 0.875 -2.640625q0.890625 -0.9375 2.28125 -0.9375q1.359375 0 2.203125 0.921875q0.859375 0.921875 0.859375 2.578125q0 0.109375 0 0.3125l-5.03125 0q0.0625 1.109375 0.625 1.703125q0.5625 0.59375 1.40625 0.59375q0.640625 0 1.078125 -0.328125q0.453125 -0.34375 0.703125 -1.0625zm-3.75 -1.84375l3.765625 0q-0.078125 -0.859375 -0.4375 -1.28125q-0.546875 -0.65625 -1.40625 -0.65625q-0.796875 0 -1.328125 0.53125q-0.53125 0.515625 -0.59375 1.40625zm6.5531006 4.015625l0 -6.734375l1.03125 0l0 0.953125q0.734375 -1.109375 2.140625 -1.109375q0.609375 0 1.109375 0.21875q0.515625 0.21875 0.765625 0.578125q0.265625 0.34375 0.359375 0.84375q0.0625 0.3125 0.0625 1.109375l0 4.140625l-1.140625 0l0 -4.09375q0 -0.703125 -0.140625 -1.046875q-0.125 -0.34375 -0.46875 -0.546875q-0.328125 -0.21875 -0.78125 -0.21875q-0.734375 0 -1.265625 0.46875q-0.53125 0.453125 -0.53125 1.75l0 3.6875l-1.140625 0zm9.912476 -1.015625l0.15625 1.0q-0.484375 0.109375 -0.859375 0.109375q-0.625 0 -0.96875 -0.203125q-0.34375 -0.203125 -0.484375 -0.515625q-0.140625 -0.328125 -0.140625 -1.34375l0 -3.890625l-0.828125 0l0 -0.875l0.828125 0l0 -1.671875l1.140625 -0.6875l0 2.359375l1.15625 0l0 0.875l-1.15625 0l0 3.953125q0 0.484375 0.0625 0.625q0.0625 0.140625 0.1875 0.21875q0.140625 0.078125 0.390625 0.078125q0.203125 0 0.515625 -0.03125z" fill-rule="nonzero"></path><path fill="#000000" d="m272.19757 335.62912l0 -9.3125l1.140625 0l0 9.3125l-1.140625 0zm2.570465 -3.375q0 -1.875 1.03125 -2.765625q0.875 -0.75 2.125 -0.75q1.390625 0 2.265625 0.90625q0.890625 0.90625 0.890625 2.515625q0 1.296875 -0.390625 2.046875q-0.390625 0.75 -1.140625 1.171875q-0.75 0.40625 -1.625 0.40625q-1.421875 0 -2.296875 -0.90625q-0.859375 -0.90625 -0.859375 -2.625zm1.171875 0q0 1.296875 0.5625 1.953125q0.5625 0.640625 1.421875 0.640625q0.84375 0 1.40625 -0.640625q0.578125 -0.65625 0.578125 -1.984375q0 -1.25 -0.578125 -1.890625q-0.5625 -0.65625 -1.40625 -0.65625q-0.859375 0 -1.421875 0.640625q-0.5625 0.640625 -0.5625 1.9375zm6.4437256 3.9375l1.125 0.15625q0.0625 0.515625 0.375 0.75q0.4375 0.328125 1.171875 0.328125q0.78125 0 1.21875 -0.328125q0.4375 -0.3125 0.578125 -0.890625q0.09375 -0.34375 0.09375 -1.453125q-0.75 0.875 -1.875 0.875q-1.390625 0 -2.15625 -1.0q-0.75 -1.0 -0.75 -2.40625q0 -0.96875 0.34375 -1.78125q0.359375 -0.8125 1.015625 -1.25q0.65625 -0.453125 1.5625 -0.453125q1.1875 0 1.96875 0.96875l0 -0.8125l1.046875 0l0 5.8125q0 1.578125 -0.328125 2.234375q-0.3125 0.65625 -1.015625 1.03125q-0.6875 0.390625 -1.703125 0.390625q-1.203125 0 -1.953125 -0.546875q-0.734375 -0.53125 -0.71875 -1.625zm0.953125 -4.046875q0 1.3125 0.515625 1.921875q0.53125 0.609375 1.328125 0.609375q0.796875 0 1.328125 -0.59375q0.53125 -0.609375 0.53125 -1.90625q0 -1.234375 -0.546875 -1.859375q-0.546875 -0.640625 -1.328125 -0.640625q-0.765625 0 -1.296875 0.625q-0.53125 0.625 -0.53125 1.84375z" fill-rule="nonzero"></path><path fill="#d9ead3" d="m514.23883 312.45804l37.81958 0l0 35.5813c-18.908752 0 -18.908752 13.68988 -37.81958 6.84494zm3.1159058 0l0 -4.612915l37.56128 0l0 35.804535c-1.4277954 0 -2.857605 0.24798584 -2.857605 0.24798584l0 -31.439606zm2.928711 -4.612915l0 -4.5012817l37.88672 0l0 35.6929c-1.6270752 0 -3.2541504 0.18600464 -3.2541504 0.18600464l0 -31.377625z" fill-rule="evenodd"></path><path fill="#000000" fill-opacity="0.0" d="m514.23883 312.45804l37.81958 0l0 35.5813c-18.908752 0 -18.908752 13.68988 -37.81958 6.84494zm3.1159058 0l0 -4.612915l37.56128 0l0 35.804535c-1.4277954 0 -2.857605 0.24798584 -2.857605 0.24798584m-31.774963 -36.05252l0 -4.5012817l37.88672 0l0 35.6929c-1.6270752 0 -3.2541504 0.18600464 -3.2541504 0.18600464" fill-rule="evenodd"></path><path fill="#000000" fill-opacity="0.0" d="m514.23883 354.88428c18.910828 6.84494 18.910828 -6.84494 37.81958 -6.84494l0 -4.141693c0 0 1.4298096 -0.24798584 2.857605 -0.24798584l0 -4.4269104c0 0 1.6270752 -0.18600464 3.2541504 -0.18600464l0 -35.6929l-37.88672 0l0 4.5012817l-2.928711 0l0 4.612915l-3.1159058 0z" fill-rule="evenodd"></path><path stroke="#000000" stroke-width="2.0" stroke-linejoin="round" stroke-linecap="butt" d="m514.23883 312.45804l37.81958 0l0 35.5813c-18.908752 0 -18.908752 13.68988 -37.81958 6.84494zm3.1159058 0l0 -4.612915l37.56128 0l0 35.804535c-1.4277954 0 -2.857605 0.24798584 -2.857605 0.24798584m-31.774963 -36.05252l0 -4.5012817l37.88672 0l0 35.6929c-1.6270752 0 -3.2541504 0.18600464 -3.2541504 0.18600464" fill-rule="evenodd"></path><path fill="#d9d2e9" d="m884.7441 165.33598l37.81958 0l0 35.581314c-18.908752 0 -18.908752 13.68988 -37.81958 6.84494zm3.1159058 0l0 -4.6129l37.56128 0l0 35.80452c-1.4277954 0 -2.857605 0.2480011 -2.857605 0.2480011l0 -31.439621zm2.928711 -4.6129l0 -4.501297l37.88672 0l0 35.692917c-1.6270752 0 -3.2541504 0.18600464 -3.2541504 0.18600464l0 -31.377625z" fill-rule="evenodd"></path><path fill="#000000" fill-opacity="0.0" d="m884.7441 165.33598l37.81958 0l0 35.581314c-18.908752 0 -18.908752 13.68988 -37.81958 6.84494zm3.1159058 0l0 -4.6129l37.56128 0l0 35.80452c-1.4277954 0 -2.857605 0.2480011 -2.857605 0.2480011m-31.774963 -36.05252l0 -4.501297l37.88672 0l0 35.692917c-1.6270752 0 -3.2541504 0.18600464 -3.2541504 0.18600464" fill-rule="evenodd"></path><path fill="#000000" fill-opacity="0.0" d="m884.7441 207.76224c18.910828 6.84494 18.910828 -6.84494 37.81958 -6.84494l0 -4.141693c0 0 1.4298096 -0.2480011 2.857605 -0.2480011l0 -4.426895c0 0 1.6270752 -0.18600464 3.2541504 -0.18600464l0 -35.692917l-37.88672 0l0 4.501297l-2.928711 0l0 4.6129l-3.1159058 0z" fill-rule="evenodd"></path><path stroke="#000000" stroke-width="2.0" stroke-linejoin="round" stroke-linecap="butt" d="m884.7441 165.33598l37.81958 0l0 35.581314c-18.908752 0 -18.908752 13.68988 -37.81958 6.84494zm3.1159058 0l0 -4.6129l37.56128 0l0 35.80452c-1.4277954 0 -2.857605 0.2480011 -2.857605 0.2480011m-31.774963 -36.05252l0 -4.501297l37.88672 0l0 35.692917c-1.6270752 0 -3.2541504 0.18600464 -3.2541504 0.18600464" fill-rule="evenodd"></path><path fill="#cfe2f3" d="m832.32153 165.33598l37.81958 0l0 35.581314c-18.908752 0 -18.908752 13.68988 -37.81958 6.84494zm3.1158447 0l0 -4.6129l37.56128 0l0 35.80452c-1.4277344 0 -2.857544 0.2480011 -2.857544 0.2480011l0 -31.439621zm2.928772 -4.6129l0 -4.501297l37.88672 0l0 35.692917c-1.6270752 0 -3.2542114 0.18600464 -3.2542114 0.18600464l0 -31.377625z" fill-rule="evenodd"></path><path fill="#000000" fill-opacity="0.0" d="m832.32153 165.33598l37.81958 0l0 35.581314c-18.908752 0 -18.908752 13.68988 -37.81958 6.84494zm3.1158447 0l0 -4.6129l37.56128 0l0 35.80452c-1.4277344 0 -2.857544 0.2480011 -2.857544 0.2480011m-31.774963 -36.05252l0 -4.501297l37.88672 0l0 35.692917c-1.6270752 0 -3.2542114 0.18600464 -3.2542114 0.18600464" fill-rule="evenodd"></path><path fill="#000000" fill-opacity="0.0" d="m832.32153 207.76224c18.910828 6.84494 18.910828 -6.84494 37.81958 -6.84494l0 -4.141693c0 0 1.4298096 -0.2480011 2.857544 -0.2480011l0 -4.426895c0 0 1.6271362 -0.18600464 3.2542114 -0.18600464l0 -35.692917l-37.88672 0l0 4.501297l-2.928772 0l0 4.6129l-3.1158447 0z" fill-rule="evenodd"></path><path stroke="#000000" stroke-width="2.0" stroke-linejoin="round" stroke-linecap="butt" d="m832.32153 165.33598l37.81958 0l0 35.581314c-18.908752 0 -18.908752 13.68988 -37.81958 6.84494zm3.1158447 0l0 -4.6129l37.56128 0l0 35.80452c-1.4277344 0 -2.857544 0.2480011 -2.857544 0.2480011m-31.774963 -36.05252l0 -4.501297l37.88672 0l0 35.692917c-1.6270752 0 -3.2542114 0.18600464 -3.2542114 0.18600464" fill-rule="evenodd"></path><path fill="#d9ead3" d="m779.8989 165.33598l37.81964 0l0 35.581314c-18.908813 0 -18.908813 13.68988 -37.81964 6.84494zm3.1159058 0l0 -4.6129l37.56128 0l0 35.80452c-1.4277344 0 -2.857544 0.2480011 -2.857544 0.2480011l0 -31.439621zm2.928772 -4.6129l0 -4.501297l37.886658 0l0 35.692917c-1.6270752 0 -3.2541504 0.18600464 -3.2541504 0.18600464l0 -31.377625z" fill-rule="evenodd"></path><path fill="#000000" fill-opacity="0.0" d="m779.8989 165.33598l37.81964 0l0 35.581314c-18.908813 0 -18.908813 13.68988 -37.81964 6.84494zm3.1159058 0l0 -4.6129l37.56128 0l0 35.80452c-1.4277344 0 -2.857544 0.2480011 -2.857544 0.2480011m-31.774963 -36.05252l0 -4.501297l37.886658 0l0 35.692917c-1.6270752 0 -3.2541504 0.18600464 -3.2541504 0.18600464" fill-rule="evenodd"></path><path fill="#000000" fill-opacity="0.0" d="m779.8989 207.76224c18.910828 6.84494 18.910828 -6.84494 37.81964 -6.84494l0 -4.141693c0 0 1.4298096 -0.2480011 2.857544 -0.2480011l0 -4.426895c0 0 1.6270752 -0.18600464 3.2541504 -0.18600464l0 -35.692917l-37.886658 0l0 4.501297l-2.928772 0l0 4.6129l-3.1159058 0z" fill-rule="evenodd"></path><path stroke="#000000" stroke-width="2.0" stroke-linejoin="round" stroke-linecap="butt" d="m779.8989 165.33598l37.81964 0l0 35.581314c-18.908813 0 -18.908813 13.68988 -37.81964 6.84494zm3.1159058 0l0 -4.6129l37.56128 0l0 35.80452c-1.4277344 0 -2.857544 0.2480011 -2.857544 0.2480011m-31.774963 -36.05252l0 -4.501297l37.886658 0l0 35.692917c-1.6270752 0 -3.2541504 0.18600464 -3.2541504 0.18600464" fill-rule="evenodd"></path><path fill="#f4cccc" d="m470.3084 269.59058l37.81958 0l0 35.5813c-18.908783 0 -18.908783 13.689911 -37.81958 6.84494zm3.1158447 0l0 -4.612915l37.56131 0l0 35.804535c-1.4277649 0 -2.8575745 0.24798584 -2.8575745 0.24798584l0 -31.439606zm2.928772 -4.612915l0 -4.5012817l37.88672 0l0 35.6929c-1.6270752 0 -3.254181 0.18600464 -3.254181 0.18600464l0 -31.377625z" fill-rule="evenodd"></path><path fill="#000000" fill-opacity="0.0" d="m470.3084 269.59058l37.81958 0l0 35.5813c-18.908783 0 -18.908783 13.689911 -37.81958 6.84494zm3.1158447 0l0 -4.612915l37.56131 0l0 35.804535c-1.4277649 0 -2.8575745 0.24798584 -2.8575745 0.24798584m-31.774963 -36.05252l0 -4.5012817l37.88672 0l0 35.6929c-1.6270752 0 -3.254181 0.18600464 -3.254181 0.18600464" fill-rule="evenodd"></path><path fill="#000000" fill-opacity="0.0" d="m470.3084 312.0168c18.910797 6.8449707 18.910797 -6.84494 37.81958 -6.84494l0 -4.141693c0 0 1.4298096 -0.24798584 2.8575745 -0.24798584l0 -4.4269104c0 0 1.6271057 -0.18600464 3.254181 -0.18600464l0 -35.6929l-37.88672 0l0 4.5012817l-2.928772 0l0 4.612915l-3.1158447 0z" fill-rule="evenodd"></path><path stroke="#000000" stroke-width="2.0" stroke-linejoin="round" stroke-linecap="butt" d="m470.3084 269.59058l37.81958 0l0 35.5813c-18.908783 0 -18.908783 13.689911 -37.81958 6.84494zm3.1158447 0l0 -4.612915l37.56131 0l0 35.804535c-1.4277649 0 -2.8575745 0.24798584 -2.8575745 0.24798584m-31.774963 -36.05252l0 -4.5012817l37.88672 0l0 35.6929c-1.6270752 0 -3.254181 0.18600464 -3.254181 0.18600464" fill-rule="evenodd"></path><path fill="#d9d2e9" d="m558.1693 359.16537l37.81958 0l0 35.5813c-18.908813 0 -18.908813 13.689911 -37.81958 6.8449707zm3.1158447 0l0 -4.6128845l37.56128 0l0 35.804504c-1.4277344 0 -2.857544 0.24801636 -2.857544 0.24801636l0 -31.439636zm2.928772 -4.6128845l0 -4.5013123l37.88672 0l0 35.692932c-1.6270752 0 -3.2542114 0.18600464 -3.2542114 0.18600464l0 -31.377625z" fill-rule="evenodd"></path><path fill="#000000" fill-opacity="0.0" d="m558.1693 359.16537l37.81958 0l0 35.5813c-18.908813 0 -18.908813 13.689911 -37.81958 6.8449707zm3.1158447 0l0 -4.6128845l37.56128 0l0 35.804504c-1.4277344 0 -2.857544 0.24801636 -2.857544 0.24801636m-31.774963 -36.05252l0 -4.5013123l37.88672 0l0 35.692932c-1.6270752 0 -3.2542114 0.18600464 -3.2542114 0.18600464" fill-rule="evenodd"></path><path fill="#000000" fill-opacity="0.0" d="m558.1693 401.59164c18.910767 6.84494 18.910767 -6.8449707 37.81958 -6.8449707l0 -4.1416626c0 0 1.4298096 -0.24801636 2.857544 -0.24801636l0 -4.42688c0 0 1.6271362 -0.18600464 3.2542114 -0.18600464l0 -35.692932l-37.88672 0l0 4.5013123l-2.928772 0l0 4.6128845l-3.1158447 0z" fill-rule="evenodd"></path><path stroke="#000000" stroke-width="2.0" stroke-linejoin="round" stroke-linecap="butt" d="m558.1693 359.16537l37.81958 0l0 35.5813c-18.908813 0 -18.908813 13.689911 -37.81958 6.8449707zm3.1158447 0l0 -4.6128845l37.56128 0l0 35.804504c-1.4277344 0 -2.857544 0.24801636 -2.857544 0.24801636m-31.774963 -36.05252l0 -4.5013123l37.88672 0l0 35.692932c-1.6270752 0 -3.2542114 0.18600464 -3.2542114 0.18600464" fill-rule="evenodd"></path><path fill="#fff2cc" d="m526.81616 501.29266l61.989502 0l0 0l26.566956 0l17.711243 0l0 12.729675l101.239136 -73.76407l-101.239136 92.85855l0 44.553772l-17.711243 0l-26.566956 0l0 0l-61.989502 0l0 -44.553772l0 -19.094482l0 0z" fill-rule="evenodd"></path><path stroke="#000000" stroke-width="2.0" stroke-linejoin="round" stroke-linecap="butt" d="m526.81616 501.29266l61.989502 0l0 0l26.566956 0l17.711243 0l0 12.729675l101.239136 -73.76407l-101.239136 92.85855l0 44.553772l-17.711243 0l-26.566956 0l0 0l-61.989502 0l0 -44.553772l0 -19.094482l0 0z" fill-rule="evenodd"></path><path fill="#000000" d="m536.86304 536.2816l0 -9.3125l1.21875 0l0 3.828125l4.84375 0l0 -3.828125l1.234375 0l0 9.3125l-1.234375 0l0 -4.390625l-4.84375 0l0 4.390625l-1.21875 0zm13.828308 -0.828125q-0.625 0.53125 -1.21875 0.765625q-0.578125 0.21875 -1.25 0.21875q-1.125 0 -1.71875 -0.546875q-0.59375 -0.546875 -0.59375 -1.390625q0 -0.484375 0.21875 -0.890625q0.234375 -0.421875 0.59375 -0.671875q0.375 -0.25 0.828125 -0.375q0.328125 -0.078125 1.015625 -0.171875q1.375 -0.15625 2.03125 -0.390625q0.015625 -0.234375 0.015625 -0.296875q0 -0.703125 -0.328125 -0.984375q-0.4375 -0.390625 -1.296875 -0.390625q-0.8125 0 -1.203125 0.28125q-0.375 0.28125 -0.5625 1.0l-1.109375 -0.140625q0.140625 -0.71875 0.484375 -1.15625q0.359375 -0.453125 1.015625 -0.6875q0.671875 -0.234375 1.53125 -0.234375q0.875 0 1.40625 0.203125q0.546875 0.203125 0.796875 0.515625q0.25 0.296875 0.359375 0.765625q0.046875 0.296875 0.046875 1.0625l0 1.515625q0 1.59375 0.078125 2.015625q0.078125 0.421875 0.28125 0.8125l-1.1875 0q-0.171875 -0.359375 -0.234375 -0.828125zm-0.09375 -2.5625q-0.625 0.265625 -1.859375 0.4375q-0.703125 0.109375 -1.0 0.234375q-0.296875 0.125 -0.453125 0.375q-0.15625 0.234375 -0.15625 0.53125q0 0.453125 0.34375 0.765625q0.34375 0.296875 1.015625 0.296875q0.65625 0 1.171875 -0.28125q0.515625 -0.296875 0.765625 -0.796875q0.171875 -0.375 0.171875 -1.140625l0 -0.421875zm7.4906006 3.390625l0 -0.84375q-0.640625 1.0 -1.890625 1.0q-0.796875 0 -1.484375 -0.4375q-0.671875 -0.453125 -1.046875 -1.25q-0.375 -0.796875 -0.375 -1.828125q0 -1.015625 0.34375 -1.828125q0.34375 -0.828125 1.015625 -1.265625q0.671875 -0.4375 1.5 -0.4375q0.609375 0 1.078125 0.265625q0.484375 0.25 0.78125 0.65625l0 -3.34375l1.140625 0l0 9.3125l-1.0625 0zm-3.609375 -3.359375q0 1.296875 0.53125 1.9375q0.546875 0.640625 1.296875 0.640625q0.75 0 1.265625 -0.609375q0.53125 -0.625 0.53125 -1.875q0 -1.390625 -0.53125 -2.03125q-0.53125 -0.65625 -1.3125 -0.65625q-0.765625 0 -1.28125 0.625q-0.5 0.625 -0.5 1.96875zm6.2249756 -0.015625q0 -1.875 1.03125 -2.765625q0.875 -0.75 2.125 -0.75q1.390625 0 2.265625 0.90625q0.890625 0.90625 0.890625 2.515625q0 1.296875 -0.390625 2.046875q-0.390625 0.75 -1.140625 1.171875q-0.75 0.40625 -1.625 0.40625q-1.421875 0 -2.296875 -0.90625q-0.859375 -0.90625 -0.859375 -2.625zm1.171875 0q0 1.296875 0.5625 1.953125q0.5625 0.640625 1.421875 0.640625q0.84375 0 1.40625 -0.640625q0.578125 -0.65625 0.578125 -1.984375q0 -1.25 -0.578125 -1.890625q-0.5625 -0.65625 -1.40625 -0.65625q-0.859375 0 -1.421875 0.640625q-0.5625 0.640625 -0.5625 1.9375zm6.2406006 0q0 -1.875 1.03125 -2.765625q0.875 -0.75 2.125 -0.75q1.390625 0 2.265625 0.90625q0.890625 0.90625 0.890625 2.515625q0 1.296875 -0.390625 2.046875q-0.390625 0.75 -1.140625 1.171875q-0.75 0.40625 -1.625 0.40625q-1.421875 0 -2.296875 -0.90625q-0.859375 -0.90625 -0.859375 -2.625zm1.171875 0q0 1.296875 0.5625 1.953125q0.5625 0.640625 1.421875 0.640625q0.84375 0 1.40625 -0.640625q0.578125 -0.65625 0.578125 -1.984375q0 -1.25 -0.578125 -1.890625q-0.5625 -0.65625 -1.40625 -0.65625q-0.859375 0 -1.421875 0.640625q-0.5625 0.640625 -0.5625 1.9375zm6.6624756 5.953125l0 -9.3125l1.03125 0l0 0.875q0.375 -0.515625 0.828125 -0.765625q0.46875 -0.265625 1.140625 -0.265625q0.859375 0 1.515625 0.453125q0.65625 0.4375 0.984375 1.25q0.34375 0.796875 0.34375 1.765625q0 1.03125 -0.375 1.859375q-0.359375 0.828125 -1.078125 1.28125q-0.703125 0.4375 -1.484375 0.4375q-0.5625 0 -1.015625 -0.234375q-0.453125 -0.25 -0.75 -0.625l0 3.28125l-1.140625 0zm1.03125 -5.90625q0 1.296875 0.53125 1.921875q0.53125 0.625 1.265625 0.625q0.765625 0 1.3125 -0.640625q0.546875 -0.65625 0.546875 -2.0q0 -1.296875 -0.53125 -1.9375q-0.53125 -0.640625 -1.265625 -0.640625q-0.734375 0 -1.296875 0.6875q-0.5625 0.671875 -0.5625 1.984375z" fill-rule="nonzero"></path><path fill="#000000" d="m541.05054 552.2816l0 -0.84375q-0.640625 1.0 -1.890625 1.0q-0.796875 0 -1.484375 -0.4375q-0.671875 -0.453125 -1.046875 -1.25q-0.375 -0.796875 -0.375 -1.828125q0 -1.015625 0.34375 -1.828125q0.34375 -0.828125 1.015625 -1.265625q0.671875 -0.4375 1.5 -0.4375q0.609375 0 1.078125 0.265625q0.484375 0.25 0.78125 0.65625l0 -3.34375l1.140625 0l0 9.3125l-1.0625 0zm-3.609375 -3.359375q0 1.296875 0.53125 1.9375q0.546875 0.640625 1.296875 0.640625q0.75 0 1.265625 -0.609375q0.53125 -0.625 0.53125 -1.875q0 -1.390625 -0.53125 -2.03125q-0.53125 -0.65625 -1.3125 -0.65625q-0.765625 0 -1.28125 0.625q-0.5 0.625 -0.5 1.96875zm11.037476 2.53125q-0.625 0.53125 -1.21875 0.765625q-0.578125 0.21875 -1.25 0.21875q-1.125 0 -1.71875 -0.546875q-0.59375 -0.546875 -0.59375 -1.390625q0 -0.484375 0.21875 -0.890625q0.234375 -0.421875 0.59375 -0.671875q0.375 -0.25 0.828125 -0.375q0.328125 -0.078125 1.015625 -0.171875q1.375 -0.15625 2.03125 -0.390625q0.015625 -0.234375 0.015625 -0.296875q0 -0.703125 -0.328125 -0.984375q-0.4375 -0.390625 -1.296875 -0.390625q-0.8125 0 -1.203125 0.28125q-0.375 0.28125 -0.5625 1.0l-1.109375 -0.140625q0.140625 -0.71875 0.484375 -1.15625q0.359375 -0.453125 1.015625 -0.6875q0.671875 -0.234375 1.53125 -0.234375q0.875 0 1.40625 0.203125q0.546875 0.203125 0.796875 0.515625q0.25 0.296875 0.359375 0.765625q0.046875 0.296875 0.046875 1.0625l0 1.515625q0 1.59375 0.078125 2.015625q0.078125 0.421875 0.28125 0.8125l-1.1875 0q-0.171875 -0.359375 -0.234375 -0.828125zm-0.09375 -2.5625q-0.625 0.265625 -1.859375 0.4375q-0.703125 0.109375 -1.0 0.234375q-0.296875 0.125 -0.453125 0.375q-0.15625 0.234375 -0.15625 0.53125q0 0.453125 0.34375 0.765625q0.34375 0.296875 1.015625 0.296875q0.65625 0 1.171875 -0.28125q0.515625 -0.296875 0.765625 -0.796875q0.171875 -0.375 0.171875 -1.140625l0 -0.421875zm5.6156006 2.375l0.15625 1.0q-0.484375 0.109375 -0.859375 0.109375q-0.625 0 -0.96875 -0.203125q-0.34375 -0.203125 -0.484375 -0.515625q-0.140625 -0.328125 -0.140625 -1.34375l0 -3.890625l-0.828125 0l0 -0.875l0.828125 0l0 -1.671875l1.140625 -0.6875l0 2.359375l1.15625 0l0 0.875l-1.15625 0l0 3.953125q0 0.484375 0.0625 0.625q0.0625 0.140625 0.1875 0.21875q0.140625 0.078125 0.390625 0.078125q0.203125 0 0.515625 -0.03125zm5.593628 0.1875q-0.625 0.53125 -1.21875 0.765625q-0.578125 0.21875 -1.25 0.21875q-1.125 0 -1.71875 -0.546875q-0.59375 -0.546875 -0.59375 -1.390625q0 -0.484375 0.21875 -0.890625q0.234375 -0.421875 0.59375 -0.671875q0.375 -0.25 0.828125 -0.375q0.328125 -0.078125 1.015625 -0.171875q1.375 -0.15625 2.03125 -0.390625q0.015625 -0.234375 0.015625 -0.296875q0 -0.703125 -0.328125 -0.984375q-0.4375 -0.390625 -1.296875 -0.390625q-0.8125 0 -1.203125 0.28125q-0.375 0.28125 -0.5625 1.0l-1.109375 -0.140625q0.140625 -0.71875 0.484375 -1.15625q0.359375 -0.453125 1.015625 -0.6875q0.671875 -0.234375 1.53125 -0.234375q0.875 0 1.40625 0.203125q0.546875 0.203125 0.796875 0.515625q0.25 0.296875 0.359375 0.765625q0.046875 0.296875 0.046875 1.0625l0 1.515625q0 1.59375 0.078125 2.015625q0.078125 0.421875 0.28125 0.8125l-1.1875 0q-0.171875 -0.359375 -0.234375 -0.828125zm-0.09375 -2.5625q-0.625 0.265625 -1.859375 0.4375q-0.703125 0.109375 -1.0 0.234375q-0.296875 0.125 -0.453125 0.375q-0.15625 0.234375 -0.15625 0.53125q0 0.453125 0.34375 0.765625q0.34375 0.296875 1.015625 0.296875q0.65625 0 1.171875 -0.28125q0.515625 -0.296875 0.765625 -0.796875q0.171875 -0.375 0.171875 -1.140625l0 -0.421875zm3.1156006 3.390625l0 -6.734375l1.03125 0l0 0.953125q0.734375 -1.109375 2.140625 -1.109375q0.609375 0 1.109375 0.21875q0.515625 0.21875 0.765625 0.578125q0.265625 0.34375 0.359375 0.84375q0.0625 0.3125 0.0625 1.109375l0 4.140625l-1.140625 0l0 -4.09375q0 -0.703125 -0.140625 -1.046875q-0.125 -0.34375 -0.46875 -0.546875q-0.328125 -0.21875 -0.78125 -0.21875q-0.734375 0 -1.265625 0.46875q-0.53125 0.453125 -0.53125 1.75l0 3.6875l-1.140625 0zm6.9906006 -3.375q0 -1.875 1.03125 -2.765625q0.875 -0.75 2.125 -0.75q1.390625 0 2.265625 0.90625q0.890625 0.90625 0.890625 2.515625q0 1.296875 -0.390625 2.046875q-0.390625 0.75 -1.140625 1.171875q-0.75 0.40625 -1.625 0.40625q-1.421875 0 -2.296875 -0.90625q-0.859375 -0.90625 -0.859375 -2.625zm1.171875 0q0 1.296875 0.5625 1.953125q0.5625 0.640625 1.421875 0.640625q0.84375 0 1.40625 -0.640625q0.578125 -0.65625 0.578125 -1.984375q0 -1.25 -0.578125 -1.890625q-0.5625 -0.65625 -1.40625 -0.65625q-0.859375 0 -1.421875 0.640625q-0.5625 0.640625 -0.5625 1.9375zm11.037476 3.375l0 -0.84375q-0.640625 1.0 -1.890625 1.0q-0.796875 0 -1.484375 -0.4375q-0.671875 -0.453125 -1.046875 -1.25q-0.375 -0.796875 -0.375 -1.828125q0 -1.015625 0.34375 -1.828125q0.34375 -0.828125 1.015625 -1.265625q0.671875 -0.4375 1.5 -0.4375q0.609375 0 1.078125 0.265625q0.484375 0.25 0.78125 0.65625l0 -3.34375l1.140625 0l0 9.3125l-1.0625 0zm-3.609375 -3.359375q0 1.296875 0.53125 1.9375q0.546875 0.640625 1.296875 0.640625q0.75 0 1.265625 -0.609375q0.53125 -0.625 0.53125 -1.875q0 -1.390625 -0.53125 -2.03125q-0.53125 -0.65625 -1.3125 -0.65625q-0.765625 0 -1.28125 0.625q-0.5 0.625 -0.5 1.96875zm11.256226 1.1875l1.1875 0.140625q-0.28125 1.046875 -1.046875 1.625q-0.75 0.5625 -1.921875 0.5625q-1.484375 0 -2.359375 -0.90625q-0.859375 -0.921875 -0.859375 -2.5625q0 -1.703125 0.875 -2.640625q0.890625 -0.9375 2.28125 -0.9375q1.359375 0 2.203125 0.921875q0.859375 0.921875 0.859375 2.578125q0 0.109375 0 0.3125l-5.03125 0q0.0625 1.109375 0.625 1.703125q0.5625 0.59375 1.40625 0.59375q0.640625 0 1.078125 -0.328125q0.453125 -0.34375 0.703125 -1.0625zm-3.75 -1.84375l3.765625 0q-0.078125 -0.859375 -0.4375 -1.28125q-0.546875 -0.65625 -1.40625 -0.65625q-0.796875 0 -1.328125 0.53125q-0.53125 0.515625 -0.59375 1.40625zm6.0999756 2.0l1.125 -0.171875q0.09375 0.671875 0.53125 1.046875q0.4375 0.359375 1.21875 0.359375q0.78125 0 1.15625 -0.3125q0.390625 -0.328125 0.390625 -0.765625q0 -0.390625 -0.34375 -0.609375q-0.234375 -0.15625 -1.171875 -0.390625q-1.25 -0.3125 -1.734375 -0.546875q-0.484375 -0.234375 -0.734375 -0.640625q-0.25 -0.40625 -0.25 -0.90625q0 -0.453125 0.203125 -0.828125q0.203125 -0.390625 0.5625 -0.640625q0.265625 -0.203125 0.71875 -0.328125q0.46875 -0.140625 1.0 -0.140625q0.78125 0 1.375 0.234375q0.609375 0.21875 0.890625 0.609375q0.296875 0.390625 0.40625 1.046875l-1.125 0.15625q-0.078125 -0.53125 -0.4375 -0.8125q-0.359375 -0.296875 -1.03125 -0.296875q-0.78125 0 -1.125 0.265625q-0.34375 0.25 -0.34375 0.609375q0 0.21875 0.140625 0.390625q0.140625 0.1875 0.4375 0.3125q0.171875 0.0625 1.015625 0.28125q1.21875 0.328125 1.6875 0.53125q0.484375 0.203125 0.75 0.609375q0.28125 0.390625 0.28125 0.96875q0 0.578125 -0.34375 1.078125q-0.328125 0.5 -0.953125 0.78125q-0.625 0.28125 -1.421875 0.28125q-1.3125 0 -2.0 -0.546875q-0.6875 -0.546875 -0.875 -1.625z" fill-rule="nonzero"></path><path fill="#000000" fill-opacity="0.0" d="m643.35565 330.1273l74.74017 0" fill-rule="evenodd"></path><path stroke="#000000" stroke-width="2.0" stroke-linejoin="round" stroke-linecap="butt" d="m643.35565 330.1273l62.740173 0" fill-rule="evenodd"></path><path fill="#000000" stroke="#000000" stroke-width="2.0" stroke-linecap="butt" d="m706.0958 333.43076l9.076172 -3.3034668l-9.076172 -3.3034668z" fill-rule="evenodd"></path></g></svg>

