<?xml version="1.0" standalone="yes"?>

<svg version="1.1" viewBox="0.0 0.0 1202.286089238845 709.7139107611548" fill="none" stroke="none" stroke-linecap="square" stroke-miterlimit="10" xmlns="http://www.w3.org/2000/svg" xmlns:xlink="http://www.w3.org/1999/xlink"><clipPath id="p.0"><path d="m0 0l1202.2861 0l0 709.7139l-1202.2861 0l0 -709.7139z" clip-rule="nonzero"></path></clipPath><g clip-path="url(#p.0)"><path fill="#000000" fill-opacity="0.0" d="m0 0l1202.2861 0l0 709.7139l-1202.2861 0z" fill-rule="evenodd"></path><path fill="#cfe2f3" d="m409.8517 260.02036l0 0c0 -22.130783 76.30606 -40.07132 170.43436 -40.07132c94.12836 0 170.43439 17.940536 170.43439 40.07132l0 160.28519c0 22.130798 -76.30603 40.07132 -170.43439 40.07132c-94.128296 0 -170.43436 -17.940521 -170.43436 -40.07132z" fill-rule="evenodd"></path><path fill="#000000" fill-opacity="0.0" d="m750.72046 260.02036l0 0c0 22.130768 -76.30603 40.07129 -170.43439 40.07129c-94.128296 0 -170.43436 -17.940521 -170.43436 -40.07129" fill-rule="evenodd"></path><path fill="#000000" fill-opacity="0.0" d="m409.8517 260.02036l0 0c0 -22.130783 76.30606 -40.07132 170.43436 -40.07132c94.12836 0 170.43439 17.940536 170.43439 40.07132l0 160.28519c0 22.130798 -76.30603 40.07132 -170.43439 40.07132c-94.128296 0 -170.43436 -17.940521 -170.43436 -40.07132z" fill-rule="evenodd"></path><path stroke="#000000" stroke-width="2.0" stroke-linejoin="round" stroke-linecap="butt" d="m750.72046 260.02036l0 0c0 22.130768 -76.30603 40.07129 -170.43439 40.07129c-94.128296 0 -170.43436 -17.940521 -170.43436 -40.07129" fill-rule="evenodd"></path><path stroke="#000000" stroke-width="2.0" stroke-linejoin="round" stroke-linecap="butt" d="m409.8517 260.02036l0 0c0 -22.130783 76.30606 -40.07132 170.43436 -40.07132c94.12836 0 170.43439 17.940536 170.43439 40.07132l0 160.28519c0 22.130798 -76.30603 40.07132 -170.43439 40.07132c-94.128296 0 -170.43436 -17.940521 -170.43436 -40.07132z" fill-rule="evenodd"></path><path fill="#d9ead3" d="m654.67194 388.04727l37.81958 0l0 35.5813c-18.908813 0 -18.908813 13.689911 -37.81958 6.84494zm3.1158447 0l0 -4.612915l37.56128 0l0 35.804535c-1.4277344 0 -2.857544 0.24798584 -2.857544 0.24798584l0 -31.439606zm2.928772 -4.612915l0 -4.5012817l37.88672 0l0 35.6929c-1.6270752 0 -3.2542114 0.18600464 -3.2542114 0.18600464l0 -31.377625z" fill-rule="evenodd"></path><path fill="#000000" fill-opacity="0.0" d="m654.67194 388.04727l37.81958 0l0 35.5813c-18.908813 0 -18.908813 13.689911 -37.81958 6.84494zm3.1158447 0l0 -4.612915l37.56128 0l0 35.804535c-1.4277344 0 -2.857544 0.24798584 -2.857544 0.24798584m-31.774963 -36.05252l0 -4.5012817l37.88672 0l0 35.6929c-1.6270752 0 -3.2542114 0.18600464 -3.2542114 0.18600464" fill-rule="evenodd"></path><path fill="#000000" fill-opacity="0.0" d="m654.67194 430.4735c18.910767 6.8449707 18.910767 -6.84494 37.81958 -6.84494l0 -4.141693c0 0 1.4298096 -0.24798584 2.857544 -0.24798584l0 -4.4269104c0 0 1.6271362 -0.18600464 3.2542114 -0.18600464l0 -35.6929l-37.88672 0l0 4.5012817l-2.928772 0l0 4.612915l-3.1158447 0z" fill-rule="evenodd"></path><path stroke="#000000" stroke-width="2.0" stroke-linejoin="round" stroke-linecap="butt" d="m654.67194 388.04727l37.81958 0l0 35.5813c-18.908813 0 -18.908813 13.689911 -37.81958 6.84494zm3.1158447 0l0 -4.612915l37.56128 0l0 35.804535c-1.4277344 0 -2.857544 0.24798584 -2.857544 0.24798584m-31.774963 -36.05252l0 -4.5012817l37.88672 0l0 35.6929c-1.6270752 0 -3.2542114 0.18600464 -3.2542114 0.18600464" fill-rule="evenodd"></path><path fill="#f4cccc" d="m558.3202 398.94754l37.81964 0l0 35.5813c-18.908813 0 -18.908813 13.68988 -37.81964 6.84494zm3.1159058 0l0 -4.612915l37.56128 0l0 35.804535c-1.4277954 0 -2.857544 0.24798584 -2.857544 0.24798584l0 -31.439606zm2.928711 -4.612915l0 -4.5012817l37.88672 0l0 35.6929c-1.6270752 0 -3.2541504 0.18600464 -3.2541504 0.18600464l0 -31.377625z" fill-rule="evenodd"></path><path fill="#000000" fill-opacity="0.0" d="m558.3202 398.94754l37.81964 0l0 35.5813c-18.908813 0 -18.908813 13.68988 -37.81964 6.84494zm3.1159058 0l0 -4.612915l37.56128 0l0 35.804535c-1.4277954 0 -2.857544 0.24798584 -2.857544 0.24798584m-31.775024 -36.05252l0 -4.5012817l37.88672 0l0 35.6929c-1.6270752 0 -3.2541504 0.18600464 -3.2541504 0.18600464" fill-rule="evenodd"></path><path fill="#000000" fill-opacity="0.0" d="m558.3202 441.37378c18.910828 6.84494 18.910828 -6.84494 37.81964 -6.84494l0 -4.141693c0 0 1.4297485 -0.24798584 2.857544 -0.24798584l0 -4.4269104c0 0 1.6270752 -0.18600464 3.2541504 -0.18600464l0 -35.6929l-37.88672 0l0 4.5012817l-2.928711 0l0 4.612915l-3.1159058 0z" fill-rule="evenodd"></path><path stroke="#000000" stroke-width="2.0" stroke-linejoin="round" stroke-linecap="butt" d="m558.3202 398.94754l37.81964 0l0 35.5813c-18.908813 0 -18.908813 13.68988 -37.81964 6.84494zm3.1159058 0l0 -4.612915l37.56128 0l0 35.804535c-1.4277954 0 -2.857544 0.24798584 -2.857544 0.24798584m-31.775024 -36.05252l0 -4.5012817l37.88672 0l0 35.6929c-1.6270752 0 -3.2541504 0.18600464 -3.2541504 0.18600464" fill-rule="evenodd"></path><path fill="#d9d2e9" d="m461.9685 388.04727l37.81958 0l0 35.5813c-18.908783 0 -18.908783 13.689911 -37.81958 6.84494zm3.1158752 0l0 -4.612915l37.56128 0l0 35.804535c-1.4277649 0 -2.8575745 0.24798584 -2.8575745 0.24798584l0 -31.439606zm2.9287415 -4.612915l0 -4.5012817l37.88672 0l0 35.6929c-1.6270752 0 -3.254181 0.18600464 -3.254181 0.18600464l0 -31.377625z" fill-rule="evenodd"></path><path fill="#000000" fill-opacity="0.0" d="m461.9685 388.04727l37.81958 0l0 35.5813c-18.908783 0 -18.908783 13.689911 -37.81958 6.84494zm3.1158752 0l0 -4.612915l37.56128 0l0 35.804535c-1.4277649 0 -2.8575745 0.24798584 -2.8575745 0.24798584m-31.774963 -36.05252l0 -4.5012817l37.88672 0l0 35.6929c-1.6270752 0 -3.254181 0.18600464 -3.254181 0.18600464" fill-rule="evenodd"></path><path fill="#000000" fill-opacity="0.0" d="m461.9685 430.4735c18.910797 6.8449707 18.910797 -6.84494 37.81958 -6.84494l0 -4.141693c0 0 1.4298096 -0.24798584 2.8575745 -0.24798584l0 -4.4269104c0 0 1.6271057 -0.18600464 3.254181 -0.18600464l0 -35.6929l-37.88672 0l0 4.5012817l-2.9287415 0l0 4.612915l-3.1158752 0z" fill-rule="evenodd"></path><path stroke="#000000" stroke-width="2.0" stroke-linejoin="round" stroke-linecap="butt" d="m461.9685 388.04727l37.81958 0l0 35.5813c-18.908783 0 -18.908783 13.689911 -37.81958 6.84494zm3.1158752 0l0 -4.612915l37.56128 0l0 35.804535c-1.4277649 0 -2.8575745 0.24798584 -2.8575745 0.24798584m-31.774963 -36.05252l0 -4.5012817l37.88672 0l0 35.6929c-1.6270752 0 -3.254181 0.18600464 -3.254181 0.18600464" fill-rule="evenodd"></path><path fill="#fff2cc" d="m190.70322 495.65506l80.01312 0l0 0l34.29135 0l22.86087 0l0 12.729645l253.6901 -85.42389l-253.6901 104.51837l0 44.553833l-22.86087 0l-34.29135 0l0 0l-80.01312 0l0 -44.553833l0 -19.094482l0 0z" fill-rule="evenodd"></path><path stroke="#000000" stroke-width="2.0" stroke-linejoin="round" stroke-linecap="butt" d="m190.70322 495.65506l80.01312 0l0 0l34.29135 0l22.86087 0l0 12.729645l253.6901 -85.42389l-253.6901 104.51837l0 44.553833l-22.86087 0l-34.29135 0l0 0l-80.01312 0l0 -44.553833l0 -19.094482l0 0z" fill-rule="evenodd"></path><path fill="#000000" d="m224.7301 530.64404l0 -9.3125l3.203125 0q1.09375 0 1.65625 0.140625q0.8125 0.1875 1.375 0.671875q0.734375 0.609375 1.09375 1.578125q0.375 0.96875 0.375 2.21875q0 1.0625 -0.25 1.890625q-0.25 0.8125 -0.640625 1.34375q-0.390625 0.53125 -0.859375 0.84375q-0.453125 0.3125 -1.109375 0.46875q-0.640625 0.15625 -1.484375 0.15625l-3.359375 0zm1.234375 -1.09375l1.984375 0q0.921875 0 1.4375 -0.171875q0.53125 -0.171875 0.84375 -0.484375q0.4375 -0.4375 0.671875 -1.171875q0.25 -0.75 0.25 -1.796875q0 -1.46875 -0.484375 -2.25q-0.46875 -0.78125 -1.15625 -1.046875q-0.5 -0.1875 -1.59375 -0.1875l-1.953125 0l0 7.109375zm12.640778 0.265625q-0.625 0.53125 -1.21875 0.765625q-0.578125 0.21875 -1.25 0.21875q-1.125 0 -1.71875 -0.546875q-0.59375 -0.546875 -0.59375 -1.390625q0 -0.484375 0.21875 -0.890625q0.234375 -0.421875 0.59375 -0.671875q0.375 -0.25 0.828125 -0.375q0.328125 -0.078125 1.015625 -0.171875q1.375 -0.15625 2.03125 -0.390625q0.015625 -0.234375 0.015625 -0.296875q0 -0.703125 -0.328125 -0.984375q-0.4375 -0.390625 -1.296875 -0.390625q-0.8125 0 -1.203125 0.28125q-0.375 0.28125 -0.5625 1.0l-1.109375 -0.140625q0.140625 -0.71875 0.484375 -1.15625q0.359375 -0.453125 1.015625 -0.6875q0.671875 -0.234375 1.53125 -0.234375q0.875 0 1.40625 0.203125q0.546875 0.203125 0.796875 0.515625q0.25 0.296875 0.359375 0.765625q0.046875 0.296875 0.046875 1.0625l0 1.515625q0 1.59375 0.078125 2.015625q0.078125 0.421875 0.28125 0.8125l-1.1875 0q-0.171875 -0.359375 -0.234375 -0.828125zm-0.09375 -2.5625q-0.625 0.265625 -1.859375 0.4375q-0.703125 0.109375 -1.0 0.234375q-0.296875 0.125 -0.453125 0.375q-0.15625 0.234375 -0.15625 0.53125q0 0.453125 0.34375 0.765625q0.34375 0.296875 1.015625 0.296875q0.65625 0 1.171875 -0.28125q0.515625 -0.296875 0.765625 -0.796875q0.171875 -0.375 0.171875 -1.140625l0 -0.421875zm5.6156006 2.375l0.15625 1.0q-0.484375 0.109375 -0.859375 0.109375q-0.625 0 -0.96875 -0.203125q-0.34375 -0.203125 -0.484375 -0.515625q-0.140625 -0.328125 -0.140625 -1.34375l0 -3.890625l-0.828125 0l0 -0.875l0.828125 0l0 -1.671875l1.140625 -0.6875l0 2.359375l1.15625 0l0 0.875l-1.15625 0l0 3.953125q0 0.484375 0.0625 0.625q0.0625 0.140625 0.1875 0.21875q0.140625 0.078125 0.390625 0.078125q0.203125 0 0.515625 -0.03125zm5.5936127 0.1875q-0.625 0.53125 -1.21875 0.765625q-0.578125 0.21875 -1.25 0.21875q-1.125 0 -1.71875 -0.546875q-0.59375 -0.546875 -0.59375 -1.390625q0 -0.484375 0.21875 -0.890625q0.234375 -0.421875 0.59375 -0.671875q0.375 -0.25 0.828125 -0.375q0.328125 -0.078125 1.015625 -0.171875q1.375 -0.15625 2.03125 -0.390625q0.015625 -0.234375 0.015625 -0.296875q0 -0.703125 -0.328125 -0.984375q-0.4375 -0.390625 -1.296875 -0.390625q-0.8125 0 -1.203125 0.28125q-0.375 0.28125 -0.5625 1.0l-1.109375 -0.140625q0.140625 -0.71875 0.484375 -1.15625q0.359375 -0.453125 1.015625 -0.6875q0.671875 -0.234375 1.53125 -0.234375q0.875 0 1.40625 0.203125q0.546875 0.203125 0.796875 0.515625q0.25 0.296875 0.359375 0.765625q0.046875 0.296875 0.046875 1.0625l0 1.515625q0 1.59375 0.078125 2.015625q0.078125 0.421875 0.28125 0.8125l-1.1875 0q-0.171875 -0.359375 -0.234375 -0.828125zm-0.09375 -2.5625q-0.625 0.265625 -1.859375 0.4375q-0.703125 0.109375 -1.0 0.234375q-0.296875 0.125 -0.453125 0.375q-0.15625 0.234375 -0.15625 0.53125q0 0.453125 0.34375 0.765625q0.34375 0.296875 1.015625 0.296875q0.65625 0 1.171875 -0.28125q0.515625 -0.296875 0.765625 -0.796875q0.171875 -0.375 0.171875 -1.140625l0 -0.421875zm6.9123383 3.390625l0 -9.3125l3.484375 0q1.078125 0 1.71875 0.296875q0.640625 0.28125 1.0 0.875q0.375 0.578125 0.375 1.21875q0 0.59375 -0.328125 1.125q-0.328125 0.515625 -0.96875 0.84375q0.84375 0.25 1.296875 0.84375q0.453125 0.59375 0.453125 1.40625q0 0.65625 -0.28125 1.21875q-0.28125 0.5625 -0.6875 0.875q-0.40625 0.296875 -1.015625 0.453125q-0.609375 0.15625 -1.5 0.15625l-3.546875 0zm1.234375 -5.390625l2.015625 0q0.8125 0 1.171875 -0.109375q0.46875 -0.140625 0.703125 -0.46875q0.234375 -0.328125 0.234375 -0.8125q0 -0.46875 -0.21875 -0.8125q-0.21875 -0.359375 -0.640625 -0.484375q-0.40625 -0.125 -1.40625 -0.125l-1.859375 0l0 2.8125zm0 4.296875l2.3125 0q0.59375 0 0.84375 -0.046875q0.421875 -0.078125 0.703125 -0.25q0.28125 -0.1875 0.46875 -0.515625q0.1875 -0.34375 0.1875 -0.796875q0 -0.515625 -0.265625 -0.890625q-0.265625 -0.390625 -0.75 -0.546875q-0.46875 -0.15625 -1.359375 -0.15625l-2.140625 0l0 3.203125zm7.5303955 1.09375l0 -9.3125l1.140625 0l0 9.3125l-1.140625 0zm2.570465 -3.375q0 -1.875 1.03125 -2.765625q0.875 -0.75 2.125 -0.75q1.390625 0 2.265625 0.90625q0.890625 0.90625 0.890625 2.515625q0 1.296875 -0.390625 2.046875q-0.390625 0.75 -1.140625 1.171875q-0.75 0.40625 -1.625 0.40625q-1.421875 0 -2.296875 -0.90625q-0.859375 -0.90625 -0.859375 -2.625zm1.171875 0q0 1.296875 0.5625 1.953125q0.5625 0.640625 1.421875 0.640625q0.84375 0 1.40625 -0.640625q0.578125 -0.65625 0.578125 -1.984375q0 -1.25 -0.578125 -1.890625q-0.5625 -0.65625 -1.40625 -0.65625q-0.859375 0 -1.421875 0.640625q-0.5625 0.640625 -0.5625 1.9375zm11.053101 0.90625l1.125 0.140625q-0.171875 1.171875 -0.9375 1.828125q-0.765625 0.65625 -1.859375 0.65625q-1.390625 0 -2.234375 -0.90625q-0.828125 -0.90625 -0.828125 -2.59375q0 -1.09375 0.359375 -1.90625q0.359375 -0.828125 1.09375 -1.234375q0.734375 -0.40625 1.609375 -0.40625q1.09375 0 1.796875 0.5625q0.703125 0.546875 0.890625 1.5625l-1.109375 0.171875q-0.15625 -0.671875 -0.5625 -1.015625q-0.390625 -0.34375 -0.96875 -0.34375q-0.859375 0 -1.40625 0.625q-0.53125 0.609375 -0.53125 1.953125q0 1.359375 0.515625 1.984375q0.515625 0.609375 1.359375 0.609375q0.671875 0 1.125 -0.40625q0.453125 -0.421875 0.5625 -1.28125zm2.2734375 2.46875l0 -9.3125l1.140625 0l0 5.3125l2.703125 -2.734375l1.484375 0l-2.578125 2.5l2.84375 4.234375l-1.40625 0l-2.234375 -3.453125l-0.8125 0.78125l0 2.671875l-1.140625 0zm6.2109375 -2.015625l1.125 -0.171875q0.09375 0.671875 0.53125 1.046875q0.4375 0.359375 1.21875 0.359375q0.78125 0 1.15625 -0.3125q0.390625 -0.328125 0.390625 -0.765625q0 -0.390625 -0.34375 -0.609375q-0.234375 -0.15625 -1.171875 -0.390625q-1.25 -0.3125 -1.734375 -0.546875q-0.484375 -0.234375 -0.734375 -0.640625q-0.25 -0.40625 -0.25 -0.90625q0 -0.453125 0.203125 -0.828125q0.203125 -0.390625 0.5625 -0.640625q0.265625 -0.203125 0.71875 -0.328125q0.46875 -0.140625 1.0 -0.140625q0.78125 0 1.375 0.234375q0.609375 0.21875 0.890625 0.609375q0.296875 0.390625 0.40625 1.046875l-1.125 0.15625q-0.078125 -0.53125 -0.4375 -0.8125q-0.359375 -0.296875 -1.03125 -0.296875q-0.78125 0 -1.125 0.265625q-0.34375 0.25 -0.34375 0.609375q0 0.21875 0.140625 0.390625q0.140625 0.1875 0.4375 0.3125q0.171875 0.0625 1.015625 0.28125q1.21875 0.328125 1.6875 0.53125q0.484375 0.203125 0.75 0.609375q0.28125 0.390625 0.28125 0.96875q0 0.578125 -0.34375 1.078125q-0.328125 0.5 -0.953125 0.78125q-0.625 0.28125 -1.421875 0.28125q-1.3125 0 -2.0 -0.546875q-0.6875 -0.546875 -0.875 -1.625z" fill-rule="nonzero"></path><path fill="#000000" d="m233.08311 549.3784q-0.953125 -1.1875 -1.609375 -2.78125q-0.65625 -1.609375 -0.65625 -3.328125q0 -1.5 0.5 -2.890625q0.5625 -1.609375 1.765625 -3.203125l0.8125 0q-0.765625 1.328125 -1.015625 1.890625q-0.390625 0.875 -0.609375 1.828125q-0.265625 1.1875 -0.265625 2.390625q0 3.046875 1.890625 6.09375l-0.8125 0z" fill-rule="nonzero"></path><path fill="#000000" d="m234.94336 543.6128l1.828125 -0.171875q0.171875 0.921875 0.671875 1.359375q0.5 0.421875 1.359375 0.421875q0.90625 0 1.359375 -0.375q0.46875 -0.390625 0.46875 -0.90625q0 -0.328125 -0.203125 -0.5625q-0.1875 -0.234375 -0.671875 -0.40625q-0.328125 -0.109375 -1.5 -0.40625q-1.515625 -0.375 -2.125 -0.921875q-0.84375 -0.765625 -0.84375 -1.875q0 -0.703125 0.390625 -1.3125q0.40625 -0.625 1.15625 -0.953125q0.765625 -0.328125 1.84375 -0.328125q1.75 0 2.625 0.78125q0.890625 0.765625 0.9375 2.046875l-1.875 0.078125q-0.125 -0.71875 -0.515625 -1.03125q-0.390625 -0.3125 -1.1875 -0.3125q-0.828125 0 -1.28125 0.328125q-0.296875 0.21875 -0.296875 0.578125q0 0.328125 0.265625 0.5625q0.359375 0.3125 1.734375 0.640625q1.375 0.3125 2.03125 0.65625q0.65625 0.34375 1.015625 0.953125q0.375 0.59375 0.375 1.484375q0 0.796875 -0.453125 1.5q-0.4375 0.6875 -1.25 1.03125q-0.8125 0.34375 -2.015625 0.34375q-1.765625 0 -2.71875 -0.8125q-0.9375 -0.828125 -1.125 -2.390625zm12.452255 -3.703125l0 1.421875l-1.21875 0l0 2.703125q0 0.828125 0.03125 0.96875q0.03125 0.140625 0.15625 0.234375q0.125 0.078125 0.296875 0.078125q0.25 0 0.71875 -0.171875l0.15625 1.390625q-0.625 0.265625 -1.40625 0.265625q-0.484375 0 -0.875 -0.15625q-0.390625 -0.171875 -0.578125 -0.421875q-0.171875 -0.265625 -0.234375 -0.703125q-0.0625 -0.3125 -0.0625 -1.25l0 -2.9375l-0.8125 0l0 -1.421875l0.8125 0l0 -1.34375l1.796875 -1.046875l0 2.390625l1.21875 0zm0.92274475 3.265625q0 -0.890625 0.4375 -1.71875q0.4375 -0.828125 1.234375 -1.265625q0.8125 -0.4375 1.8125 -0.4375q1.515625 0 2.5 1.0q0.984375 0.984375 0.984375 2.5q0 1.53125 -1.0 2.546875q-0.984375 1.0 -2.484375 1.0q-0.921875 0 -1.765625 -0.421875q-0.84375 -0.421875 -1.28125 -1.21875q-0.4375 -0.8125 -0.4375 -1.984375zm1.828125 0.09375q0 1.0 0.46875 1.546875q0.484375 0.53125 1.1875 0.53125q0.703125 0 1.171875 -0.53125q0.46875 -0.546875 0.46875 -1.5625q0 -0.984375 -0.46875 -1.515625q-0.46875 -0.53125 -1.171875 -0.53125q-0.703125 0 -1.1875 0.53125q-0.46875 0.53125 -0.46875 1.53125zm8.438232 3.375l-1.78125 0l0 -6.734375l1.65625 0l0 0.953125q0.421875 -0.6875 0.765625 -0.890625q0.34375 -0.21875 0.765625 -0.21875q0.609375 0 1.171875 0.328125l-0.546875 1.5625q-0.453125 -0.296875 -0.84375 -0.296875q-0.375 0 -0.640625 0.21875q-0.25 0.203125 -0.40625 0.75q-0.140625 0.53125 -0.140625 2.25l0 2.078125zm4.811798 -4.6875l-1.625 -0.296875q0.28125 -0.96875 0.9375 -1.4375q0.671875 -0.46875 1.984375 -0.46875q1.203125 0 1.78125 0.28125q0.578125 0.28125 0.8125 0.71875q0.25 0.4375 0.25 1.59375l-0.015625 2.078125q0 0.890625 0.078125 1.3125q0.09375 0.421875 0.328125 0.90625l-1.765625 0q-0.078125 -0.171875 -0.171875 -0.53125q-0.046875 -0.15625 -0.0625 -0.203125q-0.46875 0.4375 -0.984375 0.671875q-0.515625 0.21875 -1.109375 0.21875q-1.046875 0 -1.640625 -0.5625q-0.59375 -0.578125 -0.59375 -1.4375q0 -0.5625 0.265625 -1.015625q0.28125 -0.453125 0.765625 -0.6875q0.5 -0.234375 1.421875 -0.421875q1.25 -0.234375 1.734375 -0.4375l0 -0.171875q0 -0.515625 -0.265625 -0.734375q-0.25 -0.21875 -0.953125 -0.21875q-0.46875 0 -0.734375 0.1875q-0.265625 0.1875 -0.4375 0.65625zm2.390625 1.453125q-0.34375 0.109375 -1.09375 0.265625q-0.734375 0.15625 -0.96875 0.3125q-0.34375 0.25 -0.34375 0.625q0 0.375 0.28125 0.65625q0.28125 0.265625 0.703125 0.265625q0.484375 0 0.921875 -0.3125q0.328125 -0.234375 0.421875 -0.59375q0.078125 -0.21875 0.078125 -0.859375l0 -0.359375zm3.5218506 3.671875l2.046875 0.25q0.046875 0.359375 0.234375 0.5q0.25 0.1875 0.796875 0.1875q0.6875 0 1.046875 -0.21875q0.234375 -0.140625 0.359375 -0.4375q0.078125 -0.234375 0.078125 -0.828125l0 -0.984375q-0.796875 1.09375 -2.015625 1.09375q-1.359375 0 -2.15625 -1.15625q-0.625 -0.90625 -0.625 -2.25q0 -1.703125 0.8125 -2.59375q0.828125 -0.890625 2.03125 -0.890625q1.25 0 2.0625 1.09375l0 -0.9375l1.671875 0l0 6.046875q0 1.1875 -0.203125 1.78125q-0.1875 0.59375 -0.546875 0.921875q-0.359375 0.34375 -0.953125 0.53125q-0.59375 0.1875 -1.5 0.1875q-1.703125 0 -2.421875 -0.59375q-0.71875 -0.578125 -0.71875 -1.484375q0 -0.078125 0 -0.21875zm1.59375 -3.953125q0 1.078125 0.40625 1.578125q0.421875 0.5 1.03125 0.5q0.65625 0 1.109375 -0.515625q0.453125 -0.515625 0.453125 -1.515625q0 -1.046875 -0.4375 -1.546875q-0.421875 -0.515625 -1.09375 -0.515625q-0.640625 0 -1.0625 0.5q-0.40625 0.5 -0.40625 1.515625zm10.625732 1.375l1.765625 0.296875q-0.34375 0.96875 -1.078125 1.484375q-0.734375 0.515625 -1.84375 0.515625q-1.765625 0 -2.609375 -1.15625q-0.671875 -0.921875 -0.671875 -2.3125q0 -1.6875 0.875 -2.625q0.890625 -0.953125 2.21875 -0.953125q1.515625 0 2.375 1.0q0.875 0.984375 0.828125 3.03125l-4.46875 0q0.03125 0.796875 0.4375 1.234375q0.40625 0.4375 1.03125 0.4375q0.421875 0 0.703125 -0.21875q0.28125 -0.234375 0.4375 -0.734375zm0.09375 -1.8125q-0.015625 -0.765625 -0.40625 -1.171875q-0.375 -0.40625 -0.921875 -0.40625q-0.578125 0 -0.96875 0.421875q-0.375 0.4375 -0.375 1.15625l2.671875 0z" fill-rule="nonzero"></path><path fill="#000000" d="m285.70657 549.3784l-0.828125 0q1.90625 -3.046875 1.90625 -6.09375q0 -1.203125 -0.28125 -2.375q-0.203125 -0.953125 -0.59375 -1.828125q-0.25 -0.5625 -1.03125 -1.90625l0.828125 0q1.1875 1.59375 1.765625 3.203125q0.484375 1.390625 0.484375 2.890625q0 1.71875 -0.65625 3.328125q-0.65625 1.59375 -1.59375 2.78125z" fill-rule="nonzero"></path><path fill="#fff2cc" d="m266.3334 137.6811l97.88977 0l0 0l41.95276 0l27.968506 0l0 44.553802l0 0l0 19.094482l0 12.72966l-27.968506 0l82.44501 36.283356l-124.397766 -36.283356l-97.88977 0l0 -12.72966l0 -19.094482l0 0z" fill-rule="evenodd"></path><path stroke="#000000" stroke-width="2.0" stroke-linejoin="round" stroke-linecap="butt" d="m266.3334 137.6811l97.88977 0l0 0l41.95276 0l27.968506 0l0 44.553802l0 0l0 19.094482l0 12.72966l-27.968506 0l82.44501 36.283356l-124.397766 -36.283356l-97.88977 0l0 -12.72966l0 -19.094482l0 0z" fill-rule="evenodd"></path><path fill="#000000" d="m297.18906 180.67007l0 -9.3125l1.21875 0l0 3.828125l4.84375 0l0 -3.828125l1.234375 0l0 9.3125l-1.234375 0l0 -4.390625l-4.84375 0l0 4.390625l-1.21875 0zm13.828278 -0.828125q-0.625 0.53125 -1.21875 0.765625q-0.578125 0.21875 -1.25 0.21875q-1.125 0 -1.71875 -0.546875q-0.59375 -0.546875 -0.59375 -1.390625q0 -0.484375 0.21875 -0.890625q0.234375 -0.421875 0.59375 -0.671875q0.375 -0.25 0.828125 -0.375q0.328125 -0.078125 1.015625 -0.171875q1.375 -0.15625 2.03125 -0.390625q0.015625 -0.234375 0.015625 -0.296875q0 -0.703125 -0.328125 -0.984375q-0.4375 -0.390625 -1.296875 -0.390625q-0.8125 0 -1.203125 0.28125q-0.375 0.28125 -0.5625 1.0l-1.109375 -0.140625q0.140625 -0.71875 0.484375 -1.15625q0.359375 -0.453125 1.015625 -0.6875q0.671875 -0.234375 1.53125 -0.234375q0.875 0 1.40625 0.203125q0.546875 0.203125 0.796875 0.515625q0.25 0.296875 0.359375 0.765625q0.046875 0.296875 0.046875 1.0625l0 1.515625q0 1.59375 0.078125 2.015625q0.078125 0.421875 0.28125 0.8125l-1.1875 0q-0.171875 -0.359375 -0.234375 -0.828125zm-0.09375 -2.5625q-0.625 0.265625 -1.859375 0.4375q-0.703125 0.109375 -1.0 0.234375q-0.296875 0.125 -0.453125 0.375q-0.15625 0.234375 -0.15625 0.53125q0 0.453125 0.34375 0.765625q0.34375 0.296875 1.015625 0.296875q0.65625 0 1.171875 -0.28125q0.515625 -0.296875 0.765625 -0.796875q0.171875 -0.375 0.171875 -1.140625l0 -0.421875zm7.4906006 3.390625l0 -0.84375q-0.640625 1.0 -1.890625 1.0q-0.796875 0 -1.484375 -0.4375q-0.671875 -0.453125 -1.046875 -1.25q-0.375 -0.796875 -0.375 -1.828125q0 -1.015625 0.34375 -1.828125q0.34375 -0.828125 1.015625 -1.265625q0.671875 -0.4375 1.5 -0.4375q0.609375 0 1.078125 0.265625q0.484375 0.25 0.78125 0.65625l0 -3.34375l1.140625 0l0 9.3125l-1.0625 0zm-3.609375 -3.359375q0 1.296875 0.53125 1.9375q0.546875 0.640625 1.296875 0.640625q0.75 0 1.265625 -0.609375q0.53125 -0.625 0.53125 -1.875q0 -1.390625 -0.53125 -2.03125q-0.53125 -0.65625 -1.3125 -0.65625q-0.765625 0 -1.28125 0.625q-0.5 0.625 -0.5 1.96875zm6.2249756 -0.015625q0 -1.875 1.03125 -2.765625q0.875 -0.75 2.125 -0.75q1.390625 0 2.265625 0.90625q0.890625 0.90625 0.890625 2.515625q0 1.296875 -0.390625 2.046875q-0.390625 0.75 -1.140625 1.171875q-0.75 0.40625 -1.625 0.40625q-1.421875 0 -2.296875 -0.90625q-0.859375 -0.90625 -0.859375 -2.625zm1.171875 0q0 1.296875 0.5625 1.953125q0.5625 0.640625 1.421875 0.640625q0.84375 0 1.40625 -0.640625q0.578125 -0.65625 0.578125 -1.984375q0 -1.25 -0.578125 -1.890625q-0.5625 -0.65625 -1.40625 -0.65625q-0.859375 0 -1.421875 0.640625q-0.5625 0.640625 -0.5625 1.9375zm6.2406006 0q0 -1.875 1.03125 -2.765625q0.875 -0.75 2.125 -0.75q1.390625 0 2.265625 0.90625q0.890625 0.90625 0.890625 2.515625q0 1.296875 -0.390625 2.046875q-0.390625 0.75 -1.140625 1.171875q-0.75 0.40625 -1.625 0.40625q-1.421875 0 -2.296875 -0.90625q-0.859375 -0.90625 -0.859375 -2.625zm1.171875 0q0 1.296875 0.5625 1.953125q0.5625 0.640625 1.421875 0.640625q0.84375 0 1.40625 -0.640625q0.578125 -0.65625 0.578125 -1.984375q0 -1.25 -0.578125 -1.890625q-0.5625 -0.65625 -1.40625 -0.65625q-0.859375 0 -1.421875 0.640625q-0.5625 0.640625 -0.5625 1.9375zm6.6624756 5.953125l0 -9.3125l1.03125 0l0 0.875q0.375 -0.515625 0.828125 -0.765625q0.46875 -0.265625 1.140625 -0.265625q0.859375 0 1.515625 0.453125q0.65625 0.4375 0.984375 1.25q0.34375 0.796875 0.34375 1.765625q0 1.03125 -0.375 1.859375q-0.359375 0.828125 -1.078125 1.28125q-0.703125 0.4375 -1.484375 0.4375q-0.5625 0 -1.015625 -0.234375q-0.453125 -0.25 -0.75 -0.625l0 3.28125l-1.140625 0zm1.03125 -5.90625q0 1.296875 0.53125 1.921875q0.53125 0.625 1.265625 0.625q0.765625 0 1.3125 -0.640625q0.546875 -0.65625 0.546875 -2.0q0 -1.296875 -0.53125 -1.9375q-0.53125 -0.640625 -1.265625 -0.640625q-0.734375 0 -1.296875 0.6875q-0.5625 0.671875 -0.5625 1.984375zm10.224823 3.328125l0 -9.3125l3.203125 0q1.09375 0 1.65625 0.140625q0.8125 0.1875 1.375 0.671875q0.734375 0.609375 1.09375 1.578125q0.375 0.96875 0.375 2.21875q0 1.0625 -0.25 1.890625q-0.25 0.8125 -0.640625 1.34375q-0.390625 0.53125 -0.859375 0.84375q-0.453125 0.3125 -1.109375 0.46875q-0.640625 0.15625 -1.484375 0.15625l-3.359375 0zm1.234375 -1.09375l1.984375 0q0.921875 0 1.4375 -0.171875q0.53125 -0.171875 0.84375 -0.484375q0.4375 -0.4375 0.671875 -1.171875q0.25 -0.75 0.25 -1.796875q0 -1.46875 -0.484375 -2.25q-0.46875 -0.78125 -1.15625 -1.046875q-0.5 -0.1875 -1.59375 -0.1875l-1.953125 0l0 7.109375zm12.640778 0.265625q-0.625 0.53125 -1.21875 0.765625q-0.578125 0.21875 -1.25 0.21875q-1.125 0 -1.71875 -0.546875q-0.59375 -0.546875 -0.59375 -1.390625q0 -0.484375 0.21875 -0.890625q0.234375 -0.421875 0.59375 -0.671875q0.375 -0.25 0.828125 -0.375q0.328125 -0.078125 1.015625 -0.171875q1.375 -0.15625 2.03125 -0.390625q0.015625 -0.234375 0.015625 -0.296875q0 -0.703125 -0.328125 -0.984375q-0.4375 -0.390625 -1.296875 -0.390625q-0.8125 0 -1.203125 0.28125q-0.375 0.28125 -0.5625 1.0l-1.109375 -0.140625q0.140625 -0.71875 0.484375 -1.15625q0.359375 -0.453125 1.015625 -0.6875q0.671875 -0.234375 1.53125 -0.234375q0.875 0 1.40625 0.203125q0.546875 0.203125 0.796875 0.515625q0.25 0.296875 0.359375 0.765625q0.046875 0.296875 0.046875 1.0625l0 1.515625q0 1.59375 0.078125 2.015625q0.078125 0.421875 0.28125 0.8125l-1.1875 0q-0.171875 -0.359375 -0.234375 -0.828125zm-0.09375 -2.5625q-0.625 0.265625 -1.859375 0.4375q-0.703125 0.109375 -1.0 0.234375q-0.296875 0.125 -0.453125 0.375q-0.15625 0.234375 -0.15625 0.53125q0 0.453125 0.34375 0.765625q0.34375 0.296875 1.015625 0.296875q0.65625 0 1.171875 -0.28125q0.515625 -0.296875 0.765625 -0.796875q0.171875 -0.375 0.171875 -1.140625l0 -0.421875zm5.6156006 2.375l0.15625 1.0q-0.484375 0.109375 -0.859375 0.109375q-0.625 0 -0.96875 -0.203125q-0.34375 -0.203125 -0.484375 -0.515625q-0.140625 -0.328125 -0.140625 -1.34375l0 -3.890625l-0.828125 0l0 -0.875l0.828125 0l0 -1.671875l1.140625 -0.6875l0 2.359375l1.15625 0l0 0.875l-1.15625 0l0 3.953125q0 0.484375 0.0625 0.625q0.0625 0.140625 0.1875 0.21875q0.140625 0.078125 0.390625 0.078125q0.203125 0 0.515625 -0.03125zm5.593628 0.1875q-0.625 0.53125 -1.21875 0.765625q-0.578125 0.21875 -1.25 0.21875q-1.125 0 -1.71875 -0.546875q-0.59375 -0.546875 -0.59375 -1.390625q0 -0.484375 0.21875 -0.890625q0.234375 -0.421875 0.59375 -0.671875q0.375 -0.25 0.828125 -0.375q0.328125 -0.078125 1.015625 -0.171875q1.375 -0.15625 2.03125 -0.390625q0.015625 -0.234375 0.015625 -0.296875q0 -0.703125 -0.328125 -0.984375q-0.4375 -0.390625 -1.296875 -0.390625q-0.8125 0 -1.203125 0.28125q-0.375 0.28125 -0.5625 1.0l-1.109375 -0.140625q0.140625 -0.71875 0.484375 -1.15625q0.359375 -0.453125 1.015625 -0.6875q0.671875 -0.234375 1.53125 -0.234375q0.875 0 1.40625 0.203125q0.546875 0.203125 0.796875 0.515625q0.25 0.296875 0.359375 0.765625q0.046875 0.296875 0.046875 1.0625l0 1.515625q0 1.59375 0.078125 2.015625q0.078125 0.421875 0.28125 0.8125l-1.1875 0q-0.171875 -0.359375 -0.234375 -0.828125zm-0.09375 -2.5625q-0.625 0.265625 -1.859375 0.4375q-0.703125 0.109375 -1.0 0.234375q-0.296875 0.125 -0.453125 0.375q-0.15625 0.234375 -0.15625 0.53125q0 0.453125 0.34375 0.765625q0.34375 0.296875 1.015625 0.296875q0.65625 0 1.171875 -0.28125q0.515625 -0.296875 0.765625 -0.796875q0.171875 -0.375 0.171875 -1.140625l0 -0.421875zm3.1156006 3.390625l0 -6.734375l1.03125 0l0 0.953125q0.734375 -1.109375 2.140625 -1.109375q0.609375 0 1.109375 0.21875q0.515625 0.21875 0.765625 0.578125q0.265625 0.34375 0.359375 0.84375q0.0625 0.3125 0.0625 1.109375l0 4.140625l-1.140625 0l0 -4.09375q0 -0.703125 -0.140625 -1.046875q-0.125 -0.34375 -0.46875 -0.546875q-0.328125 -0.21875 -0.78125 -0.21875q-0.734375 0 -1.265625 0.46875q-0.53125 0.453125 -0.53125 1.75l0 3.6875l-1.140625 0zm6.9906006 -3.375q0 -1.875 1.03125 -2.765625q0.875 -0.75 2.125 -0.75q1.390625 0 2.265625 0.90625q0.890625 0.90625 0.890625 2.515625q0 1.296875 -0.390625 2.046875q-0.390625 0.75 -1.140625 1.171875q-0.75 0.40625 -1.625 0.40625q-1.421875 0 -2.296875 -0.90625q-0.859375 -0.90625 -0.859375 -2.625zm1.171875 0q0 1.296875 0.5625 1.953125q0.5625 0.640625 1.421875 0.640625q0.84375 0 1.40625 -0.640625q0.578125 -0.65625 0.578125 -1.984375q0 -1.25 -0.578125 -1.890625q-0.5625 -0.65625 -1.40625 -0.65625q-0.859375 0 -1.421875 0.640625q-0.5625 0.640625 -0.5625 1.9375zm11.037445 3.375l0 -0.84375q-0.6405945 1.0 -1.8905945 1.0q-0.796875 0 -1.484375 -0.4375q-0.671875 -0.453125 -1.046875 -1.25q-0.375 -0.796875 -0.375 -1.828125q0 -1.015625 0.34375 -1.828125q0.34375 -0.828125 1.015625 -1.265625q0.671875 -0.4375 1.5 -0.4375q0.609375 0 1.078125 0.265625q0.48434448 0.25 0.7812195 0.65625l0 -3.34375l1.140625 0l0 9.3125l-1.0625 0zm-3.6093445 -3.359375q0 1.296875 0.53125 1.9375q0.546875 0.640625 1.296875 0.640625q0.75 0 1.265625 -0.609375q0.5312195 -0.625 0.5312195 -1.875q0 -1.390625 -0.5312195 -2.03125q-0.53125 -0.65625 -1.3125 -0.65625q-0.765625 0 -1.28125 0.625q-0.5 0.625 -0.5 1.96875zm11.256195 1.1875l1.1875 0.140625q-0.28125 1.046875 -1.046875 1.625q-0.75 0.5625 -1.921875 0.5625q-1.484375 0 -2.359375 -0.90625q-0.859375 -0.921875 -0.859375 -2.5625q0 -1.703125 0.875 -2.640625q0.890625 -0.9375 2.28125 -0.9375q1.359375 0 2.203125 0.921875q0.859375 0.921875 0.859375 2.578125q0 0.109375 0 0.3125l-5.03125 0q0.0625 1.109375 0.625 1.703125q0.5625 0.59375 1.40625 0.59375q0.640625 0 1.078125 -0.328125q0.453125 -0.34375 0.703125 -1.0625zm-3.75 -1.84375l3.765625 0q-0.078125 -0.859375 -0.4375 -1.28125q-0.546875 -0.65625 -1.40625 -0.65625q-0.796875 0 -1.328125 0.53125q-0.53125 0.515625 -0.59375 1.40625z" fill-rule="nonzero"></path><path fill="#ffffff" d="m441.31998 330.4024l0 0c-0.6416931 -4.704834 1.4650879 -9.362335 5.4263 -11.996155c3.9612427 -2.6338196 9.082245 -2.7820435 13.189941 -0.3817749l0 0c1.4550781 -2.7355957 4.118286 -4.6243286 7.184082 -5.0949097c3.065796 -0.47055054 6.1740417 0.5322876 8.384613 2.7052307l0 0c1.2395325 -2.4802551 3.6734009 -4.1466675 6.4378967 -4.4079285c2.7645264 -0.26123047 5.468445 0.91967773 7.152313 3.1236572l0 0c2.2394104 -2.6290588 5.802368 -3.736023 9.147156 -2.841858c3.3447876 0.89416504 5.8706665 3.6288147 6.4846497 7.020691l0 0c2.7436523 0.7466736 5.0290833 2.644806 6.265747 5.2039795c1.2366943 2.5591736 1.3033447 5.5283203 0.18270874 8.14035l0 0c2.7016907 3.5082397 3.3337097 8.182922 1.6601257 12.279541c-1.6735535 4.0966187 -5.4012146 6.999695 -9.791931 7.625885c-0.030944824 3.844818 -2.1443787 7.372772 -5.5257263 9.22406c-3.3813477 1.8512573 -7.5025635 1.7367554 -10.775177 -0.29937744c-1.3939514 4.6048584 -5.3174744 7.993042 -10.075439 8.700775c-4.7579956 0.70773315 -9.497467 -1.3918762 -12.170807 -5.3917236c-3.276947 1.9715271 -7.2090454 2.5394592 -10.909241 1.5756836c-3.7001953 -0.96377563 -6.856842 -3.3780823 -8.7578125 -6.698303l0 0c-3.3486633 0.3909607 -6.586334 -1.3400269 -8.106201 -4.3338623c-1.5198364 -2.9938354 -0.99835205 -6.61322 1.3056946 -9.061859l0 0c-2.987091 -1.7540894 -4.511261 -5.2347717 -3.777771 -8.627045c0.7335205 -3.3922424 3.5585022 -5.927368 7.001831 -6.283386z" fill-rule="evenodd"></path><path fill="#000000" fill-opacity="0.0" d="m438.0297 345.49417l0 0c1.4096069 0.8277588 3.0380554 1.2032776 4.6666565 1.0760803m2.1331177 12.319946c0.7003784 -0.08178711 1.3868408 -0.25494385 2.041748 -0.51501465m17.62436 5.63739c-0.49258423 -0.7369995 -0.9049988 -1.5245667 -1.2302246 -2.3492432m23.477325 -0.9599304l0 0c0.25411987 -0.83950806 0.41879272 -1.7035828 0.49121094 -2.5777588m15.809082 -6.346588c0.032928467 -4.0934143 -2.2973633 -7.8413696 -5.9899597 -9.634033m14.121674 -10.270966c-0.59799194 1.3938904 -1.5109253 2.630371 -2.6671753 3.6125488m-3.7807312 -16.957245l0 0c0.10189819 0.5628967 0.14904785 1.1342163 0.1408081 1.7061157m-15.772339 -5.8847656l0 0c-0.55862427 0.65582275 -1.0188599 1.3887024 -1.3663635 2.1758118m-12.2239685 -0.8918457l0 0c-0.29769897 0.5956726 -0.52001953 1.2260132 -0.6618042 1.8764648m-14.907135 0.51327515l0 0c0.86920166 0.50790405 1.6733093 1.1192017 2.3947144 1.8204956m-21.010712 10.557495l0 0c0.08843994 0.648468 0.22817993 1.2889099 0.4179077 1.9153748" fill-rule="evenodd"></path><path stroke="#000000" stroke-width="1.0" stroke-linejoin="round" stroke-linecap="butt" d="m441.31998 330.4024l0 0c-0.6416931 -4.704834 1.4650879 -9.362335 5.4263 -11.996155c3.9612427 -2.6338196 9.082245 -2.7820435 13.189941 -0.3817749l0 0c1.4550781 -2.7355957 4.118286 -4.6243286 7.184082 -5.0949097c3.065796 -0.47055054 6.1740417 0.5322876 8.384613 2.7052307l0 0c1.2395325 -2.4802551 3.6734009 -4.1466675 6.4378967 -4.4079285c2.7645264 -0.26123047 5.468445 0.91967773 7.152313 3.1236572l0 0c2.2394104 -2.6290588 5.802368 -3.736023 9.147156 -2.841858c3.3447876 0.89416504 5.8706665 3.6288147 6.4846497 7.020691l0 0c2.7436523 0.7466736 5.0290833 2.644806 6.265747 5.2039795c1.2366943 2.5591736 1.3033447 5.5283203 0.18270874 8.14035l0 0c2.7016907 3.5082397 3.3337097 8.182922 1.6601257 12.279541c-1.6735535 4.0966187 -5.4012146 6.999695 -9.791931 7.625885c-0.030944824 3.844818 -2.1443787 7.372772 -5.5257263 9.22406c-3.3813477 1.8512573 -7.5025635 1.7367554 -10.775177 -0.29937744c-1.3939514 4.6048584 -5.3174744 7.993042 -10.075439 8.700775c-4.7579956 0.70773315 -9.497467 -1.3918762 -12.170807 -5.3917236c-3.276947 1.9715271 -7.2090454 2.5394592 -10.909241 1.5756836c-3.7001953 -0.96377563 -6.856842 -3.3780823 -8.7578125 -6.698303l0 0c-3.3486633 0.3909607 -6.586334 -1.3400269 -8.106201 -4.3338623c-1.5198364 -2.9938354 -0.99835205 -6.61322 1.3056946 -9.061859l0 0c-2.987091 -1.7540894 -4.511261 -5.2347717 -3.777771 -8.627045c0.7335205 -3.3922424 3.5585022 -5.927368 7.001831 -6.283386z" fill-rule="evenodd"></path><path stroke="#000000" stroke-width="1.0" stroke-linejoin="round" stroke-linecap="butt" d="m438.0297 345.49417l0 0c1.4096069 0.8277588 3.0380554 1.2032776 4.6666565 1.0760803m2.1331177 12.319946c0.7003784 -0.08178711 1.3868408 -0.25494385 2.041748 -0.51501465m17.62436 5.63739c-0.49258423 -0.7369995 -0.9049988 -1.5245667 -1.2302246 -2.3492432m23.477325 -0.9599304l0 0c0.25411987 -0.83950806 0.41879272 -1.7035828 0.49121094 -2.5777588m15.809082 -6.346588c0.032928467 -4.0934143 -2.2973633 -7.8413696 -5.9899597 -9.634033m14.121674 -10.270966c-0.59799194 1.3938904 -1.5109253 2.630371 -2.6671753 3.6125488m-3.7807312 -16.957245l0 0c0.10189819 0.5628967 0.14904785 1.1342163 0.1408081 1.7061157m-15.772339 -5.8847656l0 0c-0.55862427 0.65582275 -1.0188599 1.3887024 -1.3663635 2.1758118m-12.2239685 -0.8918457l0 0c-0.29769897 0.5956726 -0.52001953 1.2260132 -0.6618042 1.8764648m-14.907135 0.51327515l0 0c0.86920166 0.50790405 1.6733093 1.1192017 2.3947144 1.8204956m-21.010712 10.557495l0 0c0.08843994 0.648468 0.22817993 1.2889099 0.4179077 1.9153748" fill-rule="evenodd"></path><path fill="#ffffff" d="m538.34357 340.01135l0 0c-0.6416626 -4.7048645 1.4650879 -9.362366 5.4263306 -11.996185c3.9612427 -2.6338196 9.082214 -2.7820435 13.189941 -0.3817749l0 0c1.4550781 -2.7355652 4.118286 -4.6243286 7.184082 -5.094879c3.065796 -0.47058105 6.1740723 0.5322571 8.3845825 2.7052002l0 0c1.239563 -2.4802551 3.6734009 -4.1466675 6.4379272 -4.4079285c2.7645264 -0.26123047 5.468445 0.91967773 7.1522827 3.1236877l0 0c2.239441 -2.6290894 5.802368 -3.736023 9.147156 -2.8418884c3.3447876 0.89416504 5.8706665 3.6288452 6.48468 7.020691l0 0c2.7436523 0.7466736 5.0290527 2.644806 6.265747 5.2039795c1.2366943 2.5591736 1.3033447 5.528351 0.18273926 8.14035l0 0c2.7016602 3.5082397 3.3336792 8.182922 1.6600952 12.279541c-1.673523 4.0966187 -5.401245 6.9997253 -9.791931 7.625885c-0.030944824 3.844818 -2.1444092 7.3728027 -5.525757 9.22406c-3.3812866 1.8512878 -7.5025635 1.7367859 -10.7751465 -0.29937744c-1.3939209 4.6048584 -5.317444 7.993042 -10.075439 8.700775c-4.7579956 0.70773315 -9.497437 -1.3918762 -12.170776 -5.3917236c-3.2769775 1.9715271 -7.2090454 2.5394592 -10.909241 1.5756836c-3.7001953 -0.96377563 -6.8568726 -3.3780823 -8.757874 -6.698303l0 0c-3.3486328 0.3909607 -6.5863037 -1.3399963 -8.10614 -4.333832c-1.5198975 -2.9938354 -0.99835205 -6.61322 1.3056641 -9.061859l0 0c-2.9870605 -1.7540894 -4.5112915 -5.2348022 -3.777771 -8.627045c0.7335205 -3.392273 3.5584717 -5.9273987 7.001831 -6.2834167z" fill-rule="evenodd"></path><path fill="#000000" fill-opacity="0.0" d="m535.05334 355.10312l0 0c1.4096069 0.8277588 3.038025 1.2032471 4.666626 1.0760498m2.1331177 12.319946c0.7003784 -0.08178711 1.3868408 -0.25494385 2.041748 -0.51501465m17.624329 5.6374207c-0.4925537 -0.73703 -0.90496826 -1.5245667 -1.2302246 -2.3492737m23.477356 -0.9598999l0 0c0.2541504 -0.8395386 0.4187622 -1.7036133 0.49121094 -2.5777588m15.809082 -6.3466187c0.032958984 -4.0934143 -2.2973633 -7.8413696 -5.989929 -9.634033m14.121643 -10.270966c-0.59802246 1.3938904 -1.5109253 2.6304016 -2.6671753 3.6125488m-3.7807007 -16.957245l0 0c0.101867676 0.5628967 0.14904785 1.1342468 0.1408081 1.7061157m-15.7724 -5.8847656l0 0c-0.55859375 0.65582275 -1.0188599 1.3887024 -1.366333 2.1758118m-12.223999 -0.8918457l0 0c-0.29766846 0.5957031 -0.5199585 1.2260132 -0.66174316 1.8764954m-14.907166 0.5132446l0 0c0.86920166 0.50790405 1.6733398 1.1192017 2.3947144 1.8204956m-21.010742 10.557526l0 0c0.08843994 0.6484375 0.22821045 1.2888794 0.41796875 1.9153442" fill-rule="evenodd"></path><path stroke="#000000" stroke-width="1.0" stroke-linejoin="round" stroke-linecap="butt" d="m538.34357 340.01135l0 0c-0.6416626 -4.7048645 1.4650879 -9.362366 5.4263306 -11.996185c3.9612427 -2.6338196 9.082214 -2.7820435 13.189941 -0.3817749l0 0c1.4550781 -2.7355652 4.118286 -4.6243286 7.184082 -5.094879c3.065796 -0.47058105 6.1740723 0.5322571 8.3845825 2.7052002l0 0c1.239563 -2.4802551 3.6734009 -4.1466675 6.4379272 -4.4079285c2.7645264 -0.26123047 5.468445 0.91967773 7.1522827 3.1236877l0 0c2.239441 -2.6290894 5.802368 -3.736023 9.147156 -2.8418884c3.3447876 0.89416504 5.8706665 3.6288452 6.48468 7.020691l0 0c2.7436523 0.7466736 5.0290527 2.644806 6.265747 5.2039795c1.2366943 2.5591736 1.3033447 5.528351 0.18273926 8.14035l0 0c2.7016602 3.5082397 3.3336792 8.182922 1.6600952 12.279541c-1.673523 4.0966187 -5.401245 6.9997253 -9.791931 7.625885c-0.030944824 3.844818 -2.1444092 7.3728027 -5.525757 9.22406c-3.3812866 1.8512878 -7.5025635 1.7367859 -10.7751465 -0.29937744c-1.3939209 4.6048584 -5.317444 7.993042 -10.075439 8.700775c-4.7579956 0.70773315 -9.497437 -1.3918762 -12.170776 -5.3917236c-3.2769775 1.9715271 -7.2090454 2.5394592 -10.909241 1.5756836c-3.7001953 -0.96377563 -6.8568726 -3.3780823 -8.757874 -6.698303l0 0c-3.3486328 0.3909607 -6.5863037 -1.3399963 -8.10614 -4.333832c-1.5198975 -2.9938354 -0.99835205 -6.61322 1.3056641 -9.061859l0 0c-2.9870605 -1.7540894 -4.5112915 -5.2348022 -3.777771 -8.627045c0.7335205 -3.392273 3.5584717 -5.9273987 7.001831 -6.2834167z" fill-rule="evenodd"></path><path stroke="#000000" stroke-width="1.0" stroke-linejoin="round" stroke-linecap="butt" d="m535.05334 355.10312l0 0c1.4096069 0.8277588 3.038025 1.2032471 4.666626 1.0760498m2.1331177 12.319946c0.7003784 -0.08178711 1.3868408 -0.25494385 2.041748 -0.51501465m17.624329 5.6374207c-0.4925537 -0.73703 -0.90496826 -1.5245667 -1.2302246 -2.3492737m23.477356 -0.9598999l0 0c0.2541504 -0.8395386 0.4187622 -1.7036133 0.49121094 -2.5777588m15.809082 -6.3466187c0.032958984 -4.0934143 -2.2973633 -7.8413696 -5.989929 -9.634033m14.121643 -10.270966c-0.59802246 1.3938904 -1.5109253 2.6304016 -2.6671753 3.6125488m-3.7807007 -16.957245l0 0c0.101867676 0.5628967 0.14904785 1.1342468 0.1408081 1.7061157m-15.7724 -5.8847656l0 0c-0.55859375 0.65582275 -1.0188599 1.3887024 -1.366333 2.1758118m-12.223999 -0.8918457l0 0c-0.29766846 0.5957031 -0.5199585 1.2260132 -0.66174316 1.8764954m-14.907166 0.5132446l0 0c0.86920166 0.50790405 1.6733398 1.1192017 2.3947144 1.8204956m-21.010742 10.557526l0 0c0.08843994 0.6484375 0.22821045 1.2888794 0.41796875 1.9153442" fill-rule="evenodd"></path><path fill="#ffffff" d="m635.3672 330.4024l0 0c-0.6416626 -4.704834 1.4650879 -9.362335 5.4263306 -11.996155c3.9612427 -2.6338196 9.082214 -2.7820435 13.189941 -0.3817749l0 0c1.4550781 -2.7355957 4.118286 -4.6243286 7.184082 -5.0949097c3.065796 -0.47055054 6.1740723 0.5322876 8.384644 2.7052307l0 0c1.239502 -2.4802551 3.6733398 -4.1466675 6.437866 -4.4079285c2.7645264 -0.26123047 5.468445 0.91967773 7.1522827 3.1236572l0 0c2.239441 -2.6290588 5.802368 -3.736023 9.147156 -2.841858c3.3448486 0.89416504 5.8706665 3.6288147 6.48468 7.020691l0 0c2.7436523 0.7466736 5.0290527 2.644806 6.265747 5.2039795c1.2366943 2.5591736 1.3033447 5.5283203 0.18273926 8.14035l0 0c2.7016602 3.5082397 3.3336792 8.182922 1.6600952 12.279541c-1.673523 4.0966187 -5.401245 6.999695 -9.791931 7.625885c-0.030944824 3.844818 -2.1444092 7.372772 -5.525696 9.22406c-3.3813477 1.8512573 -7.5025635 1.7367554 -10.7752075 -0.29937744c-1.3939209 4.6048584 -5.317444 7.993042 -10.075439 8.700775c-4.7579956 0.70773315 -9.497437 -1.3918762 -12.170776 -5.3917236c-3.2769775 1.9715271 -7.2090454 2.5394592 -10.909241 1.5756836c-3.7001953 -0.96377563 -6.8568726 -3.3780823 -8.757874 -6.698303l0 0c-3.3486328 0.3909607 -6.5863037 -1.3400269 -8.10614 -4.3338623c-1.5198975 -2.9938354 -0.99835205 -6.61322 1.3056641 -9.061859l0 0c-2.9870605 -1.7540894 -4.5112915 -5.2347717 -3.777771 -8.627045c0.7335205 -3.3922424 3.5584717 -5.927368 7.001831 -6.283386z" fill-rule="evenodd"></path><path fill="#000000" fill-opacity="0.0" d="m632.07697 345.49417l0 0c1.4096069 0.8277588 3.038025 1.2032776 4.666626 1.0760803m2.1331177 12.319946c0.7003784 -0.08178711 1.3868408 -0.25494385 2.041748 -0.51501465m17.624329 5.63739c-0.4925537 -0.7369995 -0.90496826 -1.5245667 -1.2302246 -2.3492432m23.477356 -0.9599304l0 0c0.2541504 -0.83950806 0.41882324 -1.7035828 0.49121094 -2.5777588m15.809082 -6.346588c0.032958984 -4.0934143 -2.2973633 -7.8413696 -5.989929 -9.634033m14.121643 -10.270966c-0.59802246 1.3938904 -1.5109253 2.630371 -2.6671753 3.6125488m-3.7807007 -16.957245l0 0c0.101867676 0.5628967 0.14904785 1.1342163 0.1408081 1.7061157m-15.7724 -5.8847656l0 0c-0.55859375 0.65582275 -1.0188599 1.3887024 -1.366333 2.1758118m-12.223999 -0.8918457l0 0c-0.29766846 0.5956726 -0.5199585 1.2260132 -0.66174316 1.8764648m-14.907166 0.51327515l0 0c0.86920166 0.50790405 1.6733398 1.1192017 2.3947144 1.8204956m-21.010742 10.557495l0 0c0.08850098 0.648468 0.22821045 1.2889099 0.41796875 1.9153748" fill-rule="evenodd"></path><path stroke="#000000" stroke-width="1.0" stroke-linejoin="round" stroke-linecap="butt" d="m635.3672 330.4024l0 0c-0.6416626 -4.704834 1.4650879 -9.362335 5.4263306 -11.996155c3.9612427 -2.6338196 9.082214 -2.7820435 13.189941 -0.3817749l0 0c1.4550781 -2.7355957 4.118286 -4.6243286 7.184082 -5.0949097c3.065796 -0.47055054 6.1740723 0.5322876 8.384644 2.7052307l0 0c1.239502 -2.4802551 3.6733398 -4.1466675 6.437866 -4.4079285c2.7645264 -0.26123047 5.468445 0.91967773 7.1522827 3.1236572l0 0c2.239441 -2.6290588 5.802368 -3.736023 9.147156 -2.841858c3.3448486 0.89416504 5.8706665 3.6288147 6.48468 7.020691l0 0c2.7436523 0.7466736 5.0290527 2.644806 6.265747 5.2039795c1.2366943 2.5591736 1.3033447 5.5283203 0.18273926 8.14035l0 0c2.7016602 3.5082397 3.3336792 8.182922 1.6600952 12.279541c-1.673523 4.0966187 -5.401245 6.999695 -9.791931 7.625885c-0.030944824 3.844818 -2.1444092 7.372772 -5.525696 9.22406c-3.3813477 1.8512573 -7.5025635 1.7367554 -10.7752075 -0.29937744c-1.3939209 4.6048584 -5.317444 7.993042 -10.075439 8.700775c-4.7579956 0.70773315 -9.497437 -1.3918762 -12.170776 -5.3917236c-3.2769775 1.9715271 -7.2090454 2.5394592 -10.909241 1.5756836c-3.7001953 -0.96377563 -6.8568726 -3.3780823 -8.757874 -6.698303l0 0c-3.3486328 0.3909607 -6.5863037 -1.3400269 -8.10614 -4.3338623c-1.5198975 -2.9938354 -0.99835205 -6.61322 1.3056641 -9.061859l0 0c-2.9870605 -1.7540894 -4.5112915 -5.2347717 -3.777771 -8.627045c0.7335205 -3.3922424 3.5584717 -5.927368 7.001831 -6.283386z" fill-rule="evenodd"></path><path stroke="#000000" stroke-width="1.0" stroke-linejoin="round" stroke-linecap="butt" d="m632.07697 345.49417l0 0c1.4096069 0.8277588 3.038025 1.2032776 4.666626 1.0760803m2.1331177 12.319946c0.7003784 -0.08178711 1.3868408 -0.25494385 2.041748 -0.51501465m17.624329 5.63739c-0.4925537 -0.7369995 -0.90496826 -1.5245667 -1.2302246 -2.3492432m23.477356 -0.9599304l0 0c0.2541504 -0.83950806 0.41882324 -1.7035828 0.49121094 -2.5777588m15.809082 -6.346588c0.032958984 -4.0934143 -2.2973633 -7.8413696 -5.989929 -9.634033m14.121643 -10.270966c-0.59802246 1.3938904 -1.5109253 2.630371 -2.6671753 3.6125488m-3.7807007 -16.957245l0 0c0.101867676 0.5628967 0.14904785 1.1342163 0.1408081 1.7061157m-15.7724 -5.8847656l0 0c-0.55859375 0.65582275 -1.0188599 1.3887024 -1.366333 2.1758118m-12.223999 -0.8918457l0 0c-0.29766846 0.5956726 -0.5199585 1.2260132 -0.66174316 1.8764648m-14.907166 0.51327515l0 0c0.86920166 0.50790405 1.6733398 1.1192017 2.3947144 1.8204956m-21.010742 10.557495l0 0c0.08850098 0.648468 0.22821045 1.2889099 0.41796875 1.9153748" fill-rule="evenodd"></path><path fill="#fff2cc" d="m822.2274 244.22966l31.559021 0l0 0l47.338623 0l110.456665 0l0 44.553818l0 0l0 19.094482l0 12.729645l-110.456665 0l-47.338623 0l0 0l-31.559021 0l0 -12.729645l-133.1123 26.401306l133.1123 -45.49579z" fill-rule="evenodd"></path><path stroke="#000000" stroke-width="2.0" stroke-linejoin="round" stroke-linecap="butt" d="m822.2274 244.22966l31.559021 0l0 0l47.338623 0l110.456665 0l0 44.553818l0 0l0 19.094482l0 12.729645l-110.456665 0l-47.338623 0l0 0l-31.559021 0l0 -12.729645l-133.1123 26.401306l133.1123 -45.49579z" fill-rule="evenodd"></path><path fill="#000000" d="m867.93616 279.21863l0 -3.9375l-3.59375 -5.375l1.5 0l1.84375 2.8125q0.5 0.78125 0.9375 1.578125q0.421875 -0.734375 1.015625 -1.640625l1.8125 -2.75l1.421875 0l-3.703125 5.375l0 3.9375l-1.234375 0zm5.2490845 0l3.578125 -9.3125l1.3125 0l3.8125 9.3125l-1.40625 0l-1.078125 -2.8125l-3.890625 0l-1.03125 2.8125l-1.296875 0zm2.6875 -3.828125l3.15625 0l-0.984375 -2.578125q-0.4375 -1.171875 -0.65625 -1.921875q-0.171875 0.890625 -0.5 1.78125l-1.015625 2.71875zm7.2335205 3.828125l0 -9.3125l4.125 0q1.25 0 1.890625 0.265625q0.65625 0.25 1.046875 0.890625q0.390625 0.625 0.390625 1.390625q0 0.984375 -0.65625 1.671875q-0.640625 0.671875 -1.96875 0.859375q0.484375 0.234375 0.734375 0.46875q0.546875 0.484375 1.03125 1.234375l1.609375 2.53125l-1.546875 0l-1.234375 -1.9375q-0.53125 -0.84375 -0.890625 -1.28125q-0.34375 -0.4375 -0.625 -0.609375q-0.265625 -0.1875 -0.546875 -0.265625q-0.21875 -0.03125 -0.6875 -0.03125l-1.4375 0l0 4.125l-1.234375 0zm1.234375 -5.203125l2.65625 0q0.84375 0 1.3125 -0.171875q0.484375 -0.171875 0.71875 -0.546875q0.25 -0.390625 0.25 -0.84375q0 -0.65625 -0.484375 -1.078125q-0.46875 -0.4375 -1.5 -0.4375l-2.953125 0l0 3.078125zm8.359558 5.203125l0 -9.3125l1.265625 0l4.890625 7.3125l0 -7.3125l1.1875 0l0 9.3125l-1.265625 0l-4.890625 -7.3125l0 7.3125l-1.1875 0zm19.984375 -3.265625l1.234375 0.3125q-0.390625 1.515625 -1.40625 2.3125q-1.0 0.796875 -2.453125 0.796875q-1.5 0 -2.453125 -0.609375q-0.9375 -0.609375 -1.4375 -1.765625q-0.484375 -1.171875 -0.484375 -2.5q0 -1.453125 0.5625 -2.53125q0.5625 -1.09375 1.578125 -1.65625q1.03125 -0.5625 2.265625 -0.5625q1.390625 0 2.34375 0.71875q0.953125 0.703125 1.328125 2.0l-1.21875 0.28125q-0.328125 -1.015625 -0.9375 -1.46875q-0.609375 -0.46875 -1.546875 -0.46875q-1.078125 0 -1.796875 0.515625q-0.71875 0.515625 -1.015625 1.375q-0.28125 0.859375 -0.28125 1.78125q0 1.1875 0.34375 2.078125q0.34375 0.890625 1.0625 1.328125q0.734375 0.4375 1.59375 0.4375q1.03125 0 1.75 -0.59375q0.71875 -0.609375 0.96875 -1.78125zm2.421997 -0.109375q0 -1.875 1.03125 -2.765625q0.875 -0.75 2.125 -0.75q1.390625 0 2.265625 0.90625q0.890625 0.90625 0.890625 2.515625q0 1.296875 -0.390625 2.046875q-0.390625 0.75 -1.140625 1.171875q-0.75 0.40625 -1.625 0.40625q-1.421875 0 -2.296875 -0.90625q-0.859375 -0.90625 -0.859375 -2.625zm1.171875 0q0 1.296875 0.5625 1.953125q0.5625 0.640625 1.421875 0.640625q0.84375 0 1.40625 -0.640625q0.578125 -0.65625 0.578125 -1.984375q0 -1.25 -0.578125 -1.890625q-0.5625 -0.65625 -1.40625 -0.65625q-0.859375 0 -1.421875 0.640625q-0.5625 0.640625 -0.5625 1.9375zm6.6624756 3.375l0 -6.734375l1.03125 0l0 0.953125q0.734375 -1.109375 2.140625 -1.109375q0.609375 0 1.109375 0.21875q0.515625 0.21875 0.765625 0.578125q0.265625 0.34375 0.359375 0.84375q0.0625 0.3125 0.0625 1.109375l0 4.140625l-1.140625 0l0 -4.09375q0 -0.703125 -0.140625 -1.046875q-0.125 -0.34375 -0.46875 -0.546875q-0.328125 -0.21875 -0.78125 -0.21875q-0.734375 0 -1.265625 0.46875q-0.53125 0.453125 -0.53125 1.75l0 3.6875l-1.140625 0zm9.912476 -1.015625l0.15625 1.0q-0.484375 0.109375 -0.859375 0.109375q-0.625 0 -0.96875 -0.203125q-0.34375 -0.203125 -0.484375 -0.515625q-0.140625 -0.328125 -0.140625 -1.34375l0 -3.890625l-0.828125 0l0 -0.875l0.828125 0l0 -1.671875l1.140625 -0.6875l0 2.359375l1.15625 0l0 0.875l-1.15625 0l0 3.953125q0 0.484375 0.0625 0.625q0.0625 0.140625 0.1875 0.21875q0.140625 0.078125 0.390625 0.078125q0.203125 0 0.515625 -0.03125zm5.593628 0.1875q-0.625 0.53125 -1.21875 0.765625q-0.578125 0.21875 -1.25 0.21875q-1.125 0 -1.71875 -0.546875q-0.59375 -0.546875 -0.59375 -1.390625q0 -0.484375 0.21875 -0.890625q0.234375 -0.421875 0.59375 -0.671875q0.375 -0.25 0.828125 -0.375q0.328125 -0.078125 1.015625 -0.171875q1.375 -0.15625 2.03125 -0.390625q0.015625 -0.234375 0.015625 -0.296875q0 -0.703125 -0.328125 -0.984375q-0.4375 -0.390625 -1.296875 -0.390625q-0.8125 0 -1.203125 0.28125q-0.375 0.28125 -0.5625 1.0l-1.109375 -0.140625q0.140625 -0.71875 0.484375 -1.15625q0.359375 -0.453125 1.015625 -0.6875q0.671875 -0.234375 1.53125 -0.234375q0.875 0 1.40625 0.203125q0.546875 0.203125 0.796875 0.515625q0.25 0.296875 0.359375 0.765625q0.046875 0.296875 0.046875 1.0625l0 1.515625q0 1.59375 0.078125 2.015625q0.078125 0.421875 0.28125 0.8125l-1.1875 0q-0.171875 -0.359375 -0.234375 -0.828125zm-0.09375 -2.5625q-0.625 0.265625 -1.859375 0.4375q-0.703125 0.109375 -1.0 0.234375q-0.296875 0.125 -0.453125 0.375q-0.15625 0.234375 -0.15625 0.53125q0 0.453125 0.34375 0.765625q0.34375 0.296875 1.015625 0.296875q0.65625 0 1.171875 -0.28125q0.515625 -0.296875 0.765625 -0.796875q0.171875 -0.375 0.171875 -1.140625l0 -0.421875zm3.1156006 -4.59375l0 -1.328125l1.140625 0l0 1.328125l-1.140625 0zm0 7.984375l0 -6.734375l1.140625 0l0 6.734375l-1.140625 0zm2.9611206 0l0 -6.734375l1.03125 0l0 0.953125q0.734375 -1.109375 2.140625 -1.109375q0.609375 0 1.109375 0.21875q0.515625 0.21875 0.765625 0.578125q0.265625 0.34375 0.359375 0.84375q0.0625 0.3125 0.0625 1.109375l0 4.140625l-1.140625 0l0 -4.09375q0 -0.703125 -0.140625 -1.046875q-0.125 -0.34375 -0.46875 -0.546875q-0.328125 -0.21875 -0.78125 -0.21875q-0.734375 0 -1.265625 0.46875q-0.53125 0.453125 -0.53125 1.75l0 3.6875l-1.140625 0zm12.021851 -2.171875l1.1875 0.140625q-0.28125 1.046875 -1.046875 1.625q-0.75 0.5625 -1.921875 0.5625q-1.484375 0 -2.359375 -0.90625q-0.859375 -0.921875 -0.859375 -2.5625q0 -1.703125 0.875 -2.640625q0.890625 -0.9375 2.28125 -0.9375q1.359375 0 2.203125 0.921875q0.859375 0.921875 0.859375 2.578125q0 0.109375 0 0.3125l-5.03125 0q0.0625 1.109375 0.625 1.703125q0.5625 0.59375 1.40625 0.59375q0.640625 0 1.078125 -0.328125q0.453125 -0.34375 0.703125 -1.0625zm-3.75 -1.84375l3.765625 0q-0.078125 -0.859375 -0.4375 -1.28125q-0.546875 -0.65625 -1.40625 -0.65625q-0.796875 0 -1.328125 0.53125q-0.53125 0.515625 -0.59375 1.40625zm6.5374756 4.015625l0 -6.734375l1.03125 0l0 1.015625q0.390625 -0.71875 0.71875 -0.9375q0.34375 -0.234375 0.734375 -0.234375q0.578125 0 1.171875 0.359375l-0.390625 1.0625q-0.421875 -0.25 -0.828125 -0.25q-0.375 0 -0.6875 0.234375q-0.296875 0.21875 -0.421875 0.625q-0.1875 0.609375 -0.1875 1.328125l0 3.53125l-1.140625 0zm4.0008545 -2.015625l1.125 -0.171875q0.09375 0.671875 0.53125 1.046875q0.4375 0.359375 1.21875 0.359375q0.78125 0 1.15625 -0.3125q0.390625 -0.328125 0.390625 -0.765625q0 -0.390625 -0.34375 -0.609375q-0.234375 -0.15625 -1.171875 -0.390625q-1.25 -0.3125 -1.734375 -0.546875q-0.484375 -0.234375 -0.734375 -0.640625q-0.25 -0.40625 -0.25 -0.90625q0 -0.453125 0.203125 -0.828125q0.203125 -0.390625 0.5625 -0.640625q0.265625 -0.203125 0.71875 -0.328125q0.46875 -0.140625 1.0 -0.140625q0.78125 0 1.375 0.234375q0.609375 0.21875 0.890625 0.609375q0.296875 0.390625 0.40625 1.046875l-1.125 0.15625q-0.078125 -0.53125 -0.4375 -0.8125q-0.359375 -0.296875 -1.03125 -0.296875q-0.78125 0 -1.125 0.265625q-0.34375 0.25 -0.34375 0.609375q0 0.21875 0.140625 0.390625q0.140625 0.1875 0.4375 0.3125q0.171875 0.0625 1.015625 0.28125q1.21875 0.328125 1.6875 0.53125q0.484375 0.203125 0.75 0.609375q0.28125 0.390625 0.28125 0.96875q0 0.578125 -0.34375 1.078125q-0.328125 0.5 -0.953125 0.78125q-0.625 0.28125 -1.421875 0.28125q-1.3125 0 -2.0 -0.546875q-0.6875 -0.546875 -0.875 -1.625z" fill-rule="nonzero"></path><path fill="#000000" d="m886.63763 297.953q-0.953125 -1.1875 -1.609375 -2.78125q-0.65625 -1.609375 -0.65625 -3.328125q0 -1.5 0.5 -2.890625q0.5625 -1.609375 1.765625 -3.203125l0.8125 0q-0.765625 1.328125 -1.015625 1.890625q-0.390625 0.875 -0.609375 1.828125q-0.265625 1.1875 -0.265625 2.390625q0 3.046875 1.890625 6.09375l-0.8125 0z" fill-rule="nonzero"></path><path fill="#000000" d="m894.93536 291.79675l1.8125 0.578125q-0.421875 1.515625 -1.390625 2.265625q-0.96875 0.734375 -2.46875 0.734375q-1.859375 0 -3.0625 -1.265625q-1.1875 -1.265625 -1.1875 -3.46875q0 -2.3125 1.203125 -3.59375q1.203125 -1.296875 3.15625 -1.296875q1.703125 0 2.78125 1.015625q0.625 0.59375 0.953125 1.71875l-1.859375 0.4375q-0.171875 -0.71875 -0.703125 -1.140625q-0.515625 -0.421875 -1.265625 -0.421875q-1.03125 0 -1.6875 0.75q-0.640625 0.734375 -0.640625 2.40625q0 1.75 0.640625 2.5q0.640625 0.75 1.65625 0.75q0.75 0 1.28125 -0.46875q0.546875 -0.484375 0.78125 -1.5zm3.234497 -0.046875q0 -0.890625 0.4375 -1.71875q0.4375 -0.828125 1.234375 -1.265625q0.8125 -0.4375 1.8125 -0.4375q1.515625 0 2.5 1.0q0.984375 0.984375 0.984375 2.5q0 1.53125 -1.0 2.546875q-0.984375 1.0 -2.484375 1.0q-0.921875 0 -1.765625 -0.421875q-0.84375 -0.421875 -1.28125 -1.21875q-0.4375 -0.8125 -0.4375 -1.984375zm1.828125 0.09375q0 1.0 0.46875 1.546875q0.484375 0.53125 1.1875 0.53125q0.703125 0 1.171875 -0.53125q0.46875 -0.546875 0.46875 -1.5625q0 -0.984375 -0.46875 -1.515625q-0.46875 -0.53125 -1.171875 -0.53125q-0.703125 0 -1.1875 0.53125q-0.46875 0.53125 -0.46875 1.53125zm6.5944824 -3.359375l1.640625 0l0 0.90625q0.890625 -1.0625 2.109375 -1.0625q0.640625 0 1.109375 0.265625q0.484375 0.265625 0.796875 0.796875q0.4375 -0.53125 0.953125 -0.796875q0.515625 -0.265625 1.09375 -0.265625q0.75 0 1.265625 0.296875q0.515625 0.296875 0.765625 0.890625q0.1875 0.421875 0.1875 1.390625l0 4.3125l-1.78125 0l0 -3.859375q0 -1.0 -0.1875 -1.28125q-0.25 -0.390625 -0.765625 -0.390625q-0.375 0 -0.703125 0.234375q-0.328125 0.21875 -0.484375 0.671875q-0.140625 0.4375 -0.140625 1.390625l0 3.234375l-1.78125 0l0 -3.6875q0 -0.984375 -0.09375 -1.265625q-0.09375 -0.296875 -0.296875 -0.4375q-0.203125 -0.140625 -0.546875 -0.140625q-0.40625 0 -0.734375 0.234375q-0.328125 0.21875 -0.484375 0.640625q-0.140625 0.40625 -0.140625 1.375l0 3.28125l-1.78125 0l0 -6.734375zm11.929016 0l1.671875 0l0 0.984375q0.328125 -0.515625 0.875 -0.828125q0.546875 -0.3125 1.21875 -0.3125q1.1875 0 2.0 0.921875q0.8125 0.921875 0.8125 2.5625q0 1.6875 -0.828125 2.625q-0.8125 0.9375 -1.984375 0.9375q-0.5625 0 -1.015625 -0.21875q-0.453125 -0.234375 -0.953125 -0.765625l0 3.390625l-1.796875 0l0 -9.296875zm1.765625 3.25q0 1.140625 0.453125 1.6875q0.453125 0.53125 1.109375 0.53125q0.609375 0 1.015625 -0.5q0.421875 -0.5 0.421875 -1.625q0 -1.0625 -0.421875 -1.578125q-0.421875 -0.515625 -1.046875 -0.515625q-0.65625 0 -1.09375 0.515625q-0.4375 0.5 -0.4375 1.484375zm10.875732 3.484375l0 -1.015625q-0.375 0.546875 -0.984375 0.859375q-0.59375 0.3125 -1.25 0.3125q-0.6875 0 -1.234375 -0.296875q-0.53125 -0.296875 -0.78125 -0.84375q-0.234375 -0.546875 -0.234375 -1.484375l0 -4.265625l1.78125 0l0 3.09375q0 1.421875 0.09375 1.75q0.109375 0.3125 0.359375 0.5q0.265625 0.1875 0.671875 0.1875q0.453125 0 0.8125 -0.25q0.375 -0.25 0.5 -0.625q0.140625 -0.375 0.140625 -1.8125l0 -2.84375l1.78125 0l0 6.734375l-1.65625 0zm6.7976074 -6.734375l0 1.421875l-1.21875 0l0 2.703125q0 0.828125 0.03125 0.96875q0.03125 0.140625 0.15625 0.234375q0.125 0.078125 0.296875 0.078125q0.25 0 0.71875 -0.171875l0.15625 1.390625q-0.625 0.265625 -1.40625 0.265625q-0.484375 0 -0.875 -0.15625q-0.390625 -0.171875 -0.578125 -0.421875q-0.171875 -0.265625 -0.234375 -0.703125q-0.0625 -0.3125 -0.0625 -1.25l0 -2.9375l-0.8125 0l0 -1.421875l0.8125 0l0 -1.34375l1.796875 -1.046875l0 2.390625l1.21875 0zm5.2508545 4.59375l1.765625 0.296875q-0.34375 0.96875 -1.078125 1.484375q-0.734375 0.515625 -1.84375 0.515625q-1.765625 0 -2.609375 -1.15625q-0.671875 -0.921875 -0.671875 -2.3125q0 -1.6875 0.875 -2.625q0.890625 -0.953125 2.21875 -0.953125q1.515625 0 2.375 1.0q0.875 0.984375 0.828125 3.03125l-4.46875 0q0.03125 0.796875 0.4375 1.234375q0.40625 0.4375 1.03125 0.4375q0.421875 0 0.703125 -0.21875q0.28125 -0.234375 0.4375 -0.734375zm0.09375 -1.8125q-0.015625 -0.765625 -0.40625 -1.171875q-0.375 -0.40625 -0.921875 -0.40625q-0.578125 0 -0.96875 0.421875q-0.375 0.4375 -0.375 1.15625l2.671875 0z" fill-rule="nonzero"></path><path fill="#000000" d="m947.3894 297.953l-0.828125 0q1.90625 -3.046875 1.90625 -6.09375q0 -1.203125 -0.28125 -2.375q-0.203125 -0.953125 -0.59375 -1.828125q-0.25 -0.5625 -1.03125 -1.90625l0.828125 0q1.1875 1.59375 1.765625 3.203125q0.484375 1.390625 0.484375 2.890625q0 1.71875 -0.65625 3.328125q-0.65625 1.59375 -1.59375 2.78125z" fill-rule="nonzero"></path></g></svg>

