<?xml version="1.0" standalone="yes"?>

<svg version="1.1" viewBox="0.0 0.0 1202.286089238845 709.7139107611548" fill="none" stroke="none" stroke-linecap="square" stroke-miterlimit="10" xmlns="http://www.w3.org/2000/svg" xmlns:xlink="http://www.w3.org/1999/xlink"><clipPath id="p.0"><path d="m0 0l1202.2861 0l0 709.7139l-1202.2861 0l0 -709.7139z" clip-rule="nonzero"></path></clipPath><g clip-path="url(#p.0)"><path fill="#000000" fill-opacity="0.0" d="m0 0l1202.2861 0l0 709.7139l-1202.2861 0z" fill-rule="evenodd"></path><path fill="#cfe2f3" d="m70.3294 240.47769l58.92913 0l0 60.3515l-9.821716 9.821716l-49.107414 0z" fill-rule="evenodd"></path><path fill="#a5b4c2" d="m119.43681 310.6509l1.9643402 -7.857361l7.857376 -1.9643555z" fill-rule="evenodd"></path><path fill="#000000" fill-opacity="0.0" d="m119.43681 310.6509l1.9643402 -7.857361l7.857376 -1.9643555l-9.821716 9.821716l-49.107414 0l0 -70.17322l58.92913 0l0 60.3515" fill-rule="evenodd"></path><path stroke="#000000" stroke-width="2.0" stroke-linejoin="round" stroke-linecap="butt" d="m119.43681 310.6509l1.9643402 -7.857361l7.857376 -1.9643555l-9.821716 9.821716l-49.107414 0l0 -70.17322l58.92913 0l0 60.3515" fill-rule="evenodd"></path><path fill="#000000" d="m84.79815 265.28156l1.1875 0.140625q-0.28125 1.046875 -1.046875 1.625q-0.75 0.5625 -1.921875 0.5625q-1.484375 0 -2.359375 -0.90625q-0.859375 -0.921875 -0.859375 -2.5625q0 -1.703125 0.875 -2.640625q0.890625 -0.9375 2.28125 -0.9375q1.359375 0 2.203125 0.921875q0.859375 0.921875 0.859375 2.578125q0 0.109375 0 0.3125l-5.03125 0q0.0625 1.109375 0.625 1.703125q0.5625 0.59375 1.40625 0.59375q0.640625 0 1.078125 -0.328125q0.453125 -0.34375 0.703125 -1.0625zm-3.75 -1.84375l3.765625 0q-0.078125 -0.859375 -0.4375 -1.28125q-0.546875 -0.65625 -1.40625 -0.65625q-0.796875 0 -1.328125 0.53125q-0.53125 0.515625 -0.59375 1.40625zm8.428101 4.015625l-2.5625 -6.734375l1.203125 0l1.4375 4.03125q0.234375 0.65625 0.4375 1.359375q0.15625 -0.53125 0.421875 -1.28125l1.5 -4.109375l1.171875 0l-2.546875 6.734375l-1.0625 0zm9.3984375 -2.171875l1.1875 0.140625q-0.28125 1.046875 -1.046875 1.625q-0.75 0.5625 -1.921875 0.5625q-1.484375 0 -2.359375 -0.90625q-0.859375 -0.921875 -0.859375 -2.5625q0 -1.703125 0.875 -2.640625q0.890625 -0.9375 2.28125 -0.9375q1.359375 0 2.203125 0.921875q0.859375 0.921875 0.859375 2.578125q0 0.109375 0 0.3125l-5.03125 0q0.0625 1.109375 0.625 1.703125q0.5625 0.59375 1.40625 0.59375q0.640625 0 1.078125 -0.328125q0.453125 -0.34375 0.703125 -1.0625zm-3.75 -1.84375l3.765625 0q-0.078125 -0.859375 -0.4375 -1.28125q-0.546875 -0.65625 -1.40625 -0.65625q-0.796875 0 -1.328125 0.53125q-0.53125 0.515625 -0.59375 1.40625zm6.5531006 4.015625l0 -6.734375l1.03125 0l0 0.953125q0.734375 -1.109375 2.140625 -1.109375q0.609375 0 1.109375 0.21875q0.515625 0.21875 0.765625 0.578125q0.265625 0.34375 0.359375 0.84375q0.0625 0.3125 0.0625 1.109375l0 4.140625l-1.140625 0l0 -4.09375q0 -0.703125 -0.140625 -1.046875q-0.125 -0.34375 -0.46875 -0.546875q-0.328125 -0.21875 -0.78125 -0.21875q-0.734375 0 -1.265625 0.46875q-0.53125 0.453125 -0.53125 1.75l0 3.6875l-1.140625 0zm9.912476 -1.015625l0.15625 1.0q-0.484375 0.109375 -0.859375 0.109375q-0.625 0 -0.96875 -0.203125q-0.34375 -0.203125 -0.484375 -0.515625q-0.140625 -0.328125 -0.140625 -1.34375l0 -3.890625l-0.828125 0l0 -0.875l0.828125 0l0 -1.671875l1.140625 -0.6875l0 2.359375l1.15625 0l0 0.875l-1.15625 0l0 3.953125q0 0.484375 0.0625 0.625q0.0625 0.140625 0.1875 0.21875q0.140625 0.078125 0.390625 0.078125q0.203125 0 0.515625 -0.03125z" fill-rule="nonzero"></path><path fill="#000000" d="m80.157524 283.45343l0 -9.3125l1.140625 0l0 9.3125l-1.140625 0zm2.570465 -3.375q0 -1.875 1.03125 -2.765625q0.875 -0.75 2.125 -0.75q1.390625 0 2.265625 0.90625q0.890625 0.90625 0.890625 2.515625q0 1.296875 -0.390625 2.046875q-0.390625 0.75 -1.140625 1.171875q-0.75 0.40625 -1.625 0.40625q-1.421875 0 -2.296875 -0.90625q-0.859375 -0.90625 -0.859375 -2.625zm1.171875 0q0 1.296875 0.5625 1.953125q0.5625 0.640625 1.421875 0.640625q0.84375 0 1.40625 -0.640625q0.578125 -0.65625 0.578125 -1.984375q0 -1.25 -0.578125 -1.890625q-0.5625 -0.65625 -1.40625 -0.65625q-0.859375 0 -1.421875 0.640625q-0.5625 0.640625 -0.5625 1.9375zm6.4437256 3.9375l1.125 0.15625q0.0625 0.515625 0.375 0.75q0.4375 0.328125 1.171875 0.328125q0.78125 0 1.21875 -0.328125q0.4375 -0.3125 0.578125 -0.890625q0.09375 -0.34375 0.09375 -1.453125q-0.75 0.875 -1.875 0.875q-1.390625 0 -2.15625 -1.0q-0.75 -1.0 -0.75 -2.40625q0 -0.96875 0.34375 -1.78125q0.359375 -0.8125 1.015625 -1.25q0.65625 -0.453125 1.5625 -0.453125q1.1875 0 1.96875 0.96875l0 -0.8125l1.046875 0l0 5.8125q0 1.578125 -0.328125 2.234375q-0.3125 0.65625 -1.015625 1.03125q-0.6875 0.390625 -1.703125 0.390625q-1.203125 0 -1.953125 -0.546875q-0.734375 -0.53125 -0.71875 -1.625zm0.953125 -4.046875q0 1.3125 0.515625 1.921875q0.53125 0.609375 1.328125 0.609375q0.796875 0 1.328125 -0.59375q0.53125 -0.609375 0.53125 -1.90625q0 -1.234375 -0.546875 -1.859375q-0.546875 -0.640625 -1.328125 -0.640625q-0.765625 0 -1.296875 0.625q-0.53125 0.625 -0.53125 1.84375z" fill-rule="nonzero"></path><path fill="#000000" fill-opacity="0.0" d="m165.05511 299.5643l74.74016 0" fill-rule="evenodd"></path><path stroke="#000000" stroke-width="2.0" stroke-linejoin="round" stroke-linecap="butt" d="m165.05511 299.5643l62.740158 0" fill-rule="evenodd"></path><path fill="#000000" stroke="#000000" stroke-width="2.0" stroke-linecap="butt" d="m227.79527 302.86777l9.076202 -3.3034668l-9.076202 -3.3034668z" fill-rule="evenodd"></path><path fill="#cccccc" d="m698.4816 225.34077l0 0c0 -25.328766 62.045593 -45.86177 138.5827 -45.86177c76.53705 0 138.58264 20.533005 138.58264 45.86177l0 183.44707c0 25.328766 -62.045593 45.861786 -138.58264 45.861786c-76.53711 0 -138.5827 -20.53302 -138.5827 -45.861786z" fill-rule="evenodd"></path><path fill="#000000" fill-opacity="0.0" d="m975.647 225.34077l0 0c0 25.32875 -62.045593 45.86177 -138.58264 45.86177c-76.53711 0 -138.5827 -20.53302 -138.5827 -45.86177" fill-rule="evenodd"></path><path fill="#000000" fill-opacity="0.0" d="m698.4816 225.34077l0 0c0 -25.328766 62.045593 -45.86177 138.5827 -45.86177c76.53705 0 138.58264 20.533005 138.58264 45.86177l0 183.44707c0 25.328766 -62.045593 45.861786 -138.58264 45.861786c-76.53711 0 -138.5827 -20.53302 -138.5827 -45.861786z" fill-rule="evenodd"></path><path stroke="#b7b7b7" stroke-width="2.0" stroke-linejoin="round" stroke-linecap="butt" d="m975.647 225.34077l0 0c0 25.32875 -62.045593 45.86177 -138.58264 45.86177c-76.53711 0 -138.5827 -20.53302 -138.5827 -45.86177" fill-rule="evenodd"></path><path stroke="#b7b7b7" stroke-width="2.0" stroke-linejoin="round" stroke-linecap="butt" d="m698.4816 225.34077l0 0c0 -25.328766 62.045593 -45.86177 138.5827 -45.86177c76.53705 0 138.58264 20.533005 138.58264 45.86177l0 183.44707c0 25.328766 -62.045593 45.861786 -138.58264 45.861786c-76.53711 0 -138.5827 -20.53302 -138.5827 -45.861786z" fill-rule="evenodd"></path><path fill="#cccccc" d="m730.584 282.59973l-76.43042 0c-10.552856 0 -19.107605 6.8391113 -19.107605 15.275604c0 8.436462 8.554749 15.275574 19.107605 15.275574l76.43042 0l0 0c10.552856 0 19.107605 -6.8391113 19.107605 -15.275574c0 -8.436493 -8.554749 -15.275604 -19.107605 -15.275604z" fill-rule="evenodd"></path><path fill="#000000" fill-opacity="0.0" d="m654.15356 313.1509c10.552795 0 19.107605 -6.8391113 19.107605 -15.275574c0 -8.436493 -8.55481 -15.275604 -19.107605 -15.275604" fill-rule="evenodd"></path><path fill="#000000" fill-opacity="0.0" d="m730.584 282.59973l-76.43042 0c-10.552856 0 -19.107605 6.8391113 -19.107605 15.275604c0 8.436462 8.554749 15.275574 19.107605 15.275574l76.43042 0l0 0c10.552856 0 19.107605 -6.8391113 19.107605 -15.275574c0 -8.436493 -8.554749 -15.275604 -19.107605 -15.275604z" fill-rule="evenodd"></path><path stroke="#b7b7b7" stroke-width="2.0" stroke-linejoin="round" stroke-linecap="butt" d="m654.15356 313.1509c10.552795 0 19.107605 -6.8391113 19.107605 -15.275574c0 -8.436493 -8.55481 -15.275604 -19.107605 -15.275604" fill-rule="evenodd"></path><path stroke="#b7b7b7" stroke-width="2.0" stroke-linejoin="round" stroke-linecap="butt" d="m730.584 282.59973l-76.43042 0c-10.552856 0 -19.107605 6.8391113 -19.107605 15.275604c0 8.436462 8.554749 15.275574 19.107605 15.275574l76.43042 0l0 0c10.552856 0 19.107605 -6.8391113 19.107605 -15.275574c0 -8.436493 -8.554749 -15.275604 -19.107605 -15.275604z" fill-rule="evenodd"></path><path fill="#000000" d="m687.4174 305.25345l0 -3.296875q-0.265625 0.375 -0.75 0.625q-0.484375 0.25 -1.015625 0.25q-1.203125 0 -2.078125 -0.953125q-0.859375 -0.96875 -0.859375 -2.640625q0 -1.015625 0.34375 -1.8125q0.359375 -0.8125 1.03125 -1.21875q0.671875 -0.421875 1.46875 -0.421875q1.25 0 1.96875 1.046875l0 -0.890625l1.03125 0l0 9.3125l-1.140625 0zm-3.53125 -5.96875q0 1.296875 0.546875 1.953125q0.546875 0.65625 1.3125 0.65625q0.734375 0 1.25 -0.625q0.53125 -0.625 0.53125 -1.875q0 -1.359375 -0.5625 -2.03125q-0.546875 -0.6875 -1.296875 -0.6875q-0.734375 0 -1.265625 0.640625q-0.515625 0.625 -0.515625 1.96875zm11.068726 3.390625l0 -0.984375q-0.796875 1.140625 -2.140625 1.140625q-0.59375 0 -1.125 -0.234375q-0.515625 -0.234375 -0.765625 -0.578125q-0.25 -0.34375 -0.34375 -0.84375q-0.078125 -0.328125 -0.078125 -1.0625l0 -4.171875l1.140625 0l0 3.734375q0 0.890625 0.078125 1.203125q0.109375 0.453125 0.453125 0.71875q0.34375 0.25 0.859375 0.25q0.515625 0 0.96875 -0.265625q0.453125 -0.265625 0.640625 -0.71875q0.1875 -0.453125 0.1875 -1.3125l0 -3.609375l1.140625 0l0 6.734375l-1.015625 0zm7.5999756 -2.171875l1.1875 0.140625q-0.28125 1.046875 -1.046875 1.625q-0.75 0.5625 -1.921875 0.5625q-1.484375 0 -2.359375 -0.90625q-0.859375 -0.921875 -0.859375 -2.5625q0 -1.703125 0.875 -2.640625q0.890625 -0.9375 2.28125 -0.9375q1.359375 0 2.203125 0.921875q0.859375 0.921875 0.859375 2.578125q0 0.109375 0 0.3125l-5.03125 0q0.0625 1.109375 0.625 1.703125q0.5625 0.59375 1.40625 0.59375q0.640625 0 1.078125 -0.328125q0.453125 -0.34375 0.703125 -1.0625zm-3.75 -1.84375l3.765625 0q-0.078125 -0.859375 -0.4375 -1.28125q-0.546875 -0.65625 -1.40625 -0.65625q-0.796875 0 -1.328125 0.53125q-0.53125 0.515625 -0.59375 1.40625zm10.974976 4.015625l0 -0.984375q-0.796875 1.140625 -2.140625 1.140625q-0.59375 0 -1.125 -0.234375q-0.515625 -0.234375 -0.765625 -0.578125q-0.25 -0.34375 -0.34375 -0.84375q-0.078125 -0.328125 -0.078125 -1.0625l0 -4.171875l1.140625 0l0 3.734375q0 0.890625 0.078125 1.203125q0.109375 0.453125 0.453125 0.71875q0.34375 0.25 0.859375 0.25q0.515625 0 0.96875 -0.265625q0.453125 -0.265625 0.640625 -0.71875q0.1875 -0.453125 0.1875 -1.3125l0 -3.609375l1.140625 0l0 6.734375l-1.015625 0zm7.5999756 -2.171875l1.1875 0.140625q-0.28125 1.046875 -1.046875 1.625q-0.75 0.5625 -1.921875 0.5625q-1.484375 0 -2.359375 -0.90625q-0.859375 -0.921875 -0.859375 -2.5625q0 -1.703125 0.875 -2.640625q0.890625 -0.9375 2.28125 -0.9375q1.359375 0 2.203125 0.921875q0.859375 0.921875 0.859375 2.578125q0 0.109375 0 0.3125l-5.03125 0q0.0625 1.109375 0.625 1.703125q0.5625 0.59375 1.40625 0.59375q0.640625 0 1.078125 -0.328125q0.453125 -0.34375 0.703125 -1.0625zm-3.75 -1.84375l3.765625 0q-0.078125 -0.859375 -0.4375 -1.28125q-0.546875 -0.65625 -1.40625 -0.65625q-0.796875 0 -1.328125 0.53125q-0.53125 0.515625 -0.59375 1.40625z" fill-rule="nonzero"></path><path fill="#cccccc" d="m764.5 280.20474l37.81958 0l0 35.58133c-18.908752 0 -18.908752 13.68988 -37.81958 6.84494zm3.1158447 0l0 -4.6128845l37.56134 0l0 35.804504c-1.4277954 0 -2.857605 0.24801636 -2.857605 0.24801636l0 -31.439636zm2.928772 -4.6128845l0 -4.5013123l37.88672 0l0 35.692932c-1.6270752 0 -3.2541504 0.18600464 -3.2541504 0.18600464l0 -31.377625z" fill-rule="evenodd"></path><path fill="#000000" fill-opacity="0.0" d="m764.5 280.20474l37.81958 0l0 35.58133c-18.908752 0 -18.908752 13.68988 -37.81958 6.84494zm3.1158447 0l0 -4.6128845l37.56134 0l0 35.804504c-1.4277954 0 -2.857605 0.24801636 -2.857605 0.24801636m-31.774963 -36.05252l0 -4.5013123l37.88672 0l0 35.692932c-1.6270752 0 -3.2541504 0.18600464 -3.2541504 0.18600464" fill-rule="evenodd"></path><path fill="#000000" fill-opacity="0.0" d="m764.5 322.631c18.910828 6.84494 18.910828 -6.84494 37.81958 -6.84494l0 -4.141693c0 0 1.4298096 -0.24801636 2.857605 -0.24801636l0 -4.42688c0 0 1.6270752 -0.18600464 3.2541504 -0.18600464l0 -35.692932l-37.88672 0l0 4.5013123l-2.928772 0l0 4.6128845l-3.1158447 0z" fill-rule="evenodd"></path><path stroke="#b7b7b7" stroke-width="2.0" stroke-linejoin="round" stroke-linecap="butt" d="m764.5 280.20474l37.81958 0l0 35.58133c-18.908752 0 -18.908752 13.68988 -37.81958 6.84494zm3.1158447 0l0 -4.6128845l37.56134 0l0 35.804504c-1.4277954 0 -2.857605 0.24801636 -2.857605 0.24801636m-31.774963 -36.05252l0 -4.5013123l37.88672 0l0 35.692932c-1.6270752 0 -3.2541504 0.18600464 -3.2541504 0.18600464" fill-rule="evenodd"></path><path fill="#000000" fill-opacity="0.0" d="m730.5315 194.39896l84.566956 0l0 46.078735l-84.566956 0z" fill-rule="evenodd"></path><path fill="#000000" d="m740.5315 216.19894l0 -9.3125l3.203125 0q1.09375 0 1.65625 0.140625q0.8125 0.1875 1.375 0.671875q0.734375 0.609375 1.09375 1.578125q0.375 0.96875 0.375 2.21875q0 1.0625 -0.25 1.890625q-0.25 0.8125 -0.640625 1.34375q-0.390625 0.53125 -0.859375 0.84375q-0.453125 0.3125 -1.109375 0.46875q-0.640625 0.15625 -1.484375 0.15625l-3.359375 0zm1.234375 -1.09375l1.984375 0q0.921875 0 1.4375 -0.171875q0.53125 -0.171875 0.84375 -0.484375q0.4375 -0.4375 0.671875 -1.171875q0.25 -0.75 0.25 -1.796875q0 -1.46875 -0.484375 -2.25q-0.46875 -0.78125 -1.15625 -1.046875q-0.5 -0.1875 -1.59375 -0.1875l-1.953125 0l0 7.109375zm8.250183 -6.890625l0 -1.328125l1.140625 0l0 1.328125l-1.140625 0zm0 7.984375l0 -6.734375l1.140625 0l0 6.734375l-1.140625 0zm2.5079346 -2.015625l1.125 -0.171875q0.09375 0.671875 0.53125 1.046875q0.4375 0.359375 1.21875 0.359375q0.78125 0 1.15625 -0.3125q0.390625 -0.328125 0.390625 -0.765625q0 -0.390625 -0.34375 -0.609375q-0.234375 -0.15625 -1.171875 -0.390625q-1.25 -0.3125 -1.734375 -0.546875q-0.484375 -0.234375 -0.734375 -0.640625q-0.25 -0.40625 -0.25 -0.90625q0 -0.453125 0.203125 -0.828125q0.203125 -0.390625 0.5625 -0.640625q0.265625 -0.203125 0.71875 -0.328125q0.46875 -0.140625 1.0 -0.140625q0.78125 0 1.375 0.234375q0.609375 0.21875 0.890625 0.609375q0.296875 0.390625 0.40625 1.046875l-1.125 0.15625q-0.078125 -0.53125 -0.4375 -0.8125q-0.359375 -0.296875 -1.03125 -0.296875q-0.78125 0 -1.125 0.265625q-0.34375 0.25 -0.34375 0.609375q0 0.21875 0.140625 0.390625q0.140625 0.1875 0.4375 0.3125q0.171875 0.0625 1.015625 0.28125q1.21875 0.328125 1.6875 0.53125q0.484375 0.203125 0.75 0.609375q0.28125 0.390625 0.28125 0.96875q0 0.578125 -0.34375 1.078125q-0.328125 0.5 -0.953125 0.78125q-0.625 0.28125 -1.421875 0.28125q-1.3125 0 -2.0 -0.546875q-0.6875 -0.546875 -0.875 -1.625zm9.6171875 1.0l0.15625 1.0q-0.484375 0.109375 -0.859375 0.109375q-0.625 0 -0.96875 -0.203125q-0.34375 -0.203125 -0.484375 -0.515625q-0.140625 -0.328125 -0.140625 -1.34375l0 -3.890625l-0.828125 0l0 -0.875l0.828125 0l0 -1.671875l1.140625 -0.6875l0 2.359375l1.15625 0l0 0.875l-1.15625 0l0 3.953125q0 0.484375 0.0625 0.625q0.0625 0.140625 0.1875 0.21875q0.140625 0.078125 0.390625 0.078125q0.203125 0 0.515625 -0.03125zm1.1873779 1.015625l0 -6.734375l1.03125 0l0 1.015625q0.390625 -0.71875 0.71875 -0.9375q0.34375 -0.234375 0.734375 -0.234375q0.578125 0 1.171875 0.359375l-0.390625 1.0625q-0.421875 -0.25 -0.828125 -0.25q-0.375 0 -0.6875 0.234375q-0.296875 0.21875 -0.421875 0.625q-0.1875 0.609375 -0.1875 1.328125l0 3.53125l-1.140625 0zm4.4539795 -7.984375l0 -1.328125l1.140625 0l0 1.328125l-1.140625 0zm0 7.984375l0 -6.734375l1.140625 0l0 6.734375l-1.140625 0zm4.0079956 0l-1.0625 0l0 -9.3125l1.15625 0l0 3.328125q0.71875 -0.90625 1.84375 -0.90625q0.625 0 1.171875 0.25q0.5625 0.25 0.921875 0.703125q0.359375 0.453125 0.5625 1.09375q0.203125 0.640625 0.203125 1.375q0 1.734375 -0.859375 2.6875q-0.859375 0.9375 -2.0625 0.9375q-1.1875 0 -1.875 -1.0l0 0.84375zm-0.015625 -3.421875q0 1.21875 0.34375 1.75q0.53125 0.890625 1.453125 0.890625q0.75 0 1.296875 -0.65625q0.546875 -0.65625 0.546875 -1.9375q0 -1.328125 -0.53125 -1.953125q-0.515625 -0.625 -1.265625 -0.625q-0.75 0 -1.296875 0.65625q-0.546875 0.640625 -0.546875 1.875zm10.803101 3.421875l0 -0.984375q-0.796875 1.140625 -2.140625 1.140625q-0.59375 0 -1.125 -0.234375q-0.515625 -0.234375 -0.765625 -0.578125q-0.25 -0.34375 -0.34375 -0.84375q-0.078125 -0.328125 -0.078125 -1.0625l0 -4.171875l1.140625 0l0 3.734375q0 0.890625 0.078125 1.203125q0.109375 0.453125 0.453125 0.71875q0.34375 0.25 0.859375 0.25q0.515625 0 0.96875 -0.265625q0.453125 -0.265625 0.640625 -0.71875q0.1875 -0.453125 0.1875 -1.3125l0 -3.609375l1.140625 0l0 6.734375l-1.015625 0zm5.4906006 -1.015625l0.15625 1.0q-0.484375 0.109375 -0.859375 0.109375q-0.625 0 -0.96875 -0.203125q-0.34375 -0.203125 -0.484375 -0.515625q-0.140625 -0.328125 -0.140625 -1.34375l0 -3.890625l-0.828125 0l0 -0.875l0.828125 0l0 -1.671875l1.140625 -0.6875l0 2.359375l1.15625 0l0 0.875l-1.15625 0l0 3.953125q0 0.484375 0.0625 0.625q0.0625 0.140625 0.1875 0.21875q0.140625 0.078125 0.390625 0.078125q0.203125 0 0.515625 -0.03125zm5.812317 -1.15625l1.1875 0.140625q-0.28125 1.046875 -1.046875 1.625q-0.75 0.5625 -1.921875 0.5625q-1.484375 0 -2.359375 -0.90625q-0.859375 -0.921875 -0.859375 -2.5625q0 -1.703125 0.875 -2.640625q0.890625 -0.9375 2.28125 -0.9375q1.359375 0 2.203125 0.921875q0.859375 0.921875 0.859375 2.578125q0 0.109375 0 0.3125l-5.03125 0q0.0625 1.109375 0.625 1.703125q0.5625 0.59375 1.40625 0.59375q0.640625 0 1.078125 -0.328125q0.453125 -0.34375 0.703125 -1.0625zm-3.75 -1.84375l3.765625 0q-0.078125 -0.859375 -0.4375 -1.28125q-0.546875 -0.65625 -1.40625 -0.65625q-0.796875 0 -1.328125 0.53125q-0.53125 0.515625 -0.59375 1.40625zm10.928101 4.015625l0 -0.84375q-0.640625 1.0 -1.890625 1.0q-0.796875 0 -1.484375 -0.4375q-0.671875 -0.453125 -1.046875 -1.25q-0.375 -0.796875 -0.375 -1.828125q0 -1.015625 0.34375 -1.828125q0.34375 -0.828125 1.015625 -1.265625q0.671875 -0.4375 1.5 -0.4375q0.609375 0 1.078125 0.265625q0.484375 0.25 0.78125 0.65625l0 -3.34375l1.140625 0l0 9.3125l-1.0625 0zm-3.609375 -3.359375q0 1.296875 0.53125 1.9375q0.546875 0.640625 1.296875 0.640625q0.75 0 1.265625 -0.609375q0.53125 -0.625 0.53125 -1.875q0 -1.390625 -0.53125 -2.03125q-0.53125 -0.65625 -1.3125 -0.65625q-0.765625 0 -1.28125 0.625q-0.5 0.625 -0.5 1.96875z" fill-rule="nonzero"></path><path fill="#000000" d="m740.1096 229.21457l1.171875 -0.109375q0.078125 0.703125 0.375 1.15625q0.3125 0.4375 0.9375 0.71875q0.640625 0.265625 1.4375 0.265625q0.703125 0 1.234375 -0.203125q0.546875 -0.203125 0.8125 -0.5625q0.265625 -0.375 0.265625 -0.8125q0 -0.4375 -0.265625 -0.765625q-0.25 -0.328125 -0.828125 -0.546875q-0.375 -0.140625 -1.65625 -0.453125q-1.28125 -0.3125 -1.796875 -0.578125q-0.671875 -0.34375 -1.0 -0.859375q-0.328125 -0.53125 -0.328125 -1.171875q0 -0.703125 0.390625 -1.3125q0.40625 -0.609375 1.171875 -0.921875q0.78125 -0.328125 1.71875 -0.328125q1.03125 0 1.8125 0.34375q0.796875 0.328125 1.21875 0.984375q0.4375 0.640625 0.46875 1.453125l-1.1875 0.09375q-0.09375 -0.890625 -0.640625 -1.328125q-0.546875 -0.453125 -1.625 -0.453125q-1.109375 0 -1.625 0.40625q-0.515625 0.40625 -0.515625 0.984375q0 0.5 0.359375 0.828125q0.359375 0.328125 1.859375 0.671875q1.5 0.328125 2.0625 0.578125q0.8125 0.375 1.1875 0.953125q0.390625 0.578125 0.390625 1.328125q0 0.734375 -0.421875 1.390625q-0.421875 0.65625 -1.21875 1.03125q-0.796875 0.359375 -1.796875 0.359375q-1.265625 0 -2.125 -0.359375q-0.84375 -0.375 -1.328125 -1.109375q-0.484375 -0.75 -0.515625 -1.671875zm11.6710205 1.96875l0.15625 1.0q-0.484375 0.109375 -0.859375 0.109375q-0.625 0 -0.96875 -0.203125q-0.34375 -0.203125 -0.484375 -0.515625q-0.140625 -0.328125 -0.140625 -1.34375l0 -3.890625l-0.828125 0l0 -0.875l0.828125 0l0 -1.671875l1.140625 -0.6875l0 2.359375l1.15625 0l0 0.875l-1.15625 0l0 3.953125q0 0.484375 0.0625 0.625q0.0625 0.140625 0.1875 0.21875q0.140625 0.078125 0.390625 0.078125q0.203125 0 0.515625 -0.03125zm0.7811279 -2.359375q0 -1.875 1.03125 -2.765625q0.875 -0.75 2.125 -0.75q1.390625 0 2.265625 0.90625q0.890625 0.90625 0.890625 2.515625q0 1.296875 -0.390625 2.046875q-0.390625 0.75 -1.140625 1.171875q-0.75 0.40625 -1.625 0.40625q-1.421875 0 -2.296875 -0.90625q-0.859375 -0.90625 -0.859375 -2.625zm1.171875 0q0 1.296875 0.5625 1.953125q0.5625 0.640625 1.421875 0.640625q0.84375 0 1.40625 -0.640625q0.578125 -0.65625 0.578125 -1.984375q0 -1.25 -0.578125 -1.890625q-0.5625 -0.65625 -1.40625 -0.65625q-0.859375 0 -1.421875 0.640625q-0.5625 0.640625 -0.5625 1.9375zm6.6468506 3.375l0 -6.734375l1.03125 0l0 1.015625q0.390625 -0.71875 0.71875 -0.9375q0.34375 -0.234375 0.734375 -0.234375q0.578125 0 1.171875 0.359375l-0.390625 1.0625q-0.421875 -0.25 -0.828125 -0.25q-0.375 0 -0.6875 0.234375q-0.296875 0.21875 -0.421875 0.625q-0.1875 0.609375 -0.1875 1.328125l0 3.53125l-1.140625 0zm8.8446045 -0.828125q-0.625 0.53125 -1.21875 0.765625q-0.578125 0.21875 -1.25 0.21875q-1.125 0 -1.71875 -0.546875q-0.59375 -0.546875 -0.59375 -1.390625q0 -0.484375 0.21875 -0.890625q0.234375 -0.421875 0.59375 -0.671875q0.375 -0.25 0.828125 -0.375q0.328125 -0.078125 1.015625 -0.171875q1.375 -0.15625 2.03125 -0.390625q0.015625 -0.234375 0.015625 -0.296875q0 -0.703125 -0.328125 -0.984375q-0.4375 -0.390625 -1.296875 -0.390625q-0.8125 0 -1.203125 0.28125q-0.375 0.28125 -0.5625 1.0l-1.109375 -0.140625q0.140625 -0.71875 0.484375 -1.15625q0.359375 -0.453125 1.015625 -0.6875q0.671875 -0.234375 1.53125 -0.234375q0.875 0 1.40625 0.203125q0.546875 0.203125 0.796875 0.515625q0.25 0.296875 0.359375 0.765625q0.046875 0.296875 0.046875 1.0625l0 1.515625q0 1.59375 0.078125 2.015625q0.078125 0.421875 0.28125 0.8125l-1.1875 0q-0.171875 -0.359375 -0.234375 -0.828125zm-0.09375 -2.5625q-0.625 0.265625 -1.859375 0.4375q-0.703125 0.109375 -1.0 0.234375q-0.296875 0.125 -0.453125 0.375q-0.15625 0.234375 -0.15625 0.53125q0 0.453125 0.34375 0.765625q0.34375 0.296875 1.015625 0.296875q0.65625 0 1.171875 -0.28125q0.515625 -0.296875 0.765625 -0.796875q0.171875 -0.375 0.171875 -1.140625l0 -0.421875zm2.8968506 3.953125l1.125 0.15625q0.0625 0.515625 0.375 0.75q0.4375 0.328125 1.171875 0.328125q0.78125 0 1.21875 -0.328125q0.4375 -0.3125 0.578125 -0.890625q0.09375 -0.34375 0.09375 -1.453125q-0.75 0.875 -1.875 0.875q-1.390625 0 -2.15625 -1.0q-0.75 -1.0 -0.75 -2.40625q0 -0.96875 0.34375 -1.78125q0.359375 -0.8125 1.015625 -1.25q0.65625 -0.453125 1.5625 -0.453125q1.1875 0 1.96875 0.96875l0 -0.8125l1.046875 0l0 5.8125q0 1.578125 -0.328125 2.234375q-0.3125 0.65625 -1.015625 1.03125q-0.6875 0.390625 -1.703125 0.390625q-1.203125 0 -1.953125 -0.546875q-0.734375 -0.53125 -0.71875 -1.625zm0.953125 -4.046875q0 1.3125 0.515625 1.921875q0.53125 0.609375 1.328125 0.609375q0.796875 0 1.328125 -0.59375q0.53125 -0.609375 0.53125 -1.90625q0 -1.234375 -0.546875 -1.859375q-0.546875 -0.640625 -1.328125 -0.640625q-0.765625 0 -1.296875 0.625q-0.53125 0.625 -0.53125 1.84375zm11.287476 1.3125l1.1875 0.140625q-0.28125 1.046875 -1.046875 1.625q-0.75 0.5625 -1.921875 0.5625q-1.484375 0 -2.359375 -0.90625q-0.859375 -0.921875 -0.859375 -2.5625q0 -1.703125 0.875 -2.640625q0.890625 -0.9375 2.28125 -0.9375q1.359375 0 2.203125 0.921875q0.859375 0.921875 0.859375 2.578125q0 0.109375 0 0.3125l-5.03125 0q0.0625 1.109375 0.625 1.703125q0.5625 0.59375 1.40625 0.59375q0.640625 0 1.078125 -0.328125q0.453125 -0.34375 0.703125 -1.0625zm-3.75 -1.84375l3.765625 0q-0.078125 -0.859375 -0.4375 -1.28125q-0.546875 -0.65625 -1.40625 -0.65625q-0.796875 0 -1.328125 0.53125q-0.53125 0.515625 -0.59375 1.40625z" fill-rule="nonzero"></path><path fill="#cfe2f3" d="m302.78873 243.3982l0 0c0 -15.136688 12.270691 -27.40738 27.407349 -27.40738l222.35062 0c7.268921 0 14.240051 2.887558 19.379944 8.027435c5.1398926 5.1398773 8.027405 12.111053 8.027405 19.379944l0 109.62619c0 15.136688 -12.270691 27.40738 -27.407349 27.40738l-222.35062 0c-15.136658 0 -27.407349 -12.270691 -27.407349 -27.40738z" fill-rule="evenodd"></path><path stroke="#000000" stroke-width="2.0" stroke-linejoin="round" stroke-linecap="butt" d="m302.78873 243.3982l0 0c0 -15.136688 12.270691 -27.40738 27.407349 -27.40738l222.35062 0c7.268921 0 14.240051 2.887558 19.379944 8.027435c5.1398926 5.1398773 8.027405 12.111053 8.027405 19.379944l0 109.62619c0 15.136688 -12.270691 27.40738 -27.407349 27.40738l-222.35062 0c-15.136658 0 -27.407349 -12.270691 -27.407349 -27.40738z" fill-rule="evenodd"></path><path fill="#cccccc" d="m447.07874 323.67203l0 0c0 -3.2557983 2.6393433 -5.895111 5.8951416 -5.895111l87.32782 0c1.5635376 0 3.0629883 0.62109375 4.168518 1.7266235c1.1055298 1.1055603 1.7266235 2.605011 1.7266235 4.1684875l0 23.579834c0 3.2557678 -2.6393433 5.895111 -5.8951416 5.895111l-87.32782 0c-3.2557983 0 -5.8951416 -2.6393433 -5.8951416 -5.895111z" fill-rule="evenodd"></path><path stroke="#b7b7b7" stroke-width="2.0" stroke-linejoin="round" stroke-linecap="butt" d="m447.07874 323.67203l0 0c0 -3.2557983 2.6393433 -5.895111 5.8951416 -5.895111l87.32782 0c1.5635376 0 3.0629883 0.62109375 4.168518 1.7266235c1.1055298 1.1055603 1.7266235 2.605011 1.7266235 4.1684875l0 23.579834c0 3.2557678 -2.6393433 5.895111 -5.8951416 5.895111l-87.32782 0c-3.2557983 0 -5.8951416 -2.6393433 -5.8951416 -5.895111z" fill-rule="evenodd"></path><path fill="#000000" d="m458.66473 340.26193l0 -6.734375l1.03125 0l0 0.953125q0.734375 -1.109375 2.140625 -1.109375q0.609375 0 1.109375 0.21875q0.515625 0.21875 0.765625 0.578125q0.265625 0.34375 0.359375 0.84375q0.0625 0.3125 0.0625 1.109375l0 4.140625l-1.140625 0l0 -4.09375q0 -0.703125 -0.140625 -1.046875q-0.125 -0.34375 -0.46875 -0.546875q-0.328125 -0.21875 -0.78125 -0.21875q-0.734375 0 -1.265625 0.46875q-0.53125 0.453125 -0.53125 1.75l0 3.6875l-1.140625 0zm6.9906006 -3.375q0 -1.875 1.03125 -2.765625q0.875 -0.75 2.125 -0.75q1.390625 0 2.265625 0.90625q0.890625 0.90625 0.890625 2.515625q0 1.296875 -0.390625 2.046875q-0.390625 0.75 -1.140625 1.171875q-0.75 0.40625 -1.625 0.40625q-1.421875 0 -2.296875 -0.90625q-0.859375 -0.90625 -0.859375 -2.625zm1.171875 0q0 1.296875 0.5625 1.953125q0.5625 0.640625 1.421875 0.640625q0.84375 0 1.40625 -0.640625q0.578125 -0.65625 0.578125 -1.984375q0 -1.25 -0.578125 -1.890625q-0.5625 -0.65625 -1.40625 -0.65625q-0.859375 0 -1.421875 0.640625q-0.5625 0.640625 -0.5625 1.9375zm9.162476 2.359375l0.15625 1.0q-0.484375 0.109375 -0.859375 0.109375q-0.625 0 -0.96875 -0.203125q-0.34375 -0.203125 -0.484375 -0.515625q-0.140625 -0.328125 -0.140625 -1.34375l0 -3.890625l-0.828125 0l0 -0.875l0.828125 0l0 -1.671875l1.140625 -0.6875l0 2.359375l1.15625 0l0 0.875l-1.15625 0l0 3.953125q0 0.484375 0.0625 0.625q0.0625 0.140625 0.1875 0.21875q0.140625 0.078125 0.390625 0.078125q0.203125 0 0.515625 -0.03125zm1.2030029 -6.96875l0 -1.328125l1.140625 0l0 1.328125l-1.140625 0zm0 7.984375l0 -6.734375l1.140625 0l0 6.734375l-1.140625 0zm3.226715 0l0 -5.859375l-1.0 0l0 -0.875l1.0 0l0 -0.71875q0 -0.6875 0.125 -1.015625q0.171875 -0.4375 0.578125 -0.71875q0.421875 -0.28125 1.171875 -0.28125q0.484375 0 1.0625 0.125l-0.171875 0.984375q-0.359375 -0.0625 -0.671875 -0.0625q-0.515625 0 -0.734375 0.234375q-0.21875 0.21875 -0.21875 0.828125l0 0.625l1.3125 0l0 0.875l-1.3125 0l0 5.859375l-1.140625 0zm3.4373474 -7.984375l0 -1.328125l1.140625 0l0 1.328125l-1.140625 0zm0 7.984375l0 -6.734375l1.140625 0l0 6.734375l-1.140625 0zm7.351715 -2.46875l1.125 0.140625q-0.171875 1.171875 -0.9375 1.828125q-0.765625 0.65625 -1.859375 0.65625q-1.390625 0 -2.234375 -0.90625q-0.828125 -0.90625 -0.828125 -2.59375q0 -1.09375 0.359375 -1.90625q0.359375 -0.828125 1.09375 -1.234375q0.734375 -0.40625 1.609375 -0.40625q1.09375 0 1.796875 0.5625q0.703125 0.546875 0.890625 1.5625l-1.109375 0.171875q-0.15625 -0.671875 -0.5625 -1.015625q-0.390625 -0.34375 -0.96875 -0.34375q-0.859375 0 -1.40625 0.625q-0.53125 0.609375 -0.53125 1.953125q0 1.359375 0.515625 1.984375q0.515625 0.609375 1.359375 0.609375q0.671875 0 1.125 -0.40625q0.453125 -0.421875 0.5625 -1.28125zm6.6640625 1.640625q-0.625 0.53125 -1.21875 0.765625q-0.578125 0.21875 -1.25 0.21875q-1.125 0 -1.71875 -0.546875q-0.59375 -0.546875 -0.59375 -1.390625q0 -0.484375 0.21875 -0.890625q0.234375 -0.421875 0.59375 -0.671875q0.375 -0.25 0.828125 -0.375q0.328125 -0.078125 1.015625 -0.171875q1.375 -0.15625 2.03125 -0.390625q0.015625 -0.234375 0.015625 -0.296875q0 -0.703125 -0.328125 -0.984375q-0.4375 -0.390625 -1.296875 -0.390625q-0.8125 0 -1.203125 0.28125q-0.375 0.28125 -0.5625 1.0l-1.109375 -0.140625q0.140625 -0.71875 0.484375 -1.15625q0.359375 -0.453125 1.015625 -0.6875q0.671875 -0.234375 1.53125 -0.234375q0.875 0 1.40625 0.203125q0.546875 0.203125 0.796875 0.515625q0.25 0.296875 0.359375 0.765625q0.046875 0.296875 0.046875 1.0625l0 1.515625q0 1.59375 0.078125 2.015625q0.078125 0.421875 0.28125 0.8125l-1.1875 0q-0.171875 -0.359375 -0.234375 -0.828125zm-0.09375 -2.5625q-0.625 0.265625 -1.859375 0.4375q-0.703125 0.109375 -1.0 0.234375q-0.296875 0.125 -0.453125 0.375q-0.15625 0.234375 -0.15625 0.53125q0 0.453125 0.34375 0.765625q0.34375 0.296875 1.015625 0.296875q0.65625 0 1.171875 -0.28125q0.515625 -0.296875 0.765625 -0.796875q0.171875 -0.375 0.171875 -1.140625l0 -0.421875zm5.6156006 2.375l0.15625 1.0q-0.484375 0.109375 -0.859375 0.109375q-0.625 0 -0.96875 -0.203125q-0.34375 -0.203125 -0.484375 -0.515625q-0.140625 -0.328125 -0.140625 -1.34375l0 -3.890625l-0.828125 0l0 -0.875l0.828125 0l0 -1.671875l1.140625 -0.6875l0 2.359375l1.15625 0l0 0.875l-1.15625 0l0 3.953125q0 0.484375 0.0625 0.625q0.0625 0.140625 0.1875 0.21875q0.140625 0.078125 0.390625 0.078125q0.203125 0 0.515625 -0.03125zm1.2030029 -6.96875l0 -1.328125l1.140625 0l0 1.328125l-1.140625 0zm0 7.984375l0 -6.734375l1.140625 0l0 6.734375l-1.140625 0zm2.539215 -3.375q0 -1.875 1.03125 -2.765625q0.875 -0.75 2.125 -0.75q1.390625 0 2.265625 0.90625q0.890625 0.90625 0.890625 2.515625q0 1.296875 -0.390625 2.046875q-0.390625 0.75 -1.140625 1.171875q-0.75 0.40625 -1.625 0.40625q-1.421875 0 -2.296875 -0.90625q-0.859375 -0.90625 -0.859375 -2.625zm1.171875 0q0 1.296875 0.5625 1.953125q0.5625 0.640625 1.421875 0.640625q0.84375 0 1.40625 -0.640625q0.578125 -0.65625 0.578125 -1.984375q0 -1.25 -0.578125 -1.890625q-0.5625 -0.65625 -1.40625 -0.65625q-0.859375 0 -1.421875 0.640625q-0.5625 0.640625 -0.5625 1.9375zm6.6624756 3.375l0 -6.734375l1.03125 0l0 0.953125q0.734375 -1.109375 2.140625 -1.109375q0.609375 0 1.109375 0.21875q0.515625 0.21875 0.765625 0.578125q0.265625 0.34375 0.359375 0.84375q0.0625 0.3125 0.0625 1.109375l0 4.140625l-1.140625 0l0 -4.09375q0 -0.703125 -0.140625 -1.046875q-0.125 -0.34375 -0.46875 -0.546875q-0.328125 -0.21875 -0.78125 -0.21875q-0.734375 0 -1.265625 0.46875q-0.53125 0.453125 -0.53125 1.75l0 3.6875l-1.140625 0zm6.9593506 -2.015625l1.125 -0.171875q0.09375 0.671875 0.53125 1.046875q0.4375 0.359375 1.21875 0.359375q0.78125 0 1.15625 -0.3125q0.390625 -0.328125 0.390625 -0.765625q0 -0.390625 -0.34375 -0.609375q-0.234375 -0.15625 -1.171875 -0.390625q-1.25 -0.3125 -1.734375 -0.546875q-0.484375 -0.234375 -0.734375 -0.640625q-0.25 -0.40625 -0.25 -0.90625q0 -0.453125 0.203125 -0.828125q0.203125 -0.390625 0.5625 -0.640625q0.265625 -0.203125 0.71875 -0.328125q0.46875 -0.140625 1.0 -0.140625q0.78125 0 1.375 0.234375q0.609375 0.21875 0.890625 0.609375q0.296875 0.390625 0.40625 1.046875l-1.125 0.15625q-0.078125 -0.53125 -0.4375 -0.8125q-0.359375 -0.296875 -1.03125 -0.296875q-0.78125 0 -1.125 0.265625q-0.34375 0.25 -0.34375 0.609375q0 0.21875 0.140625 0.390625q0.140625 0.1875 0.4375 0.3125q0.171875 0.0625 1.015625 0.28125q1.21875 0.328125 1.6875 0.53125q0.484375 0.203125 0.75 0.609375q0.28125 0.390625 0.28125 0.96875q0 0.578125 -0.34375 1.078125q-0.328125 0.5 -0.953125 0.78125q-0.625 0.28125 -1.421875 0.28125q-1.3125 0 -2.0 -0.546875q-0.6875 -0.546875 -0.875 -1.625z" fill-rule="nonzero"></path><path fill="#cfe2f3" d="m447.08005 257.23108l0 0c0 -3.255783 2.6393433 -5.8951263 5.8951416 -5.8951263l87.32785 0c1.5634766 0 3.0629272 0.62109375 4.168457 1.726654c1.1055908 1.105545 1.7266846 2.6049957 1.7266846 4.1684723l0 23.579834c0 3.2557983 -2.6393433 5.895111 -5.8951416 5.895111l-87.32785 0c-3.2557983 0 -5.8951416 -2.6393127 -5.8951416 -5.895111z" fill-rule="evenodd"></path><path stroke="#000000" stroke-width="2.0" stroke-linejoin="round" stroke-linecap="butt" d="m447.08005 257.23108l0 0c0 -3.255783 2.6393433 -5.8951263 5.8951416 -5.8951263l87.32785 0c1.5634766 0 3.0629272 0.62109375 4.168457 1.726654c1.1055908 1.105545 1.7266846 2.6049957 1.7266846 4.1684723l0 23.579834c0 3.2557983 -2.6393433 5.895111 -5.8951416 5.895111l-87.32785 0c-3.2557983 0 -5.8951416 -2.6393127 -5.8951416 -5.895111z" fill-rule="evenodd"></path><path fill="#000000" d="m463.04105 273.82098l0 -0.84375q-0.640625 1.0 -1.890625 1.0q-0.796875 0 -1.484375 -0.4375q-0.671875 -0.453125 -1.046875 -1.25q-0.375 -0.796875 -0.375 -1.828125q0 -1.015625 0.34375 -1.828125q0.34375 -0.828125 1.015625 -1.265625q0.671875 -0.4375 1.5 -0.4375q0.609375 0 1.078125 0.265625q0.484375 0.25 0.78125 0.65625l0 -3.34375l1.140625 0l0 9.3125l-1.0625 0zm-3.609375 -3.359375q0 1.296875 0.53125 1.9375q0.546875 0.640625 1.296875 0.640625q0.75 0 1.265625 -0.609375q0.53125 -0.625 0.53125 -1.875q0 -1.390625 -0.53125 -2.03125q-0.53125 -0.65625 -1.3125 -0.65625q-0.765625 0 -1.28125 0.625q-0.5 0.625 -0.5 1.96875zm11.256226 1.1875l1.1875 0.140625q-0.28125 1.046875 -1.046875 1.625q-0.75 0.5625 -1.921875 0.5625q-1.484375 0 -2.359375 -0.90625q-0.859375 -0.921875 -0.859375 -2.5625q0 -1.703125 0.875 -2.640625q0.890625 -0.9375 2.28125 -0.9375q1.359375 0 2.203125 0.921875q0.859375 0.921875 0.859375 2.578125q0 0.109375 0 0.3125l-5.03125 0q0.0625 1.109375 0.625 1.703125q0.5625 0.59375 1.40625 0.59375q0.640625 0 1.078125 -0.328125q0.453125 -0.34375 0.703125 -1.0625zm-3.75 -1.84375l3.765625 0q-0.078125 -0.859375 -0.4375 -1.28125q-0.546875 -0.65625 -1.40625 -0.65625q-0.796875 0 -1.328125 0.53125q-0.53125 0.515625 -0.59375 1.40625zm10.943726 1.546875l1.125 0.140625q-0.171875 1.171875 -0.9375 1.828125q-0.765625 0.65625 -1.859375 0.65625q-1.390625 0 -2.234375 -0.90625q-0.828125 -0.90625 -0.828125 -2.59375q0 -1.09375 0.359375 -1.90625q0.359375 -0.828125 1.09375 -1.234375q0.734375 -0.40625 1.609375 -0.40625q1.09375 0 1.796875 0.5625q0.703125 0.546875 0.890625 1.5625l-1.109375 0.171875q-0.15625 -0.671875 -0.5625 -1.015625q-0.390625 -0.34375 -0.96875 -0.34375q-0.859375 0 -1.40625 0.625q-0.53125 0.609375 -0.53125 1.953125q0 1.359375 0.515625 1.984375q0.515625 0.609375 1.359375 0.609375q0.671875 0 1.125 -0.40625q0.453125 -0.421875 0.5625 -1.28125zm1.8515625 -0.90625q0 -1.875 1.03125 -2.765625q0.875 -0.75 2.125 -0.75q1.390625 0 2.265625 0.90625q0.890625 0.90625 0.890625 2.515625q0 1.296875 -0.390625 2.046875q-0.390625 0.75 -1.140625 1.171875q-0.75 0.40625 -1.625 0.40625q-1.421875 0 -2.296875 -0.90625q-0.859375 -0.90625 -0.859375 -2.625zm1.171875 0q0 1.296875 0.5625 1.953125q0.5625 0.640625 1.421875 0.640625q0.84375 0 1.40625 -0.640625q0.578125 -0.65625 0.578125 -1.984375q0 -1.25 -0.578125 -1.890625q-0.5625 -0.65625 -1.40625 -0.65625q-0.859375 0 -1.421875 0.640625q-0.5625 0.640625 -0.5625 1.9375zm6.6468506 3.375l0 -6.734375l1.03125 0l0 1.015625q0.390625 -0.71875 0.71875 -0.9375q0.34375 -0.234375 0.734375 -0.234375q0.578125 0 1.171875 0.359375l-0.390625 1.0625q-0.421875 -0.25 -0.828125 -0.25q-0.375 0 -0.6875 0.234375q-0.296875 0.21875 -0.421875 0.625q-0.1875 0.609375 -0.1875 1.328125l0 3.53125l-1.140625 0zm8.844635 -0.828125q-0.625 0.53125 -1.21875 0.765625q-0.578125 0.21875 -1.25 0.21875q-1.125 0 -1.71875 -0.546875q-0.59375 -0.546875 -0.59375 -1.390625q0 -0.484375 0.21875 -0.890625q0.234375 -0.421875 0.59375 -0.671875q0.375 -0.25 0.828125 -0.375q0.328125 -0.078125 1.015625 -0.171875q1.375 -0.15625 2.03125 -0.390625q0.015625 -0.234375 0.015625 -0.296875q0 -0.703125 -0.328125 -0.984375q-0.4375 -0.390625 -1.296875 -0.390625q-0.8125 0 -1.203125 0.28125q-0.375 0.28125 -0.5625 1.0l-1.109375 -0.140625q0.140625 -0.71875 0.484375 -1.15625q0.359375 -0.453125 1.015625 -0.6875q0.671875 -0.234375 1.53125 -0.234375q0.875 0 1.40625 0.203125q0.546875 0.203125 0.796875 0.515625q0.25 0.296875 0.359375 0.765625q0.046875 0.296875 0.046875 1.0625l0 1.515625q0 1.59375 0.078125 2.015625q0.078125 0.421875 0.28125 0.8125l-1.1875 0q-0.171875 -0.359375 -0.234375 -0.828125zm-0.09375 -2.5625q-0.625 0.265625 -1.859375 0.4375q-0.703125 0.109375 -1.0 0.234375q-0.296875 0.125 -0.453125 0.375q-0.15625 0.234375 -0.15625 0.53125q0 0.453125 0.34375 0.765625q0.34375 0.296875 1.015625 0.296875q0.65625 0 1.171875 -0.28125q0.515625 -0.296875 0.765625 -0.796875q0.171875 -0.375 0.171875 -1.140625l0 -0.421875zm5.6156006 2.375l0.15625 1.0q-0.484375 0.109375 -0.859375 0.109375q-0.625 0 -0.96875 -0.203125q-0.34375 -0.203125 -0.484375 -0.515625q-0.140625 -0.328125 -0.140625 -1.34375l0 -3.890625l-0.828125 0l0 -0.875l0.828125 0l0 -1.671875l1.140625 -0.6875l0 2.359375l1.15625 0l0 0.875l-1.15625 0l0 3.953125q0 0.484375 0.0625 0.625q0.0625 0.140625 0.1875 0.21875q0.140625 0.078125 0.390625 0.078125q0.203125 0 0.515625 -0.03125zm1.2029724 -6.96875l0 -1.328125l1.140625 0l0 1.328125l-1.140625 0zm0 7.984375l0 -6.734375l1.140625 0l0 6.734375l-1.140625 0zm2.539215 -3.375q0 -1.875 1.03125 -2.765625q0.875 -0.75 2.125 -0.75q1.390625 0 2.265625 0.90625q0.890625 0.90625 0.890625 2.515625q0 1.296875 -0.390625 2.046875q-0.390625 0.75 -1.140625 1.171875q-0.75 0.40625 -1.625 0.40625q-1.421875 0 -2.296875 -0.90625q-0.859375 -0.90625 -0.859375 -2.625zm1.171875 0q0 1.296875 0.5625 1.953125q0.5625 0.640625 1.421875 0.640625q0.84375 0 1.40625 -0.640625q0.578125 -0.65625 0.578125 -1.984375q0 -1.25 -0.578125 -1.890625q-0.5625 -0.65625 -1.40625 -0.65625q-0.859375 0 -1.421875 0.640625q-0.5625 0.640625 -0.5625 1.9375zm6.6624756 3.375l0 -6.734375l1.03125 0l0 0.953125q0.734375 -1.109375 2.140625 -1.109375q0.609375 0 1.109375 0.21875q0.515625 0.21875 0.765625 0.578125q0.265625 0.34375 0.359375 0.84375q0.0625 0.3125 0.0625 1.109375l0 4.140625l-1.140625 0l0 -4.09375q0 -0.703125 -0.140625 -1.046875q-0.125 -0.34375 -0.46875 -0.546875q-0.328125 -0.21875 -0.78125 -0.21875q-0.734375 0 -1.265625 0.46875q-0.53125 0.453125 -0.53125 1.75l0 3.6875l-1.140625 0z" fill-rule="nonzero"></path><path fill="#cfe2f3" d="m339.12906 275.4567l-76.42871 0c-10.552597 0 -19.107178 10.793335 -19.107178 24.107605c0 13.31427 8.554581 24.107605 19.107178 24.107605l76.42871 0l0 0c10.552582 0 19.107147 -10.793335 19.107147 -24.107605c0 -13.31427 -8.554565 -24.107605 -19.107147 -24.107605z" fill-rule="evenodd"></path><path fill="#000000" fill-opacity="0.0" d="m262.70035 323.6719c10.552612 0 19.107178 -10.793335 19.107178 -24.107605c0 -13.31427 -8.554565 -24.107605 -19.107178 -24.107605" fill-rule="evenodd"></path><path fill="#000000" fill-opacity="0.0" d="m339.12906 275.4567l-76.42871 0c-10.552597 0 -19.107178 10.793335 -19.107178 24.107605c0 13.31427 8.554581 24.107605 19.107178 24.107605l76.42871 0l0 0c10.552582 0 19.107147 -10.793335 19.107147 -24.107605c0 -13.31427 -8.554565 -24.107605 -19.107147 -24.107605z" fill-rule="evenodd"></path><path stroke="#000000" stroke-width="2.0" stroke-linejoin="round" stroke-linecap="butt" d="m262.70035 323.6719c10.552612 0 19.107178 -10.793335 19.107178 -24.107605c0 -13.31427 -8.554565 -24.107605 -19.107178 -24.107605" fill-rule="evenodd"></path><path stroke="#000000" stroke-width="2.0" stroke-linejoin="round" stroke-linecap="butt" d="m339.12906 275.4567l-76.42871 0c-10.552597 0 -19.107178 10.793335 -19.107178 24.107605c0 13.31427 8.554581 24.107605 19.107178 24.107605l76.42871 0l0 0c10.552582 0 19.107147 -10.793335 19.107147 -24.107605c0 -13.31427 -8.554565 -24.107605 -19.107147 -24.107605z" fill-rule="evenodd"></path><path fill="#000000" d="m295.96378 306.94244l0 -3.296875q-0.265625 0.375 -0.75 0.625q-0.484375 0.25 -1.015625 0.25q-1.203125 0 -2.078125 -0.953125q-0.859375 -0.96875 -0.859375 -2.640625q0 -1.015625 0.34375 -1.8125q0.359375 -0.8125 1.03125 -1.21875q0.671875 -0.421875 1.46875 -0.421875q1.25 0 1.96875 1.046875l0 -0.890625l1.03125 0l0 9.3125l-1.140625 0zm-3.53125 -5.96875q0 1.296875 0.546875 1.953125q0.546875 0.65625 1.3125 0.65625q0.734375 0 1.25 -0.625q0.53125 -0.625 0.53125 -1.875q0 -1.359375 -0.5625 -2.03125q-0.546875 -0.6875 -1.296875 -0.6875q-0.734375 0 -1.265625 0.640625q-0.515625 0.625 -0.515625 1.96875zm11.068726 3.390625l0 -0.984375q-0.796875 1.140625 -2.140625 1.140625q-0.59375 0 -1.125 -0.234375q-0.515625 -0.234375 -0.765625 -0.578125q-0.25 -0.34375 -0.34375 -0.84375q-0.078125 -0.328125 -0.078125 -1.0625l0 -4.171875l1.140625 0l0 3.734375q0 0.890625 0.078125 1.203125q0.109375 0.453125 0.453125 0.71875q0.34375 0.25 0.859375 0.25q0.515625 0 0.96875 -0.265625q0.453125 -0.265625 0.640625 -0.71875q0.1875 -0.453125 0.1875 -1.3125l0 -3.609375l1.140625 0l0 6.734375l-1.015625 0zm7.5999756 -2.171875l1.1875 0.140625q-0.28125 1.046875 -1.046875 1.625q-0.75 0.5625 -1.921875 0.5625q-1.484375 0 -2.359375 -0.90625q-0.859375 -0.921875 -0.859375 -2.5625q0 -1.703125 0.875 -2.640625q0.890625 -0.9375 2.28125 -0.9375q1.359375 0 2.203125 0.921875q0.859375 0.921875 0.859375 2.578125q0 0.109375 0 0.3125l-5.03125 0q0.0625 1.109375 0.625 1.703125q0.5625 0.59375 1.40625 0.59375q0.640625 0 1.078125 -0.328125q0.453125 -0.34375 0.703125 -1.0625zm-3.75 -1.84375l3.765625 0q-0.078125 -0.859375 -0.4375 -1.28125q-0.546875 -0.65625 -1.40625 -0.65625q-0.796875 0 -1.328125 0.53125q-0.53125 0.515625 -0.59375 1.40625zm10.974976 4.015625l0 -0.984375q-0.796875 1.140625 -2.140625 1.140625q-0.59375 0 -1.125 -0.234375q-0.515625 -0.234375 -0.765625 -0.578125q-0.25 -0.34375 -0.34375 -0.84375q-0.078125 -0.328125 -0.078125 -1.0625l0 -4.171875l1.140625 0l0 3.734375q0 0.890625 0.078125 1.203125q0.109375 0.453125 0.453125 0.71875q0.34375 0.25 0.859375 0.25q0.515625 0 0.96875 -0.265625q0.453125 -0.265625 0.640625 -0.71875q0.1875 -0.453125 0.1875 -1.3125l0 -3.609375l1.140625 0l0 6.734375l-1.015625 0zm7.5999756 -2.171875l1.1875 0.140625q-0.28125 1.046875 -1.046875 1.625q-0.75 0.5625 -1.921875 0.5625q-1.484375 0 -2.359375 -0.90625q-0.859375 -0.921875 -0.859375 -2.5625q0 -1.703125 0.875 -2.640625q0.890625 -0.9375 2.28125 -0.9375q1.359375 0 2.203125 0.921875q0.859375 0.921875 0.859375 2.578125q0 0.109375 0 0.3125l-5.03125 0q0.0625 1.109375 0.625 1.703125q0.5625 0.59375 1.40625 0.59375q0.640625 0 1.078125 -0.328125q0.453125 -0.34375 0.703125 -1.0625zm-3.75 -1.84375l3.765625 0q-0.078125 -0.859375 -0.4375 -1.28125q-0.546875 -0.65625 -1.40625 -0.65625q-0.796875 0 -1.328125 0.53125q-0.53125 0.515625 -0.59375 1.40625z" fill-rule="nonzero"></path><path fill="#000000" fill-opacity="0.0" d="m358.2362 299.5643l88.8504 35.905518" fill-rule="evenodd"></path><path stroke="#000000" stroke-width="2.0" stroke-linejoin="round" stroke-linecap="butt" d="m358.2362 299.5643l77.72455 31.409424" fill-rule="evenodd"></path><path fill="#000000" stroke="#000000" stroke-width="2.0" stroke-linecap="butt" d="m434.72302 334.03656l9.652771 0.33776855l-7.1773376 -6.46344z" fill-rule="evenodd"></path><path fill="#000000" fill-opacity="0.0" d="m358.2362 299.5643l88.8504 -30.551178" fill-rule="evenodd"></path><path stroke="#000000" stroke-width="2.0" stroke-linejoin="round" stroke-linecap="butt" d="m358.2362 299.5643l77.5025 -26.6492" fill-rule="evenodd"></path><path fill="#000000" stroke="#000000" stroke-width="2.0" stroke-linecap="butt" d="m436.8129 276.03903l7.508789 -6.0751953l-9.657135 -0.17269897z" fill-rule="evenodd"></path><path fill="#000000" fill-opacity="0.0" d="m310.96194 224.74934l183.40158 0l0 40.72441l-183.40158 0z" fill-rule="evenodd"></path><path fill="#000000" d="m320.54007 243.56497l1.171875 -0.109375q0.078125 0.703125 0.375 1.15625q0.3125 0.4375 0.9375 0.71875q0.640625 0.265625 1.4375 0.265625q0.703125 0 1.234375 -0.203125q0.546875 -0.203125 0.8125 -0.5625q0.265625 -0.375 0.265625 -0.8125q0 -0.4375 -0.265625 -0.765625q-0.25 -0.328125 -0.828125 -0.546875q-0.375 -0.140625 -1.65625 -0.453125q-1.28125 -0.3125 -1.796875 -0.578125q-0.671875 -0.34375 -1.0 -0.859375q-0.328125 -0.53125 -0.328125 -1.171875q0 -0.703125 0.390625 -1.3125q0.40625 -0.609375 1.171875 -0.921875q0.78125 -0.328125 1.71875 -0.328125q1.03125 0 1.8125 0.34375q0.796875 0.328125 1.21875 0.984375q0.4375 0.640625 0.46875 1.453125l-1.1875 0.09375q-0.09375 -0.890625 -0.640625 -1.328125q-0.546875 -0.453125 -1.625 -0.453125q-1.109375 0 -1.625 0.40625q-0.515625 0.40625 -0.515625 0.984375q0 0.5 0.359375 0.828125q0.359375 0.328125 1.859375 0.671875q1.5 0.328125 2.0625 0.578125q0.8125 0.375 1.1875 0.953125q0.390625 0.578125 0.390625 1.328125q0 0.734375 -0.421875 1.390625q-0.421875 0.65625 -1.21875 1.03125q-0.796875 0.359375 -1.796875 0.359375q-1.265625 0 -2.125 -0.359375q-0.84375 -0.375 -1.328125 -1.109375q-0.484375 -0.75 -0.515625 -1.671875zm11.67099 1.96875l0.15625 1.0q-0.484375 0.109375 -0.859375 0.109375q-0.625 0 -0.96875 -0.203125q-0.34375 -0.203125 -0.484375 -0.515625q-0.140625 -0.328125 -0.140625 -1.34375l0 -3.890625l-0.828125 0l0 -0.875l0.828125 0l0 -1.671875l1.140625 -0.6875l0 2.359375l1.15625 0l0 0.875l-1.15625 0l0 3.953125q0 0.484375 0.0625 0.625q0.0625 0.140625 0.1875 0.21875q0.140625 0.078125 0.390625 0.078125q0.203125 0 0.515625 -0.03125zm1.1873779 1.015625l0 -6.734375l1.03125 0l0 1.015625q0.390625 -0.71875 0.71875 -0.9375q0.34375 -0.234375 0.734375 -0.234375q0.578125 0 1.171875 0.359375l-0.390625 1.0625q-0.421875 -0.25 -0.828125 -0.25q-0.375 0 -0.6875 0.234375q-0.296875 0.21875 -0.421875 0.625q-0.1875 0.609375 -0.1875 1.328125l0 3.53125l-1.140625 0zm9.0633545 -2.171875l1.1875 0.140625q-0.28125 1.046875 -1.046875 1.625q-0.75 0.5625 -1.921875 0.5625q-1.484375 0 -2.359375 -0.90625q-0.859375 -0.921875 -0.859375 -2.5625q0 -1.703125 0.875 -2.640625q0.890625 -0.9375 2.28125 -0.9375q1.359375 0 2.203125 0.921875q0.859375 0.921875 0.859375 2.578125q0 0.109375 0 0.3125l-5.03125 0q0.0625 1.109375 0.625 1.703125q0.5625 0.59375 1.40625 0.59375q0.640625 0 1.078125 -0.328125q0.453125 -0.34375 0.703125 -1.0625zm-3.75 -1.84375l3.765625 0q-0.078125 -0.859375 -0.4375 -1.28125q-0.546875 -0.65625 -1.40625 -0.65625q-0.796875 0 -1.328125 0.53125q-0.53125 0.515625 -0.59375 1.40625zm10.943726 3.1875q-0.625 0.53125 -1.21875 0.765625q-0.578125 0.21875 -1.25 0.21875q-1.125 0 -1.71875 -0.546875q-0.59375 -0.546875 -0.59375 -1.390625q0 -0.484375 0.21875 -0.890625q0.234375 -0.421875 0.59375 -0.671875q0.375 -0.25 0.828125 -0.375q0.328125 -0.078125 1.015625 -0.171875q1.375 -0.15625 2.03125 -0.390625q0.015625 -0.234375 0.015625 -0.296875q0 -0.703125 -0.328125 -0.984375q-0.4375 -0.390625 -1.296875 -0.390625q-0.8125 0 -1.203125 0.28125q-0.375 0.28125 -0.5625 1.0l-1.109375 -0.140625q0.140625 -0.71875 0.484375 -1.15625q0.359375 -0.453125 1.015625 -0.6875q0.671875 -0.234375 1.53125 -0.234375q0.875 0 1.40625 0.203125q0.546875 0.203125 0.796875 0.515625q0.25 0.296875 0.359375 0.765625q0.046875 0.296875 0.046875 1.0625l0 1.515625q0 1.59375 0.078125 2.015625q0.078125 0.421875 0.28125 0.8125l-1.1875 0q-0.171875 -0.359375 -0.234375 -0.828125zm-0.09375 -2.5625q-0.625 0.265625 -1.859375 0.4375q-0.703125 0.109375 -1.0 0.234375q-0.296875 0.125 -0.453125 0.375q-0.15625 0.234375 -0.15625 0.53125q0 0.453125 0.34375 0.765625q0.34375 0.296875 1.015625 0.296875q0.65625 0 1.171875 -0.28125q0.515625 -0.296875 0.765625 -0.796875q0.171875 -0.375 0.171875 -1.140625l0 -0.421875zm3.1156006 3.390625l0 -6.734375l1.015625 0l0 0.9375q0.328125 -0.5 0.84375 -0.796875q0.53125 -0.296875 1.203125 -0.296875q0.75 0 1.21875 0.3125q0.484375 0.3125 0.6875 0.859375q0.796875 -1.171875 2.078125 -1.171875q1.0 0 1.53125 0.5625q0.546875 0.546875 0.546875 1.703125l0 4.625l-1.125 0l0 -4.25q0 -0.6875 -0.109375 -0.984375q-0.109375 -0.296875 -0.40625 -0.484375q-0.296875 -0.1875 -0.6875 -0.1875q-0.71875 0 -1.1875 0.484375q-0.46875 0.46875 -0.46875 1.5l0 3.921875l-1.140625 0l0 -4.375q0 -0.765625 -0.28125 -1.140625q-0.28125 -0.390625 -0.90625 -0.390625q-0.484375 0 -0.890625 0.265625q-0.40625 0.25 -0.59375 0.734375q-0.1875 0.484375 -0.1875 1.40625l0 3.5l-1.140625 0zm11.1024475 -7.984375l0 -1.328125l1.140625 0l0 1.328125l-1.140625 0zm0 7.984375l0 -6.734375l1.140625 0l0 6.734375l-1.140625 0zm2.96109 0l0 -6.734375l1.03125 0l0 0.953125q0.734375 -1.109375 2.140625 -1.109375q0.609375 0 1.109375 0.21875q0.515625 0.21875 0.765625 0.578125q0.265625 0.34375 0.359375 0.84375q0.0625 0.3125 0.0625 1.109375l0 4.140625l-1.140625 0l0 -4.09375q0 -0.703125 -0.140625 -1.046875q-0.125 -0.34375 -0.46875 -0.546875q-0.328125 -0.21875 -0.78125 -0.21875q-0.734375 0 -1.265625 0.46875q-0.53125 0.453125 -0.53125 1.75l0 3.6875l-1.140625 0zm7.1937256 0.5625l1.125 0.15625q0.0625 0.515625 0.375 0.75q0.4375 0.328125 1.171875 0.328125q0.78125 0 1.21875 -0.328125q0.4375 -0.3125 0.578125 -0.890625q0.09375 -0.34375 0.09375 -1.453125q-0.75 0.875 -1.875 0.875q-1.390625 0 -2.15625 -1.0q-0.75 -1.0 -0.75 -2.40625q0 -0.96875 0.34375 -1.78125q0.359375 -0.8125 1.015625 -1.25q0.65625 -0.453125 1.5625 -0.453125q1.1875 0 1.96875 0.96875l0 -0.8125l1.046875 0l0 5.8125q0 1.578125 -0.328125 2.234375q-0.3125 0.65625 -1.015625 1.03125q-0.6875 0.390625 -1.703125 0.390625q-1.203125 0 -1.953125 -0.546875q-0.734375 -0.53125 -0.71875 -1.625zm0.953125 -4.046875q0 1.3125 0.515625 1.921875q0.53125 0.609375 1.328125 0.609375q0.796875 0 1.328125 -0.59375q0.53125 -0.609375 0.53125 -1.90625q0 -1.234375 -0.546875 -1.859375q-0.546875 -0.640625 -1.328125 -0.640625q-0.765625 0 -1.296875 0.625q-0.53125 0.625 -0.53125 1.84375zm17.162323 0.21875l1.234375 0.3125q-0.390625 1.515625 -1.40625 2.3125q-1.0 0.796875 -2.453125 0.796875q-1.5 0 -2.453125 -0.609375q-0.9375 -0.609375 -1.4375 -1.765625q-0.484375 -1.171875 -0.484375 -2.5q0 -1.453125 0.5625 -2.53125q0.5625 -1.09375 1.578125 -1.65625q1.03125 -0.5625 2.265625 -0.5625q1.390625 0 2.34375 0.71875q0.953125 0.703125 1.328125 2.0l-1.21875 0.28125q-0.328125 -1.015625 -0.9375 -1.46875q-0.609375 -0.46875 -1.546875 -0.46875q-1.078125 0 -1.796875 0.515625q-0.71875 0.515625 -1.015625 1.375q-0.28125 0.859375 -0.28125 1.78125q0 1.1875 0.34375 2.078125q0.34375 0.890625 1.0625 1.328125q0.734375 0.4375 1.59375 0.4375q1.03125 0 1.75 -0.59375q0.71875 -0.609375 0.96875 -1.78125zm2.4220276 -0.109375q0 -1.875 1.03125 -2.765625q0.875 -0.75 2.125 -0.75q1.390625 0 2.265625 0.90625q0.890625 0.90625 0.890625 2.515625q0 1.296875 -0.390625 2.046875q-0.390625 0.75 -1.140625 1.171875q-0.75 0.40625 -1.625 0.40625q-1.421875 0 -2.296875 -0.90625q-0.859375 -0.90625 -0.859375 -2.625zm1.171875 0q0 1.296875 0.5625 1.953125q0.5625 0.640625 1.421875 0.640625q0.84375 0 1.40625 -0.640625q0.578125 -0.65625 0.578125 -1.984375q0 -1.25 -0.578125 -1.890625q-0.5625 -0.65625 -1.40625 -0.65625q-0.859375 0 -1.421875 0.640625q-0.5625 0.640625 -0.5625 1.9375zm6.6624756 3.375l0 -6.734375l1.03125 0l0 0.953125q0.734375 -1.109375 2.140625 -1.109375q0.609375 0 1.109375 0.21875q0.515625 0.21875 0.765625 0.578125q0.265625 0.34375 0.359375 0.84375q0.0625 0.3125 0.0625 1.109375l0 4.140625l-1.140625 0l0 -4.09375q0 -0.703125 -0.140625 -1.046875q-0.125 -0.34375 -0.46875 -0.546875q-0.328125 -0.21875 -0.78125 -0.21875q-0.734375 0 -1.265625 0.46875q-0.53125 0.453125 -0.53125 1.75l0 3.6875l-1.140625 0zm9.912476 -1.015625l0.15625 1.0q-0.484375 0.109375 -0.859375 0.109375q-0.625 0 -0.96875 -0.203125q-0.34375 -0.203125 -0.484375 -0.515625q-0.140625 -0.328125 -0.140625 -1.34375l0 -3.890625l-0.828125 0l0 -0.875l0.828125 0l0 -1.671875l1.140625 -0.6875l0 2.359375l1.15625 0l0 0.875l-1.15625 0l0 3.953125q0 0.484375 0.0625 0.625q0.0625 0.140625 0.1875 0.21875q0.140625 0.078125 0.390625 0.078125q0.203125 0 0.515625 -0.03125zm5.812378 -1.15625l1.1875 0.140625q-0.28125 1.046875 -1.046875 1.625q-0.75 0.5625 -1.921875 0.5625q-1.484375 0 -2.359375 -0.90625q-0.859375 -0.921875 -0.859375 -2.5625q0 -1.703125 0.875 -2.640625q0.890625 -0.9375 2.28125 -0.9375q1.359375 0 2.203125 0.921875q0.859375 0.921875 0.859375 2.578125q0 0.109375 0 0.3125l-5.03125 0q0.0625 1.109375 0.625 1.703125q0.5625 0.59375 1.40625 0.59375q0.640625 0 1.078125 -0.328125q0.453125 -0.34375 0.703125 -1.0625zm-3.75 -1.84375l3.765625 0q-0.078125 -0.859375 -0.4375 -1.28125q-0.546875 -0.65625 -1.40625 -0.65625q-0.796875 0 -1.328125 0.53125q-0.53125 0.515625 -0.59375 1.40625zm5.7874756 4.015625l2.46875 -3.5l-2.28125 -3.234375l1.421875 0l1.046875 1.578125q0.28125 0.453125 0.46875 0.75q0.265625 -0.421875 0.5 -0.734375l1.140625 -1.59375l1.375 0l-2.34375 3.171875l2.515625 3.5625l-1.40625 0l-1.375 -2.09375l-0.375 -0.5625l-1.765625 2.65625l-1.390625 0zm9.9296875 -1.015625l0.15625 1.0q-0.484375 0.109375 -0.859375 0.109375q-0.625 0 -0.96875 -0.203125q-0.34375 -0.203125 -0.484375 -0.515625q-0.140625 -0.328125 -0.140625 -1.34375l0 -3.890625l-0.828125 0l0 -0.875l0.828125 0l0 -1.671875l1.140625 -0.6875l0 2.359375l1.15625 0l0 0.875l-1.15625 0l0 3.953125q0 0.484375 0.0625 0.625q0.0625 0.140625 0.1875 0.21875q0.140625 0.078125 0.390625 0.078125q0.203125 0 0.515625 -0.03125z" fill-rule="nonzero"></path><path fill="#cfe2f3" d="m86.3294 256.4777l58.92913 0l0 60.3515l-9.821716 9.821716l-49.107414 0z" fill-rule="evenodd"></path><path fill="#a5b4c2" d="m135.43681 326.6509l1.9643402 -7.857361l7.857376 -1.9643555z" fill-rule="evenodd"></path><path fill="#000000" fill-opacity="0.0" d="m135.43681 326.6509l1.9643402 -7.857361l7.857376 -1.9643555l-9.821716 9.821716l-49.107414 0l0 -70.17322l58.92913 0l0 60.3515" fill-rule="evenodd"></path><path stroke="#000000" stroke-width="2.0" stroke-linejoin="round" stroke-linecap="butt" d="m135.43681 326.6509l1.9643402 -7.857361l7.857376 -1.9643555l-9.821716 9.821716l-49.107414 0l0 -70.17322l58.92913 0l0 60.3515" fill-rule="evenodd"></path><path fill="#000000" d="m100.79815 281.28156l1.1875 0.140625q-0.28125 1.046875 -1.046875 1.625q-0.75 0.5625 -1.921875 0.5625q-1.484375 0 -2.359375 -0.90625q-0.859375 -0.921875 -0.859375 -2.5625q0 -1.703125 0.875 -2.640625q0.890625 -0.9375 2.28125 -0.9375q1.359375 0 2.203125 0.921875q0.859375 0.921875 0.859375 2.578125q0 0.109375 0 0.3125l-5.03125 0q0.0625 1.109375 0.625 1.703125q0.5625 0.59375 1.40625 0.59375q0.640625 0 1.078125 -0.328125q0.453125 -0.34375 0.703125 -1.0625zm-3.75 -1.84375l3.765625 0q-0.078125 -0.859375 -0.4375 -1.28125q-0.546875 -0.65625 -1.40625 -0.65625q-0.796875 0 -1.328125 0.53125q-0.53125 0.515625 -0.59375 1.40625zm8.428101 4.015625l-2.5625 -6.734375l1.203125 0l1.4375 4.03125q0.234375 0.65625 0.4375 1.359375q0.15625 -0.53125 0.421875 -1.28125l1.5 -4.109375l1.171875 0l-2.546875 6.734375l-1.0625 0zm9.3984375 -2.171875l1.1875 0.140625q-0.28125 1.046875 -1.046875 1.625q-0.75 0.5625 -1.921875 0.5625q-1.484375 0 -2.359375 -0.90625q-0.859375 -0.921875 -0.859375 -2.5625q0 -1.703125 0.875 -2.640625q0.890625 -0.9375 2.28125 -0.9375q1.359375 0 2.203125 0.921875q0.859375 0.921875 0.859375 2.578125q0 0.109375 0 0.3125l-5.03125 0q0.0625 1.109375 0.625 1.703125q0.5625 0.59375 1.40625 0.59375q0.640625 0 1.078125 -0.328125q0.453125 -0.34375 0.703125 -1.0625zm-3.75 -1.84375l3.765625 0q-0.078125 -0.859375 -0.4375 -1.28125q-0.546875 -0.65625 -1.40625 -0.65625q-0.796875 0 -1.328125 0.53125q-0.53125 0.515625 -0.59375 1.40625zm6.5531006 4.015625l0 -6.734375l1.03125 0l0 0.953125q0.734375 -1.109375 2.140625 -1.109375q0.609375 0 1.109375 0.21875q0.515625 0.21875 0.765625 0.578125q0.265625 0.34375 0.359375 0.84375q0.0625 0.3125 0.0625 1.109375l0 4.140625l-1.140625 0l0 -4.09375q0 -0.703125 -0.140625 -1.046875q-0.125 -0.34375 -0.46875 -0.546875q-0.328125 -0.21875 -0.78125 -0.21875q-0.734375 0 -1.265625 0.46875q-0.53125 0.453125 -0.53125 1.75l0 3.6875l-1.140625 0zm9.912476 -1.015625l0.15625 1.0q-0.484375 0.109375 -0.859375 0.109375q-0.625 0 -0.96875 -0.203125q-0.34375 -0.203125 -0.484375 -0.515625q-0.140625 -0.328125 -0.140625 -1.34375l0 -3.890625l-0.828125 0l0 -0.875l0.828125 0l0 -1.671875l1.140625 -0.6875l0 2.359375l1.15625 0l0 0.875l-1.15625 0l0 3.953125q0 0.484375 0.0625 0.625q0.0625 0.140625 0.1875 0.21875q0.140625 0.078125 0.390625 0.078125q0.203125 0 0.515625 -0.03125z" fill-rule="nonzero"></path><path fill="#000000" d="m96.157524 299.45343l0 -9.3125l1.140625 0l0 9.3125l-1.140625 0zm2.570465 -3.375q0 -1.875 1.03125 -2.765625q0.875 -0.75 2.125 -0.75q1.390625 0 2.265625 0.90625q0.890625 0.90625 0.890625 2.515625q0 1.296875 -0.390625 2.046875q-0.390625 0.75 -1.140625 1.171875q-0.75 0.40625 -1.625 0.40625q-1.421875 0 -2.296875 -0.90625q-0.859375 -0.90625 -0.859375 -2.625zm1.171875 0q0 1.296875 0.5625 1.953125q0.5625 0.640625 1.421875 0.640625q0.84375 0 1.40625 -0.640625q0.578125 -0.65625 0.578125 -1.984375q0 -1.25 -0.578125 -1.890625q-0.5625 -0.65625 -1.40625 -0.65625q-0.859375 0 -1.421875 0.640625q-0.5625 0.640625 -0.5625 1.9375zm6.4437256 3.9375l1.125 0.15625q0.0625 0.515625 0.375 0.75q0.4375 0.328125 1.171875 0.328125q0.78125 0 1.21875 -0.328125q0.4375 -0.3125 0.578125 -0.890625q0.09375 -0.34375 0.09375 -1.453125q-0.75 0.875 -1.875 0.875q-1.390625 0 -2.15625 -1.0q-0.75 -1.0 -0.75 -2.40625q0 -0.96875 0.34375 -1.78125q0.359375 -0.8125 1.015625 -1.25q0.65625 -0.453125 1.5625 -0.453125q1.1875 0 1.96875 0.96875l0 -0.8125l1.046875 0l0 5.8125q0 1.578125 -0.328125 2.234375q-0.3125 0.65625 -1.015625 1.03125q-0.6875 0.390625 -1.703125 0.390625q-1.203125 0 -1.953125 -0.546875q-0.734375 -0.53125 -0.71875 -1.625zm0.953125 -4.046875q0 1.3125 0.515625 1.921875q0.53125 0.609375 1.328125 0.609375q0.796875 0 1.328125 -0.59375q0.53125 -0.609375 0.53125 -1.90625q0 -1.234375 -0.546875 -1.859375q-0.546875 -0.640625 -1.328125 -0.640625q-0.765625 0 -1.296875 0.625q-0.53125 0.625 -0.53125 1.84375z" fill-rule="nonzero"></path><path fill="#cfe2f3" d="m102.3294 272.4777l58.92913 0l0 60.3515l-9.821716 9.821716l-49.107414 0z" fill-rule="evenodd"></path><path fill="#a5b4c2" d="m151.43681 342.6509l1.9643402 -7.857361l7.857376 -1.9643555z" fill-rule="evenodd"></path><path fill="#000000" fill-opacity="0.0" d="m151.43681 342.6509l1.9643402 -7.857361l7.857376 -1.9643555l-9.821716 9.821716l-49.107414 0l0 -70.17322l58.92913 0l0 60.3515" fill-rule="evenodd"></path><path stroke="#000000" stroke-width="2.0" stroke-linejoin="round" stroke-linecap="butt" d="m151.43681 342.6509l1.9643402 -7.857361l7.857376 -1.9643555l-9.821716 9.821716l-49.107414 0l0 -70.17322l58.92913 0l0 60.3515" fill-rule="evenodd"></path><path fill="#000000" d="m116.79815 297.28156l1.1875 0.140625q-0.28125 1.046875 -1.046875 1.625q-0.75 0.5625 -1.921875 0.5625q-1.484375 0 -2.359375 -0.90625q-0.859375 -0.921875 -0.859375 -2.5625q0 -1.703125 0.875 -2.640625q0.890625 -0.9375 2.28125 -0.9375q1.359375 0 2.203125 0.921875q0.859375 0.921875 0.859375 2.578125q0 0.109375 0 0.3125l-5.03125 0q0.0625 1.109375 0.625 1.703125q0.5625 0.59375 1.40625 0.59375q0.640625 0 1.078125 -0.328125q0.453125 -0.34375 0.703125 -1.0625zm-3.75 -1.84375l3.765625 0q-0.078125 -0.859375 -0.4375 -1.28125q-0.546875 -0.65625 -1.40625 -0.65625q-0.796875 0 -1.328125 0.53125q-0.53125 0.515625 -0.59375 1.40625zm8.428101 4.015625l-2.5625 -6.734375l1.203125 0l1.4375 4.03125q0.234375 0.65625 0.4375 1.359375q0.15625 -0.53125 0.421875 -1.28125l1.5 -4.109375l1.171875 0l-2.546875 6.734375l-1.0625 0zm9.39843 -2.171875l1.1875 0.140625q-0.28125 1.046875 -1.046875 1.625q-0.75 0.5625 -1.921875 0.5625q-1.4843674 0 -2.3593674 -0.90625q-0.859375 -0.921875 -0.859375 -2.5625q0 -1.703125 0.875 -2.640625q0.890625 -0.9375 2.2812424 -0.9375q1.359375 0 2.203125 0.921875q0.859375 0.921875 0.859375 2.578125q0 0.109375 0 0.3125l-5.0312424 0q0.0625 1.109375 0.625 1.703125q0.5624924 0.59375 1.4062424 0.59375q0.640625 0 1.078125 -0.328125q0.453125 -0.34375 0.703125 -1.0625zm-3.7499924 -1.84375l3.7656174 0q-0.078125 -0.859375 -0.4375 -1.28125q-0.546875 -0.65625 -1.40625 -0.65625q-0.796875 0 -1.3281174 0.53125q-0.53125 0.515625 -0.59375 1.40625zm6.553093 4.015625l0 -6.734375l1.03125 0l0 0.953125q0.734375 -1.109375 2.140625 -1.109375q0.609375 0 1.109375 0.21875q0.515625 0.21875 0.765625 0.578125q0.265625 0.34375 0.359375 0.84375q0.0625 0.3125 0.0625 1.109375l0 4.140625l-1.140625 0l0 -4.09375q0 -0.703125 -0.140625 -1.046875q-0.125 -0.34375 -0.46875 -0.546875q-0.328125 -0.21875 -0.78125 -0.21875q-0.734375 0 -1.265625 0.46875q-0.53125 0.453125 -0.53125 1.75l0 3.6875l-1.140625 0zm9.912476 -1.015625l0.15625 1.0q-0.484375 0.109375 -0.859375 0.109375q-0.625 0 -0.96875 -0.203125q-0.34375 -0.203125 -0.484375 -0.515625q-0.140625 -0.328125 -0.140625 -1.34375l0 -3.890625l-0.828125 0l0 -0.875l0.828125 0l0 -1.671875l1.140625 -0.6875l0 2.359375l1.15625 0l0 0.875l-1.15625 0l0 3.953125q0 0.484375 0.0625 0.625q0.0625 0.140625 0.1875 0.21875q0.140625 0.078125 0.390625 0.078125q0.203125 0 0.515625 -0.03125z" fill-rule="nonzero"></path><path fill="#000000" d="m112.157524 315.45343l0 -9.3125l1.140625 0l0 9.3125l-1.140625 0zm2.570465 -3.375q0 -1.875 1.03125 -2.765625q0.875 -0.75 2.125 -0.75q1.390625 0 2.265625 0.90625q0.890625 0.90625 0.890625 2.515625q0 1.296875 -0.390625 2.046875q-0.390625 0.75 -1.140625 1.171875q-0.75 0.40625 -1.625 0.40625q-1.421875 0 -2.296875 -0.90625q-0.859375 -0.90625 -0.859375 -2.625zm1.171875 0q0 1.296875 0.5625 1.953125q0.5625 0.640625 1.421875 0.640625q0.84375 0 1.40625 -0.640625q0.578125 -0.65625 0.578125 -1.984375q0 -1.25 -0.578125 -1.890625q-0.5625 -0.65625 -1.40625 -0.65625q-0.859375 0 -1.421875 0.640625q-0.5625 0.640625 -0.5625 1.9375zm6.4437256 3.9375l1.125 0.15625q0.0625 0.515625 0.375 0.75q0.4375 0.328125 1.171875 0.328125q0.78125 0 1.21875 -0.328125q0.4375 -0.3125 0.578125 -0.890625q0.09375 -0.34375 0.09375 -1.453125q-0.75 0.875 -1.875 0.875q-1.390625 0 -2.15625 -1.0q-0.75 -1.0 -0.75 -2.40625q0 -0.96875 0.34375 -1.78125q0.359375 -0.8125 1.015625 -1.25q0.65625 -0.453125 1.5625 -0.453125q1.1875 0 1.96875 0.96875l0 -0.8125l1.0468674 0l0 5.8125q0 1.578125 -0.32811737 2.234375q-0.3125 0.65625 -1.015625 1.03125q-0.6875 0.390625 -1.703125 0.390625q-1.203125 0 -1.953125 -0.546875q-0.734375 -0.53125 -0.71875 -1.625zm0.953125 -4.046875q0 1.3125 0.515625 1.921875q0.53125 0.609375 1.328125 0.609375q0.796875 0 1.328125 -0.59375q0.53125 -0.609375 0.53125 -1.90625q0 -1.234375 -0.546875 -1.859375q-0.546875 -0.640625 -1.328125 -0.640625q-0.765625 0 -1.296875 0.625q-0.53125 0.625 -0.53125 1.84375z" fill-rule="nonzero"></path><path fill="#cfe2f3" d="m118.3294 288.4777l58.92913 0l0 60.3515l-9.821716 9.821716l-49.107414 0z" fill-rule="evenodd"></path><path fill="#a5b4c2" d="m167.43681 358.6509l1.9643402 -7.857361l7.857376 -1.9643555z" fill-rule="evenodd"></path><path fill="#000000" fill-opacity="0.0" d="m167.43681 358.6509l1.9643402 -7.857361l7.857376 -1.9643555l-9.821716 9.821716l-49.107414 0l0 -70.17322l58.92913 0l0 60.3515" fill-rule="evenodd"></path><path stroke="#000000" stroke-width="2.0" stroke-linejoin="round" stroke-linecap="butt" d="m167.43681 358.6509l1.9643402 -7.857361l7.857376 -1.9643555l-9.821716 9.821716l-49.107414 0l0 -70.17322l58.92913 0l0 60.3515" fill-rule="evenodd"></path><path fill="#000000" d="m132.79814 313.28156l1.1875 0.140625q-0.28125 1.046875 -1.046875 1.625q-0.75 0.5625 -1.921875 0.5625q-1.484375 0 -2.359375 -0.90625q-0.8593674 -0.921875 -0.8593674 -2.5625q0 -1.703125 0.8749924 -2.640625q0.890625 -0.9375 2.28125 -0.9375q1.359375 0 2.203125 0.921875q0.859375 0.921875 0.859375 2.578125q0 0.109375 0 0.3125l-5.03125 0q0.0625 1.109375 0.625 1.703125q0.5625 0.59375 1.40625 0.59375q0.640625 0 1.078125 -0.328125q0.453125 -0.34375 0.703125 -1.0625zm-3.75 -1.84375l3.765625 0q-0.078125 -0.859375 -0.4375 -1.28125q-0.546875 -0.65625 -1.40625 -0.65625q-0.796875 0 -1.328125 0.53125q-0.53125 0.515625 -0.59375 1.40625zm8.428101 4.015625l-2.5625 -6.734375l1.203125 0l1.4375 4.03125q0.234375 0.65625 0.4375 1.359375q0.15625 -0.53125 0.421875 -1.28125l1.5 -4.109375l1.171875 0l-2.546875 6.734375l-1.0625 0zm9.3984375 -2.171875l1.1875 0.140625q-0.28125 1.046875 -1.046875 1.625q-0.75 0.5625 -1.921875 0.5625q-1.484375 0 -2.359375 -0.90625q-0.859375 -0.921875 -0.859375 -2.5625q0 -1.703125 0.875 -2.640625q0.890625 -0.9375 2.28125 -0.9375q1.359375 0 2.203125 0.921875q0.859375 0.921875 0.859375 2.578125q0 0.109375 0 0.3125l-5.03125 0q0.0625 1.109375 0.625 1.703125q0.5625 0.59375 1.40625 0.59375q0.640625 0 1.078125 -0.328125q0.453125 -0.34375 0.703125 -1.0625zm-3.75 -1.84375l3.765625 0q-0.078125 -0.859375 -0.4375 -1.28125q-0.546875 -0.65625 -1.40625 -0.65625q-0.796875 0 -1.328125 0.53125q-0.53125 0.515625 -0.59375 1.40625zm6.5531006 4.015625l0 -6.734375l1.03125 0l0 0.953125q0.734375 -1.109375 2.140625 -1.109375q0.609375 0 1.109375 0.21875q0.515625 0.21875 0.765625 0.578125q0.265625 0.34375 0.359375 0.84375q0.0625 0.3125 0.0625 1.109375l0 4.140625l-1.140625 0l0 -4.09375q0 -0.703125 -0.140625 -1.046875q-0.125 -0.34375 -0.46875 -0.546875q-0.328125 -0.21875 -0.78125 -0.21875q-0.734375 0 -1.265625 0.46875q-0.53125 0.453125 -0.53125 1.75l0 3.6875l-1.140625 0zm9.912476 -1.015625l0.15625 1.0q-0.484375 0.109375 -0.859375 0.109375q-0.625 0 -0.96875 -0.203125q-0.34375 -0.203125 -0.484375 -0.515625q-0.140625 -0.328125 -0.140625 -1.34375l0 -3.890625l-0.828125 0l0 -0.875l0.828125 0l0 -1.671875l1.140625 -0.6875l0 2.359375l1.15625 0l0 0.875l-1.15625 0l0 3.953125q0 0.484375 0.0625 0.625q0.0625 0.140625 0.1875 0.21875q0.140625 0.078125 0.390625 0.078125q0.203125 0 0.515625 -0.03125z" fill-rule="nonzero"></path><path fill="#000000" d="m128.15752 331.45343l0 -9.3125l1.140625 0l0 9.3125l-1.140625 0zm2.570465 -3.375q0 -1.875 1.03125 -2.765625q0.875 -0.75 2.125 -0.75q1.390625 0 2.265625 0.90625q0.890625 0.90625 0.890625 2.515625q0 1.296875 -0.390625 2.046875q-0.390625 0.75 -1.140625 1.171875q-0.75 0.40625 -1.625 0.40625q-1.421875 0 -2.296875 -0.90625q-0.859375 -0.90625 -0.859375 -2.625zm1.171875 0q0 1.296875 0.5625 1.953125q0.5625 0.640625 1.421875 0.640625q0.84375 0 1.40625 -0.640625q0.578125 -0.65625 0.578125 -1.984375q0 -1.25 -0.578125 -1.890625q-0.5625 -0.65625 -1.40625 -0.65625q-0.859375 0 -1.421875 0.640625q-0.5625 0.640625 -0.5625 1.9375zm6.4437256 3.9375l1.125 0.15625q0.0625 0.515625 0.375 0.75q0.4375 0.328125 1.171875 0.328125q0.78125 0 1.21875 -0.328125q0.4375 -0.3125 0.578125 -0.890625q0.09375 -0.34375 0.09375 -1.453125q-0.75 0.875 -1.875 0.875q-1.390625 0 -2.15625 -1.0q-0.75 -1.0 -0.75 -2.40625q0 -0.96875 0.34375 -1.78125q0.359375 -0.8125 1.015625 -1.25q0.65625 -0.453125 1.5625 -0.453125q1.1875 0 1.96875 0.96875l0 -0.8125l1.046875 0l0 5.8125q0 1.578125 -0.328125 2.234375q-0.3125 0.65625 -1.015625 1.03125q-0.6875 0.390625 -1.703125 0.390625q-1.203125 0 -1.953125 -0.546875q-0.734375 -0.53125 -0.71875 -1.625zm0.953125 -4.046875q0 1.3125 0.515625 1.921875q0.53125 0.609375 1.328125 0.609375q0.796875 0 1.328125 -0.59375q0.53125 -0.609375 0.53125 -1.90625q0 -1.234375 -0.546875 -1.859375q-0.546875 -0.640625 -1.328125 -0.640625q-0.765625 0 -1.296875 0.625q-0.53125 0.625 -0.53125 1.84375z" fill-rule="nonzero"></path><path fill="#cccccc" d="m730.5827 324.33203l-76.43048 0c-10.552856 0 -19.107605 6.8391113 -19.107605 15.275574c0 8.436493 8.554749 15.275604 19.107605 15.275604l76.43048 0l0 0c10.552795 0 19.107605 -6.8391113 19.107605 -15.275604c0 -8.436462 -8.55481 -15.275574 -19.107605 -15.275574z" fill-rule="evenodd"></path><path fill="#000000" fill-opacity="0.0" d="m654.1522 354.8832c10.552856 0 19.107605 -6.8391113 19.107605 -15.275604c0 -8.436462 -8.554749 -15.275574 -19.107605 -15.275574" fill-rule="evenodd"></path><path fill="#000000" fill-opacity="0.0" d="m730.5827 324.33203l-76.43048 0c-10.552856 0 -19.107605 6.8391113 -19.107605 15.275574c0 8.436493 8.554749 15.275604 19.107605 15.275604l76.43048 0l0 0c10.552795 0 19.107605 -6.8391113 19.107605 -15.275604c0 -8.436462 -8.55481 -15.275574 -19.107605 -15.275574z" fill-rule="evenodd"></path><path stroke="#b7b7b7" stroke-width="2.0" stroke-linejoin="round" stroke-linecap="butt" d="m654.1522 354.8832c10.552856 0 19.107605 -6.8391113 19.107605 -15.275604c0 -8.436462 -8.554749 -15.275574 -19.107605 -15.275574" fill-rule="evenodd"></path><path stroke="#b7b7b7" stroke-width="2.0" stroke-linejoin="round" stroke-linecap="butt" d="m730.5827 324.33203l-76.43048 0c-10.552856 0 -19.107605 6.8391113 -19.107605 15.275574c0 8.436493 8.554749 15.275604 19.107605 15.275604l76.43048 0l0 0c10.552795 0 19.107605 -6.8391113 19.107605 -15.275604c0 -8.436462 -8.55481 -15.275574 -19.107605 -15.275574z" fill-rule="evenodd"></path><path fill="#000000" d="m687.4161 346.98575l0 -3.296875q-0.265625 0.375 -0.75 0.625q-0.484375 0.25 -1.015625 0.25q-1.203125 0 -2.078125 -0.953125q-0.859375 -0.96875 -0.859375 -2.640625q0 -1.015625 0.34375 -1.8125q0.359375 -0.8125 1.03125 -1.21875q0.671875 -0.421875 1.46875 -0.421875q1.25 0 1.96875 1.046875l0 -0.890625l1.03125 0l0 9.3125l-1.140625 0zm-3.53125 -5.96875q0 1.296875 0.546875 1.953125q0.546875 0.65625 1.3125 0.65625q0.734375 0 1.25 -0.625q0.53125 -0.625 0.53125 -1.875q0 -1.359375 -0.5625 -2.03125q-0.546875 -0.6875 -1.296875 -0.6875q-0.734375 0 -1.265625 0.640625q-0.515625 0.625 -0.515625 1.96875zm11.068726 3.390625l0 -0.984375q-0.796875 1.140625 -2.140625 1.140625q-0.59375 0 -1.125 -0.234375q-0.515625 -0.234375 -0.765625 -0.578125q-0.25 -0.34375 -0.34375 -0.84375q-0.078125 -0.328125 -0.078125 -1.0625l0 -4.171875l1.140625 0l0 3.734375q0 0.890625 0.078125 1.203125q0.109375 0.453125 0.453125 0.71875q0.34375 0.25 0.859375 0.25q0.515625 0 0.96875 -0.265625q0.453125 -0.265625 0.640625 -0.71875q0.1875 -0.453125 0.1875 -1.3125l0 -3.609375l1.140625 0l0 6.734375l-1.015625 0zm7.5999756 -2.171875l1.1875 0.140625q-0.28125 1.046875 -1.046875 1.625q-0.75 0.5625 -1.921875 0.5625q-1.484375 0 -2.359375 -0.90625q-0.859375 -0.921875 -0.859375 -2.5625q0 -1.703125 0.875 -2.640625q0.890625 -0.9375 2.28125 -0.9375q1.359375 0 2.203125 0.921875q0.859375 0.921875 0.859375 2.578125q0 0.109375 0 0.3125l-5.03125 0q0.0625 1.109375 0.625 1.703125q0.5625 0.59375 1.40625 0.59375q0.640625 0 1.078125 -0.328125q0.453125 -0.34375 0.703125 -1.0625zm-3.75 -1.84375l3.765625 0q-0.078125 -0.859375 -0.4375 -1.28125q-0.546875 -0.65625 -1.40625 -0.65625q-0.796875 0 -1.328125 0.53125q-0.53125 0.515625 -0.59375 1.40625zm10.974976 4.015625l0 -0.984375q-0.796875 1.140625 -2.140625 1.140625q-0.59375 0 -1.125 -0.234375q-0.515625 -0.234375 -0.765625 -0.578125q-0.25 -0.34375 -0.34375 -0.84375q-0.078125 -0.328125 -0.078125 -1.0625l0 -4.171875l1.140625 0l0 3.734375q0 0.890625 0.078125 1.203125q0.109375 0.453125 0.453125 0.71875q0.34375 0.25 0.859375 0.25q0.515625 0 0.96875 -0.265625q0.453125 -0.265625 0.640625 -0.71875q0.1875 -0.453125 0.1875 -1.3125l0 -3.609375l1.140625 0l0 6.734375l-1.015625 0zm7.5999756 -2.171875l1.1875 0.140625q-0.28125 1.046875 -1.046875 1.625q-0.75 0.5625 -1.921875 0.5625q-1.484375 0 -2.359375 -0.90625q-0.859375 -0.921875 -0.859375 -2.5625q0 -1.703125 0.875 -2.640625q0.890625 -0.9375 2.28125 -0.9375q1.359375 0 2.203125 0.921875q0.859375 0.921875 0.859375 2.578125q0 0.109375 0 0.3125l-5.03125 0q0.0625 1.109375 0.625 1.703125q0.5625 0.59375 1.40625 0.59375q0.640625 0 1.078125 -0.328125q0.453125 -0.34375 0.703125 -1.0625zm-3.75 -1.84375l3.765625 0q-0.078125 -0.859375 -0.4375 -1.28125q-0.546875 -0.65625 -1.40625 -0.65625q-0.796875 0 -1.328125 0.53125q-0.53125 0.515625 -0.59375 1.40625z" fill-rule="nonzero"></path><path fill="#cccccc" d="m730.5827 366.0643l-76.43048 0c-10.552856 0 -19.107605 6.8391113 -19.107605 15.275604c0 8.436462 8.554749 15.275574 19.107605 15.275574l76.43048 0l0 0c10.552795 0 19.107605 -6.8391113 19.107605 -15.275574c0 -8.436493 -8.55481 -15.275604 -19.107605 -15.275604z" fill-rule="evenodd"></path><path fill="#000000" fill-opacity="0.0" d="m654.1522 396.61548c10.552856 0 19.107605 -6.8391113 19.107605 -15.275574c0 -8.436493 -8.554749 -15.275604 -19.107605 -15.275604" fill-rule="evenodd"></path><path fill="#000000" fill-opacity="0.0" d="m730.5827 366.0643l-76.43048 0c-10.552856 0 -19.107605 6.8391113 -19.107605 15.275604c0 8.436462 8.554749 15.275574 19.107605 15.275574l76.43048 0l0 0c10.552795 0 19.107605 -6.8391113 19.107605 -15.275574c0 -8.436493 -8.55481 -15.275604 -19.107605 -15.275604z" fill-rule="evenodd"></path><path stroke="#b7b7b7" stroke-width="2.0" stroke-linejoin="round" stroke-linecap="butt" d="m654.1522 396.61548c10.552856 0 19.107605 -6.8391113 19.107605 -15.275574c0 -8.436493 -8.554749 -15.275604 -19.107605 -15.275604" fill-rule="evenodd"></path><path stroke="#b7b7b7" stroke-width="2.0" stroke-linejoin="round" stroke-linecap="butt" d="m730.5827 366.0643l-76.43048 0c-10.552856 0 -19.107605 6.8391113 -19.107605 15.275604c0 8.436462 8.554749 15.275574 19.107605 15.275574l76.43048 0l0 0c10.552795 0 19.107605 -6.8391113 19.107605 -15.275574c0 -8.436493 -8.55481 -15.275604 -19.107605 -15.275604z" fill-rule="evenodd"></path><path fill="#000000" d="m687.4161 388.71802l0 -3.296875q-0.265625 0.375 -0.75 0.625q-0.484375 0.25 -1.015625 0.25q-1.203125 0 -2.078125 -0.953125q-0.859375 -0.96875 -0.859375 -2.640625q0 -1.015625 0.34375 -1.8125q0.359375 -0.8125 1.03125 -1.21875q0.671875 -0.421875 1.46875 -0.421875q1.25 0 1.96875 1.046875l0 -0.890625l1.03125 0l0 9.3125l-1.140625 0zm-3.53125 -5.96875q0 1.296875 0.546875 1.953125q0.546875 0.65625 1.3125 0.65625q0.734375 0 1.25 -0.625q0.53125 -0.625 0.53125 -1.875q0 -1.359375 -0.5625 -2.03125q-0.546875 -0.6875 -1.296875 -0.6875q-0.734375 0 -1.265625 0.640625q-0.515625 0.625 -0.515625 1.96875zm11.068726 3.390625l0 -0.984375q-0.796875 1.140625 -2.140625 1.140625q-0.59375 0 -1.125 -0.234375q-0.515625 -0.234375 -0.765625 -0.578125q-0.25 -0.34375 -0.34375 -0.84375q-0.078125 -0.328125 -0.078125 -1.0625l0 -4.171875l1.140625 0l0 3.734375q0 0.890625 0.078125 1.203125q0.109375 0.453125 0.453125 0.71875q0.34375 0.25 0.859375 0.25q0.515625 0 0.96875 -0.265625q0.453125 -0.265625 0.640625 -0.71875q0.1875 -0.453125 0.1875 -1.3125l0 -3.609375l1.140625 0l0 6.734375l-1.015625 0zm7.5999756 -2.171875l1.1875 0.140625q-0.28125 1.046875 -1.046875 1.625q-0.75 0.5625 -1.921875 0.5625q-1.484375 0 -2.359375 -0.90625q-0.859375 -0.921875 -0.859375 -2.5625q0 -1.703125 0.875 -2.640625q0.890625 -0.9375 2.28125 -0.9375q1.359375 0 2.203125 0.921875q0.859375 0.921875 0.859375 2.578125q0 0.109375 0 0.3125l-5.03125 0q0.0625 1.109375 0.625 1.703125q0.5625 0.59375 1.40625 0.59375q0.640625 0 1.078125 -0.328125q0.453125 -0.34375 0.703125 -1.0625zm-3.75 -1.84375l3.765625 0q-0.078125 -0.859375 -0.4375 -1.28125q-0.546875 -0.65625 -1.40625 -0.65625q-0.796875 0 -1.328125 0.53125q-0.53125 0.515625 -0.59375 1.40625zm10.974976 4.015625l0 -0.984375q-0.796875 1.140625 -2.140625 1.140625q-0.59375 0 -1.125 -0.234375q-0.515625 -0.234375 -0.765625 -0.578125q-0.25 -0.34375 -0.34375 -0.84375q-0.078125 -0.328125 -0.078125 -1.0625l0 -4.171875l1.140625 0l0 3.734375q0 0.890625 0.078125 1.203125q0.109375 0.453125 0.453125 0.71875q0.34375 0.25 0.859375 0.25q0.515625 0 0.96875 -0.265625q0.453125 -0.265625 0.640625 -0.71875q0.1875 -0.453125 0.1875 -1.3125l0 -3.609375l1.140625 0l0 6.734375l-1.015625 0zm7.5999756 -2.171875l1.1875 0.140625q-0.28125 1.046875 -1.046875 1.625q-0.75 0.5625 -1.921875 0.5625q-1.484375 0 -2.359375 -0.90625q-0.859375 -0.921875 -0.859375 -2.5625q0 -1.703125 0.875 -2.640625q0.890625 -0.9375 2.28125 -0.9375q1.359375 0 2.203125 0.921875q0.859375 0.921875 0.859375 2.578125q0 0.109375 0 0.3125l-5.03125 0q0.0625 1.109375 0.625 1.703125q0.5625 0.59375 1.40625 0.59375q0.640625 0 1.078125 -0.328125q0.453125 -0.34375 0.703125 -1.0625zm-3.75 -1.84375l3.765625 0q-0.078125 -0.859375 -0.4375 -1.28125q-0.546875 -0.65625 -1.40625 -0.65625q-0.796875 0 -1.328125 0.53125q-0.53125 0.515625 -0.59375 1.40625z" fill-rule="nonzero"></path><path fill="#cccccc" d="m815.09845 321.93704l37.81958 0l0 35.5813c-18.908813 0 -18.908813 13.68988 -37.81958 6.84494zm3.1158447 0l0 -4.612915l37.56128 0l0 35.804535c-1.4277344 0 -2.857544 0.24798584 -2.857544 0.24798584l0 -31.439606zm2.928772 -4.612915l0 -4.5012817l37.88672 0l0 35.6929c-1.6271362 0 -3.2542114 0.18600464 -3.2542114 0.18600464l0 -31.377625z" fill-rule="evenodd"></path><path fill="#000000" fill-opacity="0.0" d="m815.09845 321.93704l37.81958 0l0 35.5813c-18.908813 0 -18.908813 13.68988 -37.81958 6.84494zm3.1158447 0l0 -4.612915l37.56128 0l0 35.804535c-1.4277344 0 -2.857544 0.24798584 -2.857544 0.24798584m-31.774963 -36.05252l0 -4.5012817l37.88672 0l0 35.6929c-1.6271362 0 -3.2542114 0.18600464 -3.2542114 0.18600464" fill-rule="evenodd"></path><path fill="#000000" fill-opacity="0.0" d="m815.09845 364.36328c18.910767 6.84494 18.910767 -6.84494 37.81958 -6.84494l0 -4.141693c0 0 1.4298096 -0.24798584 2.857544 -0.24798584l0 -4.4269104c0 0 1.6270752 -0.18600464 3.2542114 -0.18600464l0 -35.6929l-37.88672 0l0 4.5012817l-2.928772 0l0 4.612915l-3.1158447 0z" fill-rule="evenodd"></path><path stroke="#b7b7b7" stroke-width="2.0" stroke-linejoin="round" stroke-linecap="butt" d="m815.09845 321.93704l37.81958 0l0 35.5813c-18.908813 0 -18.908813 13.68988 -37.81958 6.84494zm3.1158447 0l0 -4.612915l37.56128 0l0 35.804535c-1.4277344 0 -2.857544 0.24798584 -2.857544 0.24798584m-31.774963 -36.05252l0 -4.5012817l37.88672 0l0 35.6929c-1.6271362 0 -3.2542114 0.18600464 -3.2542114 0.18600464" fill-rule="evenodd"></path><path fill="#cccccc" d="m865.6627 363.6693l37.81958 0l0 35.5813c-18.908752 0 -18.908752 13.689911 -37.81958 6.8449707zm3.1159058 0l0 -4.6128845l37.56128 0l0 35.804504c-1.4277954 0 -2.857605 0.24801636 -2.857605 0.24801636l0 -31.439636zm2.928711 -4.6128845l0 -4.5013123l37.88672 0l0 35.692932c-1.6270752 0 -3.2541504 0.18600464 -3.2541504 0.18600464l0 -31.377625z" fill-rule="evenodd"></path><path fill="#000000" fill-opacity="0.0" d="m865.6627 363.6693l37.81958 0l0 35.5813c-18.908752 0 -18.908752 13.689911 -37.81958 6.8449707zm3.1159058 0l0 -4.6128845l37.56128 0l0 35.804504c-1.4277954 0 -2.857605 0.24801636 -2.857605 0.24801636m-31.774963 -36.05252l0 -4.5013123l37.88672 0l0 35.692932c-1.6270752 0 -3.2541504 0.18600464 -3.2541504 0.18600464" fill-rule="evenodd"></path><path fill="#000000" fill-opacity="0.0" d="m865.6627 406.09558c18.910828 6.84494 18.910828 -6.8449707 37.81958 -6.8449707l0 -4.1416626c0 0 1.4298096 -0.24801636 2.857605 -0.24801636l0 -4.42688c0 0 1.6270752 -0.18600464 3.2541504 -0.18600464l0 -35.692932l-37.88672 0l0 4.5013123l-2.928711 0l0 4.6128845l-3.1159058 0z" fill-rule="evenodd"></path><path stroke="#b7b7b7" stroke-width="2.0" stroke-linejoin="round" stroke-linecap="butt" d="m865.6627 363.6693l37.81958 0l0 35.5813c-18.908752 0 -18.908752 13.689911 -37.81958 6.8449707zm3.1159058 0l0 -4.6128845l37.56128 0l0 35.804504c-1.4277954 0 -2.857605 0.24801636 -2.857605 0.24801636m-31.774963 -36.05252l0 -4.5013123l37.88672 0l0 35.692932c-1.6270752 0 -3.2541504 0.18600464 -3.2541504 0.18600464" fill-rule="evenodd"></path><path fill="#000000" fill-opacity="0.0" d="m546.1982 269.021l88.8504 28.850403" fill-rule="evenodd"></path><path stroke="#000000" stroke-width="2.0" stroke-linejoin="round" stroke-linecap="butt" d="m546.1982 269.021l77.43701 25.144379" fill-rule="evenodd"></path><path fill="#000000" stroke="#000000" stroke-width="2.0" stroke-linecap="butt" d="m622.6149 297.30734l9.652771 -0.33892822l-7.6123047 -5.9450073z" fill-rule="evenodd"></path><path fill="#000000" fill-opacity="0.0" d="m546.1982 269.021l88.8504 70.58267" fill-rule="evenodd"></path><path stroke="#000000" stroke-width="2.0" stroke-linejoin="round" stroke-linecap="butt" d="m546.1982 269.021l79.454346 63.11847" fill-rule="evenodd"></path><path fill="#000000" stroke="#000000" stroke-width="2.0" stroke-linecap="butt" d="m623.5977 334.7261l9.161499 3.058899l-5.05188 -8.232147z" fill-rule="evenodd"></path><path fill="#000000" fill-opacity="0.0" d="m546.1982 269.021l88.8504 112.31497" fill-rule="evenodd"></path><path stroke="#000000" stroke-width="2.0" stroke-linejoin="round" stroke-linecap="butt" d="m546.1982 269.021l81.405334 102.90375" fill-rule="evenodd"></path><path fill="#000000" stroke="#000000" stroke-width="2.0" stroke-linecap="butt" d="m625.0127 373.97427l8.221863 5.068634l-3.0402222 -9.167725z" fill-rule="evenodd"></path><path fill="#cccccc" d="m517.1916 491.65854l15.428894 -9.644104l61.715454 0l0 48.22049l-77.14435 0z" fill-rule="evenodd"></path><path stroke="#b7b7b7" stroke-width="2.0" stroke-linejoin="round" stroke-linecap="butt" d="m517.1916 491.65854l15.428894 -9.644104l61.715454 0l0 48.22049l-77.14435 0z" fill-rule="evenodd"></path><path fill="#000000" fill-opacity="0.0" d="m496.30185 354.5551l0 50.897644" fill-rule="evenodd"></path><path stroke="#000000" stroke-width="2.0" stroke-linejoin="round" stroke-linecap="butt" d="m496.30185 354.5551l0 38.897644" fill-rule="evenodd"></path><path fill="#000000" stroke="#000000" stroke-width="2.0" stroke-linecap="butt" d="m492.99838 393.45276l3.3034668 9.076202l3.3034668 -9.076202z" fill-rule="evenodd"></path><path fill="#cccccc" d="m408.74277 491.65854l15.428894 -9.644104l61.715485 0l0 48.22049l-77.14438 0z" fill-rule="evenodd"></path><path stroke="#b7b7b7" stroke-width="2.0" stroke-linejoin="round" stroke-linecap="butt" d="m408.74277 491.65854l15.428894 -9.644104l61.715485 0l0 48.22049l-77.14438 0z" fill-rule="evenodd"></path><path fill="#cccccc" d="m534.5162 405.45276l-76.42868 0c-10.552612 0 -19.107178 6.8391113 -19.107178 15.275574c0 8.436493 8.554565 15.275604 19.107178 15.275604l76.42868 0l0 0c10.552612 0 19.107178 -6.8391113 19.107178 -15.275604c0 -8.436462 -8.554565 -15.275574 -19.107178 -15.275574z" fill-rule="evenodd"></path><path fill="#000000" fill-opacity="0.0" d="m458.0875 436.00394c10.552582 0 19.107178 -6.8391113 19.107178 -15.275604c0 -8.436462 -8.554596 -15.275574 -19.107178 -15.275574" fill-rule="evenodd"></path><path fill="#000000" fill-opacity="0.0" d="m534.5162 405.45276l-76.42868 0c-10.552612 0 -19.107178 6.8391113 -19.107178 15.275574c0 8.436493 8.554565 15.275604 19.107178 15.275604l76.42868 0l0 0c10.552612 0 19.107178 -6.8391113 19.107178 -15.275604c0 -8.436462 -8.554565 -15.275574 -19.107178 -15.275574z" fill-rule="evenodd"></path><path stroke="#b7b7b7" stroke-width="2.0" stroke-linejoin="round" stroke-linecap="butt" d="m458.0875 436.00394c10.552582 0 19.107178 -6.8391113 19.107178 -15.275604c0 -8.436462 -8.554596 -15.275574 -19.107178 -15.275574" fill-rule="evenodd"></path><path stroke="#b7b7b7" stroke-width="2.0" stroke-linejoin="round" stroke-linecap="butt" d="m534.5162 405.45276l-76.42868 0c-10.552612 0 -19.107178 6.8391113 -19.107178 15.275574c0 8.436493 8.554565 15.275604 19.107178 15.275604l76.42868 0l0 0c10.552612 0 19.107178 -6.8391113 19.107178 -15.275604c0 -8.436462 -8.554565 -15.275574 -19.107178 -15.275574z" fill-rule="evenodd"></path><path fill="#000000" d="m491.35092 428.10648l0 -3.296875q-0.265625 0.375 -0.75 0.625q-0.484375 0.25 -1.015625 0.25q-1.203125 0 -2.078125 -0.953125q-0.859375 -0.96875 -0.859375 -2.640625q0 -1.015625 0.34375 -1.8125q0.359375 -0.8125 1.03125 -1.21875q0.671875 -0.421875 1.46875 -0.421875q1.25 0 1.96875 1.046875l0 -0.890625l1.03125 0l0 9.3125l-1.140625 0zm-3.53125 -5.96875q0 1.296875 0.546875 1.953125q0.546875 0.65625 1.3125 0.65625q0.734375 0 1.25 -0.625q0.53125 -0.625 0.53125 -1.875q0 -1.359375 -0.5625 -2.03125q-0.546875 -0.6875 -1.296875 -0.6875q-0.734375 0 -1.265625 0.640625q-0.515625 0.625 -0.515625 1.96875zm11.068726 3.390625l0 -0.984375q-0.796875 1.140625 -2.140625 1.140625q-0.59375 0 -1.125 -0.234375q-0.515625 -0.234375 -0.765625 -0.578125q-0.25 -0.34375 -0.34375 -0.84375q-0.078125 -0.328125 -0.078125 -1.0625l0 -4.171875l1.140625 0l0 3.734375q0 0.890625 0.078125 1.203125q0.109375 0.453125 0.453125 0.71875q0.34375 0.25 0.859375 0.25q0.515625 0 0.96875 -0.265625q0.453125 -0.265625 0.640625 -0.71875q0.1875 -0.453125 0.1875 -1.3125l0 -3.609375l1.140625 0l0 6.734375l-1.015625 0zm7.5999756 -2.171875l1.1875 0.140625q-0.28125 1.046875 -1.046875 1.625q-0.75 0.5625 -1.921875 0.5625q-1.484375 0 -2.359375 -0.90625q-0.859375 -0.921875 -0.859375 -2.5625q0 -1.703125 0.875 -2.640625q0.890625 -0.9375 2.28125 -0.9375q1.359375 0 2.203125 0.921875q0.859375 0.921875 0.859375 2.578125q0 0.109375 0 0.3125l-5.03125 0q0.0625 1.109375 0.625 1.703125q0.5625 0.59375 1.40625 0.59375q0.640625 0 1.078125 -0.328125q0.453125 -0.34375 0.703125 -1.0625zm-3.75 -1.84375l3.765625 0q-0.078125 -0.859375 -0.4375 -1.28125q-0.546875 -0.65625 -1.40625 -0.65625q-0.796875 0 -1.328125 0.53125q-0.53125 0.515625 -0.59375 1.40625zm10.974945 4.015625l0 -0.984375q-0.796875 1.140625 -2.1405945 1.140625q-0.59375 0 -1.125 -0.234375q-0.515625 -0.234375 -0.765625 -0.578125q-0.25 -0.34375 -0.34375 -0.84375q-0.078125 -0.328125 -0.078125 -1.0625l0 -4.171875l1.140625 0l0 3.734375q0 0.890625 0.078125 1.203125q0.109375 0.453125 0.453125 0.71875q0.34375 0.25 0.859375 0.25q0.5155945 0 0.9687195 -0.265625q0.453125 -0.265625 0.640625 -0.71875q0.1875 -0.453125 0.1875 -1.3125l0 -3.609375l1.140625 0l0 6.734375l-1.015625 0zm7.5999756 -2.171875l1.1875 0.140625q-0.28125 1.046875 -1.046875 1.625q-0.75 0.5625 -1.921875 0.5625q-1.484375 0 -2.359375 -0.90625q-0.859375 -0.921875 -0.859375 -2.5625q0 -1.703125 0.875 -2.640625q0.890625 -0.9375 2.28125 -0.9375q1.359375 0 2.203125 0.921875q0.859375 0.921875 0.859375 2.578125q0 0.109375 0 0.3125l-5.03125 0q0.0625 1.109375 0.625 1.703125q0.5625 0.59375 1.40625 0.59375q0.640625 0 1.078125 -0.328125q0.453125 -0.34375 0.703125 -1.0625zm-3.75 -1.84375l3.765625 0q-0.078125 -0.859375 -0.4375 -1.28125q-0.546875 -0.65625 -1.40625 -0.65625q-0.796875 0 -1.328125 0.53125q-0.53125 0.515625 -0.59375 1.40625z" fill-rule="nonzero"></path><path fill="#000000" fill-opacity="0.0" d="m447.31497 482.01443l48.97638 -46.015747" fill-rule="evenodd"></path><path stroke="#000000" stroke-width="2.0" stroke-linejoin="round" stroke-linecap="butt" d="m456.06046 473.7976l40.230896 -37.79892" fill-rule="evenodd"></path><path fill="#000000" stroke="#000000" stroke-width="2.0" stroke-linecap="butt" d="m453.79846 471.39008l-4.352661 8.622314l8.876648 -3.807251z" fill-rule="evenodd"></path><path fill="#000000" fill-opacity="0.0" d="m555.7638 482.01443l-59.46457 -46.015747" fill-rule="evenodd"></path><path stroke="#000000" stroke-width="2.0" stroke-linejoin="round" stroke-linecap="butt" d="m546.27344 474.67047l-49.974213 -38.671783" fill-rule="evenodd"></path><path fill="#000000" stroke="#000000" stroke-width="2.0" stroke-linecap="butt" d="m544.2518 477.28308l9.199707 2.941986l-5.156311 -8.167175z" fill-rule="evenodd"></path><path fill="#000000" fill-opacity="0.0" d="m906.6076 317.31104l114.74017 0.9763794" fill-rule="evenodd"></path><path stroke="#000000" stroke-width="2.0" stroke-linejoin="round" stroke-linecap="butt" d="m906.6076 317.31104l102.7406 0.87423706" fill-rule="evenodd"></path><path fill="#000000" stroke="#000000" stroke-width="2.0" stroke-linecap="butt" d="m1009.32007 321.48865l9.104004 -3.2261353l-9.0477295 -3.3805542z" fill-rule="evenodd"></path><path fill="#cccccc" d="m1019.98816 278.9987l111.968506 0l0 76.1286l-111.968506 0z" fill-rule="evenodd"></path><path fill="#000000" fill-opacity="0.0" d="m1033.9843 278.9987l0 76.1286m-13.996094 -66.61252l111.968506 0" fill-rule="evenodd"></path><path fill="#000000" fill-opacity="0.0" d="m1019.98816 278.9987l111.968506 0l0 76.1286l-111.968506 0z" fill-rule="evenodd"></path><path stroke="#b7b7b7" stroke-width="1.0" stroke-linejoin="round" stroke-linecap="butt" d="m1033.9843 278.9987l0 76.1286m-13.996094 -66.61252l111.968506 0" fill-rule="evenodd"></path><path stroke="#b7b7b7" stroke-width="1.0" stroke-linejoin="round" stroke-linecap="butt" d="m1019.98816 278.9987l111.968506 0l0 76.1286l-111.968506 0z" fill-rule="evenodd"></path><path fill="#000000" d="m1072.3118 316.74478q0.984375 0.6875 1.828125 1.0l-0.421875 0.984375q-1.15625 -0.40625 -2.3125 -1.3125q-1.1875 0.671875 -2.640625 0.671875q-1.453125 0 -2.640625 -0.703125q-1.1875 -0.703125 -1.828125 -1.96875q-0.640625 -1.28125 -0.640625 -2.890625q0 -1.578125 0.640625 -2.875q0.65625 -1.3125 1.84375 -1.984375q1.1875 -0.6875 2.65625 -0.6875q1.484375 0 2.671875 0.703125q1.203125 0.703125 1.828125 1.984375q0.625 1.265625 0.625 2.859375q0 1.328125 -0.40625 2.390625q-0.390625 1.046875 -1.203125 1.828125zm-3.125 -1.8125q1.21875 0.34375 2.03125 1.03125q1.25 -1.140625 1.25 -3.4375q0 -1.3125 -0.453125 -2.28125q-0.4375 -0.96875 -1.296875 -1.5q-0.84375 -0.546875 -1.90625 -0.546875q-1.59375 0 -2.640625 1.09375q-1.046875 1.078125 -1.046875 3.234375q0 2.09375 1.03125 3.21875q1.046875 1.125 2.65625 1.125q0.765625 0 1.4375 -0.28125q-0.671875 -0.4375 -1.40625 -0.625l0.34375 -1.03125zm11.3220215 2.96875l0 -1.140625q-0.921875 1.3125 -2.46875 1.3125q-0.6875 0 -1.296875 -0.265625q-0.59375 -0.265625 -0.890625 -0.65625q-0.28125 -0.40625 -0.390625 -0.984375q-0.09375 -0.375 -0.09375 -1.21875l0 -4.828125l1.328125 0l0 4.3125q0 1.03125 0.078125 1.390625q0.125 0.53125 0.515625 0.828125q0.40625 0.296875 1.0 0.296875q0.59375 0 1.109375 -0.296875q0.53125 -0.3125 0.75 -0.828125q0.21875 -0.53125 0.21875 -1.53125l0 -4.171875l1.3125 0l0 7.78125l-1.171875 0zm8.369873 -2.5l1.359375 0.15625q-0.3125 1.203125 -1.1875 1.859375q-0.875 0.65625 -2.234375 0.65625q-1.703125 0 -2.703125 -1.046875q-1.0 -1.046875 -1.0 -2.953125q0 -1.953125 1.015625 -3.03125q1.015625 -1.09375 2.625 -1.09375q1.5625 0 2.546875 1.0625q0.984375 1.0625 0.984375 2.984375q0 0.125 0 0.359375l-5.8125 0q0.078125 1.28125 0.71875 1.96875q0.65625 0.671875 1.640625 0.671875q0.71875 0 1.234375 -0.375q0.515625 -0.390625 0.8125 -1.21875zm-4.328125 -2.140625l4.34375 0q-0.09375 -0.984375 -0.5 -1.46875q-0.625 -0.765625 -1.625 -0.765625q-0.921875 0 -1.546875 0.609375q-0.609375 0.609375 -0.671875 1.625zm7.135498 4.640625l0 -7.78125l1.1875 0l0 1.1875q0.453125 -0.828125 0.84375 -1.09375q0.390625 -0.265625 0.84375 -0.265625q0.671875 0 1.359375 0.421875l-0.453125 1.21875q-0.484375 -0.28125 -0.96875 -0.28125q-0.4375 0 -0.78125 0.265625q-0.34375 0.25 -0.484375 0.71875q-0.21875 0.703125 -0.21875 1.53125l0 4.078125l-1.328125 0zm4.849365 3.0l-0.15625 -1.234375q0.4375 0.109375 0.75 0.109375q0.453125 0 0.703125 -0.15625q0.265625 -0.140625 0.4375 -0.40625q0.125 -0.1875 0.40625 -0.96875q0.03125 -0.109375 0.109375 -0.328125l-2.953125 -7.796875l1.421875 0l1.625 4.5q0.3125 0.859375 0.5625 1.8125q0.234375 -0.90625 0.546875 -1.78125l1.65625 -4.53125l1.328125 0l-2.96875 7.90625q-0.46875 1.28125 -0.734375 1.765625q-0.359375 0.65625 -0.8125 0.953125q-0.453125 0.3125 -1.078125 0.3125q-0.375 0 -0.84375 -0.15625z" fill-rule="nonzero"></path><path fill="#000000" d="m1071.3662 334.72916l0.1875 1.15625q-0.5625 0.125 -1.0 0.125q-0.71875 0 -1.125 -0.234375q-0.390625 -0.234375 -0.546875 -0.59375q-0.15625 -0.375 -0.15625 -1.5625l0 -4.46875l-0.96875 0l0 -1.03125l0.96875 0l0 -1.921875l1.3125 -0.796875l0 2.71875l1.328125 0l0 1.03125l-1.328125 0l0 4.546875q0 0.5625 0.0625 0.734375q0.078125 0.15625 0.234375 0.25q0.15625 0.09375 0.4375 0.09375q0.234375 0 0.59375 -0.046875zm0.6970215 -2.71875q0 -2.15625 1.203125 -3.203125q1.0 -0.859375 2.4375 -0.859375q1.609375 0 2.625 1.046875q1.015625 1.046875 1.015625 2.90625q0 1.5 -0.453125 2.359375q-0.4375 0.859375 -1.3125 1.34375q-0.859375 0.46875 -1.875 0.46875q-1.625 0 -2.640625 -1.046875q-1.0 -1.046875 -1.0 -3.015625zm1.359375 0q0 1.5 0.640625 2.25q0.65625 0.734375 1.640625 0.734375q0.984375 0 1.640625 -0.75q0.65625 -0.75 0.65625 -2.28125q0 -1.4375 -0.65625 -2.171875q-0.65625 -0.75 -1.640625 -0.75q-0.984375 0 -1.640625 0.734375q-0.640625 0.734375 -0.640625 2.234375zm6.791748 0q0 -2.15625 1.203125 -3.203125q1.0 -0.859375 2.4375 -0.859375q1.609375 0 2.625 1.046875q1.015625 1.046875 1.015625 2.90625q0 1.5 -0.453125 2.359375q-0.4375 0.859375 -1.3125 1.34375q-0.859375 0.46875 -1.875 0.46875q-1.625 0 -2.640625 -1.046875q-1.0 -1.046875 -1.0 -3.015625zm1.359375 0q0 1.5 0.640625 2.25q0.65625 0.734375 1.640625 0.734375q0.984375 0 1.640625 -0.75q0.65625 -0.75 0.65625 -2.28125q0 -1.4375 -0.65625 -2.171875q-0.65625 -0.75 -1.640625 -0.75q-0.984375 0 -1.640625 0.734375q-0.640625 0.734375 -0.640625 2.234375zm7.244873 3.890625l0 -10.734375l1.328125 0l0 10.734375l-1.328125 0zm2.7717285 -2.328125l1.296875 -0.203125q0.109375 0.78125 0.609375 1.203125q0.5 0.421875 1.40625 0.421875q0.90625 0 1.34375 -0.359375q0.4375 -0.375 0.4375 -0.875q0 -0.453125 -0.390625 -0.703125q-0.265625 -0.1875 -1.34375 -0.453125q-1.453125 -0.359375 -2.015625 -0.625q-0.546875 -0.28125 -0.84375 -0.75q-0.28125 -0.46875 -0.28125 -1.046875q0 -0.515625 0.234375 -0.953125q0.234375 -0.453125 0.640625 -0.734375q0.3125 -0.234375 0.84375 -0.390625q0.53125 -0.15625 1.140625 -0.15625q0.90625 0 1.59375 0.265625q0.703125 0.265625 1.03125 0.71875q0.328125 0.4375 0.453125 1.203125l-1.28125 0.171875q-0.09375 -0.609375 -0.515625 -0.9375q-0.421875 -0.34375 -1.1875 -0.34375q-0.90625 0 -1.296875 0.3125q-0.390625 0.296875 -0.390625 0.703125q0 0.25 0.15625 0.453125q0.171875 0.21875 0.515625 0.359375q0.1875 0.0625 1.15625 0.328125q1.40625 0.375 1.953125 0.609375q0.5625 0.234375 0.875 0.703125q0.3125 0.453125 0.3125 1.125q0 0.65625 -0.390625 1.234375q-0.375 0.578125 -1.109375 0.90625q-0.71875 0.3125 -1.640625 0.3125q-1.515625 0 -2.3125 -0.625q-0.78125 -0.625 -1.0 -1.875z" fill-rule="nonzero"></path></g></svg>

