<?xml version="1.0" standalone="yes"?>

<svg version="1.1" viewBox="0.0 0.0 1202.286089238845 709.7139107611548" fill="none" stroke="none" stroke-linecap="square" stroke-miterlimit="10" xmlns="http://www.w3.org/2000/svg" xmlns:xlink="http://www.w3.org/1999/xlink"><clipPath id="p.0"><path d="m0 0l1202.2861 0l0 709.7139l-1202.2861 0l0 -709.7139z" clip-rule="nonzero"></path></clipPath><g clip-path="url(#p.0)"><path fill="#000000" fill-opacity="0.0" d="m0 0l1202.2861 0l0 709.7139l-1202.2861 0z" fill-rule="evenodd"></path><path fill="#cfe2f3" d="m157.49475 302.5735l58.92914 0l0 60.3515l-9.821716 9.821716l-49.10742 0z" fill-rule="evenodd"></path><path fill="#a5b4c2" d="m206.60217 372.7467l1.9643402 -7.857361l7.857376 -1.9643555z" fill-rule="evenodd"></path><path fill="#000000" fill-opacity="0.0" d="m206.60217 372.7467l1.9643402 -7.857361l7.857376 -1.9643555l-9.821716 9.821716l-49.10742 0l0 -70.17322l58.92914 0l0 60.3515" fill-rule="evenodd"></path><path stroke="#000000" stroke-width="2.0" stroke-linejoin="round" stroke-linecap="butt" d="m206.60217 372.7467l1.9643402 -7.857361l7.857376 -1.9643555l-9.821716 9.821716l-49.10742 0l0 -70.17322l58.92914 0l0 60.3515" fill-rule="evenodd"></path><path fill="#000000" d="m171.9635 327.37738l1.1875 0.140625q-0.28125 1.046875 -1.046875 1.625q-0.75 0.5625 -1.921875 0.5625q-1.484375 0 -2.359375 -0.90625q-0.859375 -0.921875 -0.859375 -2.5625q0 -1.703125 0.875 -2.640625q0.890625 -0.9375 2.28125 -0.9375q1.359375 0 2.203125 0.921875q0.859375 0.921875 0.859375 2.578125q0 0.109375 0 0.3125l-5.03125 0q0.0625 1.109375 0.625 1.703125q0.5625 0.59375 1.40625 0.59375q0.640625 0 1.078125 -0.328125q0.453125 -0.34375 0.703125 -1.0625zm-3.75 -1.84375l3.765625 0q-0.078125 -0.859375 -0.4375 -1.28125q-0.546875 -0.65625 -1.40625 -0.65625q-0.796875 0 -1.328125 0.53125q-0.53125 0.515625 -0.59375 1.40625zm8.428101 4.015625l-2.5625 -6.734375l1.203125 0l1.4375 4.03125q0.234375 0.65625 0.4375 1.359375q0.15625 -0.53125 0.421875 -1.28125l1.5 -4.109375l1.171875 0l-2.546875 6.734375l-1.0625 0zm9.3984375 -2.171875l1.1875 0.140625q-0.28125 1.046875 -1.046875 1.625q-0.75 0.5625 -1.921875 0.5625q-1.484375 0 -2.359375 -0.90625q-0.859375 -0.921875 -0.859375 -2.5625q0 -1.703125 0.875 -2.640625q0.890625 -0.9375 2.28125 -0.9375q1.359375 0 2.203125 0.921875q0.859375 0.921875 0.859375 2.578125q0 0.109375 0 0.3125l-5.03125 0q0.0625 1.109375 0.625 1.703125q0.5625 0.59375 1.40625 0.59375q0.640625 0 1.078125 -0.328125q0.453125 -0.34375 0.703125 -1.0625zm-3.75 -1.84375l3.765625 0q-0.078125 -0.859375 -0.4375 -1.28125q-0.546875 -0.65625 -1.40625 -0.65625q-0.796875 0 -1.328125 0.53125q-0.53125 0.515625 -0.59375 1.40625zm6.5531006 4.015625l0 -6.734375l1.03125 0l0 0.953125q0.734375 -1.109375 2.140625 -1.109375q0.609375 0 1.109375 0.21875q0.515625 0.21875 0.765625 0.578125q0.265625 0.34375 0.359375 0.84375q0.0625 0.3125 0.0625 1.109375l0 4.140625l-1.140625 0l0 -4.09375q0 -0.703125 -0.140625 -1.046875q-0.125 -0.34375 -0.46875 -0.546875q-0.328125 -0.21875 -0.78125 -0.21875q-0.734375 0 -1.265625 0.46875q-0.53125 0.453125 -0.53125 1.75l0 3.6875l-1.140625 0zm9.912476 -1.015625l0.15625 1.0q-0.484375 0.109375 -0.859375 0.109375q-0.625 0 -0.96875 -0.203125q-0.34375 -0.203125 -0.484375 -0.515625q-0.140625 -0.328125 -0.140625 -1.34375l0 -3.890625l-0.828125 0l0 -0.875l0.828125 0l0 -1.671875l1.140625 -0.6875l0 2.359375l1.15625 0l0 0.875l-1.15625 0l0 3.953125q0 0.484375 0.0625 0.625q0.0625 0.140625 0.1875 0.21875q0.140625 0.078125 0.390625 0.078125q0.203125 0 0.515625 -0.03125z" fill-rule="nonzero"></path><path fill="#000000" d="m167.32288 345.54926l0 -9.3125l1.140625 0l0 9.3125l-1.140625 0zm2.570465 -3.375q0 -1.875 1.03125 -2.765625q0.875 -0.75 2.125 -0.75q1.390625 0 2.265625 0.90625q0.890625 0.90625 0.890625 2.515625q0 1.296875 -0.390625 2.046875q-0.390625 0.75 -1.140625 1.171875q-0.75 0.40625 -1.625 0.40625q-1.421875 0 -2.296875 -0.90625q-0.859375 -0.90625 -0.859375 -2.625zm1.171875 0q0 1.296875 0.5625 1.953125q0.5625 0.640625 1.421875 0.640625q0.84375 0 1.40625 -0.640625q0.578125 -0.65625 0.578125 -1.984375q0 -1.25 -0.578125 -1.890625q-0.5625 -0.65625 -1.40625 -0.65625q-0.859375 0 -1.421875 0.640625q-0.5625 0.640625 -0.5625 1.9375zm6.4437256 3.9375l1.125 0.15625q0.0625 0.515625 0.375 0.75q0.4375 0.328125 1.171875 0.328125q0.78125 0 1.21875 -0.328125q0.4375 -0.3125 0.578125 -0.890625q0.09375 -0.34375 0.09375 -1.453125q-0.75 0.875 -1.875 0.875q-1.390625 0 -2.15625 -1.0q-0.75 -1.0 -0.75 -2.40625q0 -0.96875 0.34375 -1.78125q0.359375 -0.8125 1.015625 -1.25q0.65625 -0.453125 1.5625 -0.453125q1.1875 0 1.96875 0.96875l0 -0.8125l1.046875 0l0 5.8125q0 1.578125 -0.328125 2.234375q-0.3125 0.65625 -1.015625 1.03125q-0.6875 0.390625 -1.703125 0.390625q-1.203125 0 -1.953125 -0.546875q-0.734375 -0.53125 -0.71875 -1.625zm0.953125 -4.046875q0 1.3125 0.515625 1.921875q0.53125 0.609375 1.328125 0.609375q0.796875 0 1.328125 -0.59375q0.53125 -0.609375 0.53125 -1.90625q0 -1.234375 -0.546875 -1.859375q-0.546875 -0.640625 -1.328125 -0.640625q-0.765625 0 -1.296875 0.625q-0.53125 0.625 -0.53125 1.84375z" fill-rule="nonzero"></path><path fill="#000000" fill-opacity="0.0" d="m277.36877 361.62073l50.11023 0.06298828" fill-rule="evenodd"></path><path stroke="#000000" stroke-width="2.0" stroke-linejoin="round" stroke-linecap="butt" d="m277.36877 361.62073l38.11023 0.047912598" fill-rule="evenodd"></path><path fill="#000000" stroke="#000000" stroke-width="2.0" stroke-linecap="butt" d="m315.47485 364.9721l9.080353 -3.2920532l-9.072052 -3.3148804z" fill-rule="evenodd"></path><path fill="#cfe2f3" d="m386.78842 306.87195l0 0c0 -15.136688 12.270691 -27.40738 27.40738 -27.40738l162.88605 0c7.26886 0 14.240051 2.8875427 19.379944 8.027435c5.1398315 5.139862 8.027405 12.111053 8.027405 19.379944l0 109.62619c0 15.136688 -12.270691 27.40738 -27.407349 27.40738l-162.88605 0l0 0c-15.136688 0 -27.40738 -12.270691 -27.40738 -27.40738z" fill-rule="evenodd"></path><path stroke="#000000" stroke-width="2.0" stroke-linejoin="round" stroke-linecap="butt" d="m386.78842 306.87195l0 0c0 -15.136688 12.270691 -27.40738 27.40738 -27.40738l162.88605 0c7.26886 0 14.240051 2.8875427 19.379944 8.027435c5.1398315 5.139862 8.027405 12.111053 8.027405 19.379944l0 109.62619c0 15.136688 -12.270691 27.40738 -27.407349 27.40738l-162.88605 0l0 0c-15.136688 0 -27.40738 -12.270691 -27.40738 -27.40738z" fill-rule="evenodd"></path><path fill="#cfe2f3" d="m491.7743 349.89383l0 0c0 -3.2557983 2.6393127 -5.8951416 5.895111 -5.8951416l87.32785 0c1.5634766 0 3.0629272 0.62109375 4.168518 1.726654c1.1055298 1.1055298 1.7266235 2.6049805 1.7266235 4.1684875l0 23.579803c0 3.2557983 -2.6393433 5.8951416 -5.8951416 5.8951416l-87.32785 0c-3.2557983 0 -5.895111 -2.6393433 -5.895111 -5.8951416z" fill-rule="evenodd"></path><path stroke="#000000" stroke-width="2.0" stroke-linejoin="round" stroke-linecap="butt" d="m491.7743 349.89383l0 0c0 -3.2557983 2.6393127 -5.8951416 5.895111 -5.8951416l87.32785 0c1.5634766 0 3.0629272 0.62109375 4.168518 1.726654c1.1055298 1.1055298 1.7266235 2.6049805 1.7266235 4.1684875l0 23.579803c0 3.2557983 -2.6393433 5.8951416 -5.8951416 5.8951416l-87.32785 0c-3.2557983 0 -5.895111 -2.6393433 -5.895111 -5.8951416z" fill-rule="evenodd"></path><path fill="#000000" d="m507.7353 366.48373l0 -0.84375q-0.640625 1.0 -1.890625 1.0q-0.796875 0 -1.484375 -0.4375q-0.671875 -0.453125 -1.046875 -1.25q-0.375 -0.796875 -0.375 -1.828125q0 -1.015625 0.34375 -1.828125q0.34375 -0.828125 1.015625 -1.265625q0.671875 -0.4375 1.5 -0.4375q0.609375 0 1.078125 0.265625q0.484375 0.25 0.78125 0.65625l0 -3.34375l1.140625 0l0 9.3125l-1.0625 0zm-3.609375 -3.359375q0 1.296875 0.53125 1.9375q0.546875 0.640625 1.296875 0.640625q0.75 0 1.265625 -0.609375q0.53125 -0.625 0.53125 -1.875q0 -1.390625 -0.53125 -2.03125q-0.53125 -0.65625 -1.3125 -0.65625q-0.765625 0 -1.28125 0.625q-0.5 0.625 -0.5 1.96875zm11.256226 1.1875l1.1875 0.140625q-0.28125 1.046875 -1.046875 1.625q-0.75 0.5625 -1.921875 0.5625q-1.484375 0 -2.359375 -0.90625q-0.859375 -0.921875 -0.859375 -2.5625q0 -1.703125 0.875 -2.640625q0.890625 -0.9375 2.28125 -0.9375q1.359375 0 2.203125 0.921875q0.859375 0.921875 0.859375 2.578125q0 0.109375 0 0.3125l-5.03125 0q0.0625 1.109375 0.625 1.703125q0.5625 0.59375 1.40625 0.59375q0.640625 0 1.078125 -0.328125q0.453125 -0.34375 0.703125 -1.0625zm-3.75 -1.84375l3.765625 0q-0.078125 -0.859375 -0.4375 -1.28125q-0.546875 -0.65625 -1.40625 -0.65625q-0.796875 0 -1.328125 0.53125q-0.53125 0.515625 -0.59375 1.40625zm10.943726 1.546875l1.125 0.140625q-0.171875 1.171875 -0.9375 1.828125q-0.765625 0.65625 -1.859375 0.65625q-1.390625 0 -2.234375 -0.90625q-0.828125 -0.90625 -0.828125 -2.59375q0 -1.09375 0.359375 -1.90625q0.359375 -0.828125 1.09375 -1.234375q0.734375 -0.40625 1.609375 -0.40625q1.09375 0 1.796875 0.5625q0.703125 0.546875 0.890625 1.5625l-1.109375 0.171875q-0.15625 -0.671875 -0.5625 -1.015625q-0.390625 -0.34375 -0.96875 -0.34375q-0.859375 0 -1.40625 0.625q-0.53125 0.609375 -0.53125 1.953125q0 1.359375 0.515625 1.984375q0.515625 0.609375 1.359375 0.609375q0.671875 0 1.125 -0.40625q0.453125 -0.421875 0.5625 -1.28125zm1.8515625 -0.90625q0 -1.875 1.03125 -2.765625q0.875 -0.75 2.125 -0.75q1.390625 0 2.265625 0.90625q0.890625 0.90625 0.890625 2.515625q0 1.296875 -0.390625 2.046875q-0.390625 0.75 -1.140625 1.171875q-0.75 0.40625 -1.625 0.40625q-1.421875 0 -2.296875 -0.90625q-0.859375 -0.90625 -0.859375 -2.625zm1.171875 0q0 1.296875 0.5625 1.953125q0.5625 0.640625 1.421875 0.640625q0.84375 0 1.40625 -0.640625q0.578125 -0.65625 0.578125 -1.984375q0 -1.25 -0.578125 -1.890625q-0.5625 -0.65625 -1.40625 -0.65625q-0.859375 0 -1.421875 0.640625q-0.5625 0.640625 -0.5625 1.9375zm6.6468506 3.375l0 -6.734375l1.03125 0l0 1.015625q0.390625 -0.71875 0.71875 -0.9375q0.34375 -0.234375 0.734375 -0.234375q0.578125 0 1.171875 0.359375l-0.390625 1.0625q-0.421875 -0.25 -0.828125 -0.25q-0.375 0 -0.6875 0.234375q-0.296875 0.21875 -0.421875 0.625q-0.1875 0.609375 -0.1875 1.328125l0 3.53125l-1.140625 0zm8.8446045 -0.828125q-0.625 0.53125 -1.21875 0.765625q-0.578125 0.21875 -1.25 0.21875q-1.125 0 -1.71875 -0.546875q-0.59375 -0.546875 -0.59375 -1.390625q0 -0.484375 0.21875 -0.890625q0.234375 -0.421875 0.59375 -0.671875q0.375 -0.25 0.828125 -0.375q0.328125 -0.078125 1.015625 -0.171875q1.375 -0.15625 2.03125 -0.390625q0.015625 -0.234375 0.015625 -0.296875q0 -0.703125 -0.328125 -0.984375q-0.4375 -0.390625 -1.296875 -0.390625q-0.8125 0 -1.203125 0.28125q-0.375 0.28125 -0.5625 1.0l-1.109375 -0.140625q0.140625 -0.71875 0.484375 -1.15625q0.359375 -0.453125 1.015625 -0.6875q0.671875 -0.234375 1.53125 -0.234375q0.875 0 1.40625 0.203125q0.546875 0.203125 0.796875 0.515625q0.25 0.296875 0.359375 0.765625q0.046875 0.296875 0.046875 1.0625l0 1.515625q0 1.59375 0.078125 2.015625q0.078125 0.421875 0.28125 0.8125l-1.1875 0q-0.171875 -0.359375 -0.234375 -0.828125zm-0.09375 -2.5625q-0.625 0.265625 -1.859375 0.4375q-0.703125 0.109375 -1.0 0.234375q-0.296875 0.125 -0.453125 0.375q-0.15625 0.234375 -0.15625 0.53125q0 0.453125 0.34375 0.765625q0.34375 0.296875 1.015625 0.296875q0.65625 0 1.171875 -0.28125q0.515625 -0.296875 0.765625 -0.796875q0.171875 -0.375 0.171875 -1.140625l0 -0.421875zm5.6156006 2.375l0.15625 1.0q-0.484375 0.109375 -0.859375 0.109375q-0.625 0 -0.96875 -0.203125q-0.34375 -0.203125 -0.484375 -0.515625q-0.140625 -0.328125 -0.140625 -1.34375l0 -3.890625l-0.828125 0l0 -0.875l0.828125 0l0 -1.671875l1.140625 -0.6875l0 2.359375l1.15625 0l0 0.875l-1.15625 0l0 3.953125q0 0.484375 0.0625 0.625q0.0625 0.140625 0.1875 0.21875q0.140625 0.078125 0.390625 0.078125q0.203125 0 0.515625 -0.03125zm1.2030029 -6.96875l0 -1.328125l1.140625 0l0 1.328125l-1.140625 0zm0 7.984375l0 -6.734375l1.140625 0l0 6.734375l-1.140625 0zm2.5391846 -3.375q0 -1.875 1.03125 -2.765625q0.875 -0.75 2.125 -0.75q1.390625 0 2.265625 0.90625q0.890625 0.90625 0.890625 2.515625q0 1.296875 -0.390625 2.046875q-0.390625 0.75 -1.140625 1.171875q-0.75 0.40625 -1.625 0.40625q-1.421875 0 -2.296875 -0.90625q-0.859375 -0.90625 -0.859375 -2.625zm1.171875 0q0 1.296875 0.5625 1.953125q0.5625 0.640625 1.421875 0.640625q0.84375 0 1.40625 -0.640625q0.578125 -0.65625 0.578125 -1.984375q0 -1.25 -0.578125 -1.890625q-0.5625 -0.65625 -1.40625 -0.65625q-0.859375 0 -1.421875 0.640625q-0.5625 0.640625 -0.5625 1.9375zm6.6624756 3.375l0 -6.734375l1.03125 0l0 0.953125q0.734375 -1.109375 2.140625 -1.109375q0.609375 0 1.109375 0.21875q0.515625 0.21875 0.765625 0.578125q0.265625 0.34375 0.359375 0.84375q0.0625 0.3125 0.0625 1.109375l0 4.140625l-1.140625 0l0 -4.09375q0 -0.703125 -0.140625 -1.046875q-0.125 -0.34375 -0.46875 -0.546875q-0.328125 -0.21875 -0.78125 -0.21875q-0.734375 0 -1.265625 0.46875q-0.53125 0.453125 -0.53125 1.75l0 3.6875l-1.140625 0z" fill-rule="nonzero"></path><path fill="#cfe2f3" d="m423.01486 337.5761l-76.42868 0c-10.552612 0 -19.107178 10.793335 -19.107178 24.107605c0 13.31427 8.554565 24.107635 19.107178 24.107635l76.42868 0l0 0c10.552612 0 19.107178 -10.7933655 19.107178 -24.107635c0 -13.31427 -8.554565 -24.107605 -19.107178 -24.107605z" fill-rule="evenodd"></path><path fill="#000000" fill-opacity="0.0" d="m346.58618 385.79135c10.552582 0 19.107178 -10.7933655 19.107178 -24.107635c0 -13.31427 -8.554596 -24.107605 -19.107178 -24.107605" fill-rule="evenodd"></path><path fill="#000000" fill-opacity="0.0" d="m423.01486 337.5761l-76.42868 0c-10.552612 0 -19.107178 10.793335 -19.107178 24.107605c0 13.31427 8.554565 24.107635 19.107178 24.107635l76.42868 0l0 0c10.552612 0 19.107178 -10.7933655 19.107178 -24.107635c0 -13.31427 -8.554565 -24.107605 -19.107178 -24.107605z" fill-rule="evenodd"></path><path stroke="#000000" stroke-width="2.0" stroke-linejoin="round" stroke-linecap="butt" d="m346.58618 385.79135c10.552582 0 19.107178 -10.7933655 19.107178 -24.107635c0 -13.31427 -8.554596 -24.107605 -19.107178 -24.107605" fill-rule="evenodd"></path><path stroke="#000000" stroke-width="2.0" stroke-linejoin="round" stroke-linecap="butt" d="m423.01486 337.5761l-76.42868 0c-10.552612 0 -19.107178 10.793335 -19.107178 24.107605c0 13.31427 8.554565 24.107635 19.107178 24.107635l76.42868 0l0 0c10.552612 0 19.107178 -10.7933655 19.107178 -24.107635c0 -13.31427 -8.554565 -24.107605 -19.107178 -24.107605z" fill-rule="evenodd"></path><path fill="#000000" d="m379.8496 369.06186l0 -3.296875q-0.265625 0.375 -0.75 0.625q-0.484375 0.25 -1.015625 0.25q-1.203125 0 -2.078125 -0.953125q-0.859375 -0.96875 -0.859375 -2.640625q0 -1.015625 0.34375 -1.8125q0.359375 -0.8125 1.03125 -1.21875q0.671875 -0.421875 1.46875 -0.421875q1.25 0 1.96875 1.046875l0 -0.890625l1.03125 0l0 9.3125l-1.140625 0zm-3.53125 -5.96875q0 1.296875 0.546875 1.953125q0.546875 0.65625 1.3125 0.65625q0.734375 0 1.25 -0.625q0.53125 -0.625 0.53125 -1.875q0 -1.359375 -0.5625 -2.03125q-0.546875 -0.6875 -1.296875 -0.6875q-0.734375 0 -1.265625 0.640625q-0.515625 0.625 -0.515625 1.96875zm11.068726 3.390625l0 -0.984375q-0.796875 1.140625 -2.140625 1.140625q-0.59375 0 -1.125 -0.234375q-0.515625 -0.234375 -0.765625 -0.578125q-0.25 -0.34375 -0.34375 -0.84375q-0.078125 -0.328125 -0.078125 -1.0625l0 -4.171875l1.140625 0l0 3.734375q0 0.890625 0.078125 1.203125q0.109375 0.453125 0.453125 0.71875q0.34375 0.25 0.859375 0.25q0.515625 0 0.96875 -0.265625q0.453125 -0.265625 0.640625 -0.71875q0.1875 -0.453125 0.1875 -1.3125l0 -3.609375l1.140625 0l0 6.734375l-1.015625 0zm7.5999756 -2.171875l1.1875 0.140625q-0.28125 1.046875 -1.046875 1.625q-0.75 0.5625 -1.921875 0.5625q-1.484375 0 -2.359375 -0.90625q-0.859375 -0.921875 -0.859375 -2.5625q0 -1.703125 0.875 -2.640625q0.890625 -0.9375 2.28125 -0.9375q1.359375 0 2.203125 0.921875q0.859375 0.921875 0.859375 2.578125q0 0.109375 0 0.3125l-5.03125 0q0.0625 1.109375 0.625 1.703125q0.5625 0.59375 1.40625 0.59375q0.640625 0 1.078125 -0.328125q0.453125 -0.34375 0.703125 -1.0625zm-3.75 -1.84375l3.765625 0q-0.078125 -0.859375 -0.4375 -1.28125q-0.546875 -0.65625 -1.40625 -0.65625q-0.796875 0 -1.328125 0.53125q-0.53125 0.515625 -0.59375 1.40625zm10.974976 4.015625l0 -0.984375q-0.796875 1.140625 -2.140625 1.140625q-0.59375 0 -1.125 -0.234375q-0.515625 -0.234375 -0.765625 -0.578125q-0.25 -0.34375 -0.34375 -0.84375q-0.078125 -0.328125 -0.078125 -1.0625l0 -4.171875l1.140625 0l0 3.734375q0 0.890625 0.078125 1.203125q0.109375 0.453125 0.453125 0.71875q0.34375 0.25 0.859375 0.25q0.515625 0 0.96875 -0.265625q0.453125 -0.265625 0.640625 -0.71875q0.1875 -0.453125 0.1875 -1.3125l0 -3.609375l1.140625 0l0 6.734375l-1.015625 0zm7.5999756 -2.171875l1.1875 0.140625q-0.28125 1.046875 -1.046875 1.625q-0.75 0.5625 -1.921875 0.5625q-1.484375 0 -2.359375 -0.90625q-0.859375 -0.921875 -0.859375 -2.5625q0 -1.703125 0.875 -2.640625q0.890625 -0.9375 2.28125 -0.9375q1.359375 0 2.203125 0.921875q0.859375 0.921875 0.859375 2.578125q0 0.109375 0 0.3125l-5.03125 0q0.0625 1.109375 0.625 1.703125q0.5625 0.59375 1.40625 0.59375q0.640625 0 1.078125 -0.328125q0.453125 -0.34375 0.703125 -1.0625zm-3.75 -1.84375l3.765625 0q-0.078125 -0.859375 -0.4375 -1.28125q-0.546875 -0.65625 -1.40625 -0.65625q-0.796875 0 -1.328125 0.53125q-0.53125 0.515625 -0.59375 1.40625z" fill-rule="nonzero"></path><path fill="#000000" fill-opacity="0.0" d="m442.12204 361.68372l49.637817 0" fill-rule="evenodd"></path><path stroke="#000000" stroke-width="2.0" stroke-linejoin="round" stroke-linecap="butt" d="m442.12204 361.68372l37.637817 0" fill-rule="evenodd"></path><path fill="#000000" stroke="#000000" stroke-width="2.0" stroke-linecap="butt" d="m479.75986 364.98718l9.076172 -3.3034668l-9.076172 -3.3034668z" fill-rule="evenodd"></path><path fill="#000000" fill-opacity="0.0" d="m394.96063 288.22308l183.40155 0l0 40.724426l-183.40155 0z" fill-rule="evenodd"></path><path fill="#000000" d="m404.53876 307.03873l1.171875 -0.109375q0.078125 0.703125 0.375 1.15625q0.3125 0.4375 0.9375 0.71875q0.640625 0.265625 1.4375 0.265625q0.703125 0 1.234375 -0.203125q0.546875 -0.203125 0.8125 -0.5625q0.265625 -0.375 0.265625 -0.8125q0 -0.4375 -0.265625 -0.765625q-0.25 -0.328125 -0.828125 -0.546875q-0.375 -0.140625 -1.65625 -0.453125q-1.28125 -0.3125 -1.796875 -0.578125q-0.671875 -0.34375 -1.0 -0.859375q-0.328125 -0.53125 -0.328125 -1.171875q0 -0.703125 0.390625 -1.3125q0.40625 -0.609375 1.171875 -0.921875q0.78125 -0.328125 1.71875 -0.328125q1.03125 0 1.8125 0.34375q0.796875 0.328125 1.21875 0.984375q0.4375 0.640625 0.46875 1.453125l-1.1875 0.09375q-0.09375 -0.890625 -0.640625 -1.328125q-0.546875 -0.453125 -1.625 -0.453125q-1.109375 0 -1.625 0.40625q-0.515625 0.40625 -0.515625 0.984375q0 0.5 0.359375 0.828125q0.359375 0.328125 1.859375 0.671875q1.5 0.328125 2.0625 0.578125q0.8125 0.375 1.1875 0.953125q0.390625 0.578125 0.390625 1.328125q0 0.734375 -0.421875 1.390625q-0.421875 0.65625 -1.21875 1.03125q-0.796875 0.359375 -1.796875 0.359375q-1.265625 0 -2.125 -0.359375q-0.84375 -0.375 -1.328125 -1.109375q-0.484375 -0.75 -0.515625 -1.671875zm11.67099 1.96875l0.15625 1.0q-0.484375 0.109375 -0.859375 0.109375q-0.625 0 -0.96875 -0.203125q-0.34375 -0.203125 -0.484375 -0.515625q-0.140625 -0.328125 -0.140625 -1.34375l0 -3.890625l-0.828125 0l0 -0.875l0.828125 0l0 -1.671875l1.140625 -0.6875l0 2.359375l1.15625 0l0 0.875l-1.15625 0l0 3.953125q0 0.484375 0.0625 0.625q0.0625 0.140625 0.1875 0.21875q0.140625 0.078125 0.390625 0.078125q0.203125 0 0.515625 -0.03125zm1.1873779 1.015625l0 -6.734375l1.03125 0l0 1.015625q0.390625 -0.71875 0.71875 -0.9375q0.34375 -0.234375 0.734375 -0.234375q0.578125 0 1.171875 0.359375l-0.390625 1.0625q-0.421875 -0.25 -0.828125 -0.25q-0.375 0 -0.6875 0.234375q-0.296875 0.21875 -0.421875 0.625q-0.1875 0.609375 -0.1875 1.328125l0 3.53125l-1.140625 0zm9.0633545 -2.171875l1.1875 0.140625q-0.28125 1.046875 -1.046875 1.625q-0.75 0.5625 -1.921875 0.5625q-1.484375 0 -2.359375 -0.90625q-0.859375 -0.921875 -0.859375 -2.5625q0 -1.703125 0.875 -2.640625q0.890625 -0.9375 2.28125 -0.9375q1.359375 0 2.203125 0.921875q0.859375 0.921875 0.859375 2.578125q0 0.109375 0 0.3125l-5.03125 0q0.0625 1.109375 0.625 1.703125q0.5625 0.59375 1.40625 0.59375q0.640625 0 1.078125 -0.328125q0.453125 -0.34375 0.703125 -1.0625zm-3.75 -1.84375l3.765625 0q-0.078125 -0.859375 -0.4375 -1.28125q-0.546875 -0.65625 -1.40625 -0.65625q-0.796875 0 -1.328125 0.53125q-0.53125 0.515625 -0.59375 1.40625zm10.943726 3.1875q-0.625 0.53125 -1.21875 0.765625q-0.578125 0.21875 -1.25 0.21875q-1.125 0 -1.71875 -0.546875q-0.59375 -0.546875 -0.59375 -1.390625q0 -0.484375 0.21875 -0.890625q0.234375 -0.421875 0.59375 -0.671875q0.375 -0.25 0.828125 -0.375q0.328125 -0.078125 1.015625 -0.171875q1.375 -0.15625 2.03125 -0.390625q0.015625 -0.234375 0.015625 -0.296875q0 -0.703125 -0.328125 -0.984375q-0.4375 -0.390625 -1.296875 -0.390625q-0.8125 0 -1.203125 0.28125q-0.375 0.28125 -0.5625 1.0l-1.109375 -0.140625q0.140625 -0.71875 0.484375 -1.15625q0.359375 -0.453125 1.015625 -0.6875q0.671875 -0.234375 1.53125 -0.234375q0.875 0 1.40625 0.203125q0.546875 0.203125 0.796875 0.515625q0.25 0.296875 0.359375 0.765625q0.046875 0.296875 0.046875 1.0625l0 1.515625q0 1.59375 0.078125 2.015625q0.078125 0.421875 0.28125 0.8125l-1.1875 0q-0.171875 -0.359375 -0.234375 -0.828125zm-0.09375 -2.5625q-0.625 0.265625 -1.859375 0.4375q-0.703125 0.109375 -1.0 0.234375q-0.296875 0.125 -0.453125 0.375q-0.15625 0.234375 -0.15625 0.53125q0 0.453125 0.34375 0.765625q0.34375 0.296875 1.015625 0.296875q0.65625 0 1.171875 -0.28125q0.515625 -0.296875 0.765625 -0.796875q0.171875 -0.375 0.171875 -1.140625l0 -0.421875zm3.1156006 3.390625l0 -6.734375l1.015625 0l0 0.9375q0.328125 -0.5 0.84375 -0.796875q0.53125 -0.296875 1.203125 -0.296875q0.75 0 1.21875 0.3125q0.484375 0.3125 0.6875 0.859375q0.796875 -1.171875 2.078125 -1.171875q1.0 0 1.53125 0.5625q0.546875 0.546875 0.546875 1.703125l0 4.625l-1.125 0l0 -4.25q0 -0.6875 -0.109375 -0.984375q-0.109375 -0.296875 -0.40625 -0.484375q-0.296875 -0.1875 -0.6875 -0.1875q-0.71875 0 -1.1875 0.484375q-0.46875 0.46875 -0.46875 1.5l0 3.921875l-1.140625 0l0 -4.375q0 -0.765625 -0.28125 -1.140625q-0.28125 -0.390625 -0.90625 -0.390625q-0.484375 0 -0.890625 0.265625q-0.40625 0.25 -0.59375 0.734375q-0.1875 0.484375 -0.1875 1.40625l0 3.5l-1.140625 0zm11.1024475 -7.984375l0 -1.328125l1.140625 0l0 1.328125l-1.140625 0zm0 7.984375l0 -6.734375l1.140625 0l0 6.734375l-1.140625 0zm2.96109 0l0 -6.734375l1.03125 0l0 0.953125q0.734375 -1.109375 2.140625 -1.109375q0.609375 0 1.109375 0.21875q0.515625 0.21875 0.765625 0.578125q0.265625 0.34375 0.359375 0.84375q0.0625 0.3125 0.0625 1.109375l0 4.140625l-1.140625 0l0 -4.09375q0 -0.703125 -0.140625 -1.046875q-0.125 -0.34375 -0.46875 -0.546875q-0.328125 -0.21875 -0.78125 -0.21875q-0.734375 0 -1.265625 0.46875q-0.53125 0.453125 -0.53125 1.75l0 3.6875l-1.140625 0zm7.1937256 0.5625l1.125 0.15625q0.0625 0.515625 0.375 0.75q0.4375 0.328125 1.171875 0.328125q0.78125 0 1.21875 -0.328125q0.4375 -0.3125 0.578125 -0.890625q0.09375 -0.34375 0.09375 -1.453125q-0.75 0.875 -1.875 0.875q-1.390625 0 -2.15625 -1.0q-0.75 -1.0 -0.75 -2.40625q0 -0.96875 0.34375 -1.78125q0.359375 -0.8125 1.015625 -1.25q0.65625 -0.453125 1.5625 -0.453125q1.1875 0 1.96875 0.96875l0 -0.8125l1.046875 0l0 5.8125q0 1.578125 -0.328125 2.234375q-0.3125 0.65625 -1.015625 1.03125q-0.6875 0.390625 -1.703125 0.390625q-1.203125 0 -1.953125 -0.546875q-0.734375 -0.53125 -0.71875 -1.625zm0.953125 -4.046875q0 1.3125 0.515625 1.921875q0.53125 0.609375 1.328125 0.609375q0.796875 0 1.328125 -0.59375q0.53125 -0.609375 0.53125 -1.90625q0 -1.234375 -0.546875 -1.859375q-0.546875 -0.640625 -1.328125 -0.640625q-0.765625 0 -1.296875 0.625q-0.53125 0.625 -0.53125 1.84375zm17.162323 0.21875l1.234375 0.3125q-0.390625 1.515625 -1.40625 2.3125q-1.0 0.796875 -2.453125 0.796875q-1.5 0 -2.453125 -0.609375q-0.9375 -0.609375 -1.4375 -1.765625q-0.484375 -1.171875 -0.484375 -2.5q0 -1.453125 0.5625 -2.53125q0.5625 -1.09375 1.578125 -1.65625q1.03125 -0.5625 2.265625 -0.5625q1.390625 0 2.34375 0.71875q0.953125 0.703125 1.328125 2.0l-1.21875 0.28125q-0.328125 -1.015625 -0.9375 -1.46875q-0.609375 -0.46875 -1.546875 -0.46875q-1.078125 0 -1.796875 0.515625q-0.71875 0.515625 -1.015625 1.375q-0.28125 0.859375 -0.28125 1.78125q0 1.1875 0.34375 2.078125q0.34375 0.890625 1.0625 1.328125q0.734375 0.4375 1.59375 0.4375q1.03125 0 1.75 -0.59375q0.71875 -0.609375 0.96875 -1.78125zm2.4220276 -0.109375q0 -1.875 1.03125 -2.765625q0.875 -0.75 2.125 -0.75q1.390625 0 2.265625 0.90625q0.890625 0.90625 0.890625 2.515625q0 1.296875 -0.390625 2.046875q-0.390625 0.75 -1.140625 1.171875q-0.75 0.40625 -1.625 0.40625q-1.421875 0 -2.296875 -0.90625q-0.859375 -0.90625 -0.859375 -2.625zm1.171875 0q0 1.296875 0.5625 1.953125q0.5625 0.640625 1.421875 0.640625q0.84375 0 1.40625 -0.640625q0.578125 -0.65625 0.578125 -1.984375q0 -1.25 -0.578125 -1.890625q-0.5625 -0.65625 -1.40625 -0.65625q-0.859375 0 -1.421875 0.640625q-0.5625 0.640625 -0.5625 1.9375zm6.6624756 3.375l0 -6.734375l1.03125 0l0 0.953125q0.734375 -1.109375 2.140625 -1.109375q0.609375 0 1.109375 0.21875q0.515625 0.21875 0.765625 0.578125q0.265625 0.34375 0.359375 0.84375q0.0625 0.3125 0.0625 1.109375l0 4.140625l-1.140625 0l0 -4.09375q0 -0.703125 -0.140625 -1.046875q-0.125 -0.34375 -0.46875 -0.546875q-0.328125 -0.21875 -0.78125 -0.21875q-0.734375 0 -1.265625 0.46875q-0.53125 0.453125 -0.53125 1.75l0 3.6875l-1.140625 0zm9.912476 -1.015625l0.15625 1.0q-0.484375 0.109375 -0.859375 0.109375q-0.625 0 -0.96875 -0.203125q-0.34375 -0.203125 -0.484375 -0.515625q-0.140625 -0.328125 -0.140625 -1.34375l0 -3.890625l-0.828125 0l0 -0.875l0.828125 0l0 -1.671875l1.140625 -0.6875l0 2.359375l1.15625 0l0 0.875l-1.15625 0l0 3.953125q0 0.484375 0.0625 0.625q0.0625 0.140625 0.1875 0.21875q0.140625 0.078125 0.390625 0.078125q0.203125 0 0.515625 -0.03125zm5.812378 -1.15625l1.1875 0.140625q-0.28125 1.046875 -1.046875 1.625q-0.75 0.5625 -1.921875 0.5625q-1.484375 0 -2.359375 -0.90625q-0.859375 -0.921875 -0.859375 -2.5625q0 -1.703125 0.875 -2.640625q0.890625 -0.9375 2.28125 -0.9375q1.359375 0 2.203125 0.921875q0.859375 0.921875 0.859375 2.578125q0 0.109375 0 0.3125l-5.03125 0q0.0625 1.109375 0.625 1.703125q0.5625 0.59375 1.40625 0.59375q0.640625 0 1.078125 -0.328125q0.453125 -0.34375 0.703125 -1.0625zm-3.75 -1.84375l3.765625 0q-0.078125 -0.859375 -0.4375 -1.28125q-0.546875 -0.65625 -1.40625 -0.65625q-0.796875 0 -1.328125 0.53125q-0.53125 0.515625 -0.59375 1.40625zm5.7874756 4.015625l2.46875 -3.5l-2.28125 -3.234375l1.421875 0l1.046875 1.578125q0.28125 0.453125 0.46875 0.75q0.265625 -0.421875 0.5 -0.734375l1.140625 -1.59375l1.375 0l-2.34375 3.171875l2.515625 3.5625l-1.40625 0l-1.375 -2.09375l-0.375 -0.5625l-1.765625 2.65625l-1.390625 0zm9.929657 -1.015625l0.15625 1.0q-0.484375 0.109375 -0.859375 0.109375q-0.625 0 -0.96875 -0.203125q-0.34371948 -0.203125 -0.48434448 -0.515625q-0.140625 -0.328125 -0.140625 -1.34375l0 -3.890625l-0.828125 0l0 -0.875l0.828125 0l0 -1.671875l1.1405945 -0.6875l0 2.359375l1.15625 0l0 0.875l-1.15625 0l0 3.953125q0 0.484375 0.0625 0.625q0.0625 0.140625 0.1875 0.21875q0.140625 0.078125 0.390625 0.078125q0.203125 0 0.515625 -0.03125z" fill-rule="nonzero"></path><path fill="#cfe2f3" d="m173.49475 318.5735l58.92914 0l0 60.3515l-9.821716 9.821716l-49.10742 0z" fill-rule="evenodd"></path><path fill="#a5b4c2" d="m222.60217 388.7467l1.9643402 -7.857361l7.857376 -1.9643555z" fill-rule="evenodd"></path><path fill="#000000" fill-opacity="0.0" d="m222.60217 388.7467l1.9643402 -7.857361l7.857376 -1.9643555l-9.821716 9.821716l-49.10742 0l0 -70.17322l58.92914 0l0 60.3515" fill-rule="evenodd"></path><path stroke="#000000" stroke-width="2.0" stroke-linejoin="round" stroke-linecap="butt" d="m222.60217 388.7467l1.9643402 -7.857361l7.857376 -1.9643555l-9.821716 9.821716l-49.10742 0l0 -70.17322l58.92914 0l0 60.3515" fill-rule="evenodd"></path><path fill="#000000" d="m187.9635 343.37738l1.1875 0.140625q-0.28125 1.046875 -1.046875 1.625q-0.75 0.5625 -1.921875 0.5625q-1.484375 0 -2.359375 -0.90625q-0.859375 -0.921875 -0.859375 -2.5625q0 -1.703125 0.875 -2.640625q0.890625 -0.9375 2.28125 -0.9375q1.359375 0 2.203125 0.921875q0.859375 0.921875 0.859375 2.578125q0 0.109375 0 0.3125l-5.03125 0q0.0625 1.109375 0.625 1.703125q0.5625 0.59375 1.40625 0.59375q0.640625 0 1.078125 -0.328125q0.453125 -0.34375 0.703125 -1.0625zm-3.75 -1.84375l3.765625 0q-0.078125 -0.859375 -0.4375 -1.28125q-0.546875 -0.65625 -1.40625 -0.65625q-0.796875 0 -1.328125 0.53125q-0.53125 0.515625 -0.59375 1.40625zm8.428101 4.015625l-2.5625 -6.734375l1.203125 0l1.4375 4.03125q0.234375 0.65625 0.4375 1.359375q0.15625 -0.53125 0.421875 -1.28125l1.5 -4.109375l1.171875 0l-2.546875 6.734375l-1.0625 0zm9.3984375 -2.171875l1.1875 0.140625q-0.28125 1.046875 -1.046875 1.625q-0.75 0.5625 -1.921875 0.5625q-1.484375 0 -2.359375 -0.90625q-0.859375 -0.921875 -0.859375 -2.5625q0 -1.703125 0.875 -2.640625q0.890625 -0.9375 2.28125 -0.9375q1.359375 0 2.203125 0.921875q0.859375 0.921875 0.859375 2.578125q0 0.109375 0 0.3125l-5.03125 0q0.0625 1.109375 0.625 1.703125q0.5625 0.59375 1.40625 0.59375q0.640625 0 1.078125 -0.328125q0.453125 -0.34375 0.703125 -1.0625zm-3.75 -1.84375l3.765625 0q-0.078125 -0.859375 -0.4375 -1.28125q-0.546875 -0.65625 -1.40625 -0.65625q-0.796875 0 -1.328125 0.53125q-0.53125 0.515625 -0.59375 1.40625zm6.5531006 4.015625l0 -6.734375l1.03125 0l0 0.953125q0.734375 -1.109375 2.140625 -1.109375q0.609375 0 1.109375 0.21875q0.515625 0.21875 0.765625 0.578125q0.265625 0.34375 0.359375 0.84375q0.0625 0.3125 0.0625 1.109375l0 4.140625l-1.140625 0l0 -4.09375q0 -0.703125 -0.140625 -1.046875q-0.125 -0.34375 -0.46875 -0.546875q-0.328125 -0.21875 -0.78125 -0.21875q-0.734375 0 -1.265625 0.46875q-0.53125 0.453125 -0.53125 1.75l0 3.6875l-1.140625 0zm9.912476 -1.015625l0.15625 1.0q-0.484375 0.109375 -0.859375 0.109375q-0.625 0 -0.96875 -0.203125q-0.34375 -0.203125 -0.484375 -0.515625q-0.140625 -0.328125 -0.140625 -1.34375l0 -3.890625l-0.828125 0l0 -0.875l0.828125 0l0 -1.671875l1.140625 -0.6875l0 2.359375l1.15625 0l0 0.875l-1.15625 0l0 3.953125q0 0.484375 0.0625 0.625q0.0625 0.140625 0.1875 0.21875q0.140625 0.078125 0.390625 0.078125q0.203125 0 0.515625 -0.03125z" fill-rule="nonzero"></path><path fill="#000000" d="m183.32288 361.54926l0 -9.3125l1.140625 0l0 9.3125l-1.140625 0zm2.570465 -3.375q0 -1.875 1.03125 -2.765625q0.875 -0.75 2.125 -0.75q1.390625 0 2.265625 0.90625q0.890625 0.90625 0.890625 2.515625q0 1.296875 -0.390625 2.046875q-0.390625 0.75 -1.140625 1.171875q-0.75 0.40625 -1.625 0.40625q-1.421875 0 -2.296875 -0.90625q-0.859375 -0.90625 -0.859375 -2.625zm1.171875 0q0 1.296875 0.5625 1.953125q0.5625 0.640625 1.421875 0.640625q0.84375 0 1.40625 -0.640625q0.578125 -0.65625 0.578125 -1.984375q0 -1.25 -0.578125 -1.890625q-0.5625 -0.65625 -1.40625 -0.65625q-0.859375 0 -1.421875 0.640625q-0.5625 0.640625 -0.5625 1.9375zm6.4437256 3.9375l1.125 0.15625q0.0625 0.515625 0.375 0.75q0.4375 0.328125 1.171875 0.328125q0.78125 0 1.21875 -0.328125q0.4375 -0.3125 0.578125 -0.890625q0.09375 -0.34375 0.09375 -1.453125q-0.75 0.875 -1.875 0.875q-1.390625 0 -2.15625 -1.0q-0.75 -1.0 -0.75 -2.40625q0 -0.96875 0.34375 -1.78125q0.359375 -0.8125 1.015625 -1.25q0.65625 -0.453125 1.5625 -0.453125q1.1875 0 1.96875 0.96875l0 -0.8125l1.046875 0l0 5.8125q0 1.578125 -0.328125 2.234375q-0.3125 0.65625 -1.015625 1.03125q-0.6875 0.390625 -1.703125 0.390625q-1.203125 0 -1.953125 -0.546875q-0.734375 -0.53125 -0.71875 -1.625zm0.953125 -4.046875q0 1.3125 0.515625 1.921875q0.53125 0.609375 1.328125 0.609375q0.796875 0 1.328125 -0.59375q0.53125 -0.609375 0.53125 -1.90625q0 -1.234375 -0.546875 -1.859375q-0.546875 -0.640625 -1.328125 -0.640625q-0.765625 0 -1.296875 0.625q-0.53125 0.625 -0.53125 1.84375z" fill-rule="nonzero"></path><path fill="#cfe2f3" d="m189.49475 334.5735l58.92914 0l0 60.3515l-9.821716 9.821716l-49.10742 0z" fill-rule="evenodd"></path><path fill="#a5b4c2" d="m238.60217 404.7467l1.9643402 -7.857361l7.857376 -1.9643555z" fill-rule="evenodd"></path><path fill="#000000" fill-opacity="0.0" d="m238.60217 404.7467l1.9643402 -7.857361l7.857376 -1.9643555l-9.821716 9.821716l-49.10742 0l0 -70.17322l58.92914 0l0 60.3515" fill-rule="evenodd"></path><path stroke="#000000" stroke-width="2.0" stroke-linejoin="round" stroke-linecap="butt" d="m238.60217 404.7467l1.9643402 -7.857361l7.857376 -1.9643555l-9.821716 9.821716l-49.10742 0l0 -70.17322l58.92914 0l0 60.3515" fill-rule="evenodd"></path><path fill="#000000" d="m203.9635 359.37738l1.1875 0.140625q-0.28125 1.046875 -1.046875 1.625q-0.75 0.5625 -1.921875 0.5625q-1.484375 0 -2.359375 -0.90625q-0.859375 -0.921875 -0.859375 -2.5625q0 -1.703125 0.875 -2.640625q0.890625 -0.9375 2.28125 -0.9375q1.359375 0 2.203125 0.921875q0.859375 0.921875 0.859375 2.578125q0 0.109375 0 0.3125l-5.03125 0q0.0625 1.109375 0.625 1.703125q0.5625 0.59375 1.40625 0.59375q0.640625 0 1.078125 -0.328125q0.453125 -0.34375 0.703125 -1.0625zm-3.75 -1.84375l3.765625 0q-0.078125 -0.859375 -0.4375 -1.28125q-0.546875 -0.65625 -1.40625 -0.65625q-0.796875 0 -1.328125 0.53125q-0.53125 0.515625 -0.59375 1.40625zm8.428101 4.015625l-2.5625 -6.734375l1.203125 0l1.4375 4.03125q0.234375 0.65625 0.4375 1.359375q0.15625 -0.53125 0.421875 -1.28125l1.5 -4.109375l1.171875 0l-2.546875 6.734375l-1.0625 0zm9.3984375 -2.171875l1.1875 0.140625q-0.28125 1.046875 -1.046875 1.625q-0.75 0.5625 -1.921875 0.5625q-1.484375 0 -2.359375 -0.90625q-0.859375 -0.921875 -0.859375 -2.5625q0 -1.703125 0.875 -2.640625q0.890625 -0.9375 2.28125 -0.9375q1.359375 0 2.203125 0.921875q0.859375 0.921875 0.859375 2.578125q0 0.109375 0 0.3125l-5.03125 0q0.0625 1.109375 0.625 1.703125q0.5625 0.59375 1.40625 0.59375q0.640625 0 1.078125 -0.328125q0.453125 -0.34375 0.703125 -1.0625zm-3.75 -1.84375l3.765625 0q-0.078125 -0.859375 -0.4375 -1.28125q-0.546875 -0.65625 -1.40625 -0.65625q-0.796875 0 -1.328125 0.53125q-0.53125 0.515625 -0.59375 1.40625zm6.5531006 4.015625l0 -6.734375l1.03125 0l0 0.953125q0.734375 -1.109375 2.140625 -1.109375q0.609375 0 1.109375 0.21875q0.515625 0.21875 0.765625 0.578125q0.265625 0.34375 0.359375 0.84375q0.0625 0.3125 0.0625 1.109375l0 4.140625l-1.140625 0l0 -4.09375q0 -0.703125 -0.140625 -1.046875q-0.125 -0.34375 -0.46875 -0.546875q-0.328125 -0.21875 -0.78125 -0.21875q-0.734375 0 -1.265625 0.46875q-0.53125 0.453125 -0.53125 1.75l0 3.6875l-1.140625 0zm9.912476 -1.015625l0.15625 1.0q-0.484375 0.109375 -0.859375 0.109375q-0.625 0 -0.96875 -0.203125q-0.34375 -0.203125 -0.484375 -0.515625q-0.140625 -0.328125 -0.140625 -1.34375l0 -3.890625l-0.828125 0l0 -0.875l0.828125 0l0 -1.671875l1.140625 -0.6875l0 2.359375l1.15625 0l0 0.875l-1.15625 0l0 3.953125q0 0.484375 0.0625 0.625q0.0625 0.140625 0.1875 0.21875q0.140625 0.078125 0.390625 0.078125q0.203125 0 0.515625 -0.03125z" fill-rule="nonzero"></path><path fill="#000000" d="m199.32288 377.54926l0 -9.3125l1.140625 0l0 9.3125l-1.140625 0zm2.570465 -3.375q0 -1.875 1.03125 -2.765625q0.875 -0.75 2.125 -0.75q1.390625 0 2.265625 0.90625q0.890625 0.90625 0.890625 2.515625q0 1.296875 -0.390625 2.046875q-0.390625 0.75 -1.140625 1.171875q-0.75 0.40625 -1.625 0.40625q-1.421875 0 -2.296875 -0.90625q-0.859375 -0.90625 -0.859375 -2.625zm1.171875 0q0 1.296875 0.5625 1.953125q0.5625 0.640625 1.421875 0.640625q0.84375 0 1.40625 -0.640625q0.578125 -0.65625 0.578125 -1.984375q0 -1.25 -0.578125 -1.890625q-0.5625 -0.65625 -1.40625 -0.65625q-0.859375 0 -1.421875 0.640625q-0.5625 0.640625 -0.5625 1.9375zm6.4437256 3.9375l1.125 0.15625q0.0625 0.515625 0.375 0.75q0.4375 0.328125 1.171875 0.328125q0.78125 0 1.21875 -0.328125q0.4375 -0.3125 0.578125 -0.890625q0.09375 -0.34375 0.09375 -1.453125q-0.75 0.875 -1.875 0.875q-1.390625 0 -2.15625 -1.0q-0.75 -1.0 -0.75 -2.40625q0 -0.96875 0.34375 -1.78125q0.359375 -0.8125 1.015625 -1.25q0.65625 -0.453125 1.5625 -0.453125q1.1875 0 1.96875 0.96875l0 -0.8125l1.046875 0l0 5.8125q0 1.578125 -0.328125 2.234375q-0.3125 0.65625 -1.015625 1.03125q-0.6875 0.390625 -1.703125 0.390625q-1.203125 0 -1.953125 -0.546875q-0.734375 -0.53125 -0.71875 -1.625zm0.953125 -4.046875q0 1.3125 0.515625 1.921875q0.53125 0.609375 1.328125 0.609375q0.796875 0 1.328125 -0.59375q0.53125 -0.609375 0.53125 -1.90625q0 -1.234375 -0.546875 -1.859375q-0.546875 -0.640625 -1.328125 -0.640625q-0.765625 0 -1.296875 0.625q-0.53125 0.625 -0.53125 1.84375z" fill-rule="nonzero"></path><path fill="#cfe2f3" d="m205.49475 350.5735l58.92914 0l0 60.3515l-9.821716 9.821716l-49.10742 0z" fill-rule="evenodd"></path><path fill="#a5b4c2" d="m254.60217 420.7467l1.964325 -7.857361l7.8573914 -1.9643555z" fill-rule="evenodd"></path><path fill="#000000" fill-opacity="0.0" d="m254.60217 420.7467l1.964325 -7.857361l7.8573914 -1.9643555l-9.821716 9.821716l-49.10742 0l0 -70.17322l58.92914 0l0 60.3515" fill-rule="evenodd"></path><path stroke="#000000" stroke-width="2.0" stroke-linejoin="round" stroke-linecap="butt" d="m254.60217 420.7467l1.964325 -7.857361l7.8573914 -1.9643555l-9.821716 9.821716l-49.10742 0l0 -70.17322l58.92914 0l0 60.3515" fill-rule="evenodd"></path><path fill="#000000" d="m219.9635 375.37738l1.1875 0.140625q-0.28125 1.046875 -1.046875 1.625q-0.75 0.5625 -1.921875 0.5625q-1.484375 0 -2.359375 -0.90625q-0.859375 -0.921875 -0.859375 -2.5625q0 -1.703125 0.875 -2.640625q0.890625 -0.9375 2.28125 -0.9375q1.359375 0 2.203125 0.921875q0.859375 0.921875 0.859375 2.578125q0 0.109375 0 0.3125l-5.03125 0q0.0625 1.109375 0.625 1.703125q0.5625 0.59375 1.40625 0.59375q0.640625 0 1.078125 -0.328125q0.453125 -0.34375 0.703125 -1.0625zm-3.75 -1.84375l3.765625 0q-0.078125 -0.859375 -0.4375 -1.28125q-0.546875 -0.65625 -1.40625 -0.65625q-0.796875 0 -1.328125 0.53125q-0.53125 0.515625 -0.59375 1.40625zm8.428101 4.015625l-2.5625 -6.734375l1.203125 0l1.4375 4.03125q0.234375 0.65625 0.4375 1.359375q0.15625 -0.53125 0.421875 -1.28125l1.5 -4.109375l1.171875 0l-2.546875 6.734375l-1.0625 0zm9.3984375 -2.171875l1.1875 0.140625q-0.28125 1.046875 -1.046875 1.625q-0.75 0.5625 -1.921875 0.5625q-1.484375 0 -2.359375 -0.90625q-0.859375 -0.921875 -0.859375 -2.5625q0 -1.703125 0.875 -2.640625q0.890625 -0.9375 2.28125 -0.9375q1.359375 0 2.203125 0.921875q0.859375 0.921875 0.859375 2.578125q0 0.109375 0 0.3125l-5.03125 0q0.0625 1.109375 0.625 1.703125q0.5625 0.59375 1.40625 0.59375q0.640625 0 1.078125 -0.328125q0.453125 -0.34375 0.703125 -1.0625zm-3.75 -1.84375l3.765625 0q-0.078125 -0.859375 -0.4375 -1.28125q-0.546875 -0.65625 -1.40625 -0.65625q-0.796875 0 -1.328125 0.53125q-0.53125 0.515625 -0.59375 1.40625zm6.5531006 4.015625l0 -6.734375l1.03125 0l0 0.953125q0.734375 -1.109375 2.140625 -1.109375q0.609375 0 1.109375 0.21875q0.515625 0.21875 0.765625 0.578125q0.265625 0.34375 0.359375 0.84375q0.0625 0.3125 0.0625 1.109375l0 4.140625l-1.140625 0l0 -4.09375q0 -0.703125 -0.140625 -1.046875q-0.125 -0.34375 -0.46875 -0.546875q-0.328125 -0.21875 -0.78125 -0.21875q-0.734375 0 -1.265625 0.46875q-0.53125 0.453125 -0.53125 1.75l0 3.6875l-1.140625 0zm9.912476 -1.015625l0.15625 1.0q-0.484375 0.109375 -0.859375 0.109375q-0.625 0 -0.96875 -0.203125q-0.34375 -0.203125 -0.484375 -0.515625q-0.140625 -0.328125 -0.140625 -1.34375l0 -3.890625l-0.828125 0l0 -0.875l0.828125 0l0 -1.671875l1.140625 -0.6875l0 2.359375l1.15625 0l0 0.875l-1.15625 0l0 3.953125q0 0.484375 0.0625 0.625q0.0625 0.140625 0.1875 0.21875q0.140625 0.078125 0.390625 0.078125q0.203125 0 0.515625 -0.03125z" fill-rule="nonzero"></path><path fill="#000000" d="m215.32288 393.54926l0 -9.3125l1.140625 0l0 9.3125l-1.140625 0zm2.570465 -3.375q0 -1.875 1.03125 -2.765625q0.875 -0.75 2.125 -0.75q1.390625 0 2.265625 0.90625q0.890625 0.90625 0.890625 2.515625q0 1.296875 -0.390625 2.046875q-0.390625 0.75 -1.140625 1.171875q-0.75 0.40625 -1.625 0.40625q-1.421875 0 -2.296875 -0.90625q-0.859375 -0.90625 -0.859375 -2.625zm1.171875 0q0 1.296875 0.5625 1.953125q0.5625 0.640625 1.421875 0.640625q0.84375 0 1.40625 -0.640625q0.578125 -0.65625 0.578125 -1.984375q0 -1.25 -0.578125 -1.890625q-0.5625 -0.65625 -1.40625 -0.65625q-0.859375 0 -1.421875 0.640625q-0.5625 0.640625 -0.5625 1.9375zm6.4437256 3.9375l1.125 0.15625q0.0625 0.515625 0.375 0.75q0.4375 0.328125 1.171875 0.328125q0.78125 0 1.21875 -0.328125q0.4375 -0.3125 0.578125 -0.890625q0.09375 -0.34375 0.09375 -1.453125q-0.75 0.875 -1.875 0.875q-1.390625 0 -2.15625 -1.0q-0.75 -1.0 -0.75 -2.40625q0 -0.96875 0.34375 -1.78125q0.359375 -0.8125 1.015625 -1.25q0.65625 -0.453125 1.5625 -0.453125q1.1875 0 1.96875 0.96875l0 -0.8125l1.046875 0l0 5.8125q0 1.578125 -0.328125 2.234375q-0.3125 0.65625 -1.015625 1.03125q-0.6875 0.390625 -1.703125 0.390625q-1.203125 0 -1.953125 -0.546875q-0.734375 -0.53125 -0.71875 -1.625zm0.953125 -4.046875q0 1.3125 0.515625 1.921875q0.53125 0.609375 1.328125 0.609375q0.796875 0 1.328125 -0.59375q0.53125 -0.609375 0.53125 -1.90625q0 -1.234375 -0.546875 -1.859375q-0.546875 -0.640625 -1.328125 -0.640625q-0.765625 0 -1.296875 0.625q-0.53125 0.625 -0.53125 1.84375z" fill-rule="nonzero"></path><path fill="#cccccc" d="m700.65356 294.69815l0 0c0 -15.956085 42.84021 -28.891052 95.68634 -28.891052c52.84613 0 95.68634 12.934967 95.68634 28.891052l0 115.56433c0 15.956085 -42.84021 28.891052 -95.68634 28.891052c-52.84613 0 -95.68634 -12.934967 -95.68634 -28.891052z" fill-rule="evenodd"></path><path fill="#000000" fill-opacity="0.0" d="m892.02625 294.69815l0 0c0 15.956116 -42.84021 28.891083 -95.68634 28.891083c-52.84613 0 -95.68634 -12.934967 -95.68634 -28.891083" fill-rule="evenodd"></path><path fill="#000000" fill-opacity="0.0" d="m700.65356 294.69815l0 0c0 -15.956085 42.84021 -28.891052 95.68634 -28.891052c52.84613 0 95.68634 12.934967 95.68634 28.891052l0 115.56433c0 15.956085 -42.84021 28.891052 -95.68634 28.891052c-52.84613 0 -95.68634 -12.934967 -95.68634 -28.891052z" fill-rule="evenodd"></path><path stroke="#b7b7b7" stroke-width="2.0" stroke-linejoin="round" stroke-linecap="butt" d="m892.02625 294.69815l0 0c0 15.956116 -42.84021 28.891083 -95.68634 28.891083c-52.84613 0 -95.68634 -12.934967 -95.68634 -28.891083" fill-rule="evenodd"></path><path stroke="#b7b7b7" stroke-width="2.0" stroke-linejoin="round" stroke-linecap="butt" d="m700.65356 294.69815l0 0c0 -15.956085 42.84021 -28.891052 95.68634 -28.891052c52.84613 0 95.68634 12.934967 95.68634 28.891052l0 115.56433c0 15.956085 -42.84021 28.891052 -95.68634 28.891052c-52.84613 0 -95.68634 -12.934967 -95.68634 -28.891052z" fill-rule="evenodd"></path><path fill="#cccccc" d="m725.7533 341.32162l-76.43048 0c-10.552795 0 -19.107605 9.116455 -19.107605 20.362183c0 11.245758 8.55481 20.362213 19.107605 20.362213l76.43048 0l0 0c10.552856 0 19.107605 -9.116455 19.107605 -20.362213c0 -11.245728 -8.554749 -20.362183 -19.107605 -20.362183z" fill-rule="evenodd"></path><path fill="#000000" fill-opacity="0.0" d="m649.3228 382.04602c10.552856 0 19.107605 -9.116455 19.107605 -20.362213c0 -11.245728 -8.554749 -20.362183 -19.107605 -20.362183" fill-rule="evenodd"></path><path fill="#000000" fill-opacity="0.0" d="m725.7533 341.32162l-76.43048 0c-10.552795 0 -19.107605 9.116455 -19.107605 20.362183c0 11.245758 8.55481 20.362213 19.107605 20.362213l76.43048 0l0 0c10.552856 0 19.107605 -9.116455 19.107605 -20.362213c0 -11.245728 -8.554749 -20.362183 -19.107605 -20.362183z" fill-rule="evenodd"></path><path stroke="#b7b7b7" stroke-width="2.0" stroke-linejoin="round" stroke-linecap="butt" d="m649.3228 382.04602c10.552856 0 19.107605 -9.116455 19.107605 -20.362213c0 -11.245728 -8.554749 -20.362183 -19.107605 -20.362183" fill-rule="evenodd"></path><path stroke="#b7b7b7" stroke-width="2.0" stroke-linejoin="round" stroke-linecap="butt" d="m725.7533 341.32162l-76.43048 0c-10.552795 0 -19.107605 9.116455 -19.107605 20.362183c0 11.245758 8.55481 20.362213 19.107605 20.362213l76.43048 0l0 0c10.552856 0 19.107605 -9.116455 19.107605 -20.362213c0 -11.245728 -8.554749 -20.362183 -19.107605 -20.362183z" fill-rule="evenodd"></path><path fill="#000000" d="m682.5867 369.06195l0 -3.296875q-0.265625 0.375 -0.75 0.625q-0.484375 0.25 -1.015625 0.25q-1.203125 0 -2.078125 -0.953125q-0.859375 -0.96875 -0.859375 -2.640625q0 -1.015625 0.34375 -1.8125q0.359375 -0.8125 1.03125 -1.21875q0.671875 -0.421875 1.46875 -0.421875q1.25 0 1.96875 1.046875l0 -0.890625l1.03125 0l0 9.3125l-1.140625 0zm-3.53125 -5.96875q0 1.296875 0.546875 1.953125q0.546875 0.65625 1.3125 0.65625q0.734375 0 1.25 -0.625q0.53125 -0.625 0.53125 -1.875q0 -1.359375 -0.5625 -2.03125q-0.546875 -0.6875 -1.296875 -0.6875q-0.734375 0 -1.265625 0.640625q-0.515625 0.625 -0.515625 1.96875zm11.068726 3.390625l0 -0.984375q-0.796875 1.140625 -2.140625 1.140625q-0.59375 0 -1.125 -0.234375q-0.515625 -0.234375 -0.765625 -0.578125q-0.25 -0.34375 -0.34375 -0.84375q-0.078125 -0.328125 -0.078125 -1.0625l0 -4.171875l1.140625 0l0 3.734375q0 0.890625 0.078125 1.203125q0.109375 0.453125 0.453125 0.71875q0.34375 0.25 0.859375 0.25q0.515625 0 0.96875 -0.265625q0.453125 -0.265625 0.640625 -0.71875q0.1875 -0.453125 0.1875 -1.3125l0 -3.609375l1.140625 0l0 6.734375l-1.015625 0zm7.5999756 -2.171875l1.1875 0.140625q-0.28125 1.046875 -1.046875 1.625q-0.75 0.5625 -1.921875 0.5625q-1.484375 0 -2.359375 -0.90625q-0.859375 -0.921875 -0.859375 -2.5625q0 -1.703125 0.875 -2.640625q0.890625 -0.9375 2.28125 -0.9375q1.359375 0 2.203125 0.921875q0.859375 0.921875 0.859375 2.578125q0 0.109375 0 0.3125l-5.03125 0q0.0625 1.109375 0.625 1.703125q0.5625 0.59375 1.40625 0.59375q0.640625 0 1.078125 -0.328125q0.453125 -0.34375 0.703125 -1.0625zm-3.75 -1.84375l3.765625 0q-0.078125 -0.859375 -0.4375 -1.28125q-0.546875 -0.65625 -1.40625 -0.65625q-0.796875 0 -1.328125 0.53125q-0.53125 0.515625 -0.59375 1.40625zm10.974976 4.015625l0 -0.984375q-0.796875 1.140625 -2.140625 1.140625q-0.59375 0 -1.125 -0.234375q-0.515625 -0.234375 -0.765625 -0.578125q-0.25 -0.34375 -0.34375 -0.84375q-0.078125 -0.328125 -0.078125 -1.0625l0 -4.171875l1.140625 0l0 3.734375q0 0.890625 0.078125 1.203125q0.109375 0.453125 0.453125 0.71875q0.34375 0.25 0.859375 0.25q0.515625 0 0.96875 -0.265625q0.453125 -0.265625 0.640625 -0.71875q0.1875 -0.453125 0.1875 -1.3125l0 -3.609375l1.140625 0l0 6.734375l-1.015625 0zm7.5999756 -2.171875l1.1875 0.140625q-0.28125 1.046875 -1.046875 1.625q-0.75 0.5625 -1.921875 0.5625q-1.484375 0 -2.359375 -0.90625q-0.859375 -0.921875 -0.859375 -2.5625q0 -1.703125 0.875 -2.640625q0.890625 -0.9375 2.28125 -0.9375q1.359375 0 2.203125 0.921875q0.859375 0.921875 0.859375 2.578125q0 0.109375 0 0.3125l-5.03125 0q0.0625 1.109375 0.625 1.703125q0.5625 0.59375 1.40625 0.59375q0.640625 0 1.078125 -0.328125q0.453125 -0.34375 0.703125 -1.0625zm-3.75 -1.84375l3.765625 0q-0.078125 -0.859375 -0.4375 -1.28125q-0.546875 -0.65625 -1.40625 -0.65625q-0.796875 0 -1.328125 0.53125q-0.53125 0.515625 -0.59375 1.40625z" fill-rule="nonzero"></path><path fill="#cccccc" d="m759.66797 338.9252l37.81958 0l0 35.58133c-18.908752 0 -18.908752 13.68988 -37.81958 6.84494zm3.1159058 0l0 -4.6128845l37.56128 0l0 35.804535c-1.4277954 0 -2.857605 0.24798584 -2.857605 0.24798584l0 -31.439636zm2.928711 -4.6128845l0 -4.5012817l37.88672 0l0 35.6929c-1.6270752 0 -3.2541504 0.18600464 -3.2541504 0.18600464l0 -31.377625z" fill-rule="evenodd"></path><path fill="#000000" fill-opacity="0.0" d="m759.66797 338.9252l37.81958 0l0 35.58133c-18.908752 0 -18.908752 13.68988 -37.81958 6.84494zm3.1159058 0l0 -4.6128845l37.56128 0l0 35.804535c-1.4277954 0 -2.857605 0.24798584 -2.857605 0.24798584m-31.774963 -36.05252l0 -4.5012817l37.88672 0l0 35.6929c-1.6270752 0 -3.2541504 0.18600464 -3.2541504 0.18600464" fill-rule="evenodd"></path><path fill="#000000" fill-opacity="0.0" d="m759.66797 381.35147c18.910828 6.84494 18.910828 -6.84494 37.81958 -6.84494l0 -4.141693c0 0 1.4298096 -0.24798584 2.857605 -0.24798584l0 -4.4269104c0 0 1.6270752 -0.18600464 3.2541504 -0.18600464l0 -35.6929l-37.88672 0l0 4.5012817l-2.928711 0l0 4.6128845l-3.1159058 0z" fill-rule="evenodd"></path><path stroke="#b7b7b7" stroke-width="2.0" stroke-linejoin="round" stroke-linecap="butt" d="m759.66797 338.9252l37.81958 0l0 35.58133c-18.908752 0 -18.908752 13.68988 -37.81958 6.84494zm3.1159058 0l0 -4.6128845l37.56128 0l0 35.804535c-1.4277954 0 -2.857605 0.24798584 -2.857605 0.24798584m-31.774963 -36.05252l0 -4.5012817l37.88672 0l0 35.6929c-1.6270752 0 -3.2541504 0.18600464 -3.2541504 0.18600464" fill-rule="evenodd"></path><path fill="#000000" fill-opacity="0.0" d="m739.34906 265.8071l84.566956 0l0 46.078735l-84.566956 0z" fill-rule="evenodd"></path><path fill="#000000" d="m749.34906 287.6071l0 -9.3125l3.203125 0q1.09375 0 1.65625 0.140625q0.8125 0.1875 1.375 0.671875q0.734375 0.609375 1.09375 1.578125q0.375 0.96875 0.375 2.21875q0 1.0625 -0.25 1.890625q-0.25 0.8125 -0.640625 1.34375q-0.390625 0.53125 -0.859375 0.84375q-0.453125 0.3125 -1.109375 0.46875q-0.640625 0.15625 -1.484375 0.15625l-3.359375 0zm1.234375 -1.09375l1.984375 0q0.921875 0 1.4375 -0.171875q0.53125 -0.171875 0.84375 -0.484375q0.4375 -0.4375 0.671875 -1.171875q0.25 -0.75 0.25 -1.796875q0 -1.46875 -0.484375 -2.25q-0.46875 -0.78125 -1.15625 -1.046875q-0.5 -0.1875 -1.59375 -0.1875l-1.953125 0l0 7.109375zm8.250183 -6.890625l0 -1.328125l1.140625 0l0 1.328125l-1.140625 0zm0 7.984375l0 -6.734375l1.140625 0l0 6.734375l-1.140625 0zm2.5079346 -2.015625l1.125 -0.171875q0.09375 0.671875 0.53125 1.046875q0.4375 0.359375 1.21875 0.359375q0.78125 0 1.15625 -0.3125q0.390625 -0.328125 0.390625 -0.765625q0 -0.390625 -0.34375 -0.609375q-0.234375 -0.15625 -1.171875 -0.390625q-1.25 -0.3125 -1.734375 -0.546875q-0.484375 -0.234375 -0.734375 -0.640625q-0.25 -0.40625 -0.25 -0.90625q0 -0.453125 0.203125 -0.828125q0.203125 -0.390625 0.5625 -0.640625q0.265625 -0.203125 0.71875 -0.328125q0.46875 -0.140625 1.0 -0.140625q0.78125 0 1.375 0.234375q0.609375 0.21875 0.890625 0.609375q0.296875 0.390625 0.40625 1.046875l-1.125 0.15625q-0.078125 -0.53125 -0.4375 -0.8125q-0.359375 -0.296875 -1.03125 -0.296875q-0.78125 0 -1.125 0.265625q-0.34375 0.25 -0.34375 0.609375q0 0.21875 0.140625 0.390625q0.140625 0.1875 0.4375 0.3125q0.171875 0.0625 1.015625 0.28125q1.21875 0.328125 1.6875 0.53125q0.484375 0.203125 0.75 0.609375q0.28125 0.390625 0.28125 0.96875q0 0.578125 -0.34375 1.078125q-0.328125 0.5 -0.953125 0.78125q-0.625 0.28125 -1.421875 0.28125q-1.3125 0 -2.0 -0.546875q-0.6875 -0.546875 -0.875 -1.625zm9.6171875 1.0l0.15625 1.0q-0.484375 0.109375 -0.859375 0.109375q-0.625 0 -0.96875 -0.203125q-0.34375 -0.203125 -0.484375 -0.515625q-0.140625 -0.328125 -0.140625 -1.34375l0 -3.890625l-0.828125 0l0 -0.875l0.828125 0l0 -1.671875l1.140625 -0.6875l0 2.359375l1.15625 0l0 0.875l-1.15625 0l0 3.953125q0 0.484375 0.0625 0.625q0.0625 0.140625 0.1875 0.21875q0.140625 0.078125 0.390625 0.078125q0.203125 0 0.515625 -0.03125zm1.1873779 1.015625l0 -6.734375l1.03125 0l0 1.015625q0.390625 -0.71875 0.71875 -0.9375q0.34375 -0.234375 0.734375 -0.234375q0.578125 0 1.171875 0.359375l-0.390625 1.0625q-0.421875 -0.25 -0.828125 -0.25q-0.375 0 -0.6875 0.234375q-0.296875 0.21875 -0.421875 0.625q-0.1875 0.609375 -0.1875 1.328125l0 3.53125l-1.140625 0zm4.4539795 -7.984375l0 -1.328125l1.140625 0l0 1.328125l-1.140625 0zm0 7.984375l0 -6.734375l1.140625 0l0 6.734375l-1.140625 0zm4.0079956 0l-1.0625 0l0 -9.3125l1.15625 0l0 3.328125q0.71875 -0.90625 1.84375 -0.90625q0.625 0 1.171875 0.25q0.5625 0.25 0.921875 0.703125q0.359375 0.453125 0.5625 1.09375q0.203125 0.640625 0.203125 1.375q0 1.734375 -0.859375 2.6875q-0.859375 0.9375 -2.0625 0.9375q-1.1875 0 -1.875 -1.0l0 0.84375zm-0.015625 -3.421875q0 1.21875 0.34375 1.75q0.53125 0.890625 1.453125 0.890625q0.75 0 1.296875 -0.65625q0.546875 -0.65625 0.546875 -1.9375q0 -1.328125 -0.53125 -1.953125q-0.515625 -0.625 -1.265625 -0.625q-0.75 0 -1.296875 0.65625q-0.546875 0.640625 -0.546875 1.875zm10.803101 3.421875l0 -0.984375q-0.796875 1.140625 -2.140625 1.140625q-0.59375 0 -1.125 -0.234375q-0.515625 -0.234375 -0.765625 -0.578125q-0.25 -0.34375 -0.34375 -0.84375q-0.078125 -0.328125 -0.078125 -1.0625l0 -4.171875l1.140625 0l0 3.734375q0 0.890625 0.078125 1.203125q0.109375 0.453125 0.453125 0.71875q0.34375 0.25 0.859375 0.25q0.515625 0 0.96875 -0.265625q0.453125 -0.265625 0.640625 -0.71875q0.1875 -0.453125 0.1875 -1.3125l0 -3.609375l1.140625 0l0 6.734375l-1.015625 0zm5.4906006 -1.015625l0.15625 1.0q-0.484375 0.109375 -0.859375 0.109375q-0.625 0 -0.96875 -0.203125q-0.34375 -0.203125 -0.484375 -0.515625q-0.140625 -0.328125 -0.140625 -1.34375l0 -3.890625l-0.828125 0l0 -0.875l0.828125 0l0 -1.671875l1.140625 -0.6875l0 2.359375l1.15625 0l0 0.875l-1.15625 0l0 3.953125q0 0.484375 0.0625 0.625q0.0625 0.140625 0.1875 0.21875q0.140625 0.078125 0.390625 0.078125q0.203125 0 0.515625 -0.03125zm5.812378 -1.15625l1.1875 0.140625q-0.28125 1.046875 -1.046875 1.625q-0.75 0.5625 -1.921875 0.5625q-1.484375 0 -2.359375 -0.90625q-0.859375 -0.921875 -0.859375 -2.5625q0 -1.703125 0.875 -2.640625q0.890625 -0.9375 2.28125 -0.9375q1.359375 0 2.203125 0.921875q0.859375 0.921875 0.859375 2.578125q0 0.109375 0 0.3125l-5.03125 0q0.0625 1.109375 0.625 1.703125q0.5625 0.59375 1.40625 0.59375q0.640625 0 1.078125 -0.328125q0.453125 -0.34375 0.703125 -1.0625zm-3.75 -1.84375l3.765625 0q-0.078125 -0.859375 -0.4375 -1.28125q-0.546875 -0.65625 -1.40625 -0.65625q-0.796875 0 -1.328125 0.53125q-0.53125 0.515625 -0.59375 1.40625zm10.928101 4.015625l0 -0.84375q-0.640625 1.0 -1.890625 1.0q-0.796875 0 -1.484375 -0.4375q-0.671875 -0.453125 -1.046875 -1.25q-0.375 -0.796875 -0.375 -1.828125q0 -1.015625 0.34375 -1.828125q0.34375 -0.828125 1.015625 -1.265625q0.671875 -0.4375 1.5 -0.4375q0.609375 0 1.078125 0.265625q0.484375 0.25 0.78125 0.65625l0 -3.34375l1.140625 0l0 9.3125l-1.0625 0zm-3.609375 -3.359375q0 1.296875 0.53125 1.9375q0.546875 0.640625 1.296875 0.640625q0.75 0 1.265625 -0.609375q0.53125 -0.625 0.53125 -1.875q0 -1.390625 -0.53125 -2.03125q-0.53125 -0.65625 -1.3125 -0.65625q-0.765625 0 -1.28125 0.625q-0.5 0.625 -0.5 1.96875z" fill-rule="nonzero"></path><path fill="#000000" d="m748.9272 300.6227l1.171875 -0.109375q0.078125 0.703125 0.375 1.15625q0.3125 0.4375 0.9375 0.71875q0.640625 0.265625 1.4375 0.265625q0.703125 0 1.234375 -0.203125q0.546875 -0.203125 0.8125 -0.5625q0.265625 -0.375 0.265625 -0.8125q0 -0.4375 -0.265625 -0.765625q-0.25 -0.328125 -0.828125 -0.546875q-0.375 -0.140625 -1.65625 -0.453125q-1.28125 -0.3125 -1.796875 -0.578125q-0.671875 -0.34375 -1.0 -0.859375q-0.328125 -0.53125 -0.328125 -1.171875q0 -0.703125 0.390625 -1.3125q0.40625 -0.609375 1.171875 -0.921875q0.78125 -0.328125 1.71875 -0.328125q1.03125 0 1.8125 0.34375q0.796875 0.328125 1.21875 0.984375q0.4375 0.640625 0.46875 1.453125l-1.1875 0.09375q-0.09375 -0.890625 -0.640625 -1.328125q-0.546875 -0.453125 -1.625 -0.453125q-1.109375 0 -1.625 0.40625q-0.515625 0.40625 -0.515625 0.984375q0 0.5 0.359375 0.828125q0.359375 0.328125 1.859375 0.671875q1.5 0.328125 2.0625 0.578125q0.8125 0.375 1.1875 0.953125q0.390625 0.578125 0.390625 1.328125q0 0.734375 -0.421875 1.390625q-0.421875 0.65625 -1.21875 1.03125q-0.796875 0.359375 -1.796875 0.359375q-1.265625 0 -2.125 -0.359375q-0.84375 -0.375 -1.328125 -1.109375q-0.484375 -0.75 -0.515625 -1.671875zm11.6710205 1.96875l0.15625 1.0q-0.484375 0.109375 -0.859375 0.109375q-0.625 0 -0.96875 -0.203125q-0.34375 -0.203125 -0.484375 -0.515625q-0.140625 -0.328125 -0.140625 -1.34375l0 -3.890625l-0.828125 0l0 -0.875l0.828125 0l0 -1.671875l1.140625 -0.6875l0 2.359375l1.15625 0l0 0.875l-1.15625 0l0 3.953125q0 0.484375 0.0625 0.625q0.0625 0.140625 0.1875 0.21875q0.140625 0.078125 0.390625 0.078125q0.203125 0 0.515625 -0.03125zm0.7811279 -2.359375q0 -1.875 1.03125 -2.765625q0.875 -0.75 2.125 -0.75q1.390625 0 2.265625 0.90625q0.890625 0.90625 0.890625 2.515625q0 1.296875 -0.390625 2.046875q-0.390625 0.75 -1.140625 1.171875q-0.75 0.40625 -1.625 0.40625q-1.421875 0 -2.296875 -0.90625q-0.859375 -0.90625 -0.859375 -2.625zm1.171875 0q0 1.296875 0.5625 1.953125q0.5625 0.640625 1.421875 0.640625q0.84375 0 1.40625 -0.640625q0.578125 -0.65625 0.578125 -1.984375q0 -1.25 -0.578125 -1.890625q-0.5625 -0.65625 -1.40625 -0.65625q-0.859375 0 -1.421875 0.640625q-0.5625 0.640625 -0.5625 1.9375zm6.6468506 3.375l0 -6.734375l1.03125 0l0 1.015625q0.390625 -0.71875 0.71875 -0.9375q0.34375 -0.234375 0.734375 -0.234375q0.578125 0 1.171875 0.359375l-0.390625 1.0625q-0.421875 -0.25 -0.828125 -0.25q-0.375 0 -0.6875 0.234375q-0.296875 0.21875 -0.421875 0.625q-0.1875 0.609375 -0.1875 1.328125l0 3.53125l-1.140625 0zm8.8446045 -0.828125q-0.625 0.53125 -1.21875 0.765625q-0.578125 0.21875 -1.25 0.21875q-1.125 0 -1.71875 -0.546875q-0.59375 -0.546875 -0.59375 -1.390625q0 -0.484375 0.21875 -0.890625q0.234375 -0.421875 0.59375 -0.671875q0.375 -0.25 0.828125 -0.375q0.328125 -0.078125 1.015625 -0.171875q1.375 -0.15625 2.03125 -0.390625q0.015625 -0.234375 0.015625 -0.296875q0 -0.703125 -0.328125 -0.984375q-0.4375 -0.390625 -1.296875 -0.390625q-0.8125 0 -1.203125 0.28125q-0.375 0.28125 -0.5625 1.0l-1.109375 -0.140625q0.140625 -0.71875 0.484375 -1.15625q0.359375 -0.453125 1.015625 -0.6875q0.671875 -0.234375 1.53125 -0.234375q0.875 0 1.40625 0.203125q0.546875 0.203125 0.796875 0.515625q0.25 0.296875 0.359375 0.765625q0.046875 0.296875 0.046875 1.0625l0 1.515625q0 1.59375 0.078125 2.015625q0.078125 0.421875 0.28125 0.8125l-1.1875 0q-0.171875 -0.359375 -0.234375 -0.828125zm-0.09375 -2.5625q-0.625 0.265625 -1.859375 0.4375q-0.703125 0.109375 -1.0 0.234375q-0.296875 0.125 -0.453125 0.375q-0.15625 0.234375 -0.15625 0.53125q0 0.453125 0.34375 0.765625q0.34375 0.296875 1.015625 0.296875q0.65625 0 1.171875 -0.28125q0.515625 -0.296875 0.765625 -0.796875q0.171875 -0.375 0.171875 -1.140625l0 -0.421875zm2.8968506 3.953125l1.125 0.15625q0.0625 0.515625 0.375 0.75q0.4375 0.328125 1.171875 0.328125q0.78125 0 1.21875 -0.328125q0.4375 -0.3125 0.578125 -0.890625q0.09375 -0.34375 0.09375 -1.453125q-0.75 0.875 -1.875 0.875q-1.390625 0 -2.15625 -1.0q-0.75 -1.0 -0.75 -2.40625q0 -0.96875 0.34375 -1.78125q0.359375 -0.8125 1.015625 -1.25q0.65625 -0.453125 1.5625 -0.453125q1.1875 0 1.96875 0.96875l0 -0.8125l1.046875 0l0 5.8125q0 1.578125 -0.328125 2.234375q-0.3125 0.65625 -1.015625 1.03125q-0.6875 0.390625 -1.703125 0.390625q-1.203125 0 -1.953125 -0.546875q-0.734375 -0.53125 -0.71875 -1.625zm0.953125 -4.046875q0 1.3125 0.515625 1.921875q0.53125 0.609375 1.328125 0.609375q0.796875 0 1.328125 -0.59375q0.53125 -0.609375 0.53125 -1.90625q0 -1.234375 -0.546875 -1.859375q-0.546875 -0.640625 -1.328125 -0.640625q-0.765625 0 -1.296875 0.625q-0.53125 0.625 -0.53125 1.84375zm11.287476 1.3125l1.1875 0.140625q-0.28125 1.046875 -1.046875 1.625q-0.75 0.5625 -1.921875 0.5625q-1.484375 0 -2.359375 -0.90625q-0.859375 -0.921875 -0.859375 -2.5625q0 -1.703125 0.875 -2.640625q0.890625 -0.9375 2.28125 -0.9375q1.359375 0 2.203125 0.921875q0.859375 0.921875 0.859375 2.578125q0 0.109375 0 0.3125l-5.03125 0q0.0625 1.109375 0.625 1.703125q0.5625 0.59375 1.40625 0.59375q0.640625 0 1.078125 -0.328125q0.453125 -0.34375 0.703125 -1.0625zm-3.75 -1.84375l3.765625 0q-0.078125 -0.859375 -0.4375 -1.28125q-0.546875 -0.65625 -1.40625 -0.65625q-0.796875 0 -1.328125 0.53125q-0.53125 0.515625 -0.59375 1.40625z" fill-rule="nonzero"></path><path fill="#cccccc" d="m810.2664 380.6575l37.81958 0l0 35.5813c-18.908752 0 -18.908752 13.689911 -37.81958 6.8449707zm3.1158447 0l0 -4.6128845l37.56128 0l0 35.804504c-1.4277344 0 -2.857544 0.24801636 -2.857544 0.24801636l0 -31.439636zm2.928772 -4.6128845l0 -4.5013123l37.88672 0l0 35.692932c-1.6270752 0 -3.2542114 0.18600464 -3.2542114 0.18600464l0 -31.377625z" fill-rule="evenodd"></path><path fill="#000000" fill-opacity="0.0" d="m810.2664 380.6575l37.81958 0l0 35.5813c-18.908752 0 -18.908752 13.689911 -37.81958 6.8449707zm3.1158447 0l0 -4.6128845l37.56128 0l0 35.804504c-1.4277344 0 -2.857544 0.24801636 -2.857544 0.24801636m-31.774963 -36.05252l0 -4.5013123l37.88672 0l0 35.692932c-1.6270752 0 -3.2542114 0.18600464 -3.2542114 0.18600464" fill-rule="evenodd"></path><path fill="#000000" fill-opacity="0.0" d="m810.2664 423.08377c18.910828 6.84494 18.910828 -6.8449707 37.81958 -6.8449707l0 -4.1416626c0 0 1.4298096 -0.24801636 2.857544 -0.24801636l0 -4.42688c0 0 1.6271362 -0.18600464 3.2542114 -0.18600464l0 -35.692932l-37.88672 0l0 4.5013123l-2.928772 0l0 4.6128845l-3.1158447 0z" fill-rule="evenodd"></path><path stroke="#b7b7b7" stroke-width="2.0" stroke-linejoin="round" stroke-linecap="butt" d="m810.2664 380.6575l37.81958 0l0 35.5813c-18.908752 0 -18.908752 13.689911 -37.81958 6.8449707zm3.1158447 0l0 -4.6128845l37.56128 0l0 35.804504c-1.4277344 0 -2.857544 0.24801636 -2.857544 0.24801636m-31.774963 -36.05252l0 -4.5013123l37.88672 0l0 35.692932c-1.6270752 0 -3.2542114 0.18600464 -3.2542114 0.18600464" fill-rule="evenodd"></path><path fill="#cccccc" d="m932.8202 314.41602l111.968506 0l0 76.1286l-111.968506 0z" fill-rule="evenodd"></path><path fill="#000000" fill-opacity="0.0" d="m946.8163 314.41602l0 76.1286m-13.996094 -66.61252l111.968506 0" fill-rule="evenodd"></path><path fill="#000000" fill-opacity="0.0" d="m932.8202 314.41602l111.968506 0l0 76.1286l-111.968506 0z" fill-rule="evenodd"></path><path stroke="#b7b7b7" stroke-width="1.0" stroke-linejoin="round" stroke-linecap="butt" d="m946.8163 314.41602l0 76.1286m-13.996094 -66.61252l111.968506 0" fill-rule="evenodd"></path><path stroke="#b7b7b7" stroke-width="1.0" stroke-linejoin="round" stroke-linecap="butt" d="m932.8202 314.41602l111.968506 0l0 76.1286l-111.968506 0z" fill-rule="evenodd"></path><path fill="#000000" d="m985.1438 352.1621q0.984375 0.6875 1.828125 1.0l-0.421875 0.984375q-1.15625 -0.40625 -2.3125 -1.3125q-1.1875 0.671875 -2.640625 0.671875q-1.453125 0 -2.640625 -0.703125q-1.1875 -0.703125 -1.828125 -1.96875q-0.640625 -1.28125 -0.640625 -2.890625q0 -1.578125 0.640625 -2.875q0.65625 -1.3125 1.84375 -1.984375q1.1875 -0.6875 2.65625 -0.6875q1.484375 0 2.671875 0.703125q1.203125 0.703125 1.828125 1.984375q0.625 1.265625 0.625 2.859375q0 1.328125 -0.40625 2.390625q-0.390625 1.046875 -1.203125 1.828125zm-3.125 -1.8125q1.21875 0.34375 2.03125 1.03125q1.25 -1.140625 1.25 -3.4375q0 -1.3125 -0.453125 -2.28125q-0.4375 -0.96875 -1.296875 -1.5q-0.84375 -0.546875 -1.90625 -0.546875q-1.59375 0 -2.640625 1.09375q-1.046875 1.078125 -1.046875 3.234375q0 2.09375 1.03125 3.21875q1.046875 1.125 2.65625 1.125q0.765625 0 1.4375 -0.28125q-0.671875 -0.4375 -1.40625 -0.625l0.34375 -1.03125zm11.3220215 2.96875l0 -1.140625q-0.921875 1.3125 -2.46875 1.3125q-0.6875 0 -1.296875 -0.265625q-0.59375 -0.265625 -0.890625 -0.65625q-0.28125 -0.40625 -0.390625 -0.984375q-0.09375 -0.375 -0.09375 -1.21875l0 -4.828125l1.328125 0l0 4.3125q0 1.03125 0.078125 1.390625q0.125 0.53125 0.515625 0.828125q0.40625 0.296875 1.0 0.296875q0.59375 0 1.109375 -0.296875q0.53125 -0.3125 0.75 -0.828125q0.21875 -0.53125 0.21875 -1.53125l0 -4.171875l1.3125 0l0 7.78125l-1.171875 0zm8.369812 -2.5l1.359375 0.15625q-0.3125 1.203125 -1.1875 1.859375q-0.875 0.65625 -2.234375 0.65625q-1.703125 0 -2.703125 -1.046875q-1.0 -1.046875 -1.0 -2.953125q0 -1.953125 1.015625 -3.03125q1.015625 -1.09375 2.625 -1.09375q1.5625 0 2.546875 1.0625q0.984375 1.0625 0.984375 2.984375q0 0.125 0 0.359375l-5.8125 0q0.078125 1.28125 0.71875 1.96875q0.65625 0.671875 1.640625 0.671875q0.71875 0 1.234375 -0.375q0.515625 -0.390625 0.8125 -1.21875zm-4.328125 -2.140625l4.34375 0q-0.09375 -0.984375 -0.5 -1.46875q-0.625 -0.765625 -1.625 -0.765625q-0.921875 0 -1.546875 0.609375q-0.609375 0.609375 -0.671875 1.625zm7.135498 4.640625l0 -7.78125l1.1875 0l0 1.1875q0.453125 -0.828125 0.84375 -1.09375q0.390625 -0.265625 0.84375 -0.265625q0.671875 0 1.359375 0.421875l-0.453125 1.21875q-0.484375 -0.28125 -0.96875 -0.28125q-0.4375 0 -0.78125 0.265625q-0.34375 0.25 -0.484375 0.71875q-0.21875 0.703125 -0.21875 1.53125l0 4.078125l-1.328125 0zm4.8494263 3.0l-0.15625 -1.234375q0.4375 0.109375 0.75 0.109375q0.453125 0 0.703125 -0.15625q0.265625 -0.140625 0.4375 -0.40625q0.125 -0.1875 0.40625 -0.96875q0.03125 -0.109375 0.109375 -0.328125l-2.953125 -7.796875l1.421875 0l1.625 4.5q0.3125 0.859375 0.5625 1.8125q0.234375 -0.90625 0.546875 -1.78125l1.65625 -4.53125l1.328125 0l-2.96875 7.90625q-0.46875 1.28125 -0.734375 1.765625q-0.359375 0.65625 -0.8125 0.953125q-0.453125 0.3125 -1.078125 0.3125q-0.375 0 -0.84375 -0.15625z" fill-rule="nonzero"></path><path fill="#000000" d="m984.19824 370.14648l0.1875 1.15625q-0.5625 0.125 -1.0 0.125q-0.71875 0 -1.125 -0.234375q-0.390625 -0.234375 -0.546875 -0.59375q-0.15625 -0.375 -0.15625 -1.5625l0 -4.46875l-0.96875 0l0 -1.03125l0.96875 0l0 -1.921875l1.3125 -0.796875l0 2.71875l1.328125 0l0 1.03125l-1.328125 0l0 4.546875q0 0.5625 0.0625 0.734375q0.078125 0.15625 0.234375 0.25q0.15625 0.09375 0.4375 0.09375q0.234375 0 0.59375 -0.046875zm0.6970215 -2.71875q0 -2.15625 1.203125 -3.203125q1.0 -0.859375 2.4375 -0.859375q1.609375 0 2.625 1.046875q1.015625 1.046875 1.015625 2.90625q0 1.5 -0.453125 2.359375q-0.4375 0.859375 -1.3125 1.34375q-0.859375 0.46875 -1.875 0.46875q-1.625 0 -2.640625 -1.046875q-1.0 -1.046875 -1.0 -3.015625zm1.359375 0q0 1.5 0.640625 2.25q0.65625 0.734375 1.640625 0.734375q0.984375 0 1.640625 -0.75q0.65625 -0.75 0.65625 -2.28125q0 -1.4375 -0.65625 -2.171875q-0.65625 -0.75 -1.640625 -0.75q-0.984375 0 -1.640625 0.734375q-0.640625 0.734375 -0.640625 2.234375zm6.791687 0q0 -2.15625 1.203125 -3.203125q1.0 -0.859375 2.4375 -0.859375q1.609375 0 2.625 1.046875q1.015625 1.046875 1.015625 2.90625q0 1.5 -0.453125 2.359375q-0.4375 0.859375 -1.3125 1.34375q-0.859375 0.46875 -1.875 0.46875q-1.625 0 -2.640625 -1.046875q-1.0 -1.046875 -1.0 -3.015625zm1.359375 0q0 1.5 0.640625 2.25q0.65625 0.734375 1.640625 0.734375q0.984375 0 1.640625 -0.75q0.65625 -0.75 0.65625 -2.28125q0 -1.4375 -0.65625 -2.171875q-0.65625 -0.75 -1.640625 -0.75q-0.984375 0 -1.640625 0.734375q-0.640625 0.734375 -0.640625 2.234375zm7.244873 3.890625l0 -10.734375l1.328125 0l0 10.734375l-1.328125 0zm2.7717896 -2.328125l1.296875 -0.203125q0.109375 0.78125 0.609375 1.203125q0.5 0.421875 1.40625 0.421875q0.90625 0 1.34375 -0.359375q0.4375 -0.375 0.4375 -0.875q0 -0.453125 -0.390625 -0.703125q-0.265625 -0.1875 -1.34375 -0.453125q-1.453125 -0.359375 -2.015625 -0.625q-0.546875 -0.28125 -0.84375 -0.75q-0.28125 -0.46875 -0.28125 -1.046875q0 -0.515625 0.234375 -0.953125q0.234375 -0.453125 0.640625 -0.734375q0.3125 -0.234375 0.84375 -0.390625q0.53125 -0.15625 1.140625 -0.15625q0.90625 0 1.59375 0.265625q0.703125 0.265625 1.03125 0.71875q0.328125 0.4375 0.453125 1.203125l-1.28125 0.171875q-0.09375 -0.609375 -0.515625 -0.9375q-0.421875 -0.34375 -1.1875 -0.34375q-0.90625 0 -1.296875 0.3125q-0.390625 0.296875 -0.390625 0.703125q0 0.25 0.15625 0.453125q0.171875 0.21875 0.515625 0.359375q0.1875 0.0625 1.15625 0.328125q1.40625 0.375 1.953125 0.609375q0.5625 0.234375 0.875 0.703125q0.3125 0.453125 0.3125 1.125q0 0.65625 -0.390625 1.234375q-0.375 0.578125 -1.109375 0.90625q-0.71875 0.3125 -1.640625 0.3125q-1.515625 0 -2.3125 -0.625q-0.78125 -0.625 -1.0 -1.875z" fill-rule="nonzero"></path><path fill="#000000" fill-opacity="0.0" d="m876.1273 351.97638l56.69287 0.50393677" fill-rule="evenodd"></path><path stroke="#000000" stroke-width="2.0" stroke-linejoin="round" stroke-linecap="butt" d="m876.1273 351.97638l44.69336 0.39727783" fill-rule="evenodd"></path><path fill="#000000" stroke="#000000" stroke-width="2.0" stroke-linecap="butt" d="m920.7913 355.677l9.105225 -3.2226868l-9.046509 -3.3840027z" fill-rule="evenodd"></path><path fill="#000000" fill-opacity="0.0" d="m590.8924 361.68372l39.338562 0" fill-rule="evenodd"></path><path stroke="#000000" stroke-width="2.0" stroke-linejoin="round" stroke-linecap="butt" d="m590.8924 361.68372l27.338562 0" fill-rule="evenodd"></path><path fill="#000000" stroke="#000000" stroke-width="2.0" stroke-linecap="butt" d="m618.23096 364.98718l9.076233 -3.3034668l-9.076233 -3.3034668z" fill-rule="evenodd"></path></g></svg>

