<?xml version="1.0" standalone="yes"?>

<svg version="1.1" viewBox="0.0 0.0 1202.286089238845 709.7139107611548" fill="none" stroke="none" stroke-linecap="square" stroke-miterlimit="10" xmlns="http://www.w3.org/2000/svg" xmlns:xlink="http://www.w3.org/1999/xlink"><clipPath id="p.0"><path d="m0 0l1202.2861 0l0 709.7139l-1202.2861 0l0 -709.7139z" clip-rule="nonzero"></path></clipPath><g clip-path="url(#p.0)"><path fill="#000000" fill-opacity="0.0" d="m0 0l1202.2861 0l0 709.7139l-1202.2861 0z" fill-rule="evenodd"></path><path fill="#cfe2f3" d="m181.0643 295.76904l58.92914 0l0 60.3515l-9.821716 9.821716l-49.10742 0z" fill-rule="evenodd"></path><path fill="#a5b4c2" d="m230.17172 365.94226l1.9643402 -7.8573914l7.857376 -1.964325z" fill-rule="evenodd"></path><path fill="#000000" fill-opacity="0.0" d="m230.17172 365.94226l1.9643402 -7.8573914l7.857376 -1.964325l-9.821716 9.821716l-49.10742 0l0 -70.17322l58.92914 0l0 60.3515" fill-rule="evenodd"></path><path stroke="#000000" stroke-width="2.0" stroke-linejoin="round" stroke-linecap="butt" d="m230.17172 365.94226l1.9643402 -7.8573914l7.857376 -1.964325l-9.821716 9.821716l-49.10742 0l0 -70.17322l58.92914 0l0 60.3515" fill-rule="evenodd"></path><path fill="#000000" d="m195.53305 320.5729l1.1875 0.140625q-0.28125 1.046875 -1.046875 1.625q-0.75 0.5625 -1.921875 0.5625q-1.484375 0 -2.359375 -0.90625q-0.859375 -0.921875 -0.859375 -2.5625q0 -1.703125 0.875 -2.640625q0.890625 -0.9375 2.28125 -0.9375q1.359375 0 2.203125 0.921875q0.859375 0.921875 0.859375 2.578125q0 0.109375 0 0.3125l-5.03125 0q0.0625 1.109375 0.625 1.703125q0.5625 0.59375 1.40625 0.59375q0.640625 0 1.078125 -0.328125q0.453125 -0.34375 0.703125 -1.0625zm-3.75 -1.84375l3.765625 0q-0.078125 -0.859375 -0.4375 -1.28125q-0.546875 -0.65625 -1.40625 -0.65625q-0.796875 0 -1.328125 0.53125q-0.53125 0.515625 -0.59375 1.40625zm8.428101 4.015625l-2.5625 -6.734375l1.203125 0l1.4375 4.03125q0.234375 0.65625 0.4375 1.359375q0.15625 -0.53125 0.421875 -1.28125l1.5 -4.109375l1.171875 0l-2.546875 6.734375l-1.0625 0zm9.3984375 -2.171875l1.1875 0.140625q-0.28125 1.046875 -1.046875 1.625q-0.75 0.5625 -1.921875 0.5625q-1.484375 0 -2.359375 -0.90625q-0.859375 -0.921875 -0.859375 -2.5625q0 -1.703125 0.875 -2.640625q0.890625 -0.9375 2.28125 -0.9375q1.359375 0 2.203125 0.921875q0.859375 0.921875 0.859375 2.578125q0 0.109375 0 0.3125l-5.03125 0q0.0625 1.109375 0.625 1.703125q0.5625 0.59375 1.40625 0.59375q0.640625 0 1.078125 -0.328125q0.453125 -0.34375 0.703125 -1.0625zm-3.75 -1.84375l3.765625 0q-0.078125 -0.859375 -0.4375 -1.28125q-0.546875 -0.65625 -1.40625 -0.65625q-0.796875 0 -1.328125 0.53125q-0.53125 0.515625 -0.59375 1.40625zm6.5531006 4.015625l0 -6.734375l1.03125 0l0 0.953125q0.734375 -1.109375 2.140625 -1.109375q0.609375 0 1.109375 0.21875q0.515625 0.21875 0.765625 0.578125q0.265625 0.34375 0.359375 0.84375q0.0625 0.3125 0.0625 1.109375l0 4.140625l-1.140625 0l0 -4.09375q0 -0.703125 -0.140625 -1.046875q-0.125 -0.34375 -0.46875 -0.546875q-0.328125 -0.21875 -0.78125 -0.21875q-0.734375 0 -1.265625 0.46875q-0.53125 0.453125 -0.53125 1.75l0 3.6875l-1.140625 0zm9.912476 -1.015625l0.15625 1.0q-0.484375 0.109375 -0.859375 0.109375q-0.625 0 -0.96875 -0.203125q-0.34375 -0.203125 -0.484375 -0.515625q-0.140625 -0.328125 -0.140625 -1.34375l0 -3.890625l-0.828125 0l0 -0.875l0.828125 0l0 -1.671875l1.140625 -0.6875l0 2.359375l1.15625 0l0 0.875l-1.15625 0l0 3.953125q0 0.484375 0.0625 0.625q0.0625 0.140625 0.1875 0.21875q0.140625 0.078125 0.390625 0.078125q0.203125 0 0.515625 -0.03125z" fill-rule="nonzero"></path><path fill="#000000" d="m190.89243 338.74478l0 -9.3125l1.140625 0l0 9.3125l-1.140625 0zm2.570465 -3.375q0 -1.875 1.03125 -2.765625q0.875 -0.75 2.125 -0.75q1.390625 0 2.265625 0.90625q0.890625 0.90625 0.890625 2.515625q0 1.296875 -0.390625 2.046875q-0.390625 0.75 -1.140625 1.171875q-0.75 0.40625 -1.625 0.40625q-1.421875 0 -2.296875 -0.90625q-0.859375 -0.90625 -0.859375 -2.625zm1.171875 0q0 1.296875 0.5625 1.953125q0.5625 0.640625 1.421875 0.640625q0.84375 0 1.40625 -0.640625q0.578125 -0.65625 0.578125 -1.984375q0 -1.25 -0.578125 -1.890625q-0.5625 -0.65625 -1.40625 -0.65625q-0.859375 0 -1.421875 0.640625q-0.5625 0.640625 -0.5625 1.9375zm6.4437256 3.9375l1.125 0.15625q0.0625 0.515625 0.375 0.75q0.4375 0.328125 1.171875 0.328125q0.78125 0 1.21875 -0.328125q0.4375 -0.3125 0.578125 -0.890625q0.09375 -0.34375 0.09375 -1.453125q-0.75 0.875 -1.875 0.875q-1.390625 0 -2.15625 -1.0q-0.75 -1.0 -0.75 -2.40625q0 -0.96875 0.34375 -1.78125q0.359375 -0.8125 1.015625 -1.25q0.65625 -0.453125 1.5625 -0.453125q1.1875 0 1.96875 0.96875l0 -0.8125l1.046875 0l0 5.8125q0 1.578125 -0.328125 2.234375q-0.3125 0.65625 -1.015625 1.03125q-0.6875 0.390625 -1.703125 0.390625q-1.203125 0 -1.953125 -0.546875q-0.734375 -0.53125 -0.71875 -1.625zm0.953125 -4.046875q0 1.3125 0.515625 1.921875q0.53125 0.609375 1.328125 0.609375q0.796875 0 1.328125 -0.59375q0.53125 -0.609375 0.53125 -1.90625q0 -1.234375 -0.546875 -1.859375q-0.546875 -0.640625 -1.328125 -0.640625q-0.765625 0 -1.296875 0.625q-0.53125 0.625 -0.53125 1.84375z" fill-rule="nonzero"></path><path fill="#cfe2f3" d="m901.10236 376.2875l0 0c0 -3.2557678 2.6393433 -5.895111 5.8951416 -5.895111l87.32782 0c1.5635376 0 3.0629883 0.62109375 4.168518 1.7266235c1.1055298 1.1055603 1.7266235 2.605011 1.7266235 4.1684875l0 23.579834c0 3.2557983 -2.6393433 5.8951416 -5.8951416 5.8951416l-87.32782 0c-3.2557983 0 -5.8951416 -2.6393433 -5.8951416 -5.8951416z" fill-rule="evenodd"></path><path stroke="#000000" stroke-width="2.0" stroke-linejoin="round" stroke-linecap="butt" d="m901.10236 376.2875l0 0c0 -3.2557678 2.6393433 -5.895111 5.8951416 -5.895111l87.32782 0c1.5635376 0 3.0629883 0.62109375 4.168518 1.7266235c1.1055298 1.1055603 1.7266235 2.605011 1.7266235 4.1684875l0 23.579834c0 3.2557983 -2.6393433 5.8951416 -5.8951416 5.8951416l-87.32782 0c-3.2557983 0 -5.8951416 -2.6393433 -5.8951416 -5.8951416z" fill-rule="evenodd"></path><path fill="#000000" d="m912.68835 392.87744l0 -6.734375l1.03125 0l0 0.953125q0.734375 -1.109375 2.140625 -1.109375q0.609375 0 1.109375 0.21875q0.515625 0.21875 0.765625 0.578125q0.265625 0.34375 0.359375 0.84375q0.0625 0.3125 0.0625 1.109375l0 4.140625l-1.140625 0l0 -4.09375q0 -0.703125 -0.140625 -1.046875q-0.125 -0.34375 -0.46875 -0.546875q-0.328125 -0.21875 -0.78125 -0.21875q-0.734375 0 -1.265625 0.46875q-0.53125 0.453125 -0.53125 1.75l0 3.6875l-1.140625 0zm6.9906006 -3.375q0 -1.875 1.03125 -2.765625q0.875 -0.75 2.125 -0.75q1.390625 0 2.265625 0.90625q0.890625 0.90625 0.890625 2.515625q0 1.296875 -0.390625 2.046875q-0.390625 0.75 -1.140625 1.171875q-0.75 0.40625 -1.625 0.40625q-1.421875 0 -2.296875 -0.90625q-0.859375 -0.90625 -0.859375 -2.625zm1.171875 0q0 1.296875 0.5625 1.953125q0.5625 0.640625 1.421875 0.640625q0.84375 0 1.40625 -0.640625q0.578125 -0.65625 0.578125 -1.984375q0 -1.25 -0.578125 -1.890625q-0.5625 -0.65625 -1.40625 -0.65625q-0.859375 0 -1.421875 0.640625q-0.5625 0.640625 -0.5625 1.9375zm9.162476 2.359375l0.15625 1.0q-0.484375 0.109375 -0.859375 0.109375q-0.625 0 -0.96875 -0.203125q-0.34375 -0.203125 -0.484375 -0.515625q-0.140625 -0.328125 -0.140625 -1.34375l0 -3.890625l-0.828125 0l0 -0.875l0.828125 0l0 -1.671875l1.140625 -0.6875l0 2.359375l1.15625 0l0 0.875l-1.15625 0l0 3.953125q0 0.484375 0.0625 0.625q0.0625 0.140625 0.1875 0.21875q0.140625 0.078125 0.390625 0.078125q0.203125 0 0.515625 -0.03125zm1.2030029 -6.96875l0 -1.328125l1.140625 0l0 1.328125l-1.140625 0zm0 7.984375l0 -6.734375l1.140625 0l0 6.734375l-1.140625 0zm3.2266846 0l0 -5.859375l-1.0 0l0 -0.875l1.0 0l0 -0.71875q0 -0.6875 0.125 -1.015625q0.171875 -0.4375 0.578125 -0.71875q0.421875 -0.28125 1.171875 -0.28125q0.484375 0 1.0625 0.125l-0.171875 0.984375q-0.359375 -0.0625 -0.671875 -0.0625q-0.515625 0 -0.734375 0.234375q-0.21875 0.21875 -0.21875 0.828125l0 0.625l1.3125 0l0 0.875l-1.3125 0l0 5.859375l-1.140625 0zm3.437378 -7.984375l0 -1.328125l1.140625 0l0 1.328125l-1.140625 0zm0 7.984375l0 -6.734375l1.140625 0l0 6.734375l-1.140625 0zm7.3517456 -2.46875l1.125 0.140625q-0.171875 1.171875 -0.9375 1.828125q-0.765625 0.65625 -1.859375 0.65625q-1.390625 0 -2.234375 -0.90625q-0.828125 -0.90625 -0.828125 -2.59375q0 -1.09375 0.359375 -1.90625q0.359375 -0.828125 1.09375 -1.234375q0.734375 -0.40625 1.609375 -0.40625q1.09375 0 1.796875 0.5625q0.703125 0.546875 0.890625 1.5625l-1.109375 0.171875q-0.15625 -0.671875 -0.5625 -1.015625q-0.390625 -0.34375 -0.96875 -0.34375q-0.859375 0 -1.40625 0.625q-0.53125 0.609375 -0.53125 1.953125q0 1.359375 0.515625 1.984375q0.515625 0.609375 1.359375 0.609375q0.671875 0 1.125 -0.40625q0.453125 -0.421875 0.5625 -1.28125zm6.6640625 1.640625q-0.625 0.53125 -1.21875 0.765625q-0.578125 0.21875 -1.25 0.21875q-1.125 0 -1.71875 -0.546875q-0.59375 -0.546875 -0.59375 -1.390625q0 -0.484375 0.21875 -0.890625q0.234375 -0.421875 0.59375 -0.671875q0.375 -0.25 0.828125 -0.375q0.328125 -0.078125 1.015625 -0.171875q1.375 -0.15625 2.03125 -0.390625q0.015625 -0.234375 0.015625 -0.296875q0 -0.703125 -0.328125 -0.984375q-0.4375 -0.390625 -1.296875 -0.390625q-0.8125 0 -1.203125 0.28125q-0.375 0.28125 -0.5625 1.0l-1.109375 -0.140625q0.140625 -0.71875 0.484375 -1.15625q0.359375 -0.453125 1.015625 -0.6875q0.671875 -0.234375 1.53125 -0.234375q0.875 0 1.40625 0.203125q0.546875 0.203125 0.796875 0.515625q0.25 0.296875 0.359375 0.765625q0.046875 0.296875 0.046875 1.0625l0 1.515625q0 1.59375 0.078125 2.015625q0.078125 0.421875 0.28125 0.8125l-1.1875 0q-0.171875 -0.359375 -0.234375 -0.828125zm-0.09375 -2.5625q-0.625 0.265625 -1.859375 0.4375q-0.703125 0.109375 -1.0 0.234375q-0.296875 0.125 -0.453125 0.375q-0.15625 0.234375 -0.15625 0.53125q0 0.453125 0.34375 0.765625q0.34375 0.296875 1.015625 0.296875q0.65625 0 1.171875 -0.28125q0.515625 -0.296875 0.765625 -0.796875q0.171875 -0.375 0.171875 -1.140625l0 -0.421875zm5.6156006 2.375l0.15625 1.0q-0.484375 0.109375 -0.859375 0.109375q-0.625 0 -0.96875 -0.203125q-0.34375 -0.203125 -0.484375 -0.515625q-0.140625 -0.328125 -0.140625 -1.34375l0 -3.890625l-0.828125 0l0 -0.875l0.828125 0l0 -1.671875l1.140625 -0.6875l0 2.359375l1.15625 0l0 0.875l-1.15625 0l0 3.953125q0 0.484375 0.0625 0.625q0.0625 0.140625 0.1875 0.21875q0.140625 0.078125 0.390625 0.078125q0.203125 0 0.515625 -0.03125zm1.2029419 -6.96875l0 -1.328125l1.140625 0l0 1.328125l-1.140625 0zm0 7.984375l0 -6.734375l1.140625 0l0 6.734375l-1.140625 0zm2.5392456 -3.375q0 -1.875 1.03125 -2.765625q0.875 -0.75 2.125 -0.75q1.390625 0 2.265625 0.90625q0.890625 0.90625 0.890625 2.515625q0 1.296875 -0.390625 2.046875q-0.390625 0.75 -1.140625 1.171875q-0.75 0.40625 -1.625 0.40625q-1.421875 0 -2.296875 -0.90625q-0.859375 -0.90625 -0.859375 -2.625zm1.171875 0q0 1.296875 0.5625 1.953125q0.5625 0.640625 1.421875 0.640625q0.84375 0 1.40625 -0.640625q0.578125 -0.65625 0.578125 -1.984375q0 -1.25 -0.578125 -1.890625q-0.5625 -0.65625 -1.40625 -0.65625q-0.859375 0 -1.421875 0.640625q-0.5625 0.640625 -0.5625 1.9375zm6.6624756 3.375l0 -6.734375l1.03125 0l0 0.953125q0.734375 -1.109375 2.140625 -1.109375q0.609375 0 1.109375 0.21875q0.515625 0.21875 0.765625 0.578125q0.265625 0.34375 0.359375 0.84375q0.0625 0.3125 0.0625 1.109375l0 4.140625l-1.140625 0l0 -4.09375q0 -0.703125 -0.140625 -1.046875q-0.125 -0.34375 -0.46875 -0.546875q-0.328125 -0.21875 -0.78125 -0.21875q-0.734375 0 -1.265625 0.46875q-0.53125 0.453125 -0.53125 1.75l0 3.6875l-1.140625 0zm6.9593506 -2.015625l1.125 -0.171875q0.09375 0.671875 0.53125 1.046875q0.4375 0.359375 1.21875 0.359375q0.78125 0 1.15625 -0.3125q0.390625 -0.328125 0.390625 -0.765625q0 -0.390625 -0.34375 -0.609375q-0.234375 -0.15625 -1.171875 -0.390625q-1.25 -0.3125 -1.734375 -0.546875q-0.484375 -0.234375 -0.734375 -0.640625q-0.25 -0.40625 -0.25 -0.90625q0 -0.453125 0.203125 -0.828125q0.203125 -0.390625 0.5625 -0.640625q0.265625 -0.203125 0.71875 -0.328125q0.46875 -0.140625 1.0 -0.140625q0.78125 0 1.375 0.234375q0.609375 0.21875 0.890625 0.609375q0.296875 0.390625 0.40625 1.046875l-1.125 0.15625q-0.078125 -0.53125 -0.4375 -0.8125q-0.359375 -0.296875 -1.03125 -0.296875q-0.78125 0 -1.125 0.265625q-0.34375 0.25 -0.34375 0.609375q0 0.21875 0.140625 0.390625q0.140625 0.1875 0.4375 0.3125q0.171875 0.0625 1.015625 0.28125q1.21875 0.328125 1.6875 0.53125q0.484375 0.203125 0.75 0.609375q0.28125 0.390625 0.28125 0.96875q0 0.578125 -0.34375 1.078125q-0.328125 0.5 -0.953125 0.78125q-0.625 0.28125 -1.421875 0.28125q-1.3125 0 -2.0 -0.546875q-0.6875 -0.546875 -0.875 -1.625z" fill-rule="nonzero"></path><path fill="#cfe2f3" d="m901.1037 309.8466l0 0c0 -3.2557983 2.6393433 -5.8951416 5.8950806 -5.8951416l87.32788 0c1.5634766 0 3.0629272 0.62109375 4.168457 1.726654c1.1055908 1.1055298 1.7266846 2.6049805 1.7266846 4.1684875l0 23.579803c0 3.2557983 -2.6393433 5.8951416 -5.8951416 5.8951416l-87.32788 0c-3.2557373 0 -5.8950806 -2.6393433 -5.8950806 -5.8951416z" fill-rule="evenodd"></path><path stroke="#000000" stroke-width="2.0" stroke-linejoin="round" stroke-linecap="butt" d="m901.1037 309.8466l0 0c0 -3.2557983 2.6393433 -5.8951416 5.8950806 -5.8951416l87.32788 0c1.5634766 0 3.0629272 0.62109375 4.168457 1.726654c1.1055908 1.1055298 1.7266846 2.6049805 1.7266846 4.1684875l0 23.579803c0 3.2557983 -2.6393433 5.8951416 -5.8951416 5.8951416l-87.32788 0c-3.2557373 0 -5.8950806 -2.6393433 -5.8950806 -5.8951416z" fill-rule="evenodd"></path><path fill="#000000" d="m917.0647 326.4365l0 -0.84375q-0.640625 1.0 -1.890625 1.0q-0.796875 0 -1.484375 -0.4375q-0.671875 -0.453125 -1.046875 -1.25q-0.375 -0.796875 -0.375 -1.828125q0 -1.015625 0.34375 -1.828125q0.34375 -0.828125 1.015625 -1.265625q0.671875 -0.4375 1.5 -0.4375q0.609375 0 1.078125 0.265625q0.484375 0.25 0.78125 0.65625l0 -3.34375l1.140625 0l0 9.3125l-1.0625 0zm-3.609375 -3.359375q0 1.296875 0.53125 1.9375q0.546875 0.640625 1.296875 0.640625q0.75 0 1.265625 -0.609375q0.53125 -0.625 0.53125 -1.875q0 -1.390625 -0.53125 -2.03125q-0.53125 -0.65625 -1.3125 -0.65625q-0.765625 0 -1.28125 0.625q-0.5 0.625 -0.5 1.96875zm11.256226 1.1875l1.1875 0.140625q-0.28125 1.046875 -1.046875 1.625q-0.75 0.5625 -1.921875 0.5625q-1.484375 0 -2.359375 -0.90625q-0.859375 -0.921875 -0.859375 -2.5625q0 -1.703125 0.875 -2.640625q0.890625 -0.9375 2.28125 -0.9375q1.359375 0 2.203125 0.921875q0.859375 0.921875 0.859375 2.578125q0 0.109375 0 0.3125l-5.03125 0q0.0625 1.109375 0.625 1.703125q0.5625 0.59375 1.40625 0.59375q0.640625 0 1.078125 -0.328125q0.453125 -0.34375 0.703125 -1.0625zm-3.75 -1.84375l3.765625 0q-0.078125 -0.859375 -0.4375 -1.28125q-0.546875 -0.65625 -1.40625 -0.65625q-0.796875 0 -1.328125 0.53125q-0.53125 0.515625 -0.59375 1.40625zm10.943726 1.546875l1.125 0.140625q-0.171875 1.171875 -0.9375 1.828125q-0.765625 0.65625 -1.859375 0.65625q-1.390625 0 -2.234375 -0.90625q-0.828125 -0.90625 -0.828125 -2.59375q0 -1.09375 0.359375 -1.90625q0.359375 -0.828125 1.09375 -1.234375q0.734375 -0.40625 1.609375 -0.40625q1.09375 0 1.796875 0.5625q0.703125 0.546875 0.890625 1.5625l-1.109375 0.171875q-0.15625 -0.671875 -0.5625 -1.015625q-0.390625 -0.34375 -0.96875 -0.34375q-0.859375 0 -1.40625 0.625q-0.53125 0.609375 -0.53125 1.953125q0 1.359375 0.515625 1.984375q0.515625 0.609375 1.359375 0.609375q0.671875 0 1.125 -0.40625q0.453125 -0.421875 0.5625 -1.28125zm1.8515625 -0.90625q0 -1.875 1.03125 -2.765625q0.875 -0.75 2.125 -0.75q1.390625 0 2.265625 0.90625q0.890625 0.90625 0.890625 2.515625q0 1.296875 -0.390625 2.046875q-0.390625 0.75 -1.140625 1.171875q-0.75 0.40625 -1.625 0.40625q-1.421875 0 -2.296875 -0.90625q-0.859375 -0.90625 -0.859375 -2.625zm1.171875 0q0 1.296875 0.5625 1.953125q0.5625 0.640625 1.421875 0.640625q0.84375 0 1.40625 -0.640625q0.578125 -0.65625 0.578125 -1.984375q0 -1.25 -0.578125 -1.890625q-0.5625 -0.65625 -1.40625 -0.65625q-0.859375 0 -1.421875 0.640625q-0.5625 0.640625 -0.5625 1.9375zm6.6468506 3.375l0 -6.734375l1.03125 0l0 1.015625q0.390625 -0.71875 0.71875 -0.9375q0.34375 -0.234375 0.734375 -0.234375q0.578125 0 1.171875 0.359375l-0.390625 1.0625q-0.421875 -0.25 -0.828125 -0.25q-0.375 0 -0.6875 0.234375q-0.296875 0.21875 -0.421875 0.625q-0.1875 0.609375 -0.1875 1.328125l0 3.53125l-1.140625 0zm8.8446045 -0.828125q-0.625 0.53125 -1.21875 0.765625q-0.578125 0.21875 -1.25 0.21875q-1.125 0 -1.71875 -0.546875q-0.59375 -0.546875 -0.59375 -1.390625q0 -0.484375 0.21875 -0.890625q0.234375 -0.421875 0.59375 -0.671875q0.375 -0.25 0.828125 -0.375q0.328125 -0.078125 1.015625 -0.171875q1.375 -0.15625 2.03125 -0.390625q0.015625 -0.234375 0.015625 -0.296875q0 -0.703125 -0.328125 -0.984375q-0.4375 -0.390625 -1.296875 -0.390625q-0.8125 0 -1.203125 0.28125q-0.375 0.28125 -0.5625 1.0l-1.109375 -0.140625q0.140625 -0.71875 0.484375 -1.15625q0.359375 -0.453125 1.015625 -0.6875q0.671875 -0.234375 1.53125 -0.234375q0.875 0 1.40625 0.203125q0.546875 0.203125 0.796875 0.515625q0.25 0.296875 0.359375 0.765625q0.046875 0.296875 0.046875 1.0625l0 1.515625q0 1.59375 0.078125 2.015625q0.078125 0.421875 0.28125 0.8125l-1.1875 0q-0.171875 -0.359375 -0.234375 -0.828125zm-0.09375 -2.5625q-0.625 0.265625 -1.859375 0.4375q-0.703125 0.109375 -1.0 0.234375q-0.296875 0.125 -0.453125 0.375q-0.15625 0.234375 -0.15625 0.53125q0 0.453125 0.34375 0.765625q0.34375 0.296875 1.015625 0.296875q0.65625 0 1.171875 -0.28125q0.515625 -0.296875 0.765625 -0.796875q0.171875 -0.375 0.171875 -1.140625l0 -0.421875zm5.6156006 2.375l0.15625 1.0q-0.484375 0.109375 -0.859375 0.109375q-0.625 0 -0.96875 -0.203125q-0.34375 -0.203125 -0.484375 -0.515625q-0.140625 -0.328125 -0.140625 -1.34375l0 -3.890625l-0.828125 0l0 -0.875l0.828125 0l0 -1.671875l1.140625 -0.6875l0 2.359375l1.15625 0l0 0.875l-1.15625 0l0 3.953125q0 0.484375 0.0625 0.625q0.0625 0.140625 0.1875 0.21875q0.140625 0.078125 0.390625 0.078125q0.203125 0 0.515625 -0.03125zm1.2030029 -6.96875l0 -1.328125l1.140625 0l0 1.328125l-1.140625 0zm0 7.984375l0 -6.734375l1.140625 0l0 6.734375l-1.140625 0zm2.5391846 -3.375q0 -1.875 1.03125 -2.765625q0.875 -0.75 2.125 -0.75q1.390625 0 2.265625 0.90625q0.890625 0.90625 0.890625 2.515625q0 1.296875 -0.390625 2.046875q-0.390625 0.75 -1.140625 1.171875q-0.75 0.40625 -1.625 0.40625q-1.421875 0 -2.296875 -0.90625q-0.859375 -0.90625 -0.859375 -2.625zm1.171875 0q0 1.296875 0.5625 1.953125q0.5625 0.640625 1.421875 0.640625q0.84375 0 1.40625 -0.640625q0.578125 -0.65625 0.578125 -1.984375q0 -1.25 -0.578125 -1.890625q-0.5625 -0.65625 -1.40625 -0.65625q-0.859375 0 -1.421875 0.640625q-0.5625 0.640625 -0.5625 1.9375zm6.6624756 3.375l0 -6.734375l1.03125 0l0 0.953125q0.734375 -1.109375 2.140625 -1.109375q0.609375 0 1.109375 0.21875q0.515625 0.21875 0.765625 0.578125q0.265625 0.34375 0.359375 0.84375q0.0625 0.3125 0.0625 1.109375l0 4.140625l-1.140625 0l0 -4.09375q0 -0.703125 -0.140625 -1.046875q-0.125 -0.34375 -0.46875 -0.546875q-0.328125 -0.21875 -0.78125 -0.21875q-0.734375 0 -1.265625 0.46875q-0.53125 0.453125 -0.53125 1.75l0 3.6875l-1.140625 0z" fill-rule="nonzero"></path><path fill="#cfe2f3" d="m197.0643 311.76904l58.92914 0l0 60.3515l-9.821716 9.821716l-49.10742 0z" fill-rule="evenodd"></path><path fill="#a5b4c2" d="m246.17172 381.94226l1.9643402 -7.8573914l7.857376 -1.964325z" fill-rule="evenodd"></path><path fill="#000000" fill-opacity="0.0" d="m246.17172 381.94226l1.9643402 -7.8573914l7.857376 -1.964325l-9.821716 9.821716l-49.10742 0l0 -70.17322l58.92914 0l0 60.3515" fill-rule="evenodd"></path><path stroke="#000000" stroke-width="2.0" stroke-linejoin="round" stroke-linecap="butt" d="m246.17172 381.94226l1.9643402 -7.8573914l7.857376 -1.964325l-9.821716 9.821716l-49.10742 0l0 -70.17322l58.92914 0l0 60.3515" fill-rule="evenodd"></path><path fill="#000000" d="m211.53305 336.5729l1.1875 0.140625q-0.28125 1.046875 -1.046875 1.625q-0.75 0.5625 -1.921875 0.5625q-1.484375 0 -2.359375 -0.90625q-0.859375 -0.921875 -0.859375 -2.5625q0 -1.703125 0.875 -2.640625q0.890625 -0.9375 2.28125 -0.9375q1.359375 0 2.203125 0.921875q0.859375 0.921875 0.859375 2.578125q0 0.109375 0 0.3125l-5.03125 0q0.0625 1.109375 0.625 1.703125q0.5625 0.59375 1.40625 0.59375q0.640625 0 1.078125 -0.328125q0.453125 -0.34375 0.703125 -1.0625zm-3.75 -1.84375l3.765625 0q-0.078125 -0.859375 -0.4375 -1.28125q-0.546875 -0.65625 -1.40625 -0.65625q-0.796875 0 -1.328125 0.53125q-0.53125 0.515625 -0.59375 1.40625zm8.428101 4.015625l-2.5625 -6.734375l1.203125 0l1.4375 4.03125q0.234375 0.65625 0.4375 1.359375q0.15625 -0.53125 0.421875 -1.28125l1.5 -4.109375l1.171875 0l-2.546875 6.734375l-1.0625 0zm9.3984375 -2.171875l1.1875 0.140625q-0.28125 1.046875 -1.046875 1.625q-0.75 0.5625 -1.921875 0.5625q-1.484375 0 -2.359375 -0.90625q-0.859375 -0.921875 -0.859375 -2.5625q0 -1.703125 0.875 -2.640625q0.890625 -0.9375 2.28125 -0.9375q1.359375 0 2.203125 0.921875q0.859375 0.921875 0.859375 2.578125q0 0.109375 0 0.3125l-5.03125 0q0.0625 1.109375 0.625 1.703125q0.5625 0.59375 1.40625 0.59375q0.640625 0 1.078125 -0.328125q0.453125 -0.34375 0.703125 -1.0625zm-3.75 -1.84375l3.765625 0q-0.078125 -0.859375 -0.4375 -1.28125q-0.546875 -0.65625 -1.40625 -0.65625q-0.796875 0 -1.328125 0.53125q-0.53125 0.515625 -0.59375 1.40625zm6.5531006 4.015625l0 -6.734375l1.03125 0l0 0.953125q0.734375 -1.109375 2.140625 -1.109375q0.609375 0 1.109375 0.21875q0.515625 0.21875 0.765625 0.578125q0.265625 0.34375 0.359375 0.84375q0.0625 0.3125 0.0625 1.109375l0 4.140625l-1.140625 0l0 -4.09375q0 -0.703125 -0.140625 -1.046875q-0.125 -0.34375 -0.46875 -0.546875q-0.328125 -0.21875 -0.78125 -0.21875q-0.734375 0 -1.265625 0.46875q-0.53125 0.453125 -0.53125 1.75l0 3.6875l-1.140625 0zm9.912476 -1.015625l0.15625 1.0q-0.484375 0.109375 -0.859375 0.109375q-0.625 0 -0.96875 -0.203125q-0.34375 -0.203125 -0.484375 -0.515625q-0.140625 -0.328125 -0.140625 -1.34375l0 -3.890625l-0.828125 0l0 -0.875l0.828125 0l0 -1.671875l1.140625 -0.6875l0 2.359375l1.15625 0l0 0.875l-1.15625 0l0 3.953125q0 0.484375 0.0625 0.625q0.0625 0.140625 0.1875 0.21875q0.140625 0.078125 0.390625 0.078125q0.203125 0 0.515625 -0.03125z" fill-rule="nonzero"></path><path fill="#000000" d="m206.89243 354.74478l0 -9.3125l1.140625 0l0 9.3125l-1.140625 0zm2.570465 -3.375q0 -1.875 1.03125 -2.765625q0.875 -0.75 2.125 -0.75q1.390625 0 2.265625 0.90625q0.890625 0.90625 0.890625 2.515625q0 1.296875 -0.390625 2.046875q-0.390625 0.75 -1.140625 1.171875q-0.75 0.40625 -1.625 0.40625q-1.421875 0 -2.296875 -0.90625q-0.859375 -0.90625 -0.859375 -2.625zm1.171875 0q0 1.296875 0.5625 1.953125q0.5625 0.640625 1.421875 0.640625q0.84375 0 1.40625 -0.640625q0.578125 -0.65625 0.578125 -1.984375q0 -1.25 -0.578125 -1.890625q-0.5625 -0.65625 -1.40625 -0.65625q-0.859375 0 -1.421875 0.640625q-0.5625 0.640625 -0.5625 1.9375zm6.4437256 3.9375l1.125 0.15625q0.0625 0.515625 0.375 0.75q0.4375 0.328125 1.171875 0.328125q0.78125 0 1.21875 -0.328125q0.4375 -0.3125 0.578125 -0.890625q0.09375 -0.34375 0.09375 -1.453125q-0.75 0.875 -1.875 0.875q-1.390625 0 -2.15625 -1.0q-0.75 -1.0 -0.75 -2.40625q0 -0.96875 0.34375 -1.78125q0.359375 -0.8125 1.015625 -1.25q0.65625 -0.453125 1.5625 -0.453125q1.1875 0 1.96875 0.96875l0 -0.8125l1.046875 0l0 5.8125q0 1.578125 -0.328125 2.234375q-0.3125 0.65625 -1.015625 1.03125q-0.6875 0.390625 -1.703125 0.390625q-1.203125 0 -1.953125 -0.546875q-0.734375 -0.53125 -0.71875 -1.625zm0.953125 -4.046875q0 1.3125 0.515625 1.921875q0.53125 0.609375 1.328125 0.609375q0.796875 0 1.328125 -0.59375q0.53125 -0.609375 0.53125 -1.90625q0 -1.234375 -0.546875 -1.859375q-0.546875 -0.640625 -1.328125 -0.640625q-0.765625 0 -1.296875 0.625q-0.53125 0.625 -0.53125 1.84375z" fill-rule="nonzero"></path><path fill="#cfe2f3" d="m213.0643 327.76904l58.92914 0l0 60.3515l-9.821716 9.821716l-49.10742 0z" fill-rule="evenodd"></path><path fill="#a5b4c2" d="m262.17172 397.94226l1.9643555 -7.8573914l7.857361 -1.964325z" fill-rule="evenodd"></path><path fill="#000000" fill-opacity="0.0" d="m262.17172 397.94226l1.9643555 -7.8573914l7.857361 -1.964325l-9.821716 9.821716l-49.10742 0l0 -70.17322l58.92914 0l0 60.3515" fill-rule="evenodd"></path><path stroke="#000000" stroke-width="2.0" stroke-linejoin="round" stroke-linecap="butt" d="m262.17172 397.94226l1.9643555 -7.8573914l7.857361 -1.964325l-9.821716 9.821716l-49.10742 0l0 -70.17322l58.92914 0l0 60.3515" fill-rule="evenodd"></path><path fill="#000000" d="m227.53305 352.5729l1.1875 0.140625q-0.28125 1.046875 -1.046875 1.625q-0.75 0.5625 -1.921875 0.5625q-1.484375 0 -2.359375 -0.90625q-0.859375 -0.921875 -0.859375 -2.5625q0 -1.703125 0.875 -2.640625q0.890625 -0.9375 2.28125 -0.9375q1.359375 0 2.203125 0.921875q0.859375 0.921875 0.859375 2.578125q0 0.109375 0 0.3125l-5.03125 0q0.0625 1.109375 0.625 1.703125q0.5625 0.59375 1.40625 0.59375q0.640625 0 1.078125 -0.328125q0.453125 -0.34375 0.703125 -1.0625zm-3.75 -1.84375l3.765625 0q-0.078125 -0.859375 -0.4375 -1.28125q-0.546875 -0.65625 -1.40625 -0.65625q-0.796875 0 -1.328125 0.53125q-0.53125 0.515625 -0.59375 1.40625zm8.428101 4.015625l-2.5625 -6.734375l1.203125 0l1.4375 4.03125q0.234375 0.65625 0.4375 1.359375q0.15625 -0.53125 0.421875 -1.28125l1.5 -4.109375l1.171875 0l-2.546875 6.734375l-1.0625 0zm9.3984375 -2.171875l1.1875 0.140625q-0.28125 1.046875 -1.046875 1.625q-0.75 0.5625 -1.921875 0.5625q-1.484375 0 -2.359375 -0.90625q-0.859375 -0.921875 -0.859375 -2.5625q0 -1.703125 0.875 -2.640625q0.890625 -0.9375 2.28125 -0.9375q1.359375 0 2.203125 0.921875q0.859375 0.921875 0.859375 2.578125q0 0.109375 0 0.3125l-5.03125 0q0.0625 1.109375 0.625 1.703125q0.5625 0.59375 1.40625 0.59375q0.640625 0 1.078125 -0.328125q0.453125 -0.34375 0.703125 -1.0625zm-3.75 -1.84375l3.765625 0q-0.078125 -0.859375 -0.4375 -1.28125q-0.546875 -0.65625 -1.40625 -0.65625q-0.796875 0 -1.328125 0.53125q-0.53125 0.515625 -0.59375 1.40625zm6.5531006 4.015625l0 -6.734375l1.03125 0l0 0.953125q0.734375 -1.109375 2.140625 -1.109375q0.609375 0 1.109375 0.21875q0.515625 0.21875 0.765625 0.578125q0.265625 0.34375 0.359375 0.84375q0.0625 0.3125 0.0625 1.109375l0 4.140625l-1.140625 0l0 -4.09375q0 -0.703125 -0.140625 -1.046875q-0.125 -0.34375 -0.46875 -0.546875q-0.328125 -0.21875 -0.78125 -0.21875q-0.734375 0 -1.265625 0.46875q-0.53125 0.453125 -0.53125 1.75l0 3.6875l-1.140625 0zm9.912476 -1.015625l0.15625 1.0q-0.484375 0.109375 -0.859375 0.109375q-0.625 0 -0.96875 -0.203125q-0.34375 -0.203125 -0.484375 -0.515625q-0.140625 -0.328125 -0.140625 -1.34375l0 -3.890625l-0.828125 0l0 -0.875l0.828125 0l0 -1.671875l1.140625 -0.6875l0 2.359375l1.15625 0l0 0.875l-1.15625 0l0 3.953125q0 0.484375 0.0625 0.625q0.0625 0.140625 0.1875 0.21875q0.140625 0.078125 0.390625 0.078125q0.203125 0 0.515625 -0.03125z" fill-rule="nonzero"></path><path fill="#000000" d="m222.89243 370.74478l0 -9.3125l1.140625 0l0 9.3125l-1.140625 0zm2.570465 -3.375q0 -1.875 1.03125 -2.765625q0.875 -0.75 2.125 -0.75q1.390625 0 2.265625 0.90625q0.890625 0.90625 0.890625 2.515625q0 1.296875 -0.390625 2.046875q-0.390625 0.75 -1.140625 1.171875q-0.75 0.40625 -1.625 0.40625q-1.421875 0 -2.296875 -0.90625q-0.859375 -0.90625 -0.859375 -2.625zm1.171875 0q0 1.296875 0.5625 1.953125q0.5625 0.640625 1.421875 0.640625q0.84375 0 1.40625 -0.640625q0.578125 -0.65625 0.578125 -1.984375q0 -1.25 -0.578125 -1.890625q-0.5625 -0.65625 -1.40625 -0.65625q-0.859375 0 -1.421875 0.640625q-0.5625 0.640625 -0.5625 1.9375zm6.4437256 3.9375l1.125 0.15625q0.0625 0.515625 0.375 0.75q0.4375 0.328125 1.171875 0.328125q0.78125 0 1.21875 -0.328125q0.4375 -0.3125 0.578125 -0.890625q0.09375 -0.34375 0.09375 -1.453125q-0.75 0.875 -1.875 0.875q-1.390625 0 -2.15625 -1.0q-0.75 -1.0 -0.75 -2.40625q0 -0.96875 0.34375 -1.78125q0.359375 -0.8125 1.015625 -1.25q0.65625 -0.453125 1.5625 -0.453125q1.1875 0 1.96875 0.96875l0 -0.8125l1.046875 0l0 5.8125q0 1.578125 -0.328125 2.234375q-0.3125 0.65625 -1.015625 1.03125q-0.6875 0.390625 -1.703125 0.390625q-1.203125 0 -1.953125 -0.546875q-0.734375 -0.53125 -0.71875 -1.625zm0.953125 -4.046875q0 1.3125 0.515625 1.921875q0.53125 0.609375 1.328125 0.609375q0.796875 0 1.328125 -0.59375q0.53125 -0.609375 0.53125 -1.90625q0 -1.234375 -0.546875 -1.859375q-0.546875 -0.640625 -1.328125 -0.640625q-0.765625 0 -1.296875 0.625q-0.53125 0.625 -0.53125 1.84375z" fill-rule="nonzero"></path><path fill="#cfe2f3" d="m229.0643 343.76904l58.92914 0l0 60.3515l-9.821716 9.821716l-49.10742 0z" fill-rule="evenodd"></path><path fill="#a5b4c2" d="m278.17172 413.94226l1.9643555 -7.8573914l7.857361 -1.964325z" fill-rule="evenodd"></path><path fill="#000000" fill-opacity="0.0" d="m278.17172 413.94226l1.9643555 -7.8573914l7.857361 -1.964325l-9.821716 9.821716l-49.10742 0l0 -70.17322l58.92914 0l0 60.3515" fill-rule="evenodd"></path><path stroke="#000000" stroke-width="2.0" stroke-linejoin="round" stroke-linecap="butt" d="m278.17172 413.94226l1.9643555 -7.8573914l7.857361 -1.964325l-9.821716 9.821716l-49.10742 0l0 -70.17322l58.92914 0l0 60.3515" fill-rule="evenodd"></path><path fill="#000000" d="m243.53305 368.5729l1.1875 0.140625q-0.28125 1.046875 -1.046875 1.625q-0.75 0.5625 -1.921875 0.5625q-1.484375 0 -2.359375 -0.90625q-0.859375 -0.921875 -0.859375 -2.5625q0 -1.703125 0.875 -2.640625q0.890625 -0.9375 2.28125 -0.9375q1.359375 0 2.203125 0.921875q0.859375 0.921875 0.859375 2.578125q0 0.109375 0 0.3125l-5.03125 0q0.0625 1.109375 0.625 1.703125q0.5625 0.59375 1.40625 0.59375q0.640625 0 1.078125 -0.328125q0.453125 -0.34375 0.703125 -1.0625zm-3.75 -1.84375l3.765625 0q-0.078125 -0.859375 -0.4375 -1.28125q-0.546875 -0.65625 -1.40625 -0.65625q-0.796875 0 -1.328125 0.53125q-0.53125 0.515625 -0.59375 1.40625zm8.428101 4.015625l-2.5625 -6.734375l1.203125 0l1.4375 4.03125q0.234375 0.65625 0.4375 1.359375q0.15625 -0.53125 0.421875 -1.28125l1.5 -4.109375l1.171875 0l-2.546875 6.734375l-1.0625 0zm9.3984375 -2.171875l1.1875 0.140625q-0.28125 1.046875 -1.046875 1.625q-0.75 0.5625 -1.921875 0.5625q-1.484375 0 -2.359375 -0.90625q-0.859375 -0.921875 -0.859375 -2.5625q0 -1.703125 0.875 -2.640625q0.890625 -0.9375 2.28125 -0.9375q1.359375 0 2.203125 0.921875q0.859375 0.921875 0.859375 2.578125q0 0.109375 0 0.3125l-5.03125 0q0.0625 1.109375 0.625 1.703125q0.5625 0.59375 1.40625 0.59375q0.640625 0 1.078125 -0.328125q0.453125 -0.34375 0.703125 -1.0625zm-3.75 -1.84375l3.765625 0q-0.078125 -0.859375 -0.4375 -1.28125q-0.546875 -0.65625 -1.40625 -0.65625q-0.796875 0 -1.328125 0.53125q-0.53125 0.515625 -0.59375 1.40625zm6.5531006 4.015625l0 -6.734375l1.03125 0l0 0.953125q0.734375 -1.109375 2.140625 -1.109375q0.609375 0 1.109375 0.21875q0.515625 0.21875 0.765625 0.578125q0.265625 0.34375 0.359375 0.84375q0.0625 0.3125 0.0625 1.109375l0 4.140625l-1.140625 0l0 -4.09375q0 -0.703125 -0.140625 -1.046875q-0.125 -0.34375 -0.46875 -0.546875q-0.328125 -0.21875 -0.78125 -0.21875q-0.734375 0 -1.265625 0.46875q-0.53125 0.453125 -0.53125 1.75l0 3.6875l-1.140625 0zm9.912476 -1.015625l0.15625 1.0q-0.484375 0.109375 -0.859375 0.109375q-0.625 0 -0.96875 -0.203125q-0.34375 -0.203125 -0.484375 -0.515625q-0.140625 -0.328125 -0.140625 -1.34375l0 -3.890625l-0.828125 0l0 -0.875l0.828125 0l0 -1.671875l1.140625 -0.6875l0 2.359375l1.15625 0l0 0.875l-1.15625 0l0 3.953125q0 0.484375 0.0625 0.625q0.0625 0.140625 0.1875 0.21875q0.140625 0.078125 0.390625 0.078125q0.203125 0 0.515625 -0.03125z" fill-rule="nonzero"></path><path fill="#000000" d="m238.89243 386.74478l0 -9.3125l1.140625 0l0 9.3125l-1.140625 0zm2.570465 -3.375q0 -1.875 1.03125 -2.765625q0.875 -0.75 2.125 -0.75q1.390625 0 2.265625 0.90625q0.890625 0.90625 0.890625 2.515625q0 1.296875 -0.390625 2.046875q-0.390625 0.75 -1.140625 1.171875q-0.75 0.40625 -1.625 0.40625q-1.421875 0 -2.296875 -0.90625q-0.859375 -0.90625 -0.859375 -2.625zm1.171875 0q0 1.296875 0.5625 1.953125q0.5625 0.640625 1.421875 0.640625q0.84375 0 1.40625 -0.640625q0.578125 -0.65625 0.578125 -1.984375q0 -1.25 -0.578125 -1.890625q-0.5625 -0.65625 -1.40625 -0.65625q-0.859375 0 -1.421875 0.640625q-0.5625 0.640625 -0.5625 1.9375zm6.4437256 3.9375l1.125 0.15625q0.0625 0.515625 0.375 0.75q0.4375 0.328125 1.171875 0.328125q0.78125 0 1.21875 -0.328125q0.4375 -0.3125 0.578125 -0.890625q0.09375 -0.34375 0.09375 -1.453125q-0.75 0.875 -1.875 0.875q-1.390625 0 -2.15625 -1.0q-0.75 -1.0 -0.75 -2.40625q0 -0.96875 0.34375 -1.78125q0.359375 -0.8125 1.015625 -1.25q0.65625 -0.453125 1.5625 -0.453125q1.1875 0 1.96875 0.96875l0 -0.8125l1.046875 0l0 5.8125q0 1.578125 -0.328125 2.234375q-0.3125 0.65625 -1.015625 1.03125q-0.6875 0.390625 -1.703125 0.390625q-1.203125 0 -1.953125 -0.546875q-0.734375 -0.53125 -0.71875 -1.625zm0.953125 -4.046875q0 1.3125 0.515625 1.921875q0.53125 0.609375 1.328125 0.609375q0.796875 0 1.328125 -0.59375q0.53125 -0.609375 0.53125 -1.90625q0 -1.234375 -0.546875 -1.859375q-0.546875 -0.640625 -1.328125 -0.640625q-0.765625 0 -1.296875 0.625q-0.53125 0.625 -0.53125 1.84375z" fill-rule="nonzero"></path><path fill="#fff2cc" d="m239.99475 161.24934l24.713898 0l0 0l37.070892 0l86.49869 0l0 34.026245l0 0l0 14.582672l0 9.7217865l-86.49869 0l-34.683014 83.49341l-2.3878784 -83.49341l-24.713898 0l0 -9.7217865l0 -14.582672l0 0z" fill-rule="evenodd"></path><path stroke="#000000" stroke-width="1.0" stroke-linejoin="round" stroke-linecap="butt" d="m239.99475 161.24934l24.713898 0l0 0l37.070892 0l86.49869 0l0 34.026245l0 0l0 14.582672l0 9.7217865l-86.49869 0l-34.683014 83.49341l-2.3878784 -83.49341l-24.713898 0l0 -9.7217865l0 -14.582672l0 0z" fill-rule="evenodd"></path><path fill="#000000" d="m273.90637 201.11594l0 -13.640625l1.53125 0l0 1.28125q0.53125 -0.75 1.203125 -1.125q0.6875 -0.375 1.640625 -0.375q1.265625 0 2.234375 0.65625q0.96875 0.640625 1.453125 1.828125q0.5 1.1875 0.5 2.59375q0 1.515625 -0.546875 2.734375q-0.546875 1.203125 -1.578125 1.84375q-1.03125 0.640625 -2.171875 0.640625q-0.84375 0 -1.515625 -0.34375q-0.65625 -0.359375 -1.078125 -0.890625l0 4.796875l-1.671875 0zm1.515625 -8.65625q0 1.90625 0.765625 2.8125q0.78125 0.90625 1.875 0.90625q1.109375 0 1.890625 -0.9375q0.796875 -0.9375 0.796875 -2.921875q0 -1.875 -0.78125 -2.8125q-0.765625 -0.9375 -1.84375 -0.9375q-1.0625 0 -1.890625 1.0q-0.8125 1.0 -0.8125 2.890625zm8.844482 4.875l0 -9.859375l1.5 0l0 1.5q0.578125 -1.046875 1.0625 -1.375q0.484375 -0.34375 1.078125 -0.34375q0.84375 0 1.71875 0.546875l-0.578125 1.546875q-0.609375 -0.359375 -1.234375 -0.359375q-0.546875 0 -0.984375 0.328125q-0.421875 0.328125 -0.609375 0.90625q-0.28125 0.890625 -0.28125 1.953125l0 5.15625l-1.671875 0zm5.603302 -4.921875q0 -2.734375 1.53125 -4.0625q1.265625 -1.09375 3.09375 -1.09375q2.03125 0 3.3125 1.34375q1.296875 1.328125 1.296875 3.671875q0 1.90625 -0.578125 3.0q-0.5625 1.078125 -1.65625 1.6875q-1.078125 0.59375 -2.375 0.59375q-2.0625 0 -3.34375 -1.328125q-1.28125 -1.328125 -1.28125 -3.8125zm1.71875 0q0 1.890625 0.828125 2.828125q0.828125 0.9375 2.078125 0.9375q1.25 0 2.0625 -0.9375q0.828125 -0.953125 0.828125 -2.890625q0 -1.828125 -0.828125 -2.765625q-0.828125 -0.9375 -2.0625 -0.9375q-1.25 0 -2.078125 0.9375q-0.828125 0.9375 -0.828125 2.828125zm15.672577 4.921875l0 -1.25q-0.9375 1.46875 -2.75 1.46875q-1.171875 0 -2.171875 -0.640625q-0.984375 -0.65625 -1.53125 -1.8125q-0.53125 -1.171875 -0.53125 -2.6875q0 -1.46875 0.484375 -2.671875q0.5 -1.203125 1.46875 -1.84375q0.984375 -0.640625 2.203125 -0.640625q0.890625 0 1.578125 0.375q0.703125 0.375 1.140625 0.984375l0 -4.875l1.65625 0l0 13.59375l-1.546875 0zm-5.28125 -4.921875q0 1.890625 0.796875 2.828125q0.8125 0.9375 1.890625 0.9375q1.09375 0 1.859375 -0.890625q0.765625 -0.890625 0.765625 -2.734375q0 -2.015625 -0.78125 -2.953125q-0.78125 -0.953125 -1.921875 -0.953125q-1.109375 0 -1.859375 0.90625q-0.75 0.90625 -0.75 2.859375zm15.719482 4.921875l0 -1.453125q-1.140625 1.671875 -3.125 1.671875q-0.859375 0 -1.625 -0.328125q-0.75 -0.34375 -1.125 -0.84375q-0.359375 -0.5 -0.515625 -1.234375q-0.09375 -0.5 -0.09375 -1.5625l0 -6.109375l1.671875 0l0 5.46875q0 1.3125 0.09375 1.765625q0.15625 0.65625 0.671875 1.03125q0.515625 0.375 1.265625 0.375q0.75 0 1.40625 -0.375q0.65625 -0.390625 0.921875 -1.046875q0.28125 -0.671875 0.28125 -1.9375l0 -5.28125l1.671875 0l0 9.859375l-1.5 0zm10.360077 -3.609375l1.640625 0.21875q-0.265625 1.6875 -1.375 2.65625q-1.109375 0.953125 -2.734375 0.953125q-2.015625 0 -3.25 -1.3125q-1.21875 -1.328125 -1.21875 -3.796875q0 -1.59375 0.515625 -2.78125q0.53125 -1.203125 1.609375 -1.796875q1.09375 -0.609375 2.359375 -0.609375q1.609375 0 2.625 0.8125q1.015625 0.8125 1.3125 2.3125l-1.625 0.25q-0.234375 -1.0 -0.828125 -1.5q-0.59375 -0.5 -1.421875 -0.5q-1.265625 0 -2.0625 0.90625q-0.78125 0.90625 -0.78125 2.859375q0 1.984375 0.765625 2.890625q0.765625 0.890625 1.984375 0.890625q0.984375 0 1.640625 -0.59375q0.65625 -0.609375 0.84375 -1.859375zm9.640625 0.4375l1.71875 0.21875q-0.40625 1.5 -1.515625 2.34375q-1.09375 0.828125 -2.8125 0.828125q-2.15625 0 -3.421875 -1.328125q-1.265625 -1.328125 -1.265625 -3.734375q0 -2.484375 1.265625 -3.859375q1.28125 -1.375 3.328125 -1.375q1.984375 0 3.234375 1.34375q1.25 1.34375 1.25 3.796875q0 0.140625 -0.015625 0.4375l-7.34375 0q0.09375 1.625 0.921875 2.484375q0.828125 0.859375 2.0625 0.859375q0.90625 0 1.546875 -0.46875q0.65625 -0.484375 1.046875 -1.546875zm-5.484375 -2.703125l5.5 0q-0.109375 -1.234375 -0.625 -1.859375q-0.796875 -0.96875 -2.078125 -0.96875q-1.140625 0 -1.9375 0.78125q-0.78125 0.765625 -0.859375 2.046875zm9.094482 5.875l0 -9.859375l1.5 0l0 1.5q0.578125 -1.046875 1.0625 -1.375q0.484375 -0.34375 1.078125 -0.34375q0.84375 0 1.71875 0.546875l-0.578125 1.546875q-0.609375 -0.359375 -1.234375 -0.359375q-0.546875 0 -0.984375 0.328125q-0.421875 0.328125 -0.609375 0.90625q-0.28125 0.890625 -0.28125 1.953125l0 5.15625l-1.671875 0zm5.556427 -2.9375l1.65625 -0.265625q0.140625 1.0 0.765625 1.53125q0.640625 0.515625 1.78125 0.515625q1.15625 0 1.703125 -0.46875q0.5625 -0.46875 0.5625 -1.09375q0 -0.5625 -0.484375 -0.890625q-0.34375 -0.21875 -1.703125 -0.5625q-1.84375 -0.46875 -2.5625 -0.796875q-0.703125 -0.34375 -1.078125 -0.9375q-0.359375 -0.609375 -0.359375 -1.328125q0 -0.65625 0.296875 -1.21875q0.3125 -0.5625 0.828125 -0.9375q0.390625 -0.28125 1.0625 -0.484375q0.671875 -0.203125 1.4375 -0.203125q1.171875 0 2.046875 0.34375q0.875 0.328125 1.28125 0.90625q0.421875 0.5625 0.578125 1.515625l-1.625 0.21875q-0.109375 -0.75 -0.65625 -1.171875q-0.53125 -0.4375 -1.5 -0.4375q-1.15625 0 -1.640625 0.390625q-0.484375 0.375 -0.484375 0.875q0 0.328125 0.203125 0.59375q0.203125 0.265625 0.640625 0.4375q0.25 0.09375 1.46875 0.4375q1.765625 0.46875 2.46875 0.765625q0.703125 0.296875 1.09375 0.875q0.40625 0.578125 0.40625 1.4375q0 0.828125 -0.484375 1.578125q-0.484375 0.734375 -1.40625 1.140625q-0.921875 0.390625 -2.078125 0.390625q-1.921875 0 -2.9375 -0.796875q-1.0 -0.796875 -1.28125 -2.359375z" fill-rule="nonzero"></path><path fill="#fff2cc" d="m775.1496 509.91693l89.87927 0l73.62445 -94.55469l-35.104736 94.55469l25.679749 0l0 9.721802l0 0l0 14.582642l0 34.026245l-25.679749 0l-38.519714 0l0 0l-89.87927 0l0 -34.026245l0 -14.582642l0 0z" fill-rule="evenodd"></path><path stroke="#000000" stroke-width="1.0" stroke-linejoin="round" stroke-linecap="butt" d="m775.1496 509.91693l89.87927 0l73.62445 -94.55469l-35.104736 94.55469l25.679749 0l0 9.721802l0 0l0 14.582642l0 34.026245l-25.679749 0l-38.519714 0l0 0l-89.87927 0l0 -34.026245l0 -14.582642l0 0z" fill-rule="evenodd"></path><path fill="#000000" d="m814.2561 542.3929l1.640625 0.21875q-0.265625 1.6875 -1.375 2.65625q-1.109375 0.953125 -2.734375 0.953125q-2.015625 0 -3.25 -1.3125q-1.21875 -1.328125 -1.21875 -3.796875q0 -1.59375 0.515625 -2.78125q0.53125 -1.203125 1.609375 -1.796875q1.09375 -0.609375 2.359375 -0.609375q1.609375 0 2.625 0.8125q1.015625 0.8125 1.3125 2.3125l-1.625 0.25q-0.234375 -1.0 -0.828125 -1.5q-0.59375 -0.5 -1.421875 -0.5q-1.265625 0 -2.0625 0.90625q-0.78125 0.90625 -0.78125 2.859375q0 1.984375 0.765625 2.890625q0.765625 0.890625 1.984375 0.890625q0.984375 0 1.640625 -0.59375q0.65625 -0.609375 0.84375 -1.859375zm2.265625 -1.3125q0 -2.734375 1.53125 -4.0625q1.265625 -1.09375 3.09375 -1.09375q2.03125 0 3.3125 1.34375q1.296875 1.328125 1.296875 3.671875q0 1.90625 -0.578125 3.0q-0.5625 1.078125 -1.65625 1.6875q-1.078125 0.59375 -2.375 0.59375q-2.0625 0 -3.34375 -1.328125q-1.28125 -1.328125 -1.28125 -3.8125zm1.71875 0q0 1.890625 0.828125 2.828125q0.828125 0.9375 2.078125 0.9375q1.25 0 2.0625 -0.9375q0.828125 -0.953125 0.828125 -2.890625q0 -1.828125 -0.828125 -2.765625q-0.828125 -0.9375 -2.0625 -0.9375q-1.25 0 -2.078125 0.9375q-0.828125 0.9375 -0.828125 2.828125zm9.281982 4.921875l0 -9.859375l1.5 0l0 1.40625q1.09375 -1.625 3.140625 -1.625q0.890625 0 1.640625 0.328125q0.75 0.3125 1.109375 0.84375q0.375 0.515625 0.53125 1.21875q0.09375 0.46875 0.09375 1.625l0 6.0625l-1.671875 0l0 -6.0q0 -1.015625 -0.203125 -1.515625q-0.1875 -0.515625 -0.6875 -0.8125q-0.5 -0.296875 -1.171875 -0.296875q-1.0625 0 -1.84375 0.671875q-0.765625 0.671875 -0.765625 2.578125l0 5.375l-1.671875 0zm9.703857 -2.9375l1.65625 -0.265625q0.140625 1.0 0.765625 1.53125q0.640625 0.515625 1.78125 0.515625q1.15625 0 1.703125 -0.46875q0.5625 -0.46875 0.5625 -1.09375q0 -0.5625 -0.484375 -0.890625q-0.34375 -0.21875 -1.703125 -0.5625q-1.84375 -0.46875 -2.5625 -0.796875q-0.703125 -0.34375 -1.078125 -0.9375q-0.359375 -0.609375 -0.359375 -1.328125q0 -0.65625 0.296875 -1.21875q0.3125 -0.5625 0.828125 -0.9375q0.390625 -0.28125 1.0625 -0.484375q0.671875 -0.203125 1.4375 -0.203125q1.171875 0 2.046875 0.34375q0.875 0.328125 1.28125 0.90625q0.421875 0.5625 0.578125 1.515625l-1.625 0.21875q-0.109375 -0.75 -0.65625 -1.171875q-0.53125 -0.4375 -1.5 -0.4375q-1.15625 0 -1.640625 0.390625q-0.484375 0.375 -0.484375 0.875q0 0.328125 0.203125 0.59375q0.203125 0.265625 0.640625 0.4375q0.25 0.09375 1.46875 0.4375q1.765625 0.46875 2.46875 0.765625q0.703125 0.296875 1.09375 0.875q0.40625 0.578125 0.40625 1.4375q0 0.828125 -0.484375 1.578125q-0.484375 0.734375 -1.40625 1.140625q-0.921875 0.390625 -2.078125 0.390625q-1.921875 0 -2.9375 -0.796875q-1.0 -0.796875 -1.28125 -2.359375zm16.453125 2.9375l0 -1.453125q-1.140625 1.671875 -3.125 1.671875q-0.859375 0 -1.625 -0.328125q-0.75 -0.34375 -1.125 -0.84375q-0.359375 -0.5 -0.515625 -1.234375q-0.09375 -0.5 -0.09375 -1.5625l0 -6.109375l1.671875 0l0 5.46875q0 1.3125 0.09375 1.765625q0.15625 0.65625 0.671875 1.03125q0.515625 0.375 1.265625 0.375q0.75 0 1.40625 -0.375q0.65625 -0.390625 0.921875 -1.046875q0.28125 -0.671875 0.28125 -1.9375l0 -5.28125l1.671875 0l0 9.859375l-1.5 0zm3.9225464 0l0 -9.859375l1.5 0l0 1.390625q0.453125 -0.71875 1.21875 -1.15625q0.78125 -0.453125 1.765625 -0.453125q1.09375 0 1.796875 0.453125q0.703125 0.453125 0.984375 1.28125q1.171875 -1.734375 3.046875 -1.734375q1.46875 0 2.25 0.8125q0.796875 0.8125 0.796875 2.5l0 6.765625l-1.671875 0l0 -6.203125q0 -1.0 -0.15625 -1.4375q-0.15625 -0.453125 -0.59375 -0.71875q-0.421875 -0.265625 -1.0 -0.265625q-1.03125 0 -1.71875 0.6875q-0.6875 0.6875 -0.6875 2.21875l0 5.71875l-1.671875 0l0 -6.40625q0 -1.109375 -0.40625 -1.65625q-0.40625 -0.5625 -1.34375 -0.5625q-0.703125 0 -1.3125 0.375q-0.59375 0.359375 -0.859375 1.078125q-0.265625 0.71875 -0.265625 2.0625l0 5.109375l-1.671875 0zm22.290833 -3.171875l1.71875 0.21875q-0.40625 1.5 -1.515625 2.34375q-1.09375 0.828125 -2.8125 0.828125q-2.15625 0 -3.421875 -1.328125q-1.265625 -1.328125 -1.265625 -3.734375q0 -2.484375 1.265625 -3.859375q1.28125 -1.375 3.328125 -1.375q1.984375 0 3.234375 1.34375q1.25 1.34375 1.25 3.796875q0 0.140625 -0.015625 0.4375l-7.34375 0q0.09375 1.625 0.921875 2.484375q0.828125 0.859375 2.0625 0.859375q0.90625 0 1.546875 -0.46875q0.65625 -0.484375 1.046875 -1.546875zm-5.484375 -2.703125l5.5 0q-0.109375 -1.234375 -0.625 -1.859375q-0.796875 -0.96875 -2.078125 -0.96875q-1.140625 0 -1.9375 0.78125q-0.78125 0.765625 -0.859375 2.046875zm9.094482 5.875l0 -9.859375l1.5 0l0 1.5q0.578125 -1.046875 1.0625 -1.375q0.484375 -0.34375 1.078125 -0.34375q0.84375 0 1.71875 0.546875l-0.578125 1.546875q-0.609375 -0.359375 -1.234375 -0.359375q-0.546875 0 -0.984375 0.328125q-0.421875 0.328125 -0.609375 0.90625q-0.28125 0.890625 -0.28125 1.953125l0 5.15625l-1.671875 0zm5.5563965 -2.9375l1.65625 -0.265625q0.140625 1.0 0.765625 1.53125q0.640625 0.515625 1.78125 0.515625q1.15625 0 1.703125 -0.46875q0.5625 -0.46875 0.5625 -1.09375q0 -0.5625 -0.484375 -0.890625q-0.34375 -0.21875 -1.703125 -0.5625q-1.84375 -0.46875 -2.5625 -0.796875q-0.703125 -0.34375 -1.078125 -0.9375q-0.359375 -0.609375 -0.359375 -1.328125q0 -0.65625 0.296875 -1.21875q0.3125 -0.5625 0.828125 -0.9375q0.390625 -0.28125 1.0625 -0.484375q0.671875 -0.203125 1.4375 -0.203125q1.171875 0 2.046875 0.34375q0.875 0.328125 1.28125 0.90625q0.421875 0.5625 0.578125 1.515625l-1.625 0.21875q-0.109375 -0.75 -0.65625 -1.171875q-0.53125 -0.4375 -1.5 -0.4375q-1.15625 0 -1.640625 0.390625q-0.484375 0.375 -0.484375 0.875q0 0.328125 0.203125 0.59375q0.203125 0.265625 0.640625 0.4375q0.25 0.09375 1.46875 0.4375q1.765625 0.46875 2.46875 0.765625q0.703125 0.296875 1.09375 0.875q0.40625 0.578125 0.40625 1.4375q0 0.828125 -0.484375 1.578125q-0.484375 0.734375 -1.40625 1.140625q-0.921875 0.390625 -2.078125 0.390625q-1.921875 0 -2.9375 -0.796875q-1.0 -0.796875 -1.28125 -2.359375z" fill-rule="nonzero"></path><path fill="#cfe2f3" d="m434.3187 229.52377l0 0c0 -5.492218 4.4523315 -9.944534 9.94455 -9.944534l299.63147 0c2.6374512 0 5.16687 1.0477142 7.0317993 2.912674c1.8649902 1.864975 2.9127197 4.394394 2.9127197 7.0318604l0 39.778137c0 5.492218 -4.4523315 9.94455 -9.944519 9.94455l-299.63147 0l0 0c-5.492218 0 -9.94455 -4.4523315 -9.94455 -9.94455z" fill-rule="evenodd"></path><path stroke="#000000" stroke-width="1.0" stroke-linejoin="round" stroke-linecap="butt" d="m434.3187 229.52377l0 0c0 -5.492218 4.4523315 -9.944534 9.94455 -9.944534l299.63147 0c2.6374512 0 5.16687 1.0477142 7.0317993 2.912674c1.8649902 1.864975 2.9127197 4.394394 2.9127197 7.0318604l0 39.778137c0 5.492218 -4.4523315 9.94455 -9.944519 9.94455l-299.63147 0l0 0c-5.492218 0 -9.94455 -4.4523315 -9.94455 -9.94455z" fill-rule="evenodd"></path><path fill="#d9ead3" d="m623.0909 228.4023l-27.400452 0c-3.7832031 0 -6.8500977 9.3233795 -6.8500977 20.824356c0 11.500977 3.0668945 20.824371 6.8500977 20.824371l27.400452 0l0 0c3.7832031 0 6.8500977 -9.323395 6.8500977 -20.824371c0 -11.500977 -3.0668945 -20.824356 -6.8500977 -20.824356z" fill-rule="evenodd"></path><path fill="#000000" fill-opacity="0.0" d="m595.6904 270.05103c3.7832031 0 6.8500977 -9.323395 6.8500977 -20.824371c0 -11.500977 -3.0668945 -20.824356 -6.8500977 -20.824356" fill-rule="evenodd"></path><path fill="#000000" fill-opacity="0.0" d="m623.0909 228.4023l-27.400452 0c-3.7832031 0 -6.8500977 9.3233795 -6.8500977 20.824356c0 11.500977 3.0668945 20.824371 6.8500977 20.824371l27.400452 0l0 0c3.7832031 0 6.8500977 -9.323395 6.8500977 -20.824371c0 -11.500977 -3.0668945 -20.824356 -6.8500977 -20.824356z" fill-rule="evenodd"></path><path stroke="#000000" stroke-width="2.0" stroke-linejoin="round" stroke-linecap="butt" d="m595.6904 270.05103c3.7832031 0 6.8500977 -9.323395 6.8500977 -20.824371c0 -11.500977 -3.0668945 -20.824356 -6.8500977 -20.824356" fill-rule="evenodd"></path><path stroke="#000000" stroke-width="2.0" stroke-linejoin="round" stroke-linecap="butt" d="m623.0909 228.4023l-27.400452 0c-3.7832031 0 -6.8500977 9.3233795 -6.8500977 20.824356c0 11.500977 3.0668945 20.824371 6.8500977 20.824371l27.400452 0l0 0c3.7832031 0 6.8500977 -9.323395 6.8500977 -20.824371c0 -11.500977 -3.0668945 -20.824356 -6.8500977 -20.824356z" fill-rule="evenodd"></path><path fill="#d9ead3" d="m587.3847 228.4023l-27.400452 0c-3.7832031 0 -6.8500977 9.3233795 -6.8500977 20.824356c0 11.500977 3.0668945 20.824371 6.8500977 20.824371l27.400452 0l0 0c3.7832031 0 6.8500977 -9.323395 6.8500977 -20.824371c0 -11.500977 -3.0668945 -20.824356 -6.8500977 -20.824356z" fill-rule="evenodd"></path><path fill="#000000" fill-opacity="0.0" d="m559.98425 270.05103c3.7832031 0 6.8500977 -9.323395 6.8500977 -20.824371c0 -11.500977 -3.0668945 -20.824356 -6.8500977 -20.824356" fill-rule="evenodd"></path><path fill="#000000" fill-opacity="0.0" d="m587.3847 228.4023l-27.400452 0c-3.7832031 0 -6.8500977 9.3233795 -6.8500977 20.824356c0 11.500977 3.0668945 20.824371 6.8500977 20.824371l27.400452 0l0 0c3.7832031 0 6.8500977 -9.323395 6.8500977 -20.824371c0 -11.500977 -3.0668945 -20.824356 -6.8500977 -20.824356z" fill-rule="evenodd"></path><path stroke="#000000" stroke-width="2.0" stroke-linejoin="round" stroke-linecap="butt" d="m559.98425 270.05103c3.7832031 0 6.8500977 -9.323395 6.8500977 -20.824371c0 -11.500977 -3.0668945 -20.824356 -6.8500977 -20.824356" fill-rule="evenodd"></path><path stroke="#000000" stroke-width="2.0" stroke-linejoin="round" stroke-linecap="butt" d="m587.3847 228.4023l-27.400452 0c-3.7832031 0 -6.8500977 9.3233795 -6.8500977 20.824356c0 11.500977 3.0668945 20.824371 6.8500977 20.824371l27.400452 0l0 0c3.7832031 0 6.8500977 -9.323395 6.8500977 -20.824371c0 -11.500977 -3.0668945 -20.824356 -6.8500977 -20.824356z" fill-rule="evenodd"></path><path fill="#d9ead3" d="m551.05493 228.4023l-27.400452 0c-3.7832642 0 -6.8501587 9.3233795 -6.8501587 20.824356c0 11.500977 3.0668945 20.824371 6.8501587 20.824371l27.400452 0l0 0c3.7832031 0 6.8500977 -9.323395 6.8500977 -20.824371c0 -11.500977 -3.0668945 -20.824356 -6.8500977 -20.824356z" fill-rule="evenodd"></path><path fill="#000000" fill-opacity="0.0" d="m523.6545 270.05103c3.7832031 0 6.8500977 -9.323395 6.8500977 -20.824371c0 -11.500977 -3.0668945 -20.824356 -6.8500977 -20.824356" fill-rule="evenodd"></path><path fill="#000000" fill-opacity="0.0" d="m551.05493 228.4023l-27.400452 0c-3.7832642 0 -6.8501587 9.3233795 -6.8501587 20.824356c0 11.500977 3.0668945 20.824371 6.8501587 20.824371l27.400452 0l0 0c3.7832031 0 6.8500977 -9.323395 6.8500977 -20.824371c0 -11.500977 -3.0668945 -20.824356 -6.8500977 -20.824356z" fill-rule="evenodd"></path><path stroke="#000000" stroke-width="2.0" stroke-linejoin="round" stroke-linecap="butt" d="m523.6545 270.05103c3.7832031 0 6.8500977 -9.323395 6.8500977 -20.824371c0 -11.500977 -3.0668945 -20.824356 -6.8500977 -20.824356" fill-rule="evenodd"></path><path stroke="#000000" stroke-width="2.0" stroke-linejoin="round" stroke-linecap="butt" d="m551.05493 228.4023l-27.400452 0c-3.7832642 0 -6.8501587 9.3233795 -6.8501587 20.824356c0 11.500977 3.0668945 20.824371 6.8501587 20.824371l27.400452 0l0 0c3.7832031 0 6.8500977 -9.323395 6.8500977 -20.824371c0 -11.500977 -3.0668945 -20.824356 -6.8500977 -20.824356z" fill-rule="evenodd"></path><path fill="#d9ead3" d="m515.7767 228.4023l-27.400452 0c-3.7832031 0 -6.8500977 9.3233795 -6.8500977 20.824356c0 11.500977 3.0668945 20.824371 6.8500977 20.824371l27.400452 0l0 0c3.7832031 0 6.8500977 -9.323395 6.8500977 -20.824371c0 -11.500977 -3.0668945 -20.824356 -6.8500977 -20.824356z" fill-rule="evenodd"></path><path fill="#000000" fill-opacity="0.0" d="m488.37622 270.05103c3.7832336 0 6.850128 -9.323395 6.850128 -20.824371c0 -11.500977 -3.0668945 -20.824356 -6.850128 -20.824356" fill-rule="evenodd"></path><path fill="#000000" fill-opacity="0.0" d="m515.7767 228.4023l-27.400452 0c-3.7832031 0 -6.8500977 9.3233795 -6.8500977 20.824356c0 11.500977 3.0668945 20.824371 6.8500977 20.824371l27.400452 0l0 0c3.7832031 0 6.8500977 -9.323395 6.8500977 -20.824371c0 -11.500977 -3.0668945 -20.824356 -6.8500977 -20.824356z" fill-rule="evenodd"></path><path stroke="#000000" stroke-width="2.0" stroke-linejoin="round" stroke-linecap="butt" d="m488.37622 270.05103c3.7832336 0 6.850128 -9.323395 6.850128 -20.824371c0 -11.500977 -3.0668945 -20.824356 -6.850128 -20.824356" fill-rule="evenodd"></path><path stroke="#000000" stroke-width="2.0" stroke-linejoin="round" stroke-linecap="butt" d="m515.7767 228.4023l-27.400452 0c-3.7832031 0 -6.8500977 9.3233795 -6.8500977 20.824356c0 11.500977 3.0668945 20.824371 6.8500977 20.824371l27.400452 0l0 0c3.7832031 0 6.8500977 -9.323395 6.8500977 -20.824371c0 -11.500977 -3.0668945 -20.824356 -6.8500977 -20.824356z" fill-rule="evenodd"></path><path fill="#d9ead3" d="m479.01968 228.4023l-27.400452 0c-3.7832031 0 -6.8500977 9.3233795 -6.8500977 20.824356c0 11.500977 3.0668945 20.824371 6.8500977 20.824371l27.400452 0l0 0c3.7832336 0 6.850128 -9.323395 6.850128 -20.824371c0 -11.500977 -3.0668945 -20.824356 -6.850128 -20.824356z" fill-rule="evenodd"></path><path fill="#000000" fill-opacity="0.0" d="m451.61923 270.05103c3.7832336 0 6.850128 -9.323395 6.850128 -20.824371c0 -11.500977 -3.0668945 -20.824356 -6.850128 -20.824356" fill-rule="evenodd"></path><path fill="#000000" fill-opacity="0.0" d="m479.01968 228.4023l-27.400452 0c-3.7832031 0 -6.8500977 9.3233795 -6.8500977 20.824356c0 11.500977 3.0668945 20.824371 6.8500977 20.824371l27.400452 0l0 0c3.7832336 0 6.850128 -9.323395 6.850128 -20.824371c0 -11.500977 -3.0668945 -20.824356 -6.850128 -20.824356z" fill-rule="evenodd"></path><path stroke="#000000" stroke-width="2.0" stroke-linejoin="round" stroke-linecap="butt" d="m451.61923 270.05103c3.7832336 0 6.850128 -9.323395 6.850128 -20.824371c0 -11.500977 -3.0668945 -20.824356 -6.850128 -20.824356" fill-rule="evenodd"></path><path stroke="#000000" stroke-width="2.0" stroke-linejoin="round" stroke-linecap="butt" d="m479.01968 228.4023l-27.400452 0c-3.7832031 0 -6.8500977 9.3233795 -6.8500977 20.824356c0 11.500977 3.0668945 20.824371 6.8500977 20.824371l27.400452 0l0 0c3.7832336 0 6.850128 -9.323395 6.850128 -20.824371c0 -11.500977 -3.0668945 -20.824356 -6.850128 -20.824356z" fill-rule="evenodd"></path><path fill="#d9ead3" d="m710.3693 228.4023l-27.400452 0c-3.7832642 0 -6.8501587 9.3233795 -6.8501587 20.824356c0 11.500977 3.0668945 20.824371 6.8501587 20.824371l27.400452 0l0 0c3.7832031 0 6.8500977 -9.323395 6.8500977 -20.824371c0 -11.500977 -3.0668945 -20.824356 -6.8500977 -20.824356z" fill-rule="evenodd"></path><path fill="#000000" fill-opacity="0.0" d="m682.9689 270.05103c3.7832031 0 6.8500977 -9.323395 6.8500977 -20.824371c0 -11.500977 -3.0668945 -20.824356 -6.8500977 -20.824356" fill-rule="evenodd"></path><path fill="#000000" fill-opacity="0.0" d="m710.3693 228.4023l-27.400452 0c-3.7832642 0 -6.8501587 9.3233795 -6.8501587 20.824356c0 11.500977 3.0668945 20.824371 6.8501587 20.824371l27.400452 0l0 0c3.7832031 0 6.8500977 -9.323395 6.8500977 -20.824371c0 -11.500977 -3.0668945 -20.824356 -6.8500977 -20.824356z" fill-rule="evenodd"></path><path stroke="#000000" stroke-width="2.0" stroke-linejoin="round" stroke-linecap="butt" stroke-dasharray="2.0,6.0" d="m682.9689 270.05103c3.7832031 0 6.8500977 -9.323395 6.8500977 -20.824371c0 -11.500977 -3.0668945 -20.824356 -6.8500977 -20.824356" fill-rule="evenodd"></path><path stroke="#000000" stroke-width="2.0" stroke-linejoin="round" stroke-linecap="butt" stroke-dasharray="2.0,6.0" d="m710.3693 228.4023l-27.400452 0c-3.7832642 0 -6.8501587 9.3233795 -6.8501587 20.824356c0 11.500977 3.0668945 20.824371 6.8501587 20.824371l27.400452 0l0 0c3.7832031 0 6.8500977 -9.323395 6.8500977 -20.824371c0 -11.500977 -3.0668945 -20.824356 -6.8500977 -20.824356z" fill-rule="evenodd"></path><path fill="#cfe2f3" d="m434.3187 299.82034l0 0c0 -5.4921875 4.4523315 -9.944519 9.94455 -9.944519l299.63147 0c2.6374512 0 5.16687 1.0477295 7.0317993 2.9126892c1.8649902 1.8649597 2.9127197 4.3943787 2.9127197 7.03183l0 39.778168c0 5.492218 -4.4523315 9.944519 -9.944519 9.944519l-299.63147 0l0 0c-5.492218 0 -9.94455 -4.452301 -9.94455 -9.944519z" fill-rule="evenodd"></path><path stroke="#000000" stroke-width="1.0" stroke-linejoin="round" stroke-linecap="butt" d="m434.3187 299.82034l0 0c0 -5.4921875 4.4523315 -9.944519 9.94455 -9.944519l299.63147 0c2.6374512 0 5.16687 1.0477295 7.0317993 2.9126892c1.8649902 1.8649597 2.9127197 4.3943787 2.9127197 7.03183l0 39.778168c0 5.492218 -4.4523315 9.944519 -9.944519 9.944519l-299.63147 0l0 0c-5.492218 0 -9.94455 -4.452301 -9.94455 -9.944519z" fill-rule="evenodd"></path><path fill="#d9ead3" d="m623.0909 298.69888l-27.400452 0c-3.7832031 0 -6.8500977 9.323395 -6.8500977 20.824371c0 11.500977 3.0668945 20.824371 6.8500977 20.824371l27.400452 0l0 0c3.7832031 0 6.8500977 -9.323395 6.8500977 -20.824371c0 -11.500977 -3.0668945 -20.824371 -6.8500977 -20.824371z" fill-rule="evenodd"></path><path fill="#000000" fill-opacity="0.0" d="m595.6904 340.34763c3.7832031 0 6.8500977 -9.323395 6.8500977 -20.824371c0 -11.500977 -3.0668945 -20.824371 -6.8500977 -20.824371" fill-rule="evenodd"></path><path fill="#000000" fill-opacity="0.0" d="m623.0909 298.69888l-27.400452 0c-3.7832031 0 -6.8500977 9.323395 -6.8500977 20.824371c0 11.500977 3.0668945 20.824371 6.8500977 20.824371l27.400452 0l0 0c3.7832031 0 6.8500977 -9.323395 6.8500977 -20.824371c0 -11.500977 -3.0668945 -20.824371 -6.8500977 -20.824371z" fill-rule="evenodd"></path><path stroke="#000000" stroke-width="2.0" stroke-linejoin="round" stroke-linecap="butt" d="m595.6904 340.34763c3.7832031 0 6.8500977 -9.323395 6.8500977 -20.824371c0 -11.500977 -3.0668945 -20.824371 -6.8500977 -20.824371" fill-rule="evenodd"></path><path stroke="#000000" stroke-width="2.0" stroke-linejoin="round" stroke-linecap="butt" d="m623.0909 298.69888l-27.400452 0c-3.7832031 0 -6.8500977 9.323395 -6.8500977 20.824371c0 11.500977 3.0668945 20.824371 6.8500977 20.824371l27.400452 0l0 0c3.7832031 0 6.8500977 -9.323395 6.8500977 -20.824371c0 -11.500977 -3.0668945 -20.824371 -6.8500977 -20.824371z" fill-rule="evenodd"></path><path fill="#d9ead3" d="m587.3847 298.69888l-27.400452 0c-3.7832031 0 -6.8500977 9.323395 -6.8500977 20.824371c0 11.500977 3.0668945 20.824371 6.8500977 20.824371l27.400452 0l0 0c3.7832031 0 6.8500977 -9.323395 6.8500977 -20.824371c0 -11.500977 -3.0668945 -20.824371 -6.8500977 -20.824371z" fill-rule="evenodd"></path><path fill="#000000" fill-opacity="0.0" d="m559.98425 340.34763c3.7832031 0 6.8500977 -9.323395 6.8500977 -20.824371c0 -11.500977 -3.0668945 -20.824371 -6.8500977 -20.824371" fill-rule="evenodd"></path><path fill="#000000" fill-opacity="0.0" d="m587.3847 298.69888l-27.400452 0c-3.7832031 0 -6.8500977 9.323395 -6.8500977 20.824371c0 11.500977 3.0668945 20.824371 6.8500977 20.824371l27.400452 0l0 0c3.7832031 0 6.8500977 -9.323395 6.8500977 -20.824371c0 -11.500977 -3.0668945 -20.824371 -6.8500977 -20.824371z" fill-rule="evenodd"></path><path stroke="#000000" stroke-width="2.0" stroke-linejoin="round" stroke-linecap="butt" d="m559.98425 340.34763c3.7832031 0 6.8500977 -9.323395 6.8500977 -20.824371c0 -11.500977 -3.0668945 -20.824371 -6.8500977 -20.824371" fill-rule="evenodd"></path><path stroke="#000000" stroke-width="2.0" stroke-linejoin="round" stroke-linecap="butt" d="m587.3847 298.69888l-27.400452 0c-3.7832031 0 -6.8500977 9.323395 -6.8500977 20.824371c0 11.500977 3.0668945 20.824371 6.8500977 20.824371l27.400452 0l0 0c3.7832031 0 6.8500977 -9.323395 6.8500977 -20.824371c0 -11.500977 -3.0668945 -20.824371 -6.8500977 -20.824371z" fill-rule="evenodd"></path><path fill="#d9ead3" d="m551.05493 298.69888l-27.400452 0c-3.7832642 0 -6.8501587 9.323395 -6.8501587 20.824371c0 11.500977 3.0668945 20.824371 6.8501587 20.824371l27.400452 0l0 0c3.7832031 0 6.8500977 -9.323395 6.8500977 -20.824371c0 -11.500977 -3.0668945 -20.824371 -6.8500977 -20.824371z" fill-rule="evenodd"></path><path fill="#000000" fill-opacity="0.0" d="m523.6545 340.34763c3.7832031 0 6.8500977 -9.323395 6.8500977 -20.824371c0 -11.500977 -3.0668945 -20.824371 -6.8500977 -20.824371" fill-rule="evenodd"></path><path fill="#000000" fill-opacity="0.0" d="m551.05493 298.69888l-27.400452 0c-3.7832642 0 -6.8501587 9.323395 -6.8501587 20.824371c0 11.500977 3.0668945 20.824371 6.8501587 20.824371l27.400452 0l0 0c3.7832031 0 6.8500977 -9.323395 6.8500977 -20.824371c0 -11.500977 -3.0668945 -20.824371 -6.8500977 -20.824371z" fill-rule="evenodd"></path><path stroke="#000000" stroke-width="2.0" stroke-linejoin="round" stroke-linecap="butt" d="m523.6545 340.34763c3.7832031 0 6.8500977 -9.323395 6.8500977 -20.824371c0 -11.500977 -3.0668945 -20.824371 -6.8500977 -20.824371" fill-rule="evenodd"></path><path stroke="#000000" stroke-width="2.0" stroke-linejoin="round" stroke-linecap="butt" d="m551.05493 298.69888l-27.400452 0c-3.7832642 0 -6.8501587 9.323395 -6.8501587 20.824371c0 11.500977 3.0668945 20.824371 6.8501587 20.824371l27.400452 0l0 0c3.7832031 0 6.8500977 -9.323395 6.8500977 -20.824371c0 -11.500977 -3.0668945 -20.824371 -6.8500977 -20.824371z" fill-rule="evenodd"></path><path fill="#d9ead3" d="m515.7767 298.69888l-27.400452 0c-3.7832031 0 -6.8500977 9.323395 -6.8500977 20.824371c0 11.500977 3.0668945 20.824371 6.8500977 20.824371l27.400452 0l0 0c3.7832031 0 6.8500977 -9.323395 6.8500977 -20.824371c0 -11.500977 -3.0668945 -20.824371 -6.8500977 -20.824371z" fill-rule="evenodd"></path><path fill="#000000" fill-opacity="0.0" d="m488.37622 340.34763c3.7832336 0 6.850128 -9.323395 6.850128 -20.824371c0 -11.500977 -3.0668945 -20.824371 -6.850128 -20.824371" fill-rule="evenodd"></path><path fill="#000000" fill-opacity="0.0" d="m515.7767 298.69888l-27.400452 0c-3.7832031 0 -6.8500977 9.323395 -6.8500977 20.824371c0 11.500977 3.0668945 20.824371 6.8500977 20.824371l27.400452 0l0 0c3.7832031 0 6.8500977 -9.323395 6.8500977 -20.824371c0 -11.500977 -3.0668945 -20.824371 -6.8500977 -20.824371z" fill-rule="evenodd"></path><path stroke="#000000" stroke-width="2.0" stroke-linejoin="round" stroke-linecap="butt" d="m488.37622 340.34763c3.7832336 0 6.850128 -9.323395 6.850128 -20.824371c0 -11.500977 -3.0668945 -20.824371 -6.850128 -20.824371" fill-rule="evenodd"></path><path stroke="#000000" stroke-width="2.0" stroke-linejoin="round" stroke-linecap="butt" d="m515.7767 298.69888l-27.400452 0c-3.7832031 0 -6.8500977 9.323395 -6.8500977 20.824371c0 11.500977 3.0668945 20.824371 6.8500977 20.824371l27.400452 0l0 0c3.7832031 0 6.8500977 -9.323395 6.8500977 -20.824371c0 -11.500977 -3.0668945 -20.824371 -6.8500977 -20.824371z" fill-rule="evenodd"></path><path fill="#d9ead3" d="m479.01968 298.69888l-27.400452 0c-3.7832031 0 -6.8500977 9.323395 -6.8500977 20.824371c0 11.500977 3.0668945 20.824371 6.8500977 20.824371l27.400452 0l0 0c3.7832336 0 6.850128 -9.323395 6.850128 -20.824371c0 -11.500977 -3.0668945 -20.824371 -6.850128 -20.824371z" fill-rule="evenodd"></path><path fill="#000000" fill-opacity="0.0" d="m451.61923 340.34763c3.7832336 0 6.850128 -9.323395 6.850128 -20.824371c0 -11.500977 -3.0668945 -20.824371 -6.850128 -20.824371" fill-rule="evenodd"></path><path fill="#000000" fill-opacity="0.0" d="m479.01968 298.69888l-27.400452 0c-3.7832031 0 -6.8500977 9.323395 -6.8500977 20.824371c0 11.500977 3.0668945 20.824371 6.8500977 20.824371l27.400452 0l0 0c3.7832336 0 6.850128 -9.323395 6.850128 -20.824371c0 -11.500977 -3.0668945 -20.824371 -6.850128 -20.824371z" fill-rule="evenodd"></path><path stroke="#000000" stroke-width="2.0" stroke-linejoin="round" stroke-linecap="butt" d="m451.61923 340.34763c3.7832336 0 6.850128 -9.323395 6.850128 -20.824371c0 -11.500977 -3.0668945 -20.824371 -6.850128 -20.824371" fill-rule="evenodd"></path><path stroke="#000000" stroke-width="2.0" stroke-linejoin="round" stroke-linecap="butt" d="m479.01968 298.69888l-27.400452 0c-3.7832031 0 -6.8500977 9.323395 -6.8500977 20.824371c0 11.500977 3.0668945 20.824371 6.8500977 20.824371l27.400452 0l0 0c3.7832336 0 6.850128 -9.323395 6.850128 -20.824371c0 -11.500977 -3.0668945 -20.824371 -6.850128 -20.824371z" fill-rule="evenodd"></path><path fill="#d9ead3" d="m710.3693 298.69888l-27.400452 0c-3.7832642 0 -6.8501587 9.323395 -6.8501587 20.824371c0 11.500977 3.0668945 20.824371 6.8501587 20.824371l27.400452 0l0 0c3.7832031 0 6.8500977 -9.323395 6.8500977 -20.824371c0 -11.500977 -3.0668945 -20.824371 -6.8500977 -20.824371z" fill-rule="evenodd"></path><path fill="#000000" fill-opacity="0.0" d="m682.9689 340.34763c3.7832031 0 6.8500977 -9.323395 6.8500977 -20.824371c0 -11.500977 -3.0668945 -20.824371 -6.8500977 -20.824371" fill-rule="evenodd"></path><path fill="#000000" fill-opacity="0.0" d="m710.3693 298.69888l-27.400452 0c-3.7832642 0 -6.8501587 9.323395 -6.8501587 20.824371c0 11.500977 3.0668945 20.824371 6.8501587 20.824371l27.400452 0l0 0c3.7832031 0 6.8500977 -9.323395 6.8500977 -20.824371c0 -11.500977 -3.0668945 -20.824371 -6.8500977 -20.824371z" fill-rule="evenodd"></path><path stroke="#000000" stroke-width="2.0" stroke-linejoin="round" stroke-linecap="butt" stroke-dasharray="2.0,6.0" d="m682.9689 340.34763c3.7832031 0 6.8500977 -9.323395 6.8500977 -20.824371c0 -11.500977 -3.0668945 -20.824371 -6.8500977 -20.824371" fill-rule="evenodd"></path><path stroke="#000000" stroke-width="2.0" stroke-linejoin="round" stroke-linecap="butt" stroke-dasharray="2.0,6.0" d="m710.3693 298.69888l-27.400452 0c-3.7832642 0 -6.8501587 9.323395 -6.8501587 20.824371c0 11.500977 3.0668945 20.824371 6.8501587 20.824371l27.400452 0l0 0c3.7832031 0 6.8500977 -9.323395 6.8500977 -20.824371c0 -11.500977 -3.0668945 -20.824371 -6.8500977 -20.824371z" fill-rule="evenodd"></path><path fill="#cfe2f3" d="m435.25702 370.11694l0 0c0 -5.492218 4.4523315 -9.94455 9.94455 -9.94455l299.63144 0c2.6374512 0 5.16687 1.0477295 7.0318604 2.9126892c1.8649292 1.8649597 2.9126587 4.394409 2.9126587 7.0318604l0 39.778137c0 5.492218 -4.4522705 9.94455 -9.944519 9.94455l-299.63144 0l0 0c-5.492218 0 -9.94455 -4.4523315 -9.94455 -9.94455z" fill-rule="evenodd"></path><path stroke="#000000" stroke-width="1.0" stroke-linejoin="round" stroke-linecap="butt" d="m435.25702 370.11694l0 0c0 -5.492218 4.4523315 -9.94455 9.94455 -9.94455l299.63144 0c2.6374512 0 5.16687 1.0477295 7.0318604 2.9126892c1.8649292 1.8649597 2.9126587 4.394409 2.9126587 7.0318604l0 39.778137c0 5.492218 -4.4522705 9.94455 -9.944519 9.94455l-299.63144 0l0 0c-5.492218 0 -9.94455 -4.4523315 -9.94455 -9.94455z" fill-rule="evenodd"></path><path fill="#d9ead3" d="m624.0292 368.99548l-27.400452 0c-3.7832031 0 -6.8500977 9.323364 -6.8500977 20.82434c0 11.500977 3.0668945 20.824371 6.8500977 20.824371l27.400452 0l0 0c3.7832031 0 6.8500977 -9.323395 6.8500977 -20.824371c0 -11.500977 -3.0668945 -20.82434 -6.8500977 -20.82434z" fill-rule="evenodd"></path><path fill="#000000" fill-opacity="0.0" d="m596.6287 410.6442c3.7832031 0 6.8500977 -9.323395 6.8500977 -20.824371c0 -11.500977 -3.0668945 -20.82434 -6.8500977 -20.82434" fill-rule="evenodd"></path><path fill="#000000" fill-opacity="0.0" d="m624.0292 368.99548l-27.400452 0c-3.7832031 0 -6.8500977 9.323364 -6.8500977 20.82434c0 11.500977 3.0668945 20.824371 6.8500977 20.824371l27.400452 0l0 0c3.7832031 0 6.8500977 -9.323395 6.8500977 -20.824371c0 -11.500977 -3.0668945 -20.82434 -6.8500977 -20.82434z" fill-rule="evenodd"></path><path stroke="#000000" stroke-width="2.0" stroke-linejoin="round" stroke-linecap="butt" d="m596.6287 410.6442c3.7832031 0 6.8500977 -9.323395 6.8500977 -20.824371c0 -11.500977 -3.0668945 -20.82434 -6.8500977 -20.82434" fill-rule="evenodd"></path><path stroke="#000000" stroke-width="2.0" stroke-linejoin="round" stroke-linecap="butt" d="m624.0292 368.99548l-27.400452 0c-3.7832031 0 -6.8500977 9.323364 -6.8500977 20.82434c0 11.500977 3.0668945 20.824371 6.8500977 20.824371l27.400452 0l0 0c3.7832031 0 6.8500977 -9.323395 6.8500977 -20.824371c0 -11.500977 -3.0668945 -20.82434 -6.8500977 -20.82434z" fill-rule="evenodd"></path><path fill="#d9ead3" d="m588.323 368.99548l-27.400452 0c-3.7832031 0 -6.8500977 9.323364 -6.8500977 20.82434c0 11.500977 3.0668945 20.824371 6.8500977 20.824371l27.400452 0l0 0c3.7832031 0 6.8501587 -9.323395 6.8501587 -20.824371c0 -11.500977 -3.0669556 -20.82434 -6.8501587 -20.82434z" fill-rule="evenodd"></path><path fill="#000000" fill-opacity="0.0" d="m560.92255 410.6442c3.7832642 0 6.8501587 -9.323395 6.8501587 -20.824371c0 -11.500977 -3.0668945 -20.82434 -6.8501587 -20.82434" fill-rule="evenodd"></path><path fill="#000000" fill-opacity="0.0" d="m588.323 368.99548l-27.400452 0c-3.7832031 0 -6.8500977 9.323364 -6.8500977 20.82434c0 11.500977 3.0668945 20.824371 6.8500977 20.824371l27.400452 0l0 0c3.7832031 0 6.8501587 -9.323395 6.8501587 -20.824371c0 -11.500977 -3.0669556 -20.82434 -6.8501587 -20.82434z" fill-rule="evenodd"></path><path stroke="#000000" stroke-width="2.0" stroke-linejoin="round" stroke-linecap="butt" d="m560.92255 410.6442c3.7832642 0 6.8501587 -9.323395 6.8501587 -20.824371c0 -11.500977 -3.0668945 -20.82434 -6.8501587 -20.82434" fill-rule="evenodd"></path><path stroke="#000000" stroke-width="2.0" stroke-linejoin="round" stroke-linecap="butt" d="m588.323 368.99548l-27.400452 0c-3.7832031 0 -6.8500977 9.323364 -6.8500977 20.82434c0 11.500977 3.0668945 20.824371 6.8500977 20.824371l27.400452 0l0 0c3.7832031 0 6.8501587 -9.323395 6.8501587 -20.824371c0 -11.500977 -3.0669556 -20.82434 -6.8501587 -20.82434z" fill-rule="evenodd"></path><path fill="#d9ead3" d="m551.9932 368.99548l-27.400452 0c-3.7832031 0 -6.8500977 9.323364 -6.8500977 20.82434c0 11.500977 3.0668945 20.824371 6.8500977 20.824371l27.400452 0l0 0c3.7832031 0 6.8500977 -9.323395 6.8500977 -20.824371c0 -11.500977 -3.0668945 -20.82434 -6.8500977 -20.82434z" fill-rule="evenodd"></path><path fill="#000000" fill-opacity="0.0" d="m524.5928 410.6442c3.7832031 0 6.8500977 -9.323395 6.8500977 -20.824371c0 -11.500977 -3.0668945 -20.82434 -6.8500977 -20.82434" fill-rule="evenodd"></path><path fill="#000000" fill-opacity="0.0" d="m551.9932 368.99548l-27.400452 0c-3.7832031 0 -6.8500977 9.323364 -6.8500977 20.82434c0 11.500977 3.0668945 20.824371 6.8500977 20.824371l27.400452 0l0 0c3.7832031 0 6.8500977 -9.323395 6.8500977 -20.824371c0 -11.500977 -3.0668945 -20.82434 -6.8500977 -20.82434z" fill-rule="evenodd"></path><path stroke="#000000" stroke-width="2.0" stroke-linejoin="round" stroke-linecap="butt" d="m524.5928 410.6442c3.7832031 0 6.8500977 -9.323395 6.8500977 -20.824371c0 -11.500977 -3.0668945 -20.82434 -6.8500977 -20.82434" fill-rule="evenodd"></path><path stroke="#000000" stroke-width="2.0" stroke-linejoin="round" stroke-linecap="butt" d="m551.9932 368.99548l-27.400452 0c-3.7832031 0 -6.8500977 9.323364 -6.8500977 20.82434c0 11.500977 3.0668945 20.824371 6.8500977 20.824371l27.400452 0l0 0c3.7832031 0 6.8500977 -9.323395 6.8500977 -20.824371c0 -11.500977 -3.0668945 -20.82434 -6.8500977 -20.82434z" fill-rule="evenodd"></path><path fill="#d9ead3" d="m516.715 368.99548l-27.400482 0c-3.7832031 0 -6.8500977 9.323364 -6.8500977 20.82434c0 11.500977 3.0668945 20.824371 6.8500977 20.824371l27.400482 0l0 0c3.7832031 0 6.8500977 -9.323395 6.8500977 -20.824371c0 -11.500977 -3.0668945 -20.82434 -6.8500977 -20.82434z" fill-rule="evenodd"></path><path fill="#000000" fill-opacity="0.0" d="m489.31454 410.6442c3.7832336 0 6.850128 -9.323395 6.850128 -20.824371c0 -11.500977 -3.0668945 -20.82434 -6.850128 -20.82434" fill-rule="evenodd"></path><path fill="#000000" fill-opacity="0.0" d="m516.715 368.99548l-27.400482 0c-3.7832031 0 -6.8500977 9.323364 -6.8500977 20.82434c0 11.500977 3.0668945 20.824371 6.8500977 20.824371l27.400482 0l0 0c3.7832031 0 6.8500977 -9.323395 6.8500977 -20.824371c0 -11.500977 -3.0668945 -20.82434 -6.8500977 -20.82434z" fill-rule="evenodd"></path><path stroke="#000000" stroke-width="2.0" stroke-linejoin="round" stroke-linecap="butt" d="m489.31454 410.6442c3.7832336 0 6.850128 -9.323395 6.850128 -20.824371c0 -11.500977 -3.0668945 -20.82434 -6.850128 -20.82434" fill-rule="evenodd"></path><path stroke="#000000" stroke-width="2.0" stroke-linejoin="round" stroke-linecap="butt" d="m516.715 368.99548l-27.400482 0c-3.7832031 0 -6.8500977 9.323364 -6.8500977 20.82434c0 11.500977 3.0668945 20.824371 6.8500977 20.824371l27.400482 0l0 0c3.7832031 0 6.8500977 -9.323395 6.8500977 -20.824371c0 -11.500977 -3.0668945 -20.82434 -6.8500977 -20.82434z" fill-rule="evenodd"></path><path fill="#d9ead3" d="m479.958 368.99548l-27.400452 0c-3.7832031 0 -6.8500977 9.323364 -6.8500977 20.82434c0 11.500977 3.0668945 20.824371 6.8500977 20.824371l27.400452 0l0 0c3.7832031 0 6.850128 -9.323395 6.850128 -20.824371c0 -11.500977 -3.066925 -20.82434 -6.850128 -20.82434z" fill-rule="evenodd"></path><path fill="#000000" fill-opacity="0.0" d="m452.55756 410.6442c3.7832336 0 6.850128 -9.323395 6.850128 -20.824371c0 -11.500977 -3.0668945 -20.82434 -6.850128 -20.82434" fill-rule="evenodd"></path><path fill="#000000" fill-opacity="0.0" d="m479.958 368.99548l-27.400452 0c-3.7832031 0 -6.8500977 9.323364 -6.8500977 20.82434c0 11.500977 3.0668945 20.824371 6.8500977 20.824371l27.400452 0l0 0c3.7832031 0 6.850128 -9.323395 6.850128 -20.824371c0 -11.500977 -3.066925 -20.82434 -6.850128 -20.82434z" fill-rule="evenodd"></path><path stroke="#000000" stroke-width="2.0" stroke-linejoin="round" stroke-linecap="butt" d="m452.55756 410.6442c3.7832336 0 6.850128 -9.323395 6.850128 -20.824371c0 -11.500977 -3.0668945 -20.82434 -6.850128 -20.82434" fill-rule="evenodd"></path><path stroke="#000000" stroke-width="2.0" stroke-linejoin="round" stroke-linecap="butt" d="m479.958 368.99548l-27.400452 0c-3.7832031 0 -6.8500977 9.323364 -6.8500977 20.82434c0 11.500977 3.0668945 20.824371 6.8500977 20.824371l27.400452 0l0 0c3.7832031 0 6.850128 -9.323395 6.850128 -20.824371c0 -11.500977 -3.066925 -20.82434 -6.850128 -20.82434z" fill-rule="evenodd"></path><path fill="#d9ead3" d="m711.3076 368.99548l-27.400452 0c-3.7832031 0 -6.8500977 9.323364 -6.8500977 20.82434c0 11.500977 3.0668945 20.824371 6.8500977 20.824371l27.400452 0l0 0c3.7832031 0 6.8500977 -9.323395 6.8500977 -20.824371c0 -11.500977 -3.0668945 -20.82434 -6.8500977 -20.82434z" fill-rule="evenodd"></path><path fill="#000000" fill-opacity="0.0" d="m683.90717 410.6442c3.7832031 0 6.8500977 -9.323395 6.8500977 -20.824371c0 -11.500977 -3.0668945 -20.82434 -6.8500977 -20.82434" fill-rule="evenodd"></path><path fill="#000000" fill-opacity="0.0" d="m711.3076 368.99548l-27.400452 0c-3.7832031 0 -6.8500977 9.323364 -6.8500977 20.82434c0 11.500977 3.0668945 20.824371 6.8500977 20.824371l27.400452 0l0 0c3.7832031 0 6.8500977 -9.323395 6.8500977 -20.824371c0 -11.500977 -3.0668945 -20.82434 -6.8500977 -20.82434z" fill-rule="evenodd"></path><path stroke="#000000" stroke-width="2.0" stroke-linejoin="round" stroke-linecap="butt" stroke-dasharray="2.0,6.0" d="m683.90717 410.6442c3.7832031 0 6.8500977 -9.323395 6.8500977 -20.824371c0 -11.500977 -3.0668945 -20.82434 -6.8500977 -20.82434" fill-rule="evenodd"></path><path stroke="#000000" stroke-width="2.0" stroke-linejoin="round" stroke-linecap="butt" stroke-dasharray="2.0,6.0" d="m711.3076 368.99548l-27.400452 0c-3.7832031 0 -6.8500977 9.323364 -6.8500977 20.82434c0 11.500977 3.0668945 20.824371 6.8500977 20.824371l27.400452 0l0 0c3.7832031 0 6.8500977 -9.323395 6.8500977 -20.824371c0 -11.500977 -3.0668945 -20.82434 -6.8500977 -20.82434z" fill-rule="evenodd"></path><path fill="#cfe2f3" d="m435.2557 440.41354l0 0c0 -5.492218 4.4523315 -9.94455 9.94455 -9.94455l299.63147 0c2.6374512 0 5.16687 1.0477295 7.0317993 2.9126892c1.8649902 1.8649597 2.9127197 4.394409 2.9127197 7.0318604l0 39.778137c0 5.492218 -4.4523315 9.944519 -9.944519 9.944519l-299.63147 0l0 0c-5.492218 0 -9.94455 -4.452301 -9.94455 -9.944519z" fill-rule="evenodd"></path><path stroke="#000000" stroke-width="1.0" stroke-linejoin="round" stroke-linecap="butt" d="m435.2557 440.41354l0 0c0 -5.492218 4.4523315 -9.94455 9.94455 -9.94455l299.63147 0c2.6374512 0 5.16687 1.0477295 7.0317993 2.9126892c1.8649902 1.8649597 2.9127197 4.394409 2.9127197 7.0318604l0 39.778137c0 5.492218 -4.4523315 9.944519 -9.944519 9.944519l-299.63147 0l0 0c-5.492218 0 -9.94455 -4.452301 -9.94455 -9.944519z" fill-rule="evenodd"></path><path fill="#d9ead3" d="m624.0279 439.29205l-27.400452 0c-3.7832031 0 -6.8500977 9.323395 -6.8500977 20.824371c0 11.500977 3.0668945 20.824371 6.8500977 20.824371l27.400452 0l0 0c3.7832031 0 6.8500977 -9.323395 6.8500977 -20.824371c0 -11.500977 -3.0668945 -20.824371 -6.8500977 -20.824371z" fill-rule="evenodd"></path><path fill="#000000" fill-opacity="0.0" d="m596.62744 480.9408c3.7832031 0 6.8500977 -9.323395 6.8500977 -20.824371c0 -11.500977 -3.0668945 -20.824371 -6.8500977 -20.824371" fill-rule="evenodd"></path><path fill="#000000" fill-opacity="0.0" d="m624.0279 439.29205l-27.400452 0c-3.7832031 0 -6.8500977 9.323395 -6.8500977 20.824371c0 11.500977 3.0668945 20.824371 6.8500977 20.824371l27.400452 0l0 0c3.7832031 0 6.8500977 -9.323395 6.8500977 -20.824371c0 -11.500977 -3.0668945 -20.824371 -6.8500977 -20.824371z" fill-rule="evenodd"></path><path stroke="#000000" stroke-width="2.0" stroke-linejoin="round" stroke-linecap="butt" d="m596.62744 480.9408c3.7832031 0 6.8500977 -9.323395 6.8500977 -20.824371c0 -11.500977 -3.0668945 -20.824371 -6.8500977 -20.824371" fill-rule="evenodd"></path><path stroke="#000000" stroke-width="2.0" stroke-linejoin="round" stroke-linecap="butt" d="m624.0279 439.29205l-27.400452 0c-3.7832031 0 -6.8500977 9.323395 -6.8500977 20.824371c0 11.500977 3.0668945 20.824371 6.8500977 20.824371l27.400452 0l0 0c3.7832031 0 6.8500977 -9.323395 6.8500977 -20.824371c0 -11.500977 -3.0668945 -20.824371 -6.8500977 -20.824371z" fill-rule="evenodd"></path><path fill="#d9ead3" d="m588.3217 439.29205l-27.400452 0c-3.7832031 0 -6.8500977 9.323395 -6.8500977 20.824371c0 11.500977 3.0668945 20.824371 6.8500977 20.824371l27.400452 0l0 0c3.7832031 0 6.8500977 -9.323395 6.8500977 -20.824371c0 -11.500977 -3.0668945 -20.824371 -6.8500977 -20.824371z" fill-rule="evenodd"></path><path fill="#000000" fill-opacity="0.0" d="m560.92126 480.9408c3.7832031 0 6.8500977 -9.323395 6.8500977 -20.824371c0 -11.500977 -3.0668945 -20.824371 -6.8500977 -20.824371" fill-rule="evenodd"></path><path fill="#000000" fill-opacity="0.0" d="m588.3217 439.29205l-27.400452 0c-3.7832031 0 -6.8500977 9.323395 -6.8500977 20.824371c0 11.500977 3.0668945 20.824371 6.8500977 20.824371l27.400452 0l0 0c3.7832031 0 6.8500977 -9.323395 6.8500977 -20.824371c0 -11.500977 -3.0668945 -20.824371 -6.8500977 -20.824371z" fill-rule="evenodd"></path><path stroke="#000000" stroke-width="2.0" stroke-linejoin="round" stroke-linecap="butt" d="m560.92126 480.9408c3.7832031 0 6.8500977 -9.323395 6.8500977 -20.824371c0 -11.500977 -3.0668945 -20.824371 -6.8500977 -20.824371" fill-rule="evenodd"></path><path stroke="#000000" stroke-width="2.0" stroke-linejoin="round" stroke-linecap="butt" d="m588.3217 439.29205l-27.400452 0c-3.7832031 0 -6.8500977 9.323395 -6.8500977 20.824371c0 11.500977 3.0668945 20.824371 6.8500977 20.824371l27.400452 0l0 0c3.7832031 0 6.8500977 -9.323395 6.8500977 -20.824371c0 -11.500977 -3.0668945 -20.824371 -6.8500977 -20.824371z" fill-rule="evenodd"></path><path fill="#d9ead3" d="m551.99194 439.29205l-27.400452 0c-3.7832642 0 -6.8501587 9.323395 -6.8501587 20.824371c0 11.500977 3.0668945 20.824371 6.8501587 20.824371l27.400452 0l0 0c3.7832031 0 6.8500977 -9.323395 6.8500977 -20.824371c0 -11.500977 -3.0668945 -20.824371 -6.8500977 -20.824371z" fill-rule="evenodd"></path><path fill="#000000" fill-opacity="0.0" d="m524.5915 480.9408c3.7832031 0 6.8500977 -9.323395 6.8500977 -20.824371c0 -11.500977 -3.0668945 -20.824371 -6.8500977 -20.824371" fill-rule="evenodd"></path><path fill="#000000" fill-opacity="0.0" d="m551.99194 439.29205l-27.400452 0c-3.7832642 0 -6.8501587 9.323395 -6.8501587 20.824371c0 11.500977 3.0668945 20.824371 6.8501587 20.824371l27.400452 0l0 0c3.7832031 0 6.8500977 -9.323395 6.8500977 -20.824371c0 -11.500977 -3.0668945 -20.824371 -6.8500977 -20.824371z" fill-rule="evenodd"></path><path stroke="#000000" stroke-width="2.0" stroke-linejoin="round" stroke-linecap="butt" d="m524.5915 480.9408c3.7832031 0 6.8500977 -9.323395 6.8500977 -20.824371c0 -11.500977 -3.0668945 -20.824371 -6.8500977 -20.824371" fill-rule="evenodd"></path><path stroke="#000000" stroke-width="2.0" stroke-linejoin="round" stroke-linecap="butt" d="m551.99194 439.29205l-27.400452 0c-3.7832642 0 -6.8501587 9.323395 -6.8501587 20.824371c0 11.500977 3.0668945 20.824371 6.8501587 20.824371l27.400452 0l0 0c3.7832031 0 6.8500977 -9.323395 6.8500977 -20.824371c0 -11.500977 -3.0668945 -20.824371 -6.8500977 -20.824371z" fill-rule="evenodd"></path><path fill="#d9ead3" d="m516.7137 439.29205l-27.400452 0c-3.7832031 0 -6.8500977 9.323395 -6.8500977 20.824371c0 11.500977 3.0668945 20.824371 6.8500977 20.824371l27.400452 0l0 0c3.7832031 0 6.8500977 -9.323395 6.8500977 -20.824371c0 -11.500977 -3.0668945 -20.824371 -6.8500977 -20.824371z" fill-rule="evenodd"></path><path fill="#000000" fill-opacity="0.0" d="m489.31323 480.9408c3.7832336 0 6.850128 -9.323395 6.850128 -20.824371c0 -11.500977 -3.0668945 -20.824371 -6.850128 -20.824371" fill-rule="evenodd"></path><path fill="#000000" fill-opacity="0.0" d="m516.7137 439.29205l-27.400452 0c-3.7832031 0 -6.8500977 9.323395 -6.8500977 20.824371c0 11.500977 3.0668945 20.824371 6.8500977 20.824371l27.400452 0l0 0c3.7832031 0 6.8500977 -9.323395 6.8500977 -20.824371c0 -11.500977 -3.0668945 -20.824371 -6.8500977 -20.824371z" fill-rule="evenodd"></path><path stroke="#000000" stroke-width="2.0" stroke-linejoin="round" stroke-linecap="butt" d="m489.31323 480.9408c3.7832336 0 6.850128 -9.323395 6.850128 -20.824371c0 -11.500977 -3.0668945 -20.824371 -6.850128 -20.824371" fill-rule="evenodd"></path><path stroke="#000000" stroke-width="2.0" stroke-linejoin="round" stroke-linecap="butt" d="m516.7137 439.29205l-27.400452 0c-3.7832031 0 -6.8500977 9.323395 -6.8500977 20.824371c0 11.500977 3.0668945 20.824371 6.8500977 20.824371l27.400452 0l0 0c3.7832031 0 6.8500977 -9.323395 6.8500977 -20.824371c0 -11.500977 -3.0668945 -20.824371 -6.8500977 -20.824371z" fill-rule="evenodd"></path><path fill="#d9ead3" d="m479.9567 439.29205l-27.400452 0c-3.7832031 0 -6.8500977 9.323395 -6.8500977 20.824371c0 11.500977 3.0668945 20.824371 6.8500977 20.824371l27.400452 0l0 0c3.7832031 0 6.850128 -9.323395 6.850128 -20.824371c0 -11.500977 -3.066925 -20.824371 -6.850128 -20.824371z" fill-rule="evenodd"></path><path fill="#000000" fill-opacity="0.0" d="m452.55624 480.9408c3.7832336 0 6.850128 -9.323395 6.850128 -20.824371c0 -11.500977 -3.0668945 -20.824371 -6.850128 -20.824371" fill-rule="evenodd"></path><path fill="#000000" fill-opacity="0.0" d="m479.9567 439.29205l-27.400452 0c-3.7832031 0 -6.8500977 9.323395 -6.8500977 20.824371c0 11.500977 3.0668945 20.824371 6.8500977 20.824371l27.400452 0l0 0c3.7832031 0 6.850128 -9.323395 6.850128 -20.824371c0 -11.500977 -3.066925 -20.824371 -6.850128 -20.824371z" fill-rule="evenodd"></path><path stroke="#000000" stroke-width="2.0" stroke-linejoin="round" stroke-linecap="butt" d="m452.55624 480.9408c3.7832336 0 6.850128 -9.323395 6.850128 -20.824371c0 -11.500977 -3.0668945 -20.824371 -6.850128 -20.824371" fill-rule="evenodd"></path><path stroke="#000000" stroke-width="2.0" stroke-linejoin="round" stroke-linecap="butt" d="m479.9567 439.29205l-27.400452 0c-3.7832031 0 -6.8500977 9.323395 -6.8500977 20.824371c0 11.500977 3.0668945 20.824371 6.8500977 20.824371l27.400452 0l0 0c3.7832031 0 6.850128 -9.323395 6.850128 -20.824371c0 -11.500977 -3.066925 -20.824371 -6.850128 -20.824371z" fill-rule="evenodd"></path><path fill="#d9ead3" d="m711.3063 439.29205l-27.40039 0c-3.7832642 0 -6.8501587 9.323395 -6.8501587 20.824371c0 11.500977 3.0668945 20.824371 6.8501587 20.824371l27.40039 0l0 0c3.7832642 0 6.8501587 -9.323395 6.8501587 -20.824371c0 -11.500977 -3.0668945 -20.824371 -6.8501587 -20.824371z" fill-rule="evenodd"></path><path fill="#000000" fill-opacity="0.0" d="m683.9059 480.9408c3.7832031 0 6.8500977 -9.323395 6.8500977 -20.824371c0 -11.500977 -3.0668945 -20.824371 -6.8500977 -20.824371" fill-rule="evenodd"></path><path fill="#000000" fill-opacity="0.0" d="m711.3063 439.29205l-27.40039 0c-3.7832642 0 -6.8501587 9.323395 -6.8501587 20.824371c0 11.500977 3.0668945 20.824371 6.8501587 20.824371l27.40039 0l0 0c3.7832642 0 6.8501587 -9.323395 6.8501587 -20.824371c0 -11.500977 -3.0668945 -20.824371 -6.8501587 -20.824371z" fill-rule="evenodd"></path><path stroke="#000000" stroke-width="2.0" stroke-linejoin="round" stroke-linecap="butt" stroke-dasharray="2.0,6.0" d="m683.9059 480.9408c3.7832031 0 6.8500977 -9.323395 6.8500977 -20.824371c0 -11.500977 -3.0668945 -20.824371 -6.8500977 -20.824371" fill-rule="evenodd"></path><path stroke="#000000" stroke-width="2.0" stroke-linejoin="round" stroke-linecap="butt" stroke-dasharray="2.0,6.0" d="m711.3063 439.29205l-27.40039 0c-3.7832642 0 -6.8501587 9.323395 -6.8501587 20.824371c0 11.500977 3.0668945 20.824371 6.8501587 20.824371l27.40039 0l0 0c3.7832642 0 6.8501587 -9.323395 6.8501587 -20.824371c0 -11.500977 -3.0668945 -20.824371 -6.8501587 -20.824371z" fill-rule="evenodd"></path><path fill="#000000" fill-opacity="0.0" d="m315.0656 358.6719l88.31497 0" fill-rule="evenodd"></path><path stroke="#000000" stroke-width="2.0" stroke-linejoin="round" stroke-linecap="butt" d="m315.0656 358.6719l76.31497 0" fill-rule="evenodd"></path><path fill="#000000" stroke="#000000" stroke-width="2.0" stroke-linecap="butt" d="m391.38058 361.97537l9.076202 -3.3034668l-9.076202 -3.3034668z" fill-rule="evenodd"></path><path fill="#000000" fill-opacity="0.0" d="m781.31494 358.6719l88.315 0" fill-rule="evenodd"></path><path stroke="#000000" stroke-width="2.0" stroke-linejoin="round" stroke-linecap="butt" d="m781.31494 358.6719l76.315 0" fill-rule="evenodd"></path><path fill="#000000" stroke="#000000" stroke-width="2.0" stroke-linecap="butt" d="m857.62994 361.97537l9.076172 -3.3034668l-9.076172 -3.3034668z" fill-rule="evenodd"></path></g></svg>

