<?xml version="1.0" encoding="UTF-8" standalone="no"?>
<!DOCTYPE svg PUBLIC "-//W3C//DTD SVG 1.1//EN"
 "http://www.w3.org/Graphics/SVG/1.1/DTD/svg11.dtd">
<!-- Generated by graphviz version 2.38.0 (20140413.2041)
 -->
<!-- Title: g Pages: 1 -->
<svg width="312pt" height="88pt"
 viewBox="0.00 0.00 312.00 88.00" xmlns="http://www.w3.org/2000/svg" xmlns:xlink="http://www.w3.org/1999/xlink">
<g id="graph0" class="graph" transform="scale(1 1) rotate(0) translate(4 84)">
<title>g</title>
<polygon fill="white" stroke="none" points="-4,4 -4,-84 308,-84 308,4 -4,4"/>
<!-- users -->
<g id="node1" class="node"><title>users</title>
<polygon fill="none" stroke="black" points="8,-52 8,-76 296,-76 296,-52 8,-52"/>
<text text-anchor="start" x="134.5" y="-61.2" font-family="Times,serif" font-weight="bold" font-size="16.00">users</text>
<polygon fill="none" stroke="black" points="8,-28 8,-52 39,-52 39,-28 8,-28"/>
<text text-anchor="start" x="17" y="-36.2" font-family="Times,serif" font-size="16.00">id</text>
<polygon fill="none" stroke="black" points="39,-28 39,-52 80,-52 80,-28 39,-28"/>
<text text-anchor="start" x="46.5" y="-36.2" font-family="Times,serif" font-size="16.00">first</text>
<polygon fill="none" stroke="black" points="80,-28 80,-52 126,-52 126,-28 80,-28"/>
<text text-anchor="start" x="92" y="-36.2" font-family="Times,serif" font-size="16.00">last</text>
<polygon fill="none" stroke="black" points="126,-28 126,-52 217,-52 217,-28 126,-28"/>
<text text-anchor="start" x="129" y="-36.2" font-family="Times,serif" font-size="16.00">street address</text>
<polygon fill="none" stroke="black" points="217,-28 217,-52 296,-52 296,-28 217,-28"/>
<text text-anchor="start" x="220" y="-36.2" font-family="Times,serif" font-size="16.00">postal code</text>
<polygon fill="none" stroke="black" points="8,-4 8,-28 39,-28 39,-4 8,-4"/>
<text text-anchor="start" x="11" y="-12.2" font-family="Times,serif" font-size="16.00">002</text>
<polygon fill="none" stroke="black" points="39,-4 39,-28 80,-28 80,-4 39,-4"/>
<text text-anchor="start" x="42" y="-12.2" font-family="Times,serif" font-size="16.00">Mary</text>
<polygon fill="none" stroke="black" points="80,-4 80,-28 126,-28 126,-4 80,-4"/>
<text text-anchor="start" x="83" y="-12.2" font-family="Times,serif" font-size="16.00">Koker</text>
<polygon fill="none" stroke="black" points="126,-4 126,-28 217,-28 217,-4 126,-4"/>
<text text-anchor="start" x="131.5" y="-12.2" font-family="Times,serif" font-size="16.00">123 Park Ln</text>
<polygon fill="none" stroke="black" points="217,-4 217,-28 296,-28 296,-4 217,-4"/>
<text text-anchor="start" x="235.5" y="-12.2" font-family="Times,serif" font-size="16.00">12345</text>
</g>
</g>
</svg>
