<?xml version="1.0" encoding="UTF-8" standalone="no"?>
<!DOCTYPE svg PUBLIC "-//W3C//DTD SVG 1.1//EN"
 "http://www.w3.org/Graphics/SVG/1.1/DTD/svg11.dtd">
<!-- Generated by graphviz version 2.38.0 (20140413.2041)
 -->
<!-- Title: g Pages: 1 -->
<svg width="563pt" height="88pt"
 viewBox="0.00 0.00 563.00 88.00" xmlns="http://www.w3.org/2000/svg" xmlns:xlink="http://www.w3.org/1999/xlink">
<g id="graph0" class="graph" transform="scale(1 1) rotate(0) translate(4 84)">
<title>g</title>
<polygon fill="white" stroke="none" points="-4,4 -4,-84 559,-84 559,4 -4,4"/>
<!-- user_purchases -->
<g id="node1" class="node"><title>user_purchases</title>
<polygon fill="none" stroke="black" points="8.5,-52 8.5,-76 547.5,-76 547.5,-52 8.5,-52"/>
<text text-anchor="start" x="225.5" y="-61.2" font-family="Times,serif" font-weight="bold" font-size="16.00">user_purchases</text>
<polygon fill="none" stroke="black" points="8.5,-28 8.5,-52 49.5,-52 49.5,-28 8.5,-28"/>
<text text-anchor="start" x="16" y="-36.2" font-family="Times,serif" font-size="16.00">first</text>
<polygon fill="none" stroke="black" points="49.5,-28 49.5,-52 95.5,-52 95.5,-28 49.5,-28"/>
<text text-anchor="start" x="61.5" y="-36.2" font-family="Times,serif" font-size="16.00">last</text>
<polygon fill="none" stroke="black" points="95.5,-28 95.5,-52 181.5,-52 181.5,-28 95.5,-28"/>
<text text-anchor="start" x="114.5" y="-36.2" font-family="Times,serif" font-size="16.00">address</text>
<polygon fill="none" stroke="black" points="181.5,-28 181.5,-52 264.5,-52 264.5,-28 181.5,-28"/>
<text text-anchor="start" x="184.5" y="-36.2" font-family="Times,serif" font-size="16.00">postal_code</text>
<polygon fill="none" stroke="black" points="264.5,-28 264.5,-52 378.5,-52 378.5,-28 264.5,-28"/>
<text text-anchor="start" x="278.5" y="-36.2" font-family="Times,serif" font-size="16.00">product_desc</text>
<polygon fill="none" stroke="black" points="378.5,-28 378.5,-52 444.5,-52 444.5,-28 378.5,-28"/>
<text text-anchor="start" x="381.5" y="-36.2" font-family="Times,serif" font-size="16.00">list_price</text>
<polygon fill="none" stroke="black" points="444.5,-28 444.5,-52 547.5,-52 547.5,-28 444.5,-28"/>
<text text-anchor="start" x="447.5" y="-36.2" font-family="Times,serif" font-size="16.00">purchase_price</text>
<polygon fill="none" stroke="black" points="8.5,-4 8.5,-28 49.5,-28 49.5,-4 8.5,-4"/>
<text text-anchor="start" x="11.5" y="-12.2" font-family="Times,serif" font-size="16.00">Mary</text>
<polygon fill="none" stroke="black" points="49.5,-4 49.5,-28 95.5,-28 95.5,-4 49.5,-4"/>
<text text-anchor="start" x="52.5" y="-12.2" font-family="Times,serif" font-size="16.00">Koker</text>
<polygon fill="none" stroke="black" points="95.5,-4 95.5,-28 181.5,-28 181.5,-4 95.5,-4"/>
<text text-anchor="start" x="98.5" y="-12.2" font-family="Times,serif" font-size="16.00">123 Park Ln</text>
<polygon fill="none" stroke="black" points="181.5,-4 181.5,-28 264.5,-28 264.5,-4 181.5,-4"/>
<text text-anchor="start" x="202" y="-12.2" font-family="Times,serif" font-size="16.00">12345</text>
<polygon fill="none" stroke="black" points="264.5,-4 264.5,-28 378.5,-28 378.5,-4 264.5,-4"/>
<text text-anchor="start" x="267.5" y="-12.2" font-family="Times,serif" font-size="16.00">Cherry Red Bike</text>
<polygon fill="none" stroke="black" points="378.5,-4 378.5,-28 444.5,-28 444.5,-4 378.5,-4"/>
<text text-anchor="start" x="384.5" y="-12.2" font-family="Times,serif" font-size="16.00">$123.45</text>
<polygon fill="none" stroke="black" points="444.5,-4 444.5,-28 547.5,-28 547.5,-4 444.5,-4"/>
<text text-anchor="start" x="469" y="-12.2" font-family="Times,serif" font-size="16.00">$104.95</text>
</g>
</g>
</svg>
