<?xml version="1.0" encoding="UTF-8" standalone="no"?>
<!DOCTYPE svg PUBLIC "-//W3C//DTD SVG 1.1//EN"
 "http://www.w3.org/Graphics/SVG/1.1/DTD/svg11.dtd">
<!-- Generated by graphviz version 2.38.0 (20140413.2041)
 -->
<!-- Title: g Pages: 1 -->
<svg width="580pt" height="204pt"
 viewBox="0.00 0.00 579.50 204.00" xmlns="http://www.w3.org/2000/svg" xmlns:xlink="http://www.w3.org/1999/xlink">
<g id="graph0" class="graph" transform="scale(1 1) rotate(0) translate(4 200)">
<title>g</title>
<polygon fill="white" stroke="none" points="-4,4 -4,-200 575.5,-200 575.5,4 -4,4"/>
<!-- users -->
<g id="node1" class="node"><title>users</title>
<polygon fill="none" stroke="black" points="372,-168 372,-192 490,-192 490,-168 372,-168"/>
<text text-anchor="start" x="413.5" y="-177.2" font-family="Times,serif" font-weight="bold" font-size="16.00">users</text>
<polygon fill="none" stroke="black" points="372,-144 372,-168 403,-168 403,-144 372,-144"/>
<text text-anchor="start" x="381" y="-152.2" font-family="Times,serif" font-size="16.00">id</text>
<polygon fill="none" stroke="black" points="403,-144 403,-168 444,-168 444,-144 403,-144"/>
<text text-anchor="start" x="410.5" y="-152.2" font-family="Times,serif" font-size="16.00">first</text>
<polygon fill="none" stroke="black" points="444,-144 444,-168 490,-168 490,-144 444,-144"/>
<text text-anchor="start" x="456" y="-152.2" font-family="Times,serif" font-size="16.00">last</text>
<polygon fill="none" stroke="black" points="372,-120 372,-144 403,-144 403,-120 372,-120"/>
<text text-anchor="start" x="375" y="-128.2" font-family="Times,serif" font-size="16.00">002</text>
<polygon fill="none" stroke="black" points="403,-120 403,-144 444,-144 444,-120 403,-120"/>
<text text-anchor="start" x="406" y="-128.2" font-family="Times,serif" font-size="16.00">Mary</text>
<polygon fill="none" stroke="black" points="444,-120 444,-144 490,-144 490,-120 444,-120"/>
<text text-anchor="start" x="447" y="-128.2" font-family="Times,serif" font-size="16.00">Koker</text>
</g>
<!-- purchases -->
<g id="node3" class="node"><title>purchases</title>
<polygon fill="none" stroke="black" points="8,-52 8,-76 282,-76 282,-52 8,-52"/>
<text text-anchor="start" x="111" y="-61.2" font-family="Times,serif" font-weight="bold" font-size="16.00">purchases</text>
<polygon fill="none" stroke="black" points="8,-28 8,-52 48,-52 48,-28 8,-28"/>
<text text-anchor="start" x="21.5" y="-36.2" font-family="Times,serif" font-size="16.00">id</text>
<polygon fill="none" stroke="black" points="48,-28 48,-52 102,-52 102,-28 48,-28"/>
<text text-anchor="start" x="51" y="-36.2" font-family="Times,serif" font-size="16.00">user_id</text>
<polygon fill="none" stroke="black" points="102,-28 102,-52 179,-52 179,-28 102,-28"/>
<text text-anchor="start" x="105" y="-36.2" font-family="Times,serif" font-size="16.00">product_id</text>
<polygon fill="none" stroke="black" points="179,-28 179,-52 282,-52 282,-28 179,-28"/>
<text text-anchor="start" x="182" y="-36.2" font-family="Times,serif" font-size="16.00">purchase_price</text>
<polygon fill="none" stroke="black" points="8,-4 8,-28 48,-28 48,-4 8,-4"/>
<text text-anchor="start" x="11" y="-12.2" font-family="Times,serif" font-size="16.00">5534</text>
<polygon fill="none" stroke="black" points="48,-4 48,-28 102,-28 102,-4 48,-4"/>
<text text-anchor="start" x="62.5" y="-12.2" font-family="Times,serif" font-size="16.00">002</text>
<polygon fill="none" stroke="black" points="102,-4 102,-28 179,-28 179,-4 102,-4"/>
<text text-anchor="start" x="128" y="-12.2" font-family="Times,serif" font-size="16.00">124</text>
<polygon fill="none" stroke="black" points="179,-4 179,-28 282,-28 282,-4 179,-4"/>
<text text-anchor="start" x="203.5" y="-12.2" font-family="Times,serif" font-size="16.00">$104.95</text>
</g>
<!-- users&#45;&gt;purchases -->
<g id="edge1" class="edge"><title>users:f0&#45;&gt;purchases</title>
<path fill="none" stroke="black" d="M371,-156C350.036,-156 362.24,-129.258 346,-116 330.89,-103.664 313.55,-93.2366 295.525,-84.4529"/>
<polygon fill="black" stroke="black" points="296.585,-81.0843 286.045,-80.0081 293.614,-87.4223 296.585,-81.0843"/>
</g>
<!-- addresses -->
<g id="node4" class="node"><title>addresses</title>
<polygon fill="none" stroke="black" points="317,-52 317,-76 564,-76 564,-52 317,-52"/>
<text text-anchor="start" x="408" y="-61.2" font-family="Times,serif" font-weight="bold" font-size="16.00">addresses</text>
<polygon fill="none" stroke="black" points="317,-28 317,-52 340,-52 340,-28 317,-28"/>
<text text-anchor="start" x="322" y="-36.2" font-family="Times,serif" font-size="16.00">id</text>
<polygon fill="none" stroke="black" points="340,-28 340,-52 431,-52 431,-28 340,-28"/>
<text text-anchor="start" x="343" y="-36.2" font-family="Times,serif" font-size="16.00">street address</text>
<polygon fill="none" stroke="black" points="431,-28 431,-52 510,-52 510,-28 431,-28"/>
<text text-anchor="start" x="434" y="-36.2" font-family="Times,serif" font-size="16.00">postal code</text>
<polygon fill="none" stroke="black" points="510,-28 510,-52 564,-52 564,-28 510,-28"/>
<text text-anchor="start" x="513" y="-36.2" font-family="Times,serif" font-size="16.00">user_id</text>
<polygon fill="none" stroke="black" points="317,-4 317,-28 340,-28 340,-4 317,-4"/>
<text text-anchor="start" x="320" y="-12.2" font-family="Times,serif" font-size="16.00">27</text>
<polygon fill="none" stroke="black" points="340,-4 340,-28 431,-28 431,-4 340,-4"/>
<text text-anchor="start" x="345.5" y="-12.2" font-family="Times,serif" font-size="16.00">123 Park Ln</text>
<polygon fill="none" stroke="black" points="431,-4 431,-28 510,-28 510,-4 431,-4"/>
<text text-anchor="start" x="449.5" y="-12.2" font-family="Times,serif" font-size="16.00">12345</text>
<polygon fill="none" stroke="black" points="510,-4 510,-28 564,-28 564,-4 510,-4"/>
<text text-anchor="start" x="524.5" y="-12.2" font-family="Times,serif" font-size="16.00">002</text>
</g>
<!-- users&#45;&gt;addresses -->
<g id="edge3" class="edge"><title>users&#45;&gt;addresses</title>
<path fill="none" stroke="black" d="M434.097,-115.768C434.741,-107.617 435.427,-98.9283 436.095,-90.4649"/>
<polygon fill="black" stroke="black" points="439.599,-90.5491 436.897,-80.3046 432.621,-89.9981 439.599,-90.5491"/>
</g>
<!-- products -->
<g id="node2" class="node"><title>products</title>
<polygon fill="none" stroke="black" points="125,-168 125,-192 330,-192 330,-168 125,-168"/>
<text text-anchor="start" x="197" y="-177.2" font-family="Times,serif" font-weight="bold" font-size="16.00">products</text>
<polygon fill="none" stroke="black" points="125,-144 125,-168 156,-168 156,-144 125,-144"/>
<text text-anchor="start" x="134" y="-152.2" font-family="Times,serif" font-size="16.00">id</text>
<polygon fill="none" stroke="black" points="156,-144 156,-168 270,-168 270,-144 156,-144"/>
<text text-anchor="start" x="177" y="-152.2" font-family="Times,serif" font-size="16.00">description</text>
<polygon fill="none" stroke="black" points="270,-144 270,-168 330,-168 330,-144 270,-144"/>
<text text-anchor="start" x="284" y="-152.2" font-family="Times,serif" font-size="16.00">price</text>
<polygon fill="none" stroke="black" points="125,-120 125,-144 156,-144 156,-120 125,-120"/>
<text text-anchor="start" x="128" y="-128.2" font-family="Times,serif" font-size="16.00">124</text>
<polygon fill="none" stroke="black" points="156,-120 156,-144 270,-144 270,-120 156,-120"/>
<text text-anchor="start" x="159" y="-128.2" font-family="Times,serif" font-size="16.00">Cherry Red Bike</text>
<polygon fill="none" stroke="black" points="270,-120 270,-144 330,-144 330,-120 270,-120"/>
<text text-anchor="start" x="273" y="-128.2" font-family="Times,serif" font-size="16.00">$123.45</text>
</g>
<!-- products&#45;&gt;purchases -->
<g id="edge2" class="edge"><title>products:f0&#45;&gt;purchases:f2</title>
<path fill="none" stroke="black" d="M124,-156C86.1856,-156 112.383,-94.2475 129.083,-61.2455"/>
<polygon fill="black" stroke="black" points="132.369,-62.5132 133.88,-52.0267 126.159,-59.2822 132.369,-62.5132"/>
</g>
</g>
</svg>
