<?xml version="1.0" encoding="UTF-8" standalone="no"?>
<!DOCTYPE svg PUBLIC "-//W3C//DTD SVG 1.1//EN"
 "http://www.w3.org/Graphics/SVG/1.1/DTD/svg11.dtd">
<!-- Generated by graphviz version 2.38.0 (20140413.2041)
 -->
<!-- Title: g Pages: 1 -->
<svg width="274pt" height="204pt"
 viewBox="0.00 0.00 274.00 204.00" xmlns="http://www.w3.org/2000/svg" xmlns:xlink="http://www.w3.org/1999/xlink">
<g id="graph0" class="graph" transform="scale(1 1) rotate(0) translate(4 200)">
<title>g</title>
<polygon fill="white" stroke="none" points="-4,4 -4,-200 270,-200 270,4 -4,4"/>
<!-- users -->
<g id="node1" class="node"><title>users</title>
<polygon fill="none" stroke="black" points="74,-168 74,-192 192,-192 192,-168 74,-168"/>
<text text-anchor="start" x="115.5" y="-177.2" font-family="Times,serif" font-weight="bold" font-size="16.00">users</text>
<polygon fill="none" stroke="black" points="74,-144 74,-168 105,-168 105,-144 74,-144"/>
<text text-anchor="start" x="83" y="-152.2" font-family="Times,serif" font-size="16.00">id</text>
<polygon fill="none" stroke="black" points="105,-144 105,-168 146,-168 146,-144 105,-144"/>
<text text-anchor="start" x="112.5" y="-152.2" font-family="Times,serif" font-size="16.00">first</text>
<polygon fill="none" stroke="black" points="146,-144 146,-168 192,-168 192,-144 146,-144"/>
<text text-anchor="start" x="158" y="-152.2" font-family="Times,serif" font-size="16.00">last</text>
<polygon fill="none" stroke="black" points="74,-120 74,-144 105,-144 105,-120 74,-120"/>
<text text-anchor="start" x="77" y="-128.2" font-family="Times,serif" font-size="16.00">002</text>
<polygon fill="none" stroke="black" points="105,-120 105,-144 146,-144 146,-120 105,-120"/>
<text text-anchor="start" x="108" y="-128.2" font-family="Times,serif" font-size="16.00">Mary</text>
<polygon fill="none" stroke="black" points="146,-120 146,-144 192,-144 192,-120 146,-120"/>
<text text-anchor="start" x="149" y="-128.2" font-family="Times,serif" font-size="16.00">Koker</text>
</g>
<!-- addresses -->
<g id="node2" class="node"><title>addresses</title>
<polygon fill="none" stroke="black" points="8,-52 8,-76 258,-76 258,-52 8,-52"/>
<text text-anchor="start" x="100.5" y="-61.2" font-family="Times,serif" font-weight="bold" font-size="16.00">addresses</text>
<polygon fill="none" stroke="black" points="8,-28 8,-52 31,-52 31,-28 8,-28"/>
<text text-anchor="start" x="13" y="-36.2" font-family="Times,serif" font-size="16.00">id</text>
<polygon fill="none" stroke="black" points="31,-28 31,-52 122,-52 122,-28 31,-28"/>
<text text-anchor="start" x="34" y="-36.2" font-family="Times,serif" font-size="16.00">street address</text>
<polygon fill="none" stroke="black" points="122,-28 122,-52 201,-52 201,-28 122,-28"/>
<text text-anchor="start" x="125" y="-36.2" font-family="Times,serif" font-size="16.00">postal code</text>
<polygon fill="none" stroke="black" points="201,-28 201,-52 258,-52 258,-28 201,-28"/>
<text text-anchor="start" x="204" y="-37.2" font-family="Times,serif" font-weight="bold" font-size="16.00">user_id</text>
<polygon fill="none" stroke="black" points="8,-4 8,-28 31,-28 31,-4 8,-4"/>
<text text-anchor="start" x="11" y="-12.2" font-family="Times,serif" font-size="16.00">27</text>
<polygon fill="none" stroke="black" points="31,-4 31,-28 122,-28 122,-4 31,-4"/>
<text text-anchor="start" x="36.5" y="-12.2" font-family="Times,serif" font-size="16.00">123 Park Ln</text>
<polygon fill="none" stroke="black" points="122,-4 122,-28 201,-28 201,-4 122,-4"/>
<text text-anchor="start" x="140.5" y="-12.2" font-family="Times,serif" font-size="16.00">12345</text>
<polygon fill="none" stroke="black" points="201,-4 201,-28 258,-28 258,-4 201,-4"/>
<text text-anchor="start" x="217" y="-12.2" font-family="Times,serif" font-size="16.00">002</text>
</g>
<!-- users&#45;&gt;addresses -->
<g id="1" class="edge"><title>users&#45;&gt;addresses</title>
<path fill="none" stroke="black" d="M133,-115.768C133,-107.617 133,-98.9283 133,-90.4649"/>
<polygon fill="black" stroke="black" points="136.5,-90.3046 133,-80.3046 129.5,-90.3047 136.5,-90.3046"/>
</g>
</g>
</svg>
