<?xml version="1.0" encoding="UTF-8" standalone="no"?>
<!DOCTYPE svg PUBLIC "-//W3C//DTD SVG 1.1//EN"
 "http://www.w3.org/Graphics/SVG/1.1/DTD/svg11.dtd">
<!-- Generated by graphviz version 2.38.0 (20140413.2041)
 -->
<!-- Title: g Pages: 1 -->
<svg width="391pt" height="204pt"
 viewBox="0.00 0.00 390.63 204.00" xmlns="http://www.w3.org/2000/svg" xmlns:xlink="http://www.w3.org/1999/xlink">
<g id="graph0" class="graph" transform="scale(1 1) rotate(0) translate(4 200)">
<title>g</title>
<polygon fill="white" stroke="none" points="-4,4 -4,-200 386.631,-200 386.631,4 -4,4"/>
<!-- users -->
<g id="node1" class="node"><title>users</title>
<polygon fill="none" stroke="black" points="17.1311,-168 17.1311,-192 135.131,-192 135.131,-168 17.1311,-168"/>
<text text-anchor="start" x="58.6311" y="-177.2" font-family="Times,serif" font-weight="bold" font-size="16.00">users</text>
<polygon fill="none" stroke="black" points="17.1311,-144 17.1311,-168 48.1311,-168 48.1311,-144 17.1311,-144"/>
<text text-anchor="start" x="26.1311" y="-152.2" font-family="Times,serif" font-size="16.00">id</text>
<polygon fill="none" stroke="black" points="48.1311,-144 48.1311,-168 89.1311,-168 89.1311,-144 48.1311,-144"/>
<text text-anchor="start" x="55.6311" y="-152.2" font-family="Times,serif" font-size="16.00">first</text>
<polygon fill="none" stroke="black" points="89.1311,-144 89.1311,-168 135.131,-168 135.131,-144 89.1311,-144"/>
<text text-anchor="start" x="101.131" y="-152.2" font-family="Times,serif" font-size="16.00">last</text>
<polygon fill="none" stroke="black" points="17.1311,-120 17.1311,-144 48.1311,-144 48.1311,-120 17.1311,-120"/>
<text text-anchor="start" x="20.1311" y="-128.2" font-family="Times,serif" font-size="16.00">002</text>
<polygon fill="none" stroke="black" points="48.1311,-120 48.1311,-144 89.1311,-144 89.1311,-120 48.1311,-120"/>
<text text-anchor="start" x="51.1311" y="-128.2" font-family="Times,serif" font-size="16.00">Mary</text>
<polygon fill="none" stroke="black" points="89.1311,-120 89.1311,-144 135.131,-144 135.131,-120 89.1311,-120"/>
<text text-anchor="start" x="92.1311" y="-128.2" font-family="Times,serif" font-size="16.00">Koker</text>
</g>
<!-- user_products -->
<g id="node3" class="node"><title>user_products</title>
<polygon fill="none" stroke="black" points="17.1311,-52 17.1311,-76 179.131,-76 179.131,-52 17.1311,-52"/>
<text text-anchor="start" x="49.6311" y="-61.2" font-family="Times,serif" font-weight="bold" font-size="16.00">user_products</text>
<polygon fill="none" stroke="black" points="17.1311,-28 17.1311,-52 48.1311,-52 48.1311,-28 17.1311,-28"/>
<text text-anchor="start" x="26.1311" y="-36.2" font-family="Times,serif" font-size="16.00">id</text>
<polygon fill="none" stroke="black" points="48.1311,-28 48.1311,-52 102.131,-52 102.131,-28 48.1311,-28"/>
<text text-anchor="start" x="51.1311" y="-36.2" font-family="Times,serif" font-size="16.00">user_id</text>
<polygon fill="none" stroke="black" points="102.131,-28 102.131,-52 179.131,-52 179.131,-28 102.131,-28"/>
<text text-anchor="start" x="105.131" y="-36.2" font-family="Times,serif" font-size="16.00">product_id</text>
<polygon fill="none" stroke="black" points="17.1311,-4 17.1311,-28 48.1311,-28 48.1311,-4 17.1311,-4"/>
<text text-anchor="start" x="20.1311" y="-12.2" font-family="Times,serif" font-size="16.00">001</text>
<polygon fill="none" stroke="black" points="48.1311,-4 48.1311,-28 102.131,-28 102.131,-4 48.1311,-4"/>
<text text-anchor="start" x="62.6311" y="-12.2" font-family="Times,serif" font-size="16.00">002</text>
<polygon fill="none" stroke="black" points="102.131,-4 102.131,-28 179.131,-28 179.131,-4 102.131,-4"/>
<text text-anchor="start" x="128.131" y="-12.2" font-family="Times,serif" font-size="16.00">124</text>
</g>
<!-- users&#45;&gt;user_products -->
<g id="edge1" class="edge"><title>users:f0&#45;&gt;user_products:f1</title>
<path fill="none" stroke="black" d="M16.1311,-156C-26.6899,-156 27.1122,-92.0997 57.281,-59.5646"/>
<polygon fill="black" stroke="black" points="60.0683,-61.7096 64.3687,-52.0267 54.9686,-56.9144 60.0683,-61.7096"/>
</g>
<!-- products -->
<g id="node2" class="node"><title>products</title>
<polygon fill="none" stroke="black" points="170.131,-168 170.131,-192 375.131,-192 375.131,-168 170.131,-168"/>
<text text-anchor="start" x="242.131" y="-177.2" font-family="Times,serif" font-weight="bold" font-size="16.00">products</text>
<polygon fill="none" stroke="black" points="170.131,-144 170.131,-168 201.131,-168 201.131,-144 170.131,-144"/>
<text text-anchor="start" x="179.131" y="-152.2" font-family="Times,serif" font-size="16.00">id</text>
<polygon fill="none" stroke="black" points="201.131,-144 201.131,-168 315.131,-168 315.131,-144 201.131,-144"/>
<text text-anchor="start" x="222.131" y="-152.2" font-family="Times,serif" font-size="16.00">description</text>
<polygon fill="none" stroke="black" points="315.131,-144 315.131,-168 375.131,-168 375.131,-144 315.131,-144"/>
<text text-anchor="start" x="329.131" y="-152.2" font-family="Times,serif" font-size="16.00">price</text>
<polygon fill="none" stroke="black" points="170.131,-120 170.131,-144 201.131,-144 201.131,-120 170.131,-120"/>
<text text-anchor="start" x="173.131" y="-128.2" font-family="Times,serif" font-size="16.00">123</text>
<polygon fill="none" stroke="black" points="201.131,-120 201.131,-144 315.131,-144 315.131,-120 201.131,-120"/>
<text text-anchor="start" x="204.131" y="-128.2" font-family="Times,serif" font-size="16.00">Cherry Red Bike</text>
<polygon fill="none" stroke="black" points="315.131,-120 315.131,-144 375.131,-144 375.131,-120 315.131,-120"/>
<text text-anchor="start" x="318.131" y="-128.2" font-family="Times,serif" font-size="16.00">$123.45</text>
</g>
<!-- products&#45;&gt;user_products -->
<g id="edge2" class="edge"><title>products:f0&#45;&gt;user_products:f2</title>
<path fill="none" stroke="black" d="M169.131,-156C121.795,-156 213.454,-59.0808 190.008,-42.4228"/>
<polygon fill="black" stroke="black" points="190.677,-38.9833 180.131,-40 189.009,-45.7817 190.677,-38.9833"/>
</g>
</g>
</svg>
