<?xml version="1.0" encoding="UTF-8" standalone="no"?>
<!DOCTYPE svg PUBLIC "-//W3C//DTD SVG 1.1//EN"
 "http://www.w3.org/Graphics/SVG/1.1/DTD/svg11.dtd">
<!-- Generated by graphviz version 2.38.0 (20140413.2041)
 -->
<!-- Title: g Pages: 1 -->
<svg width="376pt" height="112pt"
 viewBox="0.00 0.00 376.00 112.00" xmlns="http://www.w3.org/2000/svg" xmlns:xlink="http://www.w3.org/1999/xlink">
<g id="graph0" class="graph" transform="scale(1 1) rotate(0) translate(4 108)">
<title>g</title>
<polygon fill="white" stroke="none" points="-4,4 -4,-108 372,-108 372,4 -4,4"/>
<!-- users -->
<g id="node1" class="node"><title>users</title>
<polygon fill="none" stroke="black" points="8,-76 8,-100 360,-100 360,-76 8,-76"/>
<text text-anchor="start" x="166.5" y="-85.2" font-family="Times,serif" font-weight="bold" font-size="16.00">users</text>
<polygon fill="none" stroke="black" points="8,-52 8,-76 39,-76 39,-52 8,-52"/>
<text text-anchor="start" x="17" y="-60.2" font-family="Times,serif" font-size="16.00">id</text>
<polygon fill="none" stroke="black" points="39,-52 39,-76 96,-76 96,-52 39,-52"/>
<text text-anchor="start" x="54.5" y="-60.2" font-family="Times,serif" font-size="16.00">first</text>
<polygon fill="none" stroke="black" points="96,-52 96,-76 175,-76 175,-52 96,-52"/>
<text text-anchor="start" x="124.5" y="-60.2" font-family="Times,serif" font-size="16.00">last</text>
<polygon fill="none" stroke="black" points="175,-52 175,-76 281,-76 281,-52 175,-52"/>
<text text-anchor="start" x="185.5" y="-60.2" font-family="Times,serif" font-size="16.00">street address</text>
<polygon fill="none" stroke="black" points="281,-52 281,-76 360,-76 360,-52 281,-52"/>
<text text-anchor="start" x="284" y="-60.2" font-family="Times,serif" font-size="16.00">postal code</text>
<polygon fill="none" stroke="black" points="8,-28 8,-52 39,-52 39,-28 8,-28"/>
<text text-anchor="start" x="11" y="-36.2" font-family="Times,serif" font-size="16.00">001</text>
<polygon fill="none" stroke="black" points="39,-28 39,-52 96,-52 96,-28 39,-28"/>
<text text-anchor="start" x="42" y="-36.2" font-family="Times,serif" font-size="16.00">Richard</text>
<polygon fill="none" stroke="black" points="96,-28 96,-52 175,-52 175,-28 96,-28"/>
<text text-anchor="start" x="99" y="-36.2" font-family="Times,serif" font-size="16.00">Wellington</text>
<polygon fill="none" stroke="black" points="175,-28 175,-52 281,-52 281,-28 175,-28"/>
<text text-anchor="start" x="178" y="-36.2" font-family="Times,serif" font-size="16.00">111 Holborn St</text>
<polygon fill="none" stroke="black" points="281,-28 281,-52 360,-52 360,-28 281,-28"/>
<text text-anchor="start" x="299.5" y="-36.2" font-family="Times,serif" font-size="16.00">55555</text>
<polygon fill="none" stroke="black" points="8,-4 8,-28 39,-28 39,-4 8,-4"/>
<text text-anchor="start" x="11" y="-12.2" font-family="Times,serif" font-size="16.00">002</text>
<polygon fill="none" stroke="black" points="39,-4 39,-28 96,-28 96,-4 39,-4"/>
<text text-anchor="start" x="50" y="-12.2" font-family="Times,serif" font-size="16.00">Mary</text>
<polygon fill="none" stroke="black" points="96,-4 96,-28 175,-28 175,-4 96,-4"/>
<text text-anchor="start" x="115.5" y="-12.2" font-family="Times,serif" font-size="16.00">Koker</text>
<polygon fill="none" stroke="black" points="175,-4 175,-28 281,-28 281,-4 175,-4"/>
<text text-anchor="start" x="188" y="-12.2" font-family="Times,serif" font-size="16.00">123 Park Ln</text>
<polygon fill="none" stroke="black" points="281,-4 281,-28 360,-28 360,-4 281,-4"/>
<text text-anchor="start" x="299.5" y="-12.2" font-family="Times,serif" font-size="16.00">12345</text>
</g>
</g>
</svg>
