<?xml version="1.0" encoding="UTF-8" standalone="no"?>
<!DOCTYPE svg PUBLIC "-//W3C//DTD SVG 1.1//EN"
 "http://www.w3.org/Graphics/SVG/1.1/DTD/svg11.dtd">
<!-- Generated by graphviz version 2.38.0 (20140413.2041)
 -->
<!-- Title: g Pages: 1 -->
<svg width="402pt" height="204pt"
 viewBox="0.00 0.00 402.40 204.00" xmlns="http://www.w3.org/2000/svg" xmlns:xlink="http://www.w3.org/1999/xlink">
<g id="graph0" class="graph" transform="scale(1 1) rotate(0) translate(4 200)">
<title>g</title>
<polygon fill="white" stroke="none" points="-4,4 -4,-200 398.402,-200 398.402,4 -4,4"/>
<!-- users -->
<g id="node1" class="node"><title>users</title>
<polygon fill="none" stroke="black" points="28.9024,-168 28.9024,-192 146.902,-192 146.902,-168 28.9024,-168"/>
<text text-anchor="start" x="70.4024" y="-177.2" font-family="Times,serif" font-weight="bold" font-size="16.00">users</text>
<polygon fill="none" stroke="black" points="28.9024,-144 28.9024,-168 59.9024,-168 59.9024,-144 28.9024,-144"/>
<text text-anchor="start" x="37.9024" y="-152.2" font-family="Times,serif" font-size="16.00">id</text>
<polygon fill="none" stroke="black" points="59.9024,-144 59.9024,-168 100.902,-168 100.902,-144 59.9024,-144"/>
<text text-anchor="start" x="67.4024" y="-152.2" font-family="Times,serif" font-size="16.00">first</text>
<polygon fill="none" stroke="black" points="100.902,-144 100.902,-168 146.902,-168 146.902,-144 100.902,-144"/>
<text text-anchor="start" x="112.902" y="-152.2" font-family="Times,serif" font-size="16.00">last</text>
<polygon fill="none" stroke="black" points="28.9024,-120 28.9024,-144 59.9024,-144 59.9024,-120 28.9024,-120"/>
<text text-anchor="start" x="31.9024" y="-128.2" font-family="Times,serif" font-size="16.00">002</text>
<polygon fill="none" stroke="black" points="59.9024,-120 59.9024,-144 100.902,-144 100.902,-120 59.9024,-120"/>
<text text-anchor="start" x="62.9024" y="-128.2" font-family="Times,serif" font-size="16.00">Mary</text>
<polygon fill="none" stroke="black" points="100.902,-120 100.902,-144 146.902,-144 146.902,-120 100.902,-120"/>
<text text-anchor="start" x="103.902" y="-128.2" font-family="Times,serif" font-size="16.00">Koker</text>
</g>
<!-- user_products -->
<g id="node3" class="node"><title>user_products</title>
<polygon fill="none" stroke="black" points="59.9024,-52 59.9024,-76 190.902,-76 190.902,-52 59.9024,-52"/>
<text text-anchor="start" x="76.9024" y="-61.2" font-family="Times,serif" font-weight="bold" font-size="16.00">user_products</text>
<polygon fill="none" stroke="black" points="59.9024,-28 59.9024,-52 113.902,-52 113.902,-28 59.9024,-28"/>
<text text-anchor="start" x="62.9024" y="-36.2" font-family="Times,serif" font-size="16.00">user_id</text>
<polygon fill="none" stroke="black" points="113.902,-28 113.902,-52 190.902,-52 190.902,-28 113.902,-28"/>
<text text-anchor="start" x="116.902" y="-36.2" font-family="Times,serif" font-size="16.00">product_id</text>
<polygon fill="none" stroke="black" points="59.9024,-4 59.9024,-28 113.902,-28 113.902,-4 59.9024,-4"/>
<text text-anchor="start" x="74.4024" y="-12.2" font-family="Times,serif" font-size="16.00">002</text>
<polygon fill="none" stroke="black" points="113.902,-4 113.902,-28 190.902,-28 190.902,-4 113.902,-4"/>
<text text-anchor="start" x="139.902" y="-12.2" font-family="Times,serif" font-size="16.00">124</text>
</g>
<!-- users&#45;&gt;user_products -->
<g id="edge1" class="edge"><title>users:f0&#45;&gt;user_products:f0</title>
<path fill="none" stroke="black" d="M27.9024,-156C-22.0229,-156 1.89196,-54.4712 48.8791,-41.3835"/>
<polygon fill="black" stroke="black" points="49.4749,-44.8346 58.9024,-40 48.5177,-37.9003 49.4749,-44.8346"/>
</g>
<!-- products -->
<g id="node2" class="node"><title>products</title>
<polygon fill="none" stroke="black" points="181.902,-168 181.902,-192 386.902,-192 386.902,-168 181.902,-168"/>
<text text-anchor="start" x="253.902" y="-177.2" font-family="Times,serif" font-weight="bold" font-size="16.00">products</text>
<polygon fill="none" stroke="black" points="181.902,-144 181.902,-168 212.902,-168 212.902,-144 181.902,-144"/>
<text text-anchor="start" x="190.902" y="-152.2" font-family="Times,serif" font-size="16.00">id</text>
<polygon fill="none" stroke="black" points="212.902,-144 212.902,-168 326.902,-168 326.902,-144 212.902,-144"/>
<text text-anchor="start" x="233.902" y="-152.2" font-family="Times,serif" font-size="16.00">description</text>
<polygon fill="none" stroke="black" points="326.902,-144 326.902,-168 386.902,-168 386.902,-144 326.902,-144"/>
<text text-anchor="start" x="340.902" y="-152.2" font-family="Times,serif" font-size="16.00">price</text>
<polygon fill="none" stroke="black" points="181.902,-120 181.902,-144 212.902,-144 212.902,-120 181.902,-120"/>
<text text-anchor="start" x="184.902" y="-128.2" font-family="Times,serif" font-size="16.00">123</text>
<polygon fill="none" stroke="black" points="212.902,-120 212.902,-144 326.902,-144 326.902,-120 212.902,-120"/>
<text text-anchor="start" x="215.902" y="-128.2" font-family="Times,serif" font-size="16.00">Cherry Red Bike</text>
<polygon fill="none" stroke="black" points="326.902,-120 326.902,-144 386.902,-144 386.902,-120 326.902,-120"/>
<text text-anchor="start" x="329.902" y="-128.2" font-family="Times,serif" font-size="16.00">$123.45</text>
</g>
<!-- products&#45;&gt;user_products -->
<g id="edge2" class="edge"><title>products:f0&#45;&gt;user_products:f1</title>
<path fill="none" stroke="black" d="M180.902,-156C171.349,-156 160.899,-95.3076 155.897,-62.1053"/>
<polygon fill="black" stroke="black" points="159.333,-61.4129 154.418,-52.0267 152.407,-62.4288 159.333,-61.4129"/>
</g>
</g>
</svg>
