<?xml version="1.0" encoding="UTF-8" standalone="no"?>
<!DOCTYPE svg PUBLIC "-//W3C//DTD SVG 1.1//EN"
 "http://www.w3.org/Graphics/SVG/1.1/DTD/svg11.dtd">
<!-- Generated by graphviz version 2.38.0 (20140413.2041)
 -->
<!-- Title: g Pages: 1 -->
<svg width="282pt" height="228pt"
 viewBox="0.00 0.00 282.00 228.00" xmlns="http://www.w3.org/2000/svg" xmlns:xlink="http://www.w3.org/1999/xlink">
<g id="graph0" class="graph" transform="scale(1 1) rotate(0) translate(4 224)">
<title>g</title>
<polygon fill="white" stroke="none" points="-4,4 -4,-224 278,-224 278,4 -4,4"/>
<!-- users -->
<g id="node1" class="node"><title>users</title>
<polygon fill="none" stroke="black" points="78,-192 78,-216 196,-216 196,-192 78,-192"/>
<text text-anchor="start" x="119.5" y="-201.2" font-family="Times,serif" font-weight="bold" font-size="16.00">users</text>
<polygon fill="none" stroke="black" points="78,-168 78,-192 109,-192 109,-168 78,-168"/>
<text text-anchor="start" x="87" y="-176.2" font-family="Times,serif" font-size="16.00">id</text>
<polygon fill="none" stroke="black" points="109,-168 109,-192 150,-192 150,-168 109,-168"/>
<text text-anchor="start" x="116.5" y="-176.2" font-family="Times,serif" font-size="16.00">first</text>
<polygon fill="none" stroke="black" points="150,-168 150,-192 196,-192 196,-168 150,-168"/>
<text text-anchor="start" x="162" y="-176.2" font-family="Times,serif" font-size="16.00">last</text>
<polygon fill="none" stroke="black" points="78,-144 78,-168 109,-168 109,-144 78,-144"/>
<text text-anchor="start" x="81" y="-152.2" font-family="Times,serif" font-size="16.00">002</text>
<polygon fill="none" stroke="black" points="109,-144 109,-168 150,-168 150,-144 109,-144"/>
<text text-anchor="start" x="112" y="-152.2" font-family="Times,serif" font-size="16.00">Mary</text>
<polygon fill="none" stroke="black" points="150,-144 150,-168 196,-168 196,-144 150,-144"/>
<text text-anchor="start" x="153" y="-152.2" font-family="Times,serif" font-size="16.00">Koker</text>
</g>
<!-- addresses -->
<g id="node2" class="node"><title>addresses</title>
<polygon fill="none" stroke="black" points="8,-76 8,-100 266,-100 266,-76 8,-76"/>
<text text-anchor="start" x="104.5" y="-85.2" font-family="Times,serif" font-weight="bold" font-size="16.00">addresses</text>
<polygon fill="none" stroke="black" points="8,-52 8,-76 39,-76 39,-52 8,-52"/>
<text text-anchor="start" x="17" y="-60.2" font-family="Times,serif" font-size="16.00">id</text>
<polygon fill="none" stroke="black" points="39,-52 39,-76 130,-76 130,-52 39,-52"/>
<text text-anchor="start" x="42" y="-60.2" font-family="Times,serif" font-size="16.00">street address</text>
<polygon fill="none" stroke="black" points="130,-52 130,-76 209,-76 209,-52 130,-52"/>
<text text-anchor="start" x="133" y="-60.2" font-family="Times,serif" font-size="16.00">postal code</text>
<polygon fill="none" stroke="black" points="209,-52 209,-76 266,-76 266,-52 209,-52"/>
<text text-anchor="start" x="212" y="-61.2" font-family="Times,serif" font-weight="bold" font-size="16.00">user_id</text>
<polygon fill="none" stroke="black" points="8,-28 8,-52 39,-52 39,-28 8,-28"/>
<text text-anchor="start" x="15" y="-36.2" font-family="Times,serif" font-size="16.00">27</text>
<polygon fill="none" stroke="black" points="39,-28 39,-52 130,-52 130,-28 39,-28"/>
<text text-anchor="start" x="44.5" y="-36.2" font-family="Times,serif" font-size="16.00">123 Park Ln</text>
<polygon fill="none" stroke="black" points="130,-28 130,-52 209,-52 209,-28 130,-28"/>
<text text-anchor="start" x="148.5" y="-36.2" font-family="Times,serif" font-size="16.00">12345</text>
<polygon fill="none" stroke="black" points="209,-28 209,-52 266,-52 266,-28 209,-28"/>
<text text-anchor="start" x="225" y="-36.2" font-family="Times,serif" font-size="16.00">002</text>
<polygon fill="none" stroke="black" points="8,-4 8,-28 39,-28 39,-4 8,-4"/>
<text text-anchor="start" x="11" y="-12.2" font-family="Times,serif" font-size="16.00">324</text>
<polygon fill="none" stroke="black" points="39,-4 39,-28 130,-28 130,-4 39,-4"/>
<text text-anchor="start" x="46.5" y="-12.2" font-family="Times,serif" font-size="16.00">456 Bike St</text>
<polygon fill="none" stroke="black" points="130,-4 130,-28 209,-28 209,-4 130,-4"/>
<text text-anchor="start" x="148.5" y="-12.2" font-family="Times,serif" font-size="16.00">56789</text>
<polygon fill="none" stroke="black" points="209,-4 209,-28 266,-28 266,-4 209,-4"/>
<text text-anchor="start" x="225" y="-12.2" font-family="Times,serif" font-size="16.00">002</text>
</g>
<!-- users&#45;&gt;addresses -->
<g id="0" class="edge"><title>users&#45;&gt;addresses</title>
<path fill="none" stroke="black" d="M137,-139.823C137,-131.723 137,-123.007 137,-114.333"/>
<polygon fill="black" stroke="black" points="140.5,-114.209 137,-104.209 133.5,-114.209 140.5,-114.209"/>
</g>
</g>
</svg>
