<?xml version="1.0" encoding="UTF-8" standalone="no"?>
<!DOCTYPE svg PUBLIC "-//W3C//DTD SVG 1.1//EN"
 "http://www.w3.org/Graphics/SVG/1.1/DTD/svg11.dtd">
<!-- Generated by graphviz version 2.38.0 (20140413.2041)
 -->
<!-- Title: g Pages: 1 -->
<svg width="391pt" height="204pt"
 viewBox="0.00 0.00 390.59 204.00" xmlns="http://www.w3.org/2000/svg" xmlns:xlink="http://www.w3.org/1999/xlink">
<g id="graph0" class="graph" transform="scale(1 1) rotate(0) translate(4 200)">
<title>g</title>
<polygon fill="white" stroke="none" points="-4,4 -4,-200 386.594,-200 386.594,4 -4,4"/>
<!-- users -->
<g id="node1" class="node"><title>users</title>
<polygon fill="none" stroke="black" points="17.094,-168 17.094,-192 135.094,-192 135.094,-168 17.094,-168"/>
<text text-anchor="start" x="58.594" y="-177.2" font-family="Times,serif" font-weight="bold" font-size="16.00">users</text>
<polygon fill="none" stroke="black" points="17.094,-144 17.094,-168 48.094,-168 48.094,-144 17.094,-144"/>
<text text-anchor="start" x="26.094" y="-152.2" font-family="Times,serif" font-size="16.00">id</text>
<polygon fill="none" stroke="black" points="48.094,-144 48.094,-168 89.094,-168 89.094,-144 48.094,-144"/>
<text text-anchor="start" x="55.594" y="-152.2" font-family="Times,serif" font-size="16.00">first</text>
<polygon fill="none" stroke="black" points="89.094,-144 89.094,-168 135.094,-168 135.094,-144 89.094,-144"/>
<text text-anchor="start" x="101.094" y="-152.2" font-family="Times,serif" font-size="16.00">last</text>
<polygon fill="none" stroke="black" points="17.094,-120 17.094,-144 48.094,-144 48.094,-120 17.094,-120"/>
<text text-anchor="start" x="20.094" y="-128.2" font-family="Times,serif" font-size="16.00">002</text>
<polygon fill="none" stroke="black" points="48.094,-120 48.094,-144 89.094,-144 89.094,-120 48.094,-120"/>
<text text-anchor="start" x="51.094" y="-128.2" font-family="Times,serif" font-size="16.00">Mary</text>
<polygon fill="none" stroke="black" points="89.094,-120 89.094,-144 135.094,-144 135.094,-120 89.094,-120"/>
<text text-anchor="start" x="92.094" y="-128.2" font-family="Times,serif" font-size="16.00">Koker</text>
</g>
<!-- user_products -->
<g id="node3" class="node"><title>user_products</title>
<polygon fill="none" stroke="black" points="9.094,-52 9.094,-76 283.094,-76 283.094,-52 9.094,-52"/>
<text text-anchor="start" x="97.594" y="-61.2" font-family="Times,serif" font-weight="bold" font-size="16.00">user_products</text>
<polygon fill="none" stroke="black" points="9.094,-28 9.094,-52 49.094,-52 49.094,-28 9.094,-28"/>
<text text-anchor="start" x="22.594" y="-36.2" font-family="Times,serif" font-size="16.00">id</text>
<polygon fill="none" stroke="black" points="49.094,-28 49.094,-52 103.094,-52 103.094,-28 49.094,-28"/>
<text text-anchor="start" x="52.094" y="-36.2" font-family="Times,serif" font-size="16.00">user_id</text>
<polygon fill="none" stroke="black" points="103.094,-28 103.094,-52 180.094,-52 180.094,-28 103.094,-28"/>
<text text-anchor="start" x="106.094" y="-36.2" font-family="Times,serif" font-size="16.00">product_id</text>
<polygon fill="none" stroke="black" points="180.094,-28 180.094,-52 283.094,-52 283.094,-28 180.094,-28"/>
<text text-anchor="start" x="183.094" y="-36.2" font-family="Times,serif" font-size="16.00">purchase_price</text>
<polygon fill="none" stroke="black" points="9.094,-4 9.094,-28 49.094,-28 49.094,-4 9.094,-4"/>
<text text-anchor="start" x="12.094" y="-12.2" font-family="Times,serif" font-size="16.00">5534</text>
<polygon fill="none" stroke="black" points="49.094,-4 49.094,-28 103.094,-28 103.094,-4 49.094,-4"/>
<text text-anchor="start" x="63.594" y="-12.2" font-family="Times,serif" font-size="16.00">002</text>
<polygon fill="none" stroke="black" points="103.094,-4 103.094,-28 180.094,-28 180.094,-4 103.094,-4"/>
<text text-anchor="start" x="129.094" y="-12.2" font-family="Times,serif" font-size="16.00">124</text>
<polygon fill="none" stroke="black" points="180.094,-4 180.094,-28 283.094,-28 283.094,-4 180.094,-4"/>
<text text-anchor="start" x="204.594" y="-12.2" font-family="Times,serif" font-size="16.00">$104.95</text>
</g>
<!-- users&#45;&gt;user_products -->
<g id="edge1" class="edge"><title>users:f0&#45;&gt;user_products:f1</title>
<path fill="none" stroke="black" d="M16.094,-156C-26.8792,-156 27.5532,-92.0997 58.0529,-59.5646"/>
<polygon fill="black" stroke="black" points="60.8651,-61.6862 65.2175,-52.0267 55.7913,-56.8637 60.8651,-61.6862"/>
</g>
<!-- products -->
<g id="node2" class="node"><title>products</title>
<polygon fill="none" stroke="black" points="170.094,-168 170.094,-192 375.094,-192 375.094,-168 170.094,-168"/>
<text text-anchor="start" x="242.094" y="-177.2" font-family="Times,serif" font-weight="bold" font-size="16.00">products</text>
<polygon fill="none" stroke="black" points="170.094,-144 170.094,-168 201.094,-168 201.094,-144 170.094,-144"/>
<text text-anchor="start" x="179.094" y="-152.2" font-family="Times,serif" font-size="16.00">id</text>
<polygon fill="none" stroke="black" points="201.094,-144 201.094,-168 315.094,-168 315.094,-144 201.094,-144"/>
<text text-anchor="start" x="222.094" y="-152.2" font-family="Times,serif" font-size="16.00">description</text>
<polygon fill="none" stroke="black" points="315.094,-144 315.094,-168 375.094,-168 375.094,-144 315.094,-144"/>
<text text-anchor="start" x="329.094" y="-152.2" font-family="Times,serif" font-size="16.00">price</text>
<polygon fill="none" stroke="black" points="170.094,-120 170.094,-144 201.094,-144 201.094,-120 170.094,-120"/>
<text text-anchor="start" x="173.094" y="-128.2" font-family="Times,serif" font-size="16.00">124</text>
<polygon fill="none" stroke="black" points="201.094,-120 201.094,-144 315.094,-144 315.094,-120 201.094,-120"/>
<text text-anchor="start" x="204.094" y="-128.2" font-family="Times,serif" font-size="16.00">Cherry Red Bike</text>
<polygon fill="none" stroke="black" points="315.094,-120 315.094,-144 375.094,-144 375.094,-120 315.094,-120"/>
<text text-anchor="start" x="318.094" y="-128.2" font-family="Times,serif" font-size="16.00">$123.45</text>
</g>
<!-- products&#45;&gt;user_products -->
<g id="edge2" class="edge"><title>products:f0&#45;&gt;user_products:f2</title>
<path fill="none" stroke="black" d="M169.094,-156C159.54,-156 149.09,-95.3076 144.088,-62.1053"/>
<polygon fill="black" stroke="black" points="147.524,-61.4129 142.61,-52.0267 140.598,-62.4288 147.524,-61.4129"/>
</g>
</g>
</svg>
